o convex_0
v -14.695407 -32.924278 26.082759
v 5.381318 35.608994 26.082759
v 12.239175 33.642562 26.082759
v -35.247983 7.210385 -0.358621
v 34.758136 -9.431326 -0.358621
v 5.381318 35.608994 -0.358621
v 34.268289 -10.897464 26.082759
v 6.361012 -35.377107 -0.358621
v -30.356512 19.446732 26.082759
v 30.349514 19.446732 -0.358621
v -29.859667 -20.194586 -0.358621
v -34.758136 -9.431326 26.082759
v 15.668103 -32.430933 26.082759
v -15.178256 32.662820 -0.358621
v 33.778442 12.109092 26.082759
v 26.920586 -23.620207 -0.358621
v -14.695407 -32.924278 -0.358621
v -15.178256 32.662820 26.082759
v -24.968196 25.811578 -0.358621
v 23.001811 27.771061 26.082759
v -26.927584 -23.620207 26.082759
v 16.157950 32.176424 -0.358621
v -6.361012 -35.377107 26.082759
v 35.744828 1.832229 -0.358621
v 29.866665 -20.194586 26.082759
v -34.758136 8.683471 26.082759
v -34.758136 -9.431326 0.133143
v -5.388316 35.608994 26.082759
v 15.668103 -32.430933 -0.358621
v 35.744828 -2.086738 26.082759
v -22.511964 -28.025570 -0.358621
v 6.361012 -35.377107 26.082759
v -30.356512 19.446732 -0.358621
v -23.008808 27.771061 26.082759
v 22.518961 -28.025570 26.082759
v -5.388316 35.608994 -0.358621
v -6.361012 -35.377107 -0.358621
v -35.744828 -3.552876 26.082759
v 30.349514 19.446732 26.082759
v 23.001811 27.771061 -0.358621
v 34.758136 9.169868 -0.358621
v 35.744828 3.784763 26.082759
v 29.866665 -20.194586 -0.358621
v -29.859667 -20.194586 26.082759
v -35.744828 -2.086738 -0.358621
v -22.511964 -28.025570 26.082759
v 22.518961 -28.025570 -0.358621
v -33.778442 12.109092 -0.358621
v -35.744828 1.818331 26.082759
v 15.178256 32.662820 26.082759
v -23.008808 27.771061 -0.358621
v -32.308902 -15.302827 -0.358621
v -33.778442 12.109092 26.082759
v 24.968196 25.811578 -0.358621
v 35.744828 -2.086738 -0.358621
v 32.308902 -15.302827 -0.358621
v 14.688409 -32.924278 -0.358621
v 33.778442 12.109092 -0.358621
v 12.239175 33.642562 -0.358621
v -34.268289 -10.897464 26.082759
v 35.247983 7.210385 26.082759
v 28.397124 21.892611 26.082759
v 35.247983 -6.985446 6.497606
v -28.390126 21.892611 26.082759
v -26.927584 -23.620207 -0.358621
v 26.920586 -23.620207 25.101819
v -16.157950 32.176424 26.082759
v -35.744828 1.818331 -0.358621
v -15.675101 -32.430933 -0.358621
v -12.239175 33.642562 26.082759
v 14.688409 -32.924278 26.082759
v 34.758136 -9.431326 20.197119
v -32.308902 -15.302827 26.082759
v 32.308902 -15.302827 26.082759
v -34.758136 9.169868 21.183235
v 24.968196 25.811578 26.082759
v 31.329208 17.494197 26.082759
v -24.968196 25.811578 26.082759
v -15.675101 -32.430933 26.082759
v -12.239175 33.642562 -0.358621
v -34.268289 -10.897464 -0.358621
v -31.329208 17.494197 26.082759
v -35.247983 -6.985446 13.840421
v -16.157950 32.176424 3.078552
v 35.247983 7.210385 14.818772
f 61 42 85 
f 3 2 1 
f 2 3 6 
f 5 4 6 
f 3 1 7 
f 4 5 8 
f 1 2 9 
f 5 6 10 
f 4 8 11 
f 1 9 12 
f 7 1 13 
f 6 4 14 
f 3 7 15 
f 8 5 16 
f 11 8 17 
f 9 2 18 
f 14 4 19 
f 3 15 20 
f 1 12 21 
f 10 6 22 
f 13 1 23 
f 1 17 23 
f 5 10 24 
f 7 13 25 
f 12 9 26 
f 2 6 28 
f 18 2 28 
f 8 16 29 
f 15 7 30 
f 11 17 31 
f 13 23 32 
f 23 8 32 
f 19 4 33 
f 9 18 34 
f 25 13 35 
f 13 29 35 
f 6 14 36 
f 28 6 36 
f 17 8 37 
f 8 23 37 
f 23 17 37 
f 12 26 38 
f 20 15 39 
f 10 22 40 
f 22 20 40 
f 24 10 41 
f 15 30 42 
f 30 24 42 
f 16 5 43 
f 25 16 43 
f 21 12 44 
f 11 21 44 
f 4 11 45 
f 1 21 46 
f 21 31 46 
f 29 16 47 
f 16 35 47 
f 35 29 47 
f 33 4 48 
f 38 26 49 
f 45 38 49 
f 3 20 50 
f 20 22 50 
f 14 19 51 
f 19 34 51 
f 11 44 52 
f 45 11 52 
f 26 9 53 
f 10 40 54 
f 40 20 54 
f 5 24 55 
f 24 30 55 
f 5 7 56 
f 43 5 56 
f 25 43 56 
f 8 29 57 
f 29 13 57 
f 32 8 57 
f 41 10 58 
f 15 41 58 
f 6 3 59 
f 22 6 59 
f 3 50 59 
f 50 22 59 
f 12 27 60 
f 44 12 60 
f 41 15 61 
f 15 42 61 
f 39 10 62 
f 20 39 62 
f 10 54 62 
f 5 55 63 
f 55 30 63 
f 19 33 64 
f 33 9 64 
f 9 34 64 
f 21 11 65 
f 11 31 65 
f 31 21 65 
f 16 25 66 
f 25 35 66 
f 35 16 66 
f 18 14 67 
f 34 18 67 
f 51 34 67 
f 4 45 68 
f 49 4 68 
f 45 49 68 
f 17 1 69 
f 31 17 69 
f 14 18 70 
f 18 28 70 
f 28 36 70 
f 13 32 71 
f 57 13 71 
f 32 57 71 
f 7 5 72 
f 30 7 72 
f 5 63 72 
f 63 30 72 
f 52 44 73 
f 44 60 73 
f 60 52 73 
f 7 25 74 
f 56 7 74 
f 25 56 74 
f 48 4 75 
f 4 49 75 
f 49 26 75 
f 26 53 75 
f 53 48 75 
f 54 20 76 
f 20 62 76 
f 62 54 76 
f 10 39 77 
f 39 15 77 
f 58 10 77 
f 15 58 77 
f 34 19 78 
f 19 64 78 
f 64 34 78 
f 1 46 79 
f 46 31 79 
f 69 1 79 
f 31 69 79 
f 36 14 80 
f 14 70 80 
f 70 36 80 
f 27 45 81 
f 45 52 81 
f 60 27 81 
f 52 60 81 
f 9 33 82 
f 33 48 82 
f 53 9 82 
f 48 53 82 
f 27 12 83 
f 12 38 83 
f 45 27 83 
f 38 45 83 
f 14 51 84 
f 67 14 84 
f 51 67 84 
f 24 41 85 
f 42 24 85 
f 41 61 85 
o convex_1
v -29.868966 -19.225436 -0.358621
v -35.744828 -2.088272 -5.744828
v -35.744828 -2.088272 -0.358621
v -30.848468 2.319392 -0.358621
v -29.868966 -9.920837 -5.744828
v -32.317433 -15.307044 -5.744828
v -31.827970 2.319392 -5.744828
v -35.744828 2.319392 -0.358621
v -34.275862 -10.899381 -0.358621
v -29.868966 -19.225436 -5.744828
v -35.744828 2.319392 -5.744828
v -34.765326 -8.942294 -5.744828
v -29.868966 -7.965859 -0.358621
v -30.848468 2.319392 -4.765230
v -30.359004 -19.225436 -0.358621
f 91 95 100 
f 88 86 89 
f 87 90 91 
f 90 87 92 
f 87 88 93 
f 88 89 93 
f 89 92 93 
f 86 88 94 
f 90 86 95 
f 91 90 95 
f 92 87 96 
f 87 93 96 
f 93 92 96 
f 88 87 97 
f 87 91 97 
f 94 88 97 
f 91 94 97 
f 89 86 98 
f 86 90 98 
f 98 90 99 
f 92 89 99 
f 90 92 99 
f 89 98 99 
f 86 94 100 
f 94 91 100 
f 95 86 100 
o convex_2
v -24.970641 -2.577160 41.259241
v -25.460344 -15.308194 26.085922
v -26.929453 -14.818443 26.085922
v -25.460344 -15.308194 42.241379
v -17.628832 -8.455418 26.085922
v -29.867672 -6.005417 26.085922
v -18.118535 -11.879937 42.241379
v -30.358621 -9.919687 42.241379
v -19.587645 -4.046413 26.085922
v -18.118535 -6.005417 42.241379
v -19.587645 -13.838941 26.085922
v -24.970641 -2.577160 27.064897
v -28.398562 -4.046413 42.241379
v -29.867672 -11.879937 26.085922
v -22.525863 -15.308194 42.241379
v -28.888265 -13.349190 42.241379
v -21.056754 -3.066911 40.770545
v -28.398562 -4.046413 26.085922
v -29.867672 -6.005417 42.241379
v -22.525863 -15.308194 26.085922
v -18.118535 -11.879937 26.085922
v -30.358621 -7.965667 26.085922
v -19.587645 -13.838941 42.241379
v -17.628832 -9.919687 42.241379
v -23.015566 -2.577160 27.064897
v -19.587645 -4.046413 42.241379
v -18.118535 -6.005417 26.085922
v -27.908859 -14.328692 26.085922
v -27.908859 -14.328692 42.241379
v -26.439750 -3.066911 26.085922
f 125 109 130 
f 103 102 104 
f 102 103 105 
f 105 103 106 
f 104 107 108 
f 105 106 109 
f 108 107 110 
f 102 105 111 
f 108 110 113 
f 106 103 114 
f 104 102 115 
f 107 104 115 
f 104 108 116 
f 108 114 116 
f 109 106 118 
f 106 113 118 
f 113 106 119 
f 108 113 119 
f 102 111 120 
f 115 102 120 
f 111 115 120 
f 111 105 121 
f 107 111 121 
f 106 114 122 
f 114 108 122 
f 119 106 122 
f 108 119 122 
f 111 107 123 
f 107 115 123 
f 115 111 123 
f 105 110 124 
f 110 107 124 
f 121 105 124 
f 107 121 124 
f 112 101 125 
f 101 117 125 
f 117 109 125 
f 110 109 126 
f 101 113 126 
f 113 110 126 
f 117 101 126 
f 109 117 126 
f 105 109 127 
f 110 105 127 
f 109 110 127 
f 114 103 128 
f 116 114 128 
f 116 128 129 
f 103 104 129 
f 104 116 129 
f 128 103 129 
f 101 112 130 
f 113 101 130 
f 109 118 130 
f 118 113 130 
f 112 125 130 
o convex_3
v -26.440996 -10.900483 42.242673
v -21.055172 -8.453070 54.970353
v -21.055172 -9.431613 54.970353
v -26.931034 -8.453070 54.970353
v -22.524138 -6.494401 42.242673
v -21.545211 -10.900483 42.242673
v -24.972030 -11.880608 54.970353
v -26.440996 -7.473999 42.242673
v -25.462069 -6.494401 54.970353
v -22.524138 -6.494401 54.970353
v -22.034674 -11.390809 54.970353
v -23.014177 -11.880608 42.242673
v -21.055172 -8.453070 42.242673
v -26.440996 -10.900483 54.970353
v -25.462069 -6.494401 42.242673
v -26.931034 -9.431613 42.242673
v -24.972030 -11.880608 42.242673
v -22.524138 -10.900483 55.462069
f 144 137 148 
f 131 135 136 
f 135 131 138 
f 138 134 139 
f 132 135 140 
f 135 139 140 
f 136 133 141 
f 141 137 142 
f 131 136 142 
f 136 141 142 
f 132 133 143 
f 135 132 143 
f 136 135 143 
f 133 136 143 
f 131 137 144 
f 135 138 145 
f 139 135 145 
f 138 139 145 
f 138 131 146 
f 134 138 146 
f 131 144 146 
f 144 134 146 
f 137 131 147 
f 142 137 147 
f 131 142 147 
f 133 132 148 
f 139 134 148 
f 132 140 148 
f 140 139 148 
f 141 133 148 
f 137 141 148 
f 134 144 148 
o convex_4
v -29.867672 6.238455 26.085922
v -17.628832 9.661871 42.241379
v -18.118535 12.112304 42.241379
v -30.358621 8.197603 42.241379
v -25.950047 15.050426 26.085922
v -20.077348 3.789220 26.085922
v -25.950047 2.809047 42.241379
v -18.118535 11.622217 26.085922
v -25.950047 15.050426 42.241379
v -29.867672 12.112304 26.085922
v -20.077348 3.789220 42.241379
v -21.546457 15.050426 26.085922
v -25.950047 2.809047 26.085922
v -18.118535 6.238455 26.085922
v -29.867672 12.112304 42.241379
v -21.546457 15.050426 42.241379
v -29.377968 5.259480 42.241379
v -22.036160 2.809047 42.241379
v -18.118535 6.238455 42.241379
v -27.419156 14.560340 42.241379
v -27.908859 3.789220 26.085922
v -22.036160 2.809047 26.085922
v -30.358621 9.661871 26.085922
v -17.628832 8.197603 26.085922
v -20.567051 14.560340 26.085922
v -27.419156 14.560340 26.085922
v -27.908859 3.789220 42.241379
f 165 169 175 
f 150 151 152 
f 149 153 154 
f 150 152 155 
f 151 150 156 
f 154 153 156 
f 152 151 157 
f 153 149 158 
f 150 155 159 
f 156 153 160 
f 153 157 160 
f 149 154 161 
f 154 156 162 
f 159 154 162 
f 152 157 163 
f 157 151 164 
f 160 157 164 
f 152 149 165 
f 155 152 165 
f 159 155 166 
f 155 161 166 
f 150 159 167 
f 159 162 167 
f 157 153 168 
f 163 157 168 
f 158 163 168 
f 149 161 169 
f 161 155 169 
f 165 149 169 
f 154 159 170 
f 161 154 170 
f 159 166 170 
f 166 161 170 
f 149 152 171 
f 158 149 171 
f 152 163 171 
f 163 158 171 
f 156 150 172 
f 162 156 172 
f 150 167 172 
f 167 162 172 
f 151 156 173 
f 156 160 173 
f 164 151 173 
f 160 164 173 
f 153 158 174 
f 168 153 174 
f 158 168 174 
f 155 165 175 
f 169 155 175 
o convex_5
v -26.931034 8.685628 42.242673
v -21.055172 9.663644 54.970353
v -21.055172 8.685628 54.970353
v -26.931034 9.663644 54.970353
v -22.524138 11.622840 42.242673
v -23.014177 6.236633 42.242673
v -24.972030 6.236633 54.970353
v -25.462069 11.622840 54.970353
v -21.055172 8.685628 42.242673
v -25.462069 11.622840 42.242673
v -22.034674 6.726432 54.970353
v -25.951532 6.726432 42.242673
v -22.524138 11.622840 54.970353
v -26.440996 7.216231 54.970353
v -21.545211 7.216231 42.242673
v -22.524138 11.133041 55.462069
v -26.440996 10.643242 42.242673
v -21.545211 10.643242 42.242673
f 180 188 193 
f 176 180 181 
f 177 178 184 
f 181 180 184 
f 180 176 185 
f 183 180 185 
f 182 181 186 
f 176 181 187 
f 181 182 187 
f 180 183 188 
f 179 176 189 
f 176 187 189 
f 187 182 189 
f 184 178 190 
f 181 184 190 
f 178 186 190 
f 186 181 190 
f 178 177 191 
f 183 179 191 
f 186 178 191 
f 182 186 191 
f 177 188 191 
f 188 183 191 
f 179 189 191 
f 189 182 191 
f 176 179 192 
f 179 183 192 
f 185 176 192 
f 183 185 192 
f 177 184 193 
f 184 180 193 
f 188 177 193 
o convex_6
v 33.785632 12.113358 -5.744828
v 24.972414 18.474850 -5.254501
v 24.972414 18.474850 -0.358621
v 31.337164 0.363168 -5.254501
v 35.744828 0.363168 -0.358621
v 30.358621 19.454831 -0.358621
v 25.462740 24.841133 -5.744828
v 31.337164 0.363168 -0.358621
v 35.744828 0.363168 -5.744828
v 24.972414 24.841133 -0.358621
v 34.765230 8.687018 -0.358621
v 30.358621 19.454831 -5.744828
v 31.827490 0.363168 -5.744828
v 24.972414 19.454831 -5.744828
v 34.765230 8.687018 -5.744828
v 33.785632 12.113358 -0.358621
v 28.400479 21.903586 -0.358621
f 205 200 210 
f 196 195 197 
f 196 198 199 
f 196 197 201 
f 197 198 201 
f 198 196 201 
f 198 197 202 
f 200 194 202 
f 195 196 203 
f 196 199 203 
f 199 198 204 
f 198 202 204 
f 199 194 205 
f 194 200 205 
f 202 197 206 
f 200 202 206 
f 197 195 207 
f 195 203 207 
f 203 200 207 
f 206 197 207 
f 200 206 207 
f 202 194 208 
f 194 204 208 
f 204 202 208 
f 194 199 209 
f 199 204 209 
f 204 194 209 
f 203 199 210 
f 200 203 210 
f 199 205 210 
o convex_7
v -21.055172 -23.140089 -4.765230
v -29.868966 -20.203021 -5.744828
v -29.868966 -20.203021 -0.358621
v -29.378927 -9.923282 -0.358621
v -29.868966 -10.413656 -5.254501
v -21.055172 -23.140089 -0.358621
v -26.930459 -23.140089 -5.744828
v -26.930459 -23.140089 -0.358621
v -22.035250 -22.651009 -5.744828
v -29.378927 -9.923282 -4.765230
v -21.055172 -22.651009 -4.765230
v -29.378927 -11.393110 -5.744828
v -29.868966 -9.923282 -0.358621
f 220 215 223 
f 212 213 215 
f 214 213 216 
f 213 212 217 
f 211 216 217 
f 217 216 218 
f 216 213 218 
f 213 217 218 
f 217 212 219 
f 211 217 219 
f 216 211 221 
f 214 216 221 
f 211 219 221 
f 220 214 221 
f 212 215 222 
f 219 212 222 
f 215 220 222 
f 221 219 222 
f 220 221 222 
f 213 214 223 
f 215 213 223 
f 214 220 223 
o convex_8
v 24.971168 -2.577160 41.259241
v 22.525384 -15.308194 26.085922
v 21.056418 -14.818443 26.085922
v 21.056418 -14.818443 42.241379
v 29.867719 -11.879937 42.241379
v 29.867719 -6.005417 26.085922
v 18.118488 -6.005417 26.085922
v 17.628832 -8.455418 42.241379
v 27.909099 -14.328692 26.085922
v 23.015039 -2.577160 27.064897
v 19.587453 -4.046413 42.241379
v 29.867719 -6.005417 42.241379
v 18.118488 -11.879937 26.085922
v 25.460823 -15.308194 42.241379
v 30.357375 -9.919687 26.085922
v 28.398754 -4.046413 26.085922
v 19.097798 -13.349190 42.241379
v 28.398754 -4.046413 42.241379
v 20.566763 -3.556662 26.085922
v 27.909099 -14.328692 42.241379
v 30.357375 -7.965667 42.241379
v 26.929788 -3.066911 27.553593
v 21.546074 -3.066911 42.241379
v 17.628832 -8.455418 26.085922
v 25.460823 -15.308194 26.085922
v 17.628832 -9.919687 42.241379
v 29.867719 -11.879937 26.085922
v 18.118488 -6.005417 42.241379
v 20.077108 -14.328692 26.085922
v 22.525384 -15.308194 42.241379
f 237 227 253 
f 226 225 227 
f 225 226 229 
f 229 226 230 
f 227 228 231 
f 225 229 232 
f 231 228 234 
f 234 228 235 
f 230 226 236 
f 228 227 237 
f 232 229 238 
f 229 230 239 
f 235 229 239 
f 227 231 240 
f 234 235 241 
f 235 239 241 
f 230 234 242 
f 239 230 242 
f 233 239 242 
f 232 228 243 
f 228 237 243 
f 237 232 243 
f 235 228 244 
f 229 235 244 
f 228 238 244 
f 238 229 244 
f 233 224 245 
f 239 233 245 
f 224 241 245 
f 241 239 245 
f 224 233 246 
f 241 224 246 
f 234 241 246 
f 242 234 246 
f 233 242 246 
f 231 230 247 
f 230 236 247 
f 225 232 248 
f 237 225 248 
f 232 237 248 
f 240 231 249 
f 236 240 249 
f 231 247 249 
f 247 236 249 
f 228 232 250 
f 238 228 250 
f 232 238 250 
f 230 231 251 
f 234 230 251 
f 231 234 251 
f 226 227 252 
f 236 226 252 
f 227 240 252 
f 240 236 252 
f 227 225 253 
f 225 237 253 
o convex_9
v 21.545211 -10.900483 42.242673
v 26.931034 -8.453070 54.970353
v 26.931034 -9.431613 54.970353
v 21.055172 -8.453070 54.970353
v 25.462069 -6.494401 42.242673
v 26.440996 -10.900483 42.242673
v 23.014177 -11.880608 54.970353
v 21.545211 -7.473999 42.242673
v 22.524138 -6.494401 54.970353
v 25.462069 -6.494401 54.970353
v 25.951532 -11.390809 54.970353
v 24.972030 -11.880608 42.242673
v 26.931034 -8.453070 42.242673
v 21.545211 -10.900483 54.970353
v 22.524138 -6.494401 42.242673
v 21.055172 -9.431613 42.242673
v 23.014177 -11.880608 42.242673
v 25.462069 -10.900483 55.462069
f 267 260 271 
f 254 258 259 
f 258 254 261 
f 261 257 262 
f 255 258 263 
f 258 262 263 
f 259 256 264 
f 264 260 265 
f 254 259 265 
f 259 264 265 
f 255 256 266 
f 258 255 266 
f 259 258 266 
f 256 259 266 
f 254 260 267 
f 258 261 268 
f 262 258 268 
f 261 262 268 
f 261 254 269 
f 257 261 269 
f 254 267 269 
f 267 257 269 
f 260 254 270 
f 265 260 270 
f 254 265 270 
f 256 255 271 
f 262 257 271 
f 255 263 271 
f 263 262 271 
f 264 256 271 
f 260 264 271 
f 257 267 271 
o convex_10
v 17.628832 8.197603 26.085922
v 30.357375 9.661871 42.241379
v 30.357375 8.197603 42.241379
v 17.628832 9.661871 42.241379
v 26.440133 15.050426 26.085922
v 25.950478 2.809047 26.085922
v 22.035729 2.809047 42.241379
v 22.035729 15.050426 42.241379
v 30.357375 8.197603 26.085922
v 20.566763 14.560340 26.085922
v 27.909099 3.789220 42.241379
v 20.077108 3.789220 26.085922
v 27.419444 14.560340 42.241379
v 29.867719 12.112304 26.085922
v 18.608143 5.259480 42.241379
v 18.608143 12.599994 42.241379
v 28.888409 4.769393 26.085922
v 18.118488 11.622217 26.085922
v 29.867719 12.112304 42.241379
v 29.867719 6.238455 42.241379
v 22.035729 2.809047 26.085922
v 25.950478 2.809047 42.241379
v 18.608143 5.259480 26.085922
v 26.440133 15.050426 42.241379
v 22.035729 15.050426 26.085922
v 20.566763 14.560340 42.241379
v 18.118488 6.238455 42.241379
v 20.077108 3.789220 42.241379
f 286 283 299 
f 274 273 275 
f 272 276 277 
f 274 275 278 
f 275 273 279 
f 273 274 280 
f 277 276 280 
f 276 272 281 
f 274 278 282 
f 272 277 283 
f 279 273 284 
f 273 280 285 
f 280 276 285 
f 276 284 285 
f 278 275 286 
f 275 279 287 
f 277 280 288 
f 282 277 288 
f 272 275 289 
f 281 272 289 
f 275 287 289 
f 287 281 289 
f 284 273 290 
f 273 285 290 
f 285 284 290 
f 280 274 291 
f 274 282 291 
f 288 280 291 
f 282 288 291 
f 277 278 292 
f 283 277 292 
f 278 283 292 
f 278 277 293 
f 282 278 293 
f 277 282 293 
f 272 283 294 
f 283 286 294 
f 276 279 295 
f 284 276 295 
f 279 284 295 
f 279 276 296 
f 276 281 296 
f 281 279 296 
f 279 281 297 
f 287 279 297 
f 281 287 297 
f 275 272 298 
f 286 275 298 
f 272 294 298 
f 294 286 298 
f 283 278 299 
f 278 286 299 
o convex_11
v 21.545211 7.216231 42.242673
v 26.931034 9.663644 54.970353
v 26.931034 8.685628 54.970353
v 21.055172 9.663644 54.970353
v 25.462069 11.622840 42.242673
v 26.440996 7.216231 42.242673
v 23.014177 6.236633 54.970353
v 21.545211 10.643242 42.242673
v 22.524138 11.622840 54.970353
v 25.462069 11.622840 54.970353
v 25.951532 6.726432 54.970353
v 24.972030 6.236633 42.242673
v 26.931034 9.663644 42.242673
v 22.034674 7.216231 55.462069
v 22.524138 11.622840 42.242673
v 23.014177 6.236633 42.242673
v 21.055172 9.663644 42.242673
v 21.545211 7.216231 54.970353
f 306 313 317 
f 300 304 305 
f 304 300 307 
f 307 303 308 
f 301 304 309 
f 304 308 309 
f 305 302 310 
f 310 306 311 
f 300 305 311 
f 305 310 311 
f 301 302 312 
f 304 301 312 
f 305 304 312 
f 302 305 312 
f 302 301 313 
f 308 303 313 
f 301 309 313 
f 309 308 313 
f 310 302 313 
f 306 310 313 
f 304 307 314 
f 308 304 314 
f 307 308 314 
f 306 300 315 
f 311 306 315 
f 300 311 315 
f 300 303 316 
f 307 300 316 
f 303 307 316 
f 303 300 317 
f 300 306 317 
f 313 303 317 
o convex_12
v -21.052536 -29.018970 -5.744828
v -20.561444 -23.143875 -0.358621
v 2.935007 -30.976537 -0.358621
v -14.688792 -32.934103 -0.358621
v 2.935007 -31.465329 -5.744828
v -6.369447 -35.381660 -5.744828
v -26.437018 -23.143875 -5.744828
v 2.935007 -35.381660 -0.358621
v -26.928111 -23.633866 -0.358621
v -20.561444 -23.143875 -4.765230
v 2.935007 -35.381660 -5.744828
v -6.369447 -35.381660 -0.358621
v -14.688792 -32.934103 -5.744828
v -22.519968 -28.040187 -0.358621
v 2.935007 -30.976537 -4.765230
v -21.540706 -23.143875 -5.744828
v -26.437018 -24.123857 -5.744828
f 331 326 334 
f 320 319 321 
f 318 322 323 
f 322 318 324 
f 320 321 325 
f 322 320 325 
f 321 319 326 
f 319 324 326 
f 319 320 327 
f 324 319 327 
f 323 322 328 
f 322 325 328 
f 325 323 328 
f 321 323 329 
f 325 321 329 
f 323 325 329 
f 321 318 330 
f 323 321 330 
f 318 323 330 
f 318 321 331 
f 321 326 331 
f 320 322 332 
f 327 320 332 
f 327 332 333 
f 322 324 333 
f 324 327 333 
f 332 322 333 
f 324 318 334 
f 326 324 334 
f 318 331 334 
o convex_13
v -30.356512 19.453441 -0.358621
v -35.744828 2.319392 -5.744828
v -31.826052 2.319392 -5.744828
v -27.911303 22.395254 -5.744828
v -22.034483 21.903969 -0.358621
v -30.847701 2.319392 -0.358621
v -22.034483 21.903969 -5.254501
v -35.253639 7.216519 -0.358621
v -33.784098 12.113646 -5.744828
v -35.253639 2.319392 -0.358621
v -27.911303 22.395254 -0.358621
v -30.847701 2.319392 -4.765230
v -22.525672 22.395254 -5.744828
v -30.356512 19.453441 -5.744828
v -33.784098 12.113646 -0.358621
v -35.253639 7.216519 -5.744828
f 342 343 350 
f 337 336 338 
f 336 337 340 
f 339 335 340 
f 339 340 341 
f 340 335 342 
f 338 336 343 
f 336 340 344 
f 342 336 344 
f 340 342 344 
f 335 339 345 
f 340 337 346 
f 337 341 346 
f 341 340 346 
f 337 338 347 
f 341 337 347 
f 339 341 347 
f 338 345 347 
f 345 339 347 
f 338 343 348 
f 343 335 348 
f 335 345 348 
f 345 338 348 
f 342 335 349 
f 335 343 349 
f 343 342 349 
f 336 342 350 
f 343 336 350 
o convex_14
v -23.013697 27.782899 -5.744828
v 2.937931 35.614649 -0.358621
v 2.937931 35.614649 -5.744828
v -21.542719 22.396548 -0.358621
v -15.177393 32.676287 -0.358621
v 2.937931 31.207753 -5.254501
v -22.033045 22.396548 -5.744828
v 2.937931 31.207753 -0.358621
v -27.420690 22.886922 -0.358621
v -5.388699 35.614649 -5.744828
v -27.420690 22.396548 -5.744828
v -15.177393 32.676287 -5.744828
v -5.388699 35.614649 -0.358621
v -23.013697 27.782899 -0.358621
v 2.937931 31.698127 -5.744828
v -21.542719 22.396548 -5.254501
f 357 356 366 
f 354 352 355 
f 353 352 356 
f 351 353 357 
f 352 354 358 
f 356 352 358 
f 354 356 358 
f 354 355 359 
f 353 351 360 
f 352 353 360 
f 357 354 361 
f 351 357 361 
f 359 351 361 
f 354 359 361 
f 351 355 362 
f 360 351 362 
f 355 360 362 
f 355 352 363 
f 352 360 363 
f 360 355 363 
f 355 351 364 
f 351 359 364 
f 359 355 364 
f 353 356 365 
f 356 357 365 
f 357 353 365 
f 356 354 366 
f 354 357 366 
o convex_15
v 14.688217 -32.933863 -5.744828
v 23.503448 -20.694401 -0.358621
v 23.503448 -20.694401 -4.765230
v 2.937931 -30.976872 -0.358621
v 22.523083 -28.039229 -0.358621
v 2.937931 -31.465761 -5.744828
v 6.366188 -35.384056 -0.358621
v 23.503448 -27.060014 -5.744828
v 2.937931 -35.384056 -5.744828
v 14.688217 -32.933863 -0.358621
v 23.012259 -21.675054 -5.744828
v 2.937931 -35.384056 -0.358621
v 23.012259 -20.694401 -4.765230
v 6.366188 -35.384056 -5.744828
v 2.937931 -30.976872 -4.765230
v 23.503448 -27.060014 -0.358621
v 23.012259 -20.694401 -0.358621
f 379 370 383 
f 368 370 371 
f 371 370 373 
f 369 368 374 
f 371 367 374 
f 367 372 374 
f 372 367 375 
f 370 372 375 
f 367 371 376 
f 373 367 376 
f 371 373 376 
f 369 374 377 
f 374 372 377 
f 373 370 378 
f 370 375 378 
f 375 373 378 
f 368 369 379 
f 369 377 379 
f 377 372 379 
f 367 373 380 
f 375 367 380 
f 373 375 380 
f 372 370 381 
f 370 379 381 
f 379 372 381 
f 368 371 382 
f 374 368 382 
f 371 374 382 
f 370 368 383 
f 368 379 383 
o convex_16
v 34.763648 -9.435208 -0.358621
v 23.504647 -26.570263 -5.744828
v 23.994637 -26.570263 -5.744828
v 31.826101 0.360771 -5.744828
v 23.504647 -20.203931 -0.358621
v 34.763648 -9.435208 -5.744828
v 31.337308 0.360771 -0.358621
v 29.868534 -20.203931 -0.358621
v 35.742431 0.360771 -0.358621
v 23.504647 -20.203931 -5.254501
v 23.504647 -26.570263 -0.358621
v 35.742431 0.360771 -5.744828
v 29.868534 -20.203931 -5.744828
v 31.337308 0.360771 -5.254501
v 35.742431 -3.556566 -5.744828
v 32.316091 -15.303305 -5.744828
v 26.932185 -23.628306 -0.358621
v 23.504647 -21.181947 -5.744828
f 393 397 401 
f 386 385 387 
f 386 387 389 
f 388 384 390 
f 384 388 391 
f 390 384 392 
f 387 390 392 
f 385 388 393 
f 388 390 393 
f 385 386 394 
f 388 385 394 
f 391 388 394 
f 389 387 395 
f 387 392 395 
f 386 389 396 
f 390 387 397 
f 393 390 397 
f 384 389 398 
f 392 384 398 
f 389 395 398 
f 395 392 398 
f 389 384 399 
f 384 391 399 
f 396 389 399 
f 391 396 399 
f 394 386 400 
f 391 394 400 
f 386 396 400 
f 396 391 400 
f 387 385 401 
f 385 393 401 
f 397 387 401 
o convex_17
v 24.972414 25.823511 -5.744828
v 5.388124 35.615944 -0.358621
v 12.242625 33.655502 -0.358621
v 24.480650 18.967668 -0.358621
v 2.937931 31.698319 -5.744828
v 24.480650 18.967668 -5.254501
v 3.429695 30.717283 -0.358621
v 5.388124 35.615944 -5.744828
v 24.972414 25.823511 -0.358621
v 16.155170 32.187207 -5.744828
v 2.937931 35.615944 -0.358621
v 24.972414 19.948704 -5.744828
v 23.011828 27.779064 -0.358621
v 3.429695 30.717283 -4.765230
v 2.937931 35.615944 -5.744828
v 16.155170 32.187207 -0.358621
v 23.011828 27.779064 -5.744828
f 411 414 418 
f 404 403 405 
f 405 403 408 
f 403 404 409 
f 402 406 409 
f 404 405 410 
f 402 409 411 
f 409 404 411 
f 406 408 412 
f 408 403 412 
f 403 409 412 
f 406 402 413 
f 405 407 413 
f 407 406 413 
f 402 410 413 
f 410 405 413 
f 410 402 414 
f 404 410 414 
f 407 405 415 
f 406 407 415 
f 408 406 415 
f 405 408 415 
f 409 406 416 
f 406 412 416 
f 412 409 416 
f 411 404 417 
f 404 414 417 
f 414 411 417 
f 402 411 418 
f 414 402 418 
