o convex_0
v 40.461740 -95.803328 -0.346534
v -30.057955 -102.738333 -4.970833
v -30.057955 -102.738333 10.635985
v 40.461740 -102.738333 -4.970833
v -30.057955 -96.381697 -4.970833
v 40.461740 -95.803328 10.635985
v -30.057955 -95.803328 10.635985
v 40.461740 -102.738333 10.635985
v 40.461740 -96.381697 -4.970833
v -30.057955 -95.803328 -0.346534
f 5 7 10 
f 3 2 4 
f 2 3 5 
f 4 2 5 
f 4 1 6 
f 5 3 7 
f 3 6 7 
f 6 1 7 
f 3 4 8 
f 6 3 8 
f 4 6 8 
f 1 4 9 
f 5 1 9 
f 4 5 9 
f 1 5 10 
f 7 1 10 
o convex_1
v -30.057955 -95.802649 -0.346591
v 41.617801 -70.371806 10.057615
v 40.453140 -84.817301 10.635985
v -30.057955 -70.371806 10.057615
v 41.617801 -70.371806 -0.346591
v 40.453140 -95.802649 -0.346591
v -30.057955 -95.802649 10.635985
v -30.057955 -70.371806 -0.346591
v 40.453140 -95.802649 10.635985
v -30.057955 -84.817301 10.635985
f 14 17 20 
f 13 12 14 
f 14 12 15 
f 15 12 16 
f 11 15 16 
f 14 11 17 
f 11 16 17 
f 11 14 18 
f 15 11 18 
f 14 15 18 
f 12 13 19 
f 16 12 19 
f 13 17 19 
f 17 16 19 
f 13 14 20 
f 17 13 20 
o convex_2
v -48.551699 -62.274063 -8.439015
v -29.479925 -50.718040 -0.346591
v -29.479925 -68.635225 -0.346591
v -50.284942 -50.718040 -0.346591
v -29.479925 -50.718040 -8.439015
v -29.479925 -68.635225 -8.439015
v -50.284942 -50.718040 -8.439015
v -50.284942 -61.118286 -0.346591
v -34.685762 -67.475940 -0.346591
v -50.284942 -61.118286 -8.439015
v -31.217240 -68.635225 -8.439015
v -48.551699 -62.274063 -0.346591
f 29 28 32 
f 23 22 24 
f 22 23 25 
f 24 22 25 
f 21 25 26 
f 25 23 26 
f 25 21 27 
f 24 25 27 
f 23 24 28 
f 24 27 28 
f 23 28 29 
f 27 21 30 
f 21 28 30 
f 28 27 30 
f 21 26 31 
f 26 23 31 
f 29 21 31 
f 23 29 31 
f 28 21 32 
f 21 29 32 
o convex_3
v -47.396883 -30.487319 -8.439015
v -29.479925 -24.706677 -0.346591
v -29.479925 -24.706677 -8.439015
v -29.479925 -42.622108 -0.346591
v -50.284942 -42.622108 -0.346591
v -29.479925 -42.622108 -8.439015
v -50.284942 -42.622108 -8.439015
v -50.284942 -31.643097 -0.346591
v -50.284942 -31.643097 -8.439015
v -31.795667 -24.706677 -0.346591
v -31.795667 -24.706677 -8.439015
f 42 35 43 
f 35 34 36 
f 36 34 37 
f 33 35 38 
f 35 36 38 
f 36 37 38 
f 38 37 39 
f 33 38 39 
f 37 34 40 
f 39 37 40 
f 33 39 41 
f 40 33 41 
f 39 40 41 
f 34 35 42 
f 33 40 42 
f 40 34 42 
f 35 33 43 
f 33 42 43 
o convex_4
v -30.055581 -70.369316 10.057954
v 50.288255 -15.456439 3.700753
v 50.288255 -20.659617 10.057954
v -30.055581 -15.456439 10.057954
v -50.286752 -61.118625 -0.346591
v 41.614940 -70.369316 -0.346591
v -30.055581 -15.456439 -0.346591
v 41.614940 -70.369316 10.057954
v 50.288255 -15.456439 -0.346591
v -50.286752 -31.646492 10.057954
v -30.055581 -70.369316 -0.346591
v -50.286752 -31.646492 -0.346591
v -50.286752 -61.118625 10.057954
v 50.288255 -39.160999 -0.346591
v 32.360780 -15.456439 10.057954
v 50.288255 -39.160999 10.057954
v 43.347634 -65.160763 -0.346591
v -48.544213 -62.268914 10.057954
v 43.347634 -65.160763 10.057954
v -48.544213 -62.268914 -0.346591
f 61 48 63 
f 44 46 47 
f 47 45 50 
f 49 48 50 
f 46 44 51 
f 44 49 51 
f 45 46 52 
f 50 45 52 
f 49 50 52 
f 44 47 53 
f 47 50 53 
f 48 49 54 
f 49 44 54 
f 50 48 55 
f 48 53 55 
f 53 50 55 
f 44 53 56 
f 53 48 56 
f 52 46 57 
f 49 52 57 
f 46 45 58 
f 47 46 58 
f 45 47 58 
f 46 51 59 
f 57 46 59 
f 51 49 60 
f 49 57 60 
f 54 44 61 
f 44 56 61 
f 56 48 61 
f 59 51 62 
f 57 59 62 
f 60 57 62 
f 51 60 62 
f 48 54 63 
f 54 61 63 
o convex_5
v -30.056937 -102.739012 10.635985
v 40.461740 -84.243853 25.664772
v 40.461740 -102.737202 25.664772
v -30.056937 -102.739012 25.664772
v 40.461740 -102.737202 10.635985
v -30.056937 -84.821375 10.635985
v -30.056937 -84.821375 25.664772
v 40.461740 -84.823185 10.635985
v 39.302075 -84.243853 14.104845
f 65 71 72 
f 66 65 67 
f 64 66 67 
f 66 64 68 
f 65 66 68 
f 64 67 69 
f 68 64 69 
f 67 65 70 
f 69 67 70 
f 65 68 71 
f 68 69 71 
f 71 69 72 
f 70 65 72 
f 69 70 72 
o convex_6
v -21.380199 -77.308169 40.115529
v 37.570117 -76.727649 32.602154
v 37.570117 -76.727649 32.023105
v 37.570117 -102.739012 32.602154
v -28.901895 -102.739012 32.023105
v 16.761827 -102.739012 40.115529
v -28.901895 -77.308169 32.023105
v -21.380199 -102.739012 40.115529
v 16.761827 -76.727649 40.115529
v 37.570117 -102.739012 32.023105
v -19.070335 -76.727649 32.023105
v -28.901895 -77.308169 32.601362
v -15.029701 -76.727649 40.115529
v 21.960646 -102.739012 38.379967
v -28.901895 -102.739012 32.601362
v 21.960646 -76.727649 38.379967
f 81 86 88 
f 75 74 76 
f 77 76 78 
f 75 77 79 
f 78 73 80 
f 77 78 80 
f 74 75 81 
f 73 78 81 
f 75 76 82 
f 76 77 82 
f 77 75 82 
f 75 79 83 
f 81 75 83 
f 79 77 84 
f 80 73 84 
f 83 79 84 
f 83 84 85 
f 73 81 85 
f 81 83 85 
f 84 73 85 
f 76 74 86 
f 78 76 86 
f 81 78 86 
f 77 80 87 
f 84 77 87 
f 80 84 87 
f 74 81 88 
f 86 74 88 
o convex_7
v -30.053259 -15.456439 -0.346591
v 12.712711 9.398864 3.699169
v 12.712711 9.398864 -0.346591
v 50.288255 -15.456439 3.699169
v -30.053259 2.462444 3.699169
v 50.288255 -15.456439 -0.346591
v -12.712515 -15.456439 4.277652
v 50.288255 -2.741696 3.699169
v -12.712515 9.398864 -0.346591
v 50.288255 -2.741696 -0.346591
v -30.053259 2.462444 -0.346591
v -30.053259 -15.456439 3.699169
v 12.712711 1.301913 4.277652
v -12.712515 9.398864 3.699169
v 32.365554 -15.456439 4.277652
v -12.712515 1.301913 4.277652
v 32.365554 -3.897361 4.277652
f 101 103 105 
f 89 91 94 
f 92 89 94 
f 89 92 95 
f 92 94 96 
f 91 89 97 
f 90 91 97 
f 91 90 98 
f 94 91 98 
f 90 96 98 
f 96 94 98 
f 89 93 99 
f 97 89 99 
f 93 89 100 
f 89 95 100 
f 95 93 100 
f 90 97 102 
f 99 93 102 
f 97 99 102 
f 101 90 102 
f 95 92 103 
f 92 96 103 
f 101 95 103 
f 93 95 104 
f 95 101 104 
f 102 93 104 
f 101 102 104 
f 96 90 105 
f 90 101 105 
f 103 96 105 
o convex_8
v -27.167917 -11.410227 27.976384
v -32.947088 -31.637270 25.664772
v -32.947088 -31.637270 26.243029
v -22.543561 -31.061052 28.554924
v -22.543561 -23.548433 25.664772
v -30.056993 -11.410227 26.243029
v -30.056993 -11.410227 28.554641
v -30.056993 -31.637270 28.554924
v -22.543561 -31.061052 25.664772
v -22.543561 -23.548433 28.554924
v -27.745325 -11.410227 26.243029
f 111 106 116 
f 110 107 111 
f 107 108 111 
f 111 108 112 
f 106 111 112 
f 108 107 113 
f 112 108 113 
f 110 109 114 
f 107 110 114 
f 113 107 114 
f 109 113 114 
f 110 106 115 
f 109 110 115 
f 106 112 115 
f 113 109 115 
f 112 113 115 
f 106 110 116 
f 110 111 116 
o convex_9
v -30.057502 -84.818432 14.105298
v -27.745834 -68.058836 25.664772
v -30.057502 -68.058836 25.664772
v -27.745834 -84.818432 25.664772
v -27.745834 -68.058836 14.105298
v -30.057502 -68.058836 14.105298
v -30.057502 -84.818432 25.664772
v -27.745834 -84.818432 14.105298
f 121 120 124 
f 118 119 120 
f 119 118 121 
f 118 120 121 
f 117 119 122 
f 121 117 122 
f 119 121 122 
f 119 117 123 
f 120 119 123 
f 117 120 123 
f 120 117 124 
f 117 121 124 
o convex_10
v 38.727649 -71.519492 25.663867
v 50.288255 -37.421590 28.554924
v 47.975228 -37.421590 28.554924
v 50.288255 -37.421590 14.105298
v 40.463551 -84.242043 25.663867
v 39.307037 -69.209634 14.105298
v 40.463551 -84.242043 14.105298
v 47.975228 -37.421590 14.105298
v 38.727649 -74.411398 28.554924
v 38.727649 -84.242043 18.151929
v 50.288255 -39.163149 28.554924
v 50.288255 -39.158566 14.105298
v 41.040676 -73.833933 28.554924
v 38.727649 -84.242043 25.663867
v 39.307037 -69.209634 28.554924
v 39.307037 -84.242043 14.105298
v 38.727649 -71.524075 18.151929
v 45.085077 -47.829699 28.554924
f 139 127 142 
f 127 126 128 
f 130 128 131 
f 127 128 132 
f 128 130 132 
f 126 127 133 
f 131 129 134 
f 133 125 134 
f 128 126 135 
f 129 131 135 
f 126 133 135 
f 131 128 136 
f 128 135 136 
f 135 131 136 
f 133 129 137 
f 129 135 137 
f 135 133 137 
f 129 133 138 
f 134 129 138 
f 133 134 138 
f 130 125 139 
f 125 133 139 
f 133 127 139 
f 130 131 140 
f 134 130 140 
f 131 134 140 
f 125 130 141 
f 134 125 141 
f 130 134 141 
f 127 132 142 
f 132 130 142 
f 130 139 142 
o convex_11
v 41.617801 -35.108450 14.105298
v 50.288255 -28.751984 25.664772
v 50.288255 -37.420741 25.664772
v 50.288255 -28.751984 14.105298
v 41.617801 -28.751984 25.664772
v 50.288255 -37.420741 14.105298
v 41.617801 -28.751984 14.105298
v 41.617801 -35.108450 25.664772
v 47.974663 -37.420741 25.664772
v 47.974663 -37.420741 14.105298
f 148 151 152 
f 144 145 146 
f 145 144 147 
f 144 146 147 
f 146 145 148 
f 143 146 148 
f 146 143 149 
f 143 147 149 
f 147 146 149 
f 147 143 150 
f 145 147 150 
f 148 145 151 
f 150 143 151 
f 145 150 151 
f 143 148 152 
f 151 143 152 
o convex_12
v -30.057955 -102.733467 25.664772
v -16.179796 -74.415528 32.023105
v 4.623862 -84.822336 32.023105
v 4.623862 -84.822336 25.664772
v 4.623862 -102.733467 32.023105
v -30.057955 -74.415528 25.664772
v -29.477435 -102.733467 32.023105
v 4.623862 -102.733467 25.664772
v -30.057955 -74.415528 31.444283
v -17.914566 -74.415528 28.555150
v -29.477435 -77.309696 32.023105
v -30.057955 -102.733467 31.444283
v -27.742665 -74.415528 25.664772
f 158 162 165 
f 154 155 156 
f 155 154 157 
f 156 155 157 
f 156 153 158 
f 153 157 159 
f 157 154 159 
f 153 156 160 
f 157 153 160 
f 156 157 160 
f 154 158 161 
f 158 153 161 
f 154 156 162 
f 158 154 162 
f 159 154 163 
f 154 161 163 
f 161 159 163 
f 153 159 164 
f 161 153 164 
f 159 161 164 
f 156 158 165 
f 162 156 165 
o convex_13
v 4.623862 -84.822336 32.023105
v 40.461740 -74.415528 31.444283
v 40.461740 -74.415528 25.664772
v 40.461740 -102.733467 31.444283
v 4.623862 -102.733467 25.664772
v 40.461740 -102.733467 25.664772
v 4.623862 -84.822336 25.664772
v 4.623862 -102.733467 32.023105
v 31.211105 -74.415528 32.023105
v 39.300587 -102.733467 32.023105
v 39.300587 -74.415528 32.023105
v 38.725273 -74.415528 25.664772
v 31.211105 -74.415528 31.444283
f 177 172 178 
f 168 167 169 
f 170 168 171 
f 168 169 171 
f 169 170 171 
f 170 166 172 
f 168 170 172 
f 166 170 173 
f 170 169 173 
f 167 168 174 
f 172 166 174 
f 166 173 174 
f 174 173 175 
f 169 167 175 
f 173 169 175 
f 167 174 176 
f 174 175 176 
f 175 167 176 
f 168 172 177 
f 174 168 177 
f 174 177 178 
f 172 174 178 
o convex_14
v 27.745526 -15.456439 4.277652
v 32.368863 -3.896965 10.057954
v 27.745526 -3.896965 10.057954
v 32.368863 -3.896965 4.277652
v 32.368863 -15.456439 10.057954
v 27.745526 -3.896965 4.277652
v 27.745526 -15.456439 10.057954
v 32.368863 -15.456439 4.277652
f 182 183 186 
f 181 180 182 
f 180 181 183 
f 182 180 183 
f 179 181 184 
f 181 182 184 
f 182 179 184 
f 181 179 185 
f 179 183 185 
f 183 181 185 
f 179 182 186 
f 183 179 186 
o convex_15
v -40.463915 -36.265529 25.664772
v -50.287488 -55.918559 14.105298
v -50.287488 -55.918559 19.885035
v -34.683725 -55.918559 25.664772
v -41.620258 -36.265529 14.105298
v -50.287488 -36.265529 19.885035
v -41.620258 -55.918559 14.105298
v -34.683725 -36.265529 25.085441
v -50.287488 -36.265529 14.105298
v -40.463915 -55.918559 25.664772
v -34.683725 -55.918559 25.085441
v -34.683725 -36.265529 25.664772
v -48.552209 -36.265529 21.039172
f 189 196 199 
f 189 188 190 
f 188 189 192 
f 187 191 192 
f 190 188 193 
f 188 191 193 
f 193 191 194 
f 191 187 194 
f 191 188 195 
f 188 192 195 
f 192 191 195 
f 189 190 196 
f 190 187 196 
f 190 193 197 
f 193 194 197 
f 194 190 197 
f 187 190 198 
f 194 187 198 
f 190 194 198 
f 187 192 199 
f 192 189 199 
f 196 187 199 
o convex_16
v -41.618108 -36.265529 25.085441
v -31.792046 -24.126893 19.885035
v -31.792046 -24.126893 14.105298
v -50.289015 -31.062408 14.105298
v -41.618108 -36.265529 14.105298
v -31.792046 -34.530759 25.085441
v -50.289015 -31.062408 19.885035
v -50.289015 -36.265529 14.105298
v -32.949012 -30.483755 25.664772
v -31.792046 -27.595244 14.105298
v -50.289015 -36.265529 19.885035
v -34.683555 -36.265529 25.664772
v -40.462953 -33.374642 25.664772
v -46.240540 -29.330014 19.885035
f 212 208 213 
f 203 202 204 
f 202 201 205 
f 206 203 207 
f 204 200 207 
f 203 204 207 
f 205 201 208 
f 204 202 209 
f 202 205 209 
f 205 204 209 
f 200 206 210 
f 206 207 210 
f 207 200 210 
f 200 204 211 
f 204 205 211 
f 205 208 211 
f 211 208 212 
f 206 200 212 
f 200 211 212 
f 206 212 213 
f 201 202 213 
f 202 203 213 
f 203 206 213 
f 208 201 213 
o convex_17
v -22.544467 -23.548863 25.664772
v -31.792046 -34.531438 25.085441
v -31.792046 -27.018006 14.105298
v -22.544467 -31.062295 14.105298
v -30.056767 -23.548863 25.664772
v -22.544467 -23.548863 14.105298
v -22.544467 -31.062295 25.664772
v -31.792046 -24.127232 14.105298
v -30.056767 -31.062295 14.105298
v -31.792046 -29.905555 25.664772
v -30.634288 -34.531438 25.664772
v -31.792046 -24.127232 19.885035
v -30.634288 -23.548863 14.105298
f 221 225 226 
f 217 216 219 
f 214 217 219 
f 218 214 219 
f 217 214 220 
f 214 218 220 
f 216 215 221 
f 219 216 221 
f 215 216 222 
f 216 217 222 
f 217 215 222 
f 220 218 223 
f 221 215 223 
f 215 217 224 
f 217 220 224 
f 223 215 224 
f 220 223 224 
f 223 218 225 
f 221 223 225 
f 218 219 226 
f 219 221 226 
f 225 218 226 
o convex_18
v -27.164635 -12.566287 28.555263
v 6.935983 12.289015 29.132954
v 6.935983 11.707533 29.710079
v -30.057955 6.505827 29.132954
v -14.450685 -11.408190 32.023105
v 6.935983 -3.316105 26.242802
v -30.057955 6.505827 26.242802
v 6.935983 5.350162 32.023105
v -30.057955 -11.408190 26.242802
v 6.935983 12.289015 26.242802
v -13.291908 5.350162 32.023105
v -30.057955 -11.408190 30.866592
v 6.935983 -3.316105 32.023105
v -13.291908 12.289015 29.132954
v -16.760995 -11.408190 27.977572
v -13.291908 12.289015 26.242802
v -30.057955 4.194498 29.710079
v -12.716141 8.817156 30.866592
v -17.916151 -11.408190 32.023105
v -30.057955 -9.096861 30.866592
f 245 237 246 
f 228 229 232 
f 232 229 234 
f 233 232 235 
f 230 233 235 
f 228 232 236 
f 232 233 236 
f 231 234 237 
f 235 227 238 
f 230 235 238 
f 231 232 239 
f 234 231 239 
f 232 234 239 
f 229 228 240 
f 233 230 240 
f 228 236 240 
f 231 227 241 
f 232 231 241 
f 227 235 241 
f 235 232 241 
f 236 233 242 
f 233 240 242 
f 240 236 242 
f 237 230 243 
f 230 238 243 
f 234 229 244 
f 230 237 244 
f 237 234 244 
f 229 240 244 
f 240 230 244 
f 227 231 245 
f 231 237 245 
f 238 227 245 
f 238 245 246 
f 237 243 246 
f 243 238 246 
o convex_19
v -16.759411 -16.034469 37.225038
v 1.733711 4.196591 32.601362
v 1.733711 4.196591 32.023105
v 1.733711 -16.034469 37.225038
v -19.075380 -16.034469 32.023105
v -13.294624 4.196591 32.601362
v -15.028036 -15.456212 40.115529
v 1.733711 -15.456212 40.115529
v 1.733711 -3.318764 32.023105
v -15.604482 -16.034469 32.023105
v -13.294624 4.196591 32.023105
v -19.075380 -14.299699 32.601362
v 1.733711 -14.299699 36.069317
v -15.028036 -16.034469 40.115529
f 254 253 260 
f 249 248 250 
f 250 247 251 
f 248 249 252 
f 250 248 254 
f 248 252 254 
f 252 253 254 
f 249 250 255 
f 251 249 255 
f 251 255 256 
f 250 251 256 
f 249 251 257 
f 252 249 257 
f 252 257 258 
f 251 247 258 
f 247 253 258 
f 253 252 258 
f 257 251 258 
f 255 250 259 
f 256 255 259 
f 250 256 259 
f 247 250 260 
f 253 247 260 
f 250 254 260 
o convex_20
v 26.587995 -15.456439 36.646782
v 1.733711 -76.727649 37.225038
v 29.478599 -76.727649 32.023105
v 16.762046 -76.727649 40.114737
v 1.733711 -15.456439 37.225038
v 37.571589 -15.456439 32.023105
v 1.733711 -15.456439 40.114737
v 37.571589 -76.727649 32.601362
v 16.762046 -15.456439 40.114737
v 1.733711 -76.727649 40.114737
v 29.478599 -15.456439 32.023105
v 37.571589 -15.456439 32.601362
v 37.571589 -76.727649 32.023105
v 21.964431 -76.727649 38.380760
v 21.964431 -16.038203 38.380760
f 269 274 275 
f 262 263 264 
f 263 262 265 
f 265 261 266 
f 261 265 267 
f 265 262 267 
f 264 263 268 
f 267 264 269 
f 261 267 269 
f 262 264 270 
f 267 262 270 
f 264 267 270 
f 263 265 271 
f 266 263 271 
f 265 266 271 
f 266 261 272 
f 268 266 272 
f 263 266 273 
f 268 263 273 
f 266 268 273 
f 264 268 274 
f 269 264 274 
f 268 272 274 
f 274 272 275 
f 261 269 275 
f 272 261 275 
o convex_21
v 35.837328 -15.456439 33.179392
v 13.872403 4.196591 32.601249
v 14.452244 1.305195 33.757536
v 1.733711 -14.300265 36.068638
v 17.924387 -14.877390 39.537499
v 1.733711 -3.319500 32.023105
v 1.733711 -15.456439 39.537499
v 28.899946 -15.456439 32.023105
v 30.629114 -5.629924 32.023105
v 1.733711 4.196591 32.023105
v 1.733711 -10.831744 38.381212
v 30.629114 -5.629924 32.601249
v 1.733711 4.196591 32.601249
v 24.271573 -1.007153 32.601249
v 36.993558 -14.300265 32.023105
v 1.733711 -15.456439 36.646782
v 17.344546 -14.300265 39.537499
v 13.872403 4.196591 32.023105
v 17.924387 -15.456439 39.537499
f 280 282 294 
f 281 279 282 
f 279 281 283 
f 276 282 283 
f 283 281 284 
f 281 282 285 
f 284 281 285 
f 285 282 286 
f 280 276 287 
f 278 277 288 
f 277 285 288 
f 286 278 288 
f 285 286 288 
f 277 278 289 
f 287 284 289 
f 276 283 290 
f 283 284 290 
f 287 276 290 
f 284 287 290 
f 282 279 291 
f 279 283 291 
f 283 282 291 
f 282 280 292 
f 278 286 292 
f 286 282 292 
f 280 287 292 
f 289 278 292 
f 287 289 292 
f 285 277 293 
f 284 285 293 
f 277 289 293 
f 289 284 293 
f 276 280 294 
f 282 276 294 
o convex_22
v -7.516132 1.306440 10.057954
v -12.717046 -15.456439 4.277652
v -3.468562 -15.456439 4.277652
v -12.717046 -15.456439 10.057954
v -12.717046 1.306440 4.277652
v -3.468562 -15.456439 10.057954
v -7.516132 1.306440 4.277652
v -12.717046 1.306440 10.057954
f 299 298 302 
f 296 297 298 
f 297 296 299 
f 296 298 299 
f 297 295 300 
f 298 297 300 
f 295 298 300 
f 295 297 301 
f 299 295 301 
f 297 299 301 
f 298 295 302 
f 295 299 302 
o convex_23
v 7.515372 1.306440 10.057954
v 3.467802 -15.456439 4.277652
v 3.467802 -15.456439 10.057954
v 12.716286 -15.456439 4.277652
v 12.716286 -15.456439 10.057954
v 12.716286 1.306440 4.277652
v 7.515372 1.306440 4.277652
v 12.716286 1.306440 10.057954
f 307 308 310 
f 303 304 305 
f 305 304 306 
f 303 305 307 
f 305 306 307 
f 306 304 308 
f 307 306 308 
f 304 303 309 
f 308 304 309 
f 303 308 309 
f 303 307 310 
f 308 303 310 
o convex_24
v -37.573594 -65.167043 19.885035
v -50.289015 -60.542801 14.105298
v -50.289015 -55.918559 14.105298
v -40.463688 -58.231585 25.664772
v -41.619975 -55.918559 14.105298
v -50.289015 -60.542801 19.885035
v -37.573594 -55.918559 25.664772
v -37.573594 -65.167043 14.105298
v -50.289015 -55.918559 19.885035
v -37.573594 -62.276439 14.105298
v -40.463688 -64.588560 19.885035
v -38.152359 -59.387646 25.664772
v -37.573594 -55.918559 23.350841
v -49.709005 -61.120379 14.105298
v -49.709005 -61.120379 19.885035
v -41.619975 -55.918559 25.085441
f 317 319 326 
f 312 313 315 
f 313 312 316 
f 315 313 317 
f 312 315 318 
f 317 311 318 
f 313 316 319 
f 317 313 319 
f 318 315 320 
f 317 318 320 
f 318 311 321 
f 317 314 322 
f 311 317 322 
f 321 311 322 
f 315 317 323 
f 320 315 323 
f 317 320 323 
f 316 312 324 
f 312 318 324 
f 318 321 324 
f 324 321 325 
f 314 316 325 
f 322 314 325 
f 321 322 325 
f 316 324 325 
f 316 314 326 
f 314 317 326 
f 319 316 326 
o convex_25
v -35.837296 -66.322425 14.105298
v -34.103205 -55.918559 25.664772
v -37.572349 -55.918559 25.664772
v -27.746796 -68.057195 25.664772
v -27.746796 -65.744961 14.105298
v -27.746796 -58.230793 25.664772
v -37.572349 -65.165120 19.885035
v -37.572349 -62.276609 14.105298
v -30.058917 -68.057195 25.664772
v -27.746796 -68.057195 14.105298
v -37.572349 -59.386910 25.664772
v -34.103205 -55.918559 25.085441
v -31.214977 -68.057195 14.105298
f 336 335 339 
f 328 329 330 
f 328 330 332 
f 330 331 332 
f 331 327 334 
f 327 333 334 
f 333 329 334 
f 330 329 335 
f 333 327 335 
f 327 331 336 
f 331 330 336 
f 330 335 336 
f 329 333 337 
f 335 329 337 
f 333 335 337 
f 329 328 338 
f 328 332 338 
f 332 331 338 
f 334 329 338 
f 331 334 338 
f 335 327 339 
f 327 336 339 
o convex_26
v -15.029168 -13.149410 31.444622
v -34.104167 -57.073035 28.554924
v -34.104167 -57.073035 29.133407
v -16.188680 -74.415528 32.023105
v -17.921413 -74.415528 28.554924
v -16.763768 -11.410227 28.554924
v -30.056144 -15.462153 31.444622
v -30.056144 -74.415528 31.444622
v -30.056144 -11.410227 28.554924
v -18.498368 -11.410227 32.023105
v -30.056144 -74.415528 28.554924
v -34.104167 -34.531495 29.133407
v -19.654145 -74.415528 32.023105
v -15.029168 -11.410227 32.023105
v -30.056144 -11.410227 30.866479
v -15.607990 -11.989954 29.711550
v -30.634967 -35.690950 31.444622
v -16.188680 -74.415528 31.444622
v -34.104167 -34.531495 28.554924
v -19.654145 -14.882426 32.023105
v -33.525345 -56.493307 29.711550
f 356 351 360 
f 344 341 345 
f 342 341 347 
f 344 343 347 
f 345 341 348 
f 345 348 349 
f 341 344 350 
f 347 341 350 
f 344 347 350 
f 341 342 351 
f 347 343 352 
f 343 349 352 
f 343 340 353 
f 349 343 353 
f 345 349 353 
f 346 349 354 
f 349 348 354 
f 351 346 354 
f 348 351 354 
f 344 345 355 
f 353 340 355 
f 345 353 355 
f 346 351 356 
f 347 352 356 
f 340 343 357 
f 343 344 357 
f 355 340 357 
f 344 355 357 
f 348 341 358 
f 341 351 358 
f 351 348 358 
f 349 346 359 
f 352 349 359 
f 346 356 359 
f 356 352 359 
f 342 347 360 
f 351 342 360 
f 347 356 360 
o convex_27
v 50.288255 -39.161678 28.554924
v 30.635225 -16.039335 31.444622
v 30.635225 -16.039335 32.023105
v 31.214274 -74.415528 31.444622
v 50.288255 -14.304565 31.444622
v 38.153240 -13.722348 28.554924
v 39.307490 -74.415528 32.023105
v 38.728441 -74.415528 28.554924
v 50.288255 -13.722348 28.554924
v 50.288255 -39.161678 31.444622
v 41.038865 -73.827370 28.554924
v 38.153240 -13.722348 32.023105
v 31.214274 -74.415528 32.023105
v 31.793323 -13.722348 30.866479
v 41.038865 -73.827370 31.444622
f 371 370 375 
f 363 362 364 
f 366 361 368 
f 367 364 368 
f 365 361 369 
f 361 366 369 
f 361 365 370 
f 365 367 370 
f 368 361 371 
f 367 368 371 
f 361 370 371 
f 363 367 372 
f 367 365 372 
f 365 369 372 
f 369 366 372 
f 363 364 373 
f 367 363 373 
f 364 367 373 
f 362 363 374 
f 364 362 374 
f 368 364 374 
f 366 368 374 
f 363 372 374 
f 372 366 374 
f 370 367 375 
f 367 371 375 
o convex_28
v 26.589862 -11.987239 32.023105
v 50.288255 -3.319839 29.710079
v 50.288255 -5.631282 30.288336
v 47.974832 -13.720311 26.242802
v 16.184468 -3.319839 31.444849
v 47.974832 -3.319839 26.242802
v 50.288255 -13.720311 30.866592
v 30.061665 -3.319839 32.023105
v 29.480805 -13.720311 31.444849
v 50.288255 -13.720311 26.242802
v 37.569439 -3.319839 27.399316
v 37.569439 -13.720311 32.023105
v 38.143621 -13.720311 28.555829
v 50.288255 -3.319839 26.242802
v 50.288255 -10.253148 30.866592
v 16.184468 -3.319839 32.023105
v 27.167383 -3.897191 29.132954
v 16.184468 -3.897191 31.444849
f 380 392 393 
f 380 377 381 
f 377 378 382 
f 378 377 383 
f 377 380 383 
f 379 382 384 
f 379 381 385 
f 377 382 385 
f 382 379 385 
f 380 381 386 
f 381 379 386 
f 383 376 387 
f 376 384 387 
f 384 382 387 
f 379 384 388 
f 381 377 389 
f 377 385 389 
f 385 381 389 
f 382 378 390 
f 378 383 390 
f 383 387 390 
f 387 382 390 
f 376 383 391 
f 383 380 391 
f 386 379 392 
f 380 386 392 
f 384 376 393 
f 379 388 393 
f 388 384 393 
f 376 391 393 
f 391 380 393 
f 392 379 393 
o convex_29
v 29.477807 -2.738810 32.023105
v 13.297089 12.289015 29.132954
v 13.297089 12.289015 26.242802
v 49.706886 0.729032 29.132954
v 6.935983 -3.317803 26.242802
v 50.288255 -3.317803 26.242802
v 6.935983 -3.317803 32.023105
v 6.935983 5.350275 32.023105
v 6.935983 12.289015 26.242802
v 14.451339 5.350275 32.023105
v 49.706886 0.729032 26.242802
v 50.288255 -3.317803 29.710079
v 6.935983 11.710023 29.710079
v 13.297089 11.710023 29.710079
v 50.288255 -1.582354 29.710079
f 405 399 408 
f 396 395 397 
f 398 396 399 
f 398 399 400 
f 398 400 401 
f 400 394 401 
f 395 396 402 
f 396 398 402 
f 398 401 402 
f 401 394 403 
f 396 397 404 
f 399 396 404 
f 394 400 405 
f 400 399 405 
f 395 402 406 
f 402 401 406 
f 397 395 407 
f 403 397 407 
f 401 403 407 
f 395 406 407 
f 406 401 407 
f 397 403 408 
f 403 394 408 
f 404 397 408 
f 399 404 408 
f 394 405 408 
o convex_30
v -19.075380 -76.727649 32.023105
v -13.295077 -16.034469 40.115529
v -13.295077 -16.034469 36.069317
v -13.295077 -76.727649 36.645990
v -15.029281 -76.727649 40.115529
v -19.075380 -16.034469 33.179619
v -16.185228 -16.034469 32.023105
v -16.185228 -76.727649 32.023105
v -15.029281 -16.034469 40.115529
v -13.295077 -76.727649 40.115529
v -18.497123 -76.727649 34.336132
v -19.075380 -16.034469 32.023105
v -15.029281 -16.616686 33.179619
v -14.451590 -76.727649 34.336132
f 421 411 422 
f 411 410 412 
f 409 412 413 
f 410 411 414 
f 414 411 415 
f 409 415 416 
f 412 409 416 
f 413 410 417 
f 410 414 417 
f 412 410 418 
f 413 412 418 
f 410 413 418 
f 409 413 419 
f 414 409 419 
f 413 417 419 
f 417 414 419 
f 409 414 420 
f 414 415 420 
f 415 409 420 
f 415 411 421 
f 416 415 421 
f 416 421 422 
f 411 412 422 
f 412 416 422 
o convex_31
v 1.733711 -16.034469 40.115529
v -13.295077 -76.727649 37.225661
v -13.295077 -76.727649 40.115529
v -13.295077 -16.034469 37.225661
v 1.733711 -76.727649 37.225661
v 1.733711 -76.727649 40.115529
v -13.295077 -16.034469 40.115529
v 1.733711 -16.034469 37.225661
f 427 426 430 
f 424 425 426 
f 425 424 427 
f 424 426 427 
f 423 425 428 
f 427 423 428 
f 425 427 428 
f 425 423 429 
f 426 425 429 
f 423 426 429 
f 426 423 430 
f 423 427 430 
o convex_32
v -27.748097 -31.642701 28.554924
v -39.304460 -58.224991 25.664772
v -30.058464 -74.415528 25.664772
v -30.058464 -74.415528 28.554924
v -27.748097 -31.642701 25.664772
v -35.258488 -34.535812 28.554924
v -39.304460 -33.380243 25.664772
v -27.746965 -74.415528 28.554924
v -36.414803 -57.647207 27.976667
v -27.746965 -74.415528 25.664772
v -39.304460 -33.380243 26.243029
v -39.304460 -58.224991 26.243029
v -35.258488 -57.069422 28.554924
v -34.680330 -31.642701 25.664772
f 437 441 444 
f 432 433 434 
f 433 432 435 
f 434 431 436 
f 435 432 437 
f 434 433 438 
f 431 434 438 
f 435 431 438 
f 433 435 440 
f 438 433 440 
f 435 438 440 
f 436 431 441 
f 437 432 441 
f 439 436 441 
f 439 441 442 
f 432 434 442 
f 434 439 442 
f 441 432 442 
f 434 436 443 
f 439 434 443 
f 436 439 443 
f 431 435 444 
f 435 437 444 
f 441 431 444 
o convex_33
v 50.288255 -13.722348 28.554924
v 41.617801 -35.106413 25.664772
v 47.974663 -37.421590 25.664772
v 41.617801 -35.106413 28.554924
v 50.288255 -37.421590 28.554924
v 47.974663 -13.722348 26.243029
v 50.288255 -28.747797 25.664772
v 41.617801 -28.747797 28.554924
v 41.617801 -28.747797 25.664772
v 47.974663 -13.722348 28.554924
v 50.288255 -13.722348 26.243029
v 50.288255 -37.421590 25.664772
f 451 449 456 
f 446 447 448 
f 445 448 449 
f 448 447 449 
f 447 446 451 
f 445 449 451 
f 446 448 452 
f 448 445 452 
f 451 446 453 
f 450 451 453 
f 446 452 453 
f 445 450 454 
f 452 445 454 
f 450 453 454 
f 453 452 454 
f 450 445 455 
f 445 451 455 
f 451 450 455 
f 449 447 456 
f 447 451 456 
