o convex_0
v -6.199552 -2.448262 -6.840327
v 21.797868 6.762921 6.345011
v 21.797868 6.762921 2.010824
v 16.016847 -10.216485 6.889305
v -5.476533 3.870209 6.889305
v 19.087329 -8.590183 -6.658895
v -0.960013 6.581278 -6.840327
v 3.011896 -10.398128 6.889305
v 22.160942 6.579580 -6.296033
v 3.916452 -10.579771 -6.840327
v 25.412962 4.595084 1.287787
v -5.476533 -3.894618 6.889305
v -0.960013 6.581278 6.889305
v 21.437923 -6.422346 5.261801
v -5.476533 3.870209 -6.840327
v 21.979405 -5.519223 -4.671217
v 14.210864 -10.579771 -6.840327
v 20.351830 6.762921 -6.840327
v -4.030495 -5.339277 -6.840327
v 19.991885 6.762921 6.889305
v -6.562627 1.160838 6.889305
v 24.868351 5.316565 -3.226488
v 18.908922 -8.770129 6.707874
v 14.210864 -10.579771 6.889305
v -3.307477 5.858100 6.889305
v 23.966924 5.858100 4.720195
v -6.562627 1.160838 -6.840327
v 1.928933 -9.854896 -6.840327
v -4.030495 -5.339277 6.889305
v -6.562627 -1.185247 6.889305
v -3.307477 5.858100 -6.840327
v 22.702424 -4.074564 3.455553
v 16.921403 -9.854896 -6.840327
v 23.425443 4.593387 -5.394253
v 22.339349 4.593387 6.164924
v 25.412962 4.595084 -1.238809
v 3.916452 -10.579771 6.889305
v 1.928933 -9.854896 6.889305
v 20.351830 -7.507113 -6.117290
v 24.145332 4.593387 4.540108
v 22.702424 -4.074564 -3.406575
v -4.575107 4.954976 6.889305
v -5.476533 -3.894618 -6.840327
v 20.351830 -7.507113 6.166268
v -6.562627 -1.185247 -6.840327
v -6.199552 2.425550 6.889305
v 18.367440 6.762921 -6.840327
v 22.880831 6.399634 -5.754428
v 17.644422 -9.495004 6.889305
v 18.367440 -9.131718 -6.840327
v 21.074849 4.593387 6.707874
v 22.160942 4.593387 -6.296033
v -4.575107 4.954976 -6.840327
v 24.868351 4.595084 3.094035
v 24.868351 4.595084 -3.226488
v -1.864569 6.399634 6.889305
v 21.437923 -6.422346 -5.212822
v -6.199552 2.425550 -6.840327
v -6.199552 -2.448262 6.889305
v 19.450404 -8.410237 6.527787
v 21.256386 4.775030 -6.658895
v 16.016847 -10.216485 -6.840327
v 21.797868 -5.880812 4.900282
v 18.367440 6.762921 6.889305
v 3.011896 -10.398128 -6.840327
v 24.145332 4.593387 -4.491130
v 22.880831 6.399634 5.803406
v -2.406050 6.219689 -6.840327
v 22.880831 4.593387 5.803406
v 19.628811 -8.230291 -6.478808
v 24.868351 5.316565 3.094035
v 21.619460 6.762921 -6.477464
v 18.727385 -8.951772 -6.658895
v 20.896442 -6.963881 5.804750
v 24.326869 5.678154 -4.129611
v 18.727385 -8.951772 6.707874
v 23.062368 -2.989797 -2.683538
v 21.619460 6.762921 6.526443
v 23.062368 -2.989797 2.552429
v 20.896442 -6.963881 -5.755772
v -6.381089 -1.908425 6.889305
v -6.381089 1.884016 6.889305
v -1.864569 6.399634 -6.840327
v 16.921403 -9.854896 6.889305
v 25.412962 4.775030 -1.238809
v 25.049888 4.595084 -2.684882
v 23.785387 5.858100 -5.032735
v 17.822829 -9.313361 6.889305
v 20.351830 4.593387 -6.840327
v 25.231425 4.595084 2.010824
f 71 54 90 
f 4 5 8 
f 1 7 10 
f 8 5 12 
f 5 4 13 
f 7 1 15 
f 10 7 17 
f 2 3 18 
f 17 7 18 
f 1 10 19 
f 13 4 20 
f 2 18 20 
f 12 5 21 
f 4 8 24 
f 17 4 24 
f 10 17 24 
f 5 13 25 
f 15 1 27 
f 19 10 28 
f 19 28 29 
f 8 12 29 
f 12 19 29 
f 12 21 30 
f 21 27 30 
f 7 15 31 
f 17 18 33 
f 8 10 37 
f 24 8 37 
f 10 24 37 
f 28 8 38 
f 29 28 38 
f 8 29 38 
f 32 16 41 
f 15 5 42 
f 5 25 42 
f 12 1 43 
f 1 19 43 
f 19 12 43 
f 27 1 45 
f 30 27 45 
f 5 15 46 
f 21 5 46 
f 7 13 47 
f 18 7 47 
f 20 18 47 
f 3 2 48 
f 34 9 48 
f 20 4 49 
f 33 18 50 
f 9 34 52 
f 34 39 52 
f 31 15 53 
f 25 31 53 
f 15 42 53 
f 42 25 53 
f 13 7 56 
f 25 13 56 
f 15 27 58 
f 46 15 58 
f 1 12 59 
f 12 30 59 
f 44 35 60 
f 35 51 60 
f 51 23 60 
f 57 14 60 
f 6 50 61 
f 9 52 61 
f 4 17 62 
f 33 4 62 
f 17 33 62 
f 16 32 63 
f 40 14 63 
f 54 40 63 
f 14 57 63 
f 57 16 63 
f 13 20 64 
f 47 13 64 
f 20 47 64 
f 10 8 65 
f 8 28 65 
f 28 10 65 
f 55 16 66 
f 22 55 66 
f 16 57 66 
f 57 34 66 
f 48 2 67 
f 26 48 67 
f 7 31 68 
f 31 25 68 
f 25 56 68 
f 40 26 69 
f 35 44 69 
f 67 35 69 
f 26 67 69 
f 50 6 70 
f 52 39 70 
f 6 61 70 
f 61 52 70 
f 26 40 71 
f 40 54 71 
f 18 3 72 
f 3 48 72 
f 48 9 72 
f 9 61 72 
f 61 18 72 
f 49 33 73 
f 33 50 73 
f 50 70 73 
f 70 60 73 
f 14 40 74 
f 44 60 74 
f 60 14 74 
f 40 69 74 
f 69 44 74 
f 48 26 75 
f 22 66 75 
f 71 22 75 
f 26 71 75 
f 23 49 76 
f 60 23 76 
f 49 73 76 
f 73 60 76 
f 36 11 77 
f 32 41 77 
f 41 36 77 
f 2 20 78 
f 20 51 78 
f 51 35 78 
f 67 2 78 
f 35 67 78 
f 11 32 79 
f 77 11 79 
f 32 77 79 
f 39 34 80 
f 34 57 80 
f 57 60 80 
f 70 39 80 
f 60 70 80 
f 45 1 81 
f 30 45 81 
f 1 59 81 
f 59 30 81 
f 27 21 82 
f 21 46 82 
f 58 27 82 
f 46 58 82 
f 56 7 83 
f 7 68 83 
f 68 56 83 
f 4 33 84 
f 49 4 84 
f 33 49 84 
f 11 36 85 
f 71 11 85 
f 22 71 85 
f 41 16 86 
f 36 41 86 
f 16 55 86 
f 55 22 86 
f 85 36 86 
f 22 85 86 
f 34 48 87 
f 66 34 87 
f 48 75 87 
f 75 66 87 
f 20 49 88 
f 49 23 88 
f 51 20 88 
f 23 51 88 
f 50 18 89 
f 18 61 89 
f 61 50 89 
f 32 11 90 
f 63 32 90 
f 54 63 90 
f 11 71 90 
