o convex_0
v 3.900172 1.415201 11.779032
v -4.002513 -1.111913 6.562903
v -3.843907 -1.585797 6.562903
v 3.900172 1.415201 6.562903
v 1.371155 -3.957631 11.779032
v -2.579004 3.312346 11.779032
v -0.682833 4.103226 6.562903
v 2.319635 -3.483747 6.562903
v -2.579004 -3.324445 11.620751
v 1.371155 3.944728 11.779032
v -0.682833 -4.116129 6.562903
v 3.900172 -1.428104 11.779032
v -4.002513 -1.111913 11.779032
v -3.843907 1.573698 6.562903
v 2.319635 3.470844 6.562903
v 3.900172 -1.428104 6.562903
v -4.002513 1.099814 11.779032
v -2.579004 3.312346 6.562903
v -2.579004 -3.324445 6.721184
v -1.314101 -3.957631 11.779032
v -1.314101 3.944728 11.779032
v 3.425932 -2.376677 11.779032
v 3.425932 2.363773 11.779032
v -3.369667 2.522271 11.779032
v -3.369667 -2.535174 11.620751
v 4.058778 0.782819 6.562903
v 1.371155 3.944728 6.562903
v 1.371155 -3.957631 6.562903
v 4.058778 -0.638029 11.779032
v 0.422675 4.103226 11.779032
v 0.264858 -4.116129 11.779032
v 2.319635 -3.483747 11.779032
v 2.319635 3.470844 11.779032
v 3.425932 -2.376677 6.562903
v 3.425932 2.363773 6.562903
v -1.789130 -3.799938 6.562903
v -1.789130 3.787035 6.562903
v -4.002513 1.099814 6.562903
v -3.211061 -2.692063 6.562903
v -3.211061 2.679964 6.562903
v 4.058778 0.782819 11.779032
v 4.058778 -0.638029 6.562903
v 0.422675 4.103226 6.562903
v 0.264858 -4.116129 6.562903
v -0.367199 4.103226 11.779032
v -3.843907 -1.585797 11.779032
f 25 9 46 
f 3 2 4 
f 5 1 6 
f 4 2 7 
f 3 4 8 
f 6 1 10 
f 3 8 11 
f 1 5 12 
f 2 3 13 
f 5 6 13 
f 7 2 14 
f 4 7 15 
f 8 4 16 
f 2 13 17 
f 13 6 17 
f 7 14 18 
f 5 13 20 
f 6 10 21 
f 12 5 22 
f 16 12 22 
f 1 4 23 
f 10 1 23 
f 17 6 24 
f 14 17 24 
f 6 18 24 
f 19 9 25 
f 4 1 26 
f 16 4 26 
f 15 7 27 
f 10 15 27 
f 8 5 28 
f 11 8 28 
f 1 12 29 
f 12 16 29 
f 21 10 30 
f 10 27 30 
f 20 11 31 
f 5 20 31 
f 28 5 31 
f 5 8 32 
f 22 5 32 
f 8 22 32 
f 15 10 33 
f 10 23 33 
f 23 15 33 
f 8 16 34 
f 22 8 34 
f 16 22 34 
f 4 15 35 
f 23 4 35 
f 15 23 35 
f 3 11 36 
f 9 19 36 
f 11 20 36 
f 20 9 36 
f 18 6 37 
f 7 18 37 
f 6 21 37 
f 21 7 37 
f 14 2 38 
f 2 17 38 
f 17 14 38 
f 25 3 39 
f 19 25 39 
f 3 36 39 
f 36 19 39 
f 18 14 40 
f 14 24 40 
f 24 18 40 
f 26 1 41 
f 1 29 41 
f 29 26 41 
f 16 26 42 
f 29 16 42 
f 26 29 42 
f 27 7 43 
f 7 30 43 
f 30 27 43 
f 11 28 44 
f 31 11 44 
f 28 31 44 
f 7 21 45 
f 21 30 45 
f 30 7 45 
f 13 3 46 
f 20 13 46 
f 9 20 46 
f 3 25 46 
o convex_1
v 4.057989 0.783623 -8.295161
v -4.001027 -1.111913 -12.879032
v -3.843224 -1.585797 -12.879032
v 3.900185 1.415201 -12.879032
v -1.788625 3.787035 -8.295161
v -0.524620 -4.116129 -8.295161
v 2.318996 -3.483747 -12.879032
v 0.422200 4.103226 -12.879032
v -4.001027 -1.111913 -8.295161
v -3.369025 2.522271 -12.879032
v 2.318996 3.470844 -8.295161
v 3.425986 -2.376677 -8.295161
v -2.262824 -3.483747 -12.879032
v 3.900185 -1.428104 -12.879032
v -3.843224 1.573698 -8.295161
v -2.579219 -3.324445 -8.295161
v 2.318996 3.470844 -12.879032
v -0.366817 -4.116129 -12.879032
v 1.370598 -3.957631 -8.295161
v -1.314426 3.944728 -12.879032
v 0.422200 4.103226 -8.295161
v -4.001027 1.099814 -12.879032
v 3.425986 2.363773 -8.295161
v -2.579219 3.312346 -8.295161
v -3.369025 -2.535174 -12.562702
v 3.900185 -1.428104 -8.295161
v 4.057989 -0.638029 -12.879032
v 1.370598 -3.957631 -12.879032
v -2.579219 3.312346 -12.879032
v 1.370598 3.944728 -12.879032
v -3.527617 -2.218984 -8.295161
v 2.318996 -3.483747 -8.295161
v 3.425986 2.363773 -12.879032
v 3.425986 -2.376677 -12.879032
v -1.314426 -3.957631 -12.879032
v -0.366817 4.103226 -8.295161
v -4.001027 1.099814 -8.295161
v -1.314426 -3.957631 -8.295161
v -3.211222 2.679964 -8.295161
v 1.370598 3.944728 -8.295161
v 0.264397 -4.116129 -8.295161
v 4.057989 -0.638029 -8.295161
v 4.057989 0.783623 -12.879032
v 3.900185 1.415201 -8.295161
v -0.366817 4.103226 -12.879032
f 82 54 91 
f 49 48 50 
f 47 51 52 
f 49 50 53 
f 50 48 54 
f 48 49 55 
f 52 51 55 
f 54 48 56 
f 51 47 57 
f 47 52 58 
f 49 53 59 
f 53 50 60 
f 55 51 61 
f 52 55 62 
f 50 54 63 
f 59 53 64 
f 58 52 65 
f 54 56 66 
f 51 57 67 
f 48 55 68 
f 56 48 68 
f 61 56 68 
f 57 47 69 
f 63 57 69 
f 61 51 70 
f 49 59 71 
f 59 62 71 
f 47 58 72 
f 58 60 72 
f 72 60 73 
f 60 50 73 
f 64 53 74 
f 53 65 74 
f 51 66 75 
f 66 56 75 
f 70 51 75 
f 56 70 75 
f 63 54 76 
f 57 63 76 
f 54 67 76 
f 55 49 77 
f 62 55 77 
f 49 71 77 
f 71 62 77 
f 53 58 78 
f 58 65 78 
f 65 53 78 
f 50 63 79 
f 69 50 79 
f 63 69 79 
f 58 53 80 
f 53 60 80 
f 60 58 80 
f 64 52 81 
f 59 64 81 
f 66 51 82 
f 51 67 82 
f 67 54 82 
f 55 61 83 
f 68 55 83 
f 61 68 83 
f 52 62 84 
f 62 59 84 
f 81 52 84 
f 59 81 84 
f 56 61 85 
f 61 70 85 
f 70 56 85 
f 67 57 86 
f 57 76 86 
f 76 67 86 
f 52 64 87 
f 65 52 87 
f 64 74 87 
f 74 65 87 
f 47 72 88 
f 72 73 88 
f 73 47 88 
f 50 47 89 
f 47 73 89 
f 73 50 89 
f 47 50 90 
f 69 47 90 
f 50 69 90 
f 54 66 91 
f 66 82 91 
o convex_2
v -6.530261 6.316129 -1.181732
v 4.057976 -6.329032 -8.295161
v 4.215790 -6.329032 -8.295161
v -0.841608 -6.329032 6.562903
v 4.215790 6.316129 6.562903
v 4.215790 6.316129 -8.295161
v -5.424514 -6.329032 -3.867993
v -4.002088 1.098886 -8.295161
v 4.215790 -6.329032 6.562903
v -4.002088 1.098886 6.562903
v -6.214634 -6.329032 2.451338
v -5.424514 6.316129 3.873733
v -3.369781 6.316129 -5.765975
v -2.579662 -3.323702 -8.295161
v -1.789542 6.316129 6.404374
v -6.530261 -6.329032 -1.181732
v -4.476580 -6.329032 4.981979
v -6.530261 6.316129 1.187472
v -2.105169 3.628908 -8.295161
v -3.053102 -6.329032 -5.923049
v -6.214634 6.316129 -2.445598
v -4.002088 -1.110551 -8.295161
v -6.214634 -6.329032 -2.445598
v -4.002088 -1.110551 6.562903
v -6.530261 -6.329032 1.187472
v -3.369781 6.316129 5.771714
v -6.214634 6.316129 2.451338
v -4.634394 6.316129 -4.816257
v -3.053102 -6.329032 5.930243
v -5.740141 -6.329032 3.401056
v -4.476580 -6.329032 -4.974785
v -3.211968 2.679531 -8.295161
v -0.841608 6.316129 6.562903
v -4.476580 6.316129 4.981979
v -5.740141 6.316129 3.401056
v -2.264034 6.316129 -6.240106
v -5.424514 6.316129 -3.867993
v -3.527595 -2.217127 -8.295161
v -1.789542 -6.329032 6.404374
v -2.264034 -6.329032 -6.240106
v 4.057976 6.316129 -8.295161
v -1.315049 -3.956208 -8.295161
v -3.843222 1.574194 -8.295161
f 128 119 134 
f 93 94 95 
f 96 94 97 
f 94 93 97 
f 92 96 97 
f 93 95 98 
f 97 93 99 
f 95 94 100 
f 96 95 100 
f 94 96 100 
f 95 96 101 
f 98 95 102 
f 96 92 103 
f 92 97 104 
f 99 93 105 
f 96 103 106 
f 98 102 107 
f 102 95 108 
f 103 92 109 
f 92 107 109 
f 97 99 110 
f 93 98 111 
f 92 104 112 
f 107 92 112 
f 99 105 113 
f 112 99 113 
f 98 107 114 
f 107 112 114 
f 112 113 114 
f 113 98 114 
f 95 101 115 
f 107 102 116 
f 102 109 116 
f 109 107 116 
f 101 106 117 
f 106 103 117 
f 109 102 118 
f 103 109 118 
f 112 104 119 
f 108 95 120 
f 115 108 120 
f 102 108 121 
f 115 101 121 
f 108 115 121 
f 118 102 121 
f 111 98 122 
f 105 111 122 
f 110 99 123 
f 104 110 123 
f 119 104 123 
f 101 96 124 
f 96 106 124 
f 106 101 124 
f 103 101 125 
f 101 117 125 
f 117 103 125 
f 101 103 126 
f 103 118 126 
f 121 101 126 
f 118 121 126 
f 104 97 127 
f 110 104 127 
f 99 112 128 
f 112 119 128 
f 98 113 129 
f 113 105 129 
f 122 98 129 
f 105 122 129 
f 95 115 130 
f 120 95 130 
f 115 120 130 
f 93 111 131 
f 111 105 131 
f 97 110 132 
f 127 97 132 
f 110 127 132 
f 105 93 133 
f 93 131 133 
f 131 105 133 
f 123 99 134 
f 119 123 134 
f 99 128 134 
o convex_3
v 5.323820 -6.329032 -8.926832
v 17.336197 -6.012810 -2.129655
v 17.176957 -5.696913 -1.654626
v 4.216842 -6.329032 6.562903
v 4.216842 -5.222797 -6.554843
v 10.856140 -5.222797 6.403508
v 13.068811 -5.222797 -6.237631
v 14.332461 -6.329032 4.031519
v 4.216842 -5.222797 6.562903
v 15.122242 -6.329032 -7.503323
v 10.382271 -5.696913 -9.559678
v 15.122242 -5.222797 2.609588
v 16.861044 -5.538803 -4.815700
v 4.216842 -6.329032 -8.292407
v 9.907118 -6.329032 6.562903
v 17.336197 -6.329032 -4.500066
v 15.122242 -5.696913 -7.503323
v 11.803877 -6.329032 -9.240887
v 4.849951 -5.696913 -8.767436
v 16.229219 -5.222797 -1.654626
v 13.068811 -5.222797 5.295633
v 8.168316 -5.222797 -7.345506
v 12.593658 -6.329032 5.612845
v 7.852403 -5.696913 -9.558099
v 17.176957 -6.329032 -1.654626
v 7.852403 -6.329032 -9.558099
v 13.383439 -5.696913 -8.609620
v 17.336197 -5.538803 -2.287472
v 16.861044 -5.696913 -5.606363
v 10.382271 -5.538803 -9.083070
v 6.746710 -5.538803 -8.926832
v 9.907118 -5.222797 6.562903
v 14.806329 -5.222797 -4.657883
v 14.332461 -5.538803 -7.503323
v 17.336197 -5.538803 -3.867220
v 14.332461 -5.222797 4.031519
v 16.545132 -6.329032 -6.079814
v 11.330008 -5.222797 -7.028294
v 17.019000 -5.380800 -1.498387
v 4.216842 -5.696913 -8.292407
v 12.277746 -5.538803 -8.609620
v 14.648373 -6.329032 3.558068
v 14.016548 -6.329032 -8.292407
f 152 161 177 
f 139 140 141 
f 138 135 142 
f 139 138 143 
f 140 139 143 
f 142 135 144 
f 141 140 146 
f 135 138 148 
f 138 139 148 
f 138 142 149 
f 143 138 149 
f 142 144 150 
f 144 135 152 
f 135 148 153 
f 141 146 154 
f 146 140 155 
f 139 141 156 
f 149 142 157 
f 140 149 157 
f 155 140 157 
f 142 155 157 
f 135 153 158 
f 136 137 159 
f 137 146 159 
f 150 136 159 
f 142 150 159 
f 152 135 160 
f 145 152 160 
f 135 158 160 
f 158 145 160 
f 152 145 161 
f 137 136 162 
f 136 150 162 
f 151 147 163 
f 145 158 164 
f 153 139 165 
f 139 156 165 
f 158 153 165 
f 156 164 165 
f 164 158 165 
f 140 143 166 
f 149 140 166 
f 143 149 166 
f 141 154 167 
f 147 151 168 
f 151 161 168 
f 167 147 168 
f 141 167 168 
f 162 150 169 
f 150 163 169 
f 163 147 169 
f 147 167 169 
f 167 154 169 
f 146 155 170 
f 155 142 170 
f 150 144 171 
f 144 151 171 
f 163 150 171 
f 151 163 171 
f 156 141 172 
f 164 156 172 
f 146 137 173 
f 154 146 173 
f 137 162 173 
f 162 169 173 
f 169 154 173 
f 148 139 174 
f 139 153 174 
f 153 148 174 
f 161 145 175 
f 145 164 175 
f 168 161 175 
f 141 168 175 
f 172 141 175 
f 164 172 175 
f 159 146 176 
f 142 159 176 
f 170 142 176 
f 146 170 176 
f 151 144 177 
f 144 152 177 
f 161 151 177 
o convex_4
v 4.216842 -5.222581 -6.556452
v 15.597487 5.209677 0.555430
v 15.439299 5.209677 1.662408
v 15.597487 -5.222581 0.555430
v 4.216842 -5.222581 6.562903
v 4.216842 5.209677 -6.556452
v 4.216842 5.209677 6.562903
v 12.909400 5.209677 -5.448190
v 11.643894 -5.222581 6.087750
v 11.803196 -5.222581 -6.078731
v 10.855180 5.209677 6.402378
v 14.648357 -5.222581 -3.551431
v 14.331981 -5.222581 4.033035
v 10.222427 5.209677 -6.556452
v 15.279997 5.209677 -2.287782
v 13.066475 5.209677 5.297969
v 9.907165 -5.222581 6.562903
v 10.222427 -5.222581 -6.556452
v 15.439299 -4.273915 -1.813913
v 14.648357 5.209677 3.557882
v 15.122922 -5.222581 2.608861
v 14.331981 5.209677 -4.026584
v 12.909400 -5.222581 -5.448190
v 9.907165 5.209677 6.562903
v 13.066475 -5.222581 5.297969
v 15.597487 5.209677 -0.864891
v 11.803196 5.209677 -6.078731
v 15.597487 -5.222581 -0.706935
v 14.489055 -3.325249 -3.868628
v 12.591910 5.209677 5.613882
v 14.331981 5.209677 4.033035
v 15.439299 -5.222581 1.662408
v 10.855180 -5.222581 6.402378
v 15.279997 -5.222581 -2.287782
v 15.122922 5.209677 2.608861
v 10.855180 -5.222581 -6.395927
v 14.648357 5.209677 -3.551431
v 11.643894 5.209677 6.087750
v 14.648357 -5.222581 3.557882
v 12.591910 -5.222581 5.613882
v 12.118459 -5.222581 -5.922059
f 187 204 218 
f 179 180 181 
f 178 181 182 
f 180 179 183 
f 178 182 183 
f 180 183 184 
f 183 182 184 
f 183 179 185 
f 182 181 186 
f 181 178 187 
f 180 184 188 
f 181 187 189 
f 186 181 190 
f 178 183 191 
f 183 185 191 
f 185 179 192 
f 180 188 193 
f 184 182 194 
f 182 186 194 
f 187 178 195 
f 178 191 195 
f 180 193 197 
f 190 181 198 
f 185 192 199 
f 189 187 200 
f 185 199 200 
f 188 184 201 
f 184 194 201 
f 194 188 201 
f 186 190 202 
f 190 193 202 
f 179 181 203 
f 192 179 203 
f 196 192 203 
f 191 185 204 
f 181 189 205 
f 203 181 205 
f 196 203 205 
f 189 200 206 
f 200 199 206 
f 193 188 207 
f 202 193 207 
f 193 190 208 
f 190 197 208 
f 197 193 208 
f 181 180 209 
f 180 198 209 
f 198 181 209 
f 186 188 210 
f 194 186 210 
f 188 194 210 
f 189 192 211 
f 192 196 211 
f 205 189 211 
f 196 205 211 
f 180 197 212 
f 198 180 212 
f 197 198 212 
f 187 195 213 
f 195 191 213 
f 204 187 213 
f 191 204 213 
f 192 189 214 
f 199 192 214 
f 189 206 214 
f 206 199 214 
f 188 186 215 
f 186 207 215 
f 207 188 215 
f 197 190 216 
f 190 198 216 
f 198 197 216 
f 186 202 217 
f 207 186 217 
f 202 207 217 
f 185 200 218 
f 200 187 218 
f 204 185 218 
o convex_5
v 5.323820 6.316129 -8.926832
v 17.336197 6.316129 -2.287472
v 17.176957 6.316129 -1.812443
v 9.907118 5.209677 6.562903
v 4.216842 6.316129 6.562903
v 4.216842 5.209677 -6.554843
v 14.806329 5.209677 -4.500066
v 4.216842 5.209677 6.562903
v 12.277746 5.684057 -9.083070
v 12.593658 6.316129 5.612845
v 14.648373 5.209677 3.558068
v 15.122242 6.316129 -7.503323
v 17.336197 5.525822 -3.709403
v 4.216842 6.316129 -8.292407
v 6.746710 5.684057 -9.398704
v 10.382271 5.209677 -7.186111
v 10.382271 6.316129 -9.559678
v 16.545132 5.684057 -6.079814
v 14.648373 6.316129 3.558068
v 17.019000 5.367912 -1.498387
v 9.907118 6.316129 6.562903
v 17.176957 6.316129 -4.973517
v 13.068811 5.209677 5.295633
v 4.376083 5.684057 -8.450224
v 13.699352 5.525822 -7.818957
v 8.326272 5.525822 -9.083070
v 16.229219 5.209677 -1.184332
v 10.382271 5.684057 -9.559678
v 14.016548 5.684057 -8.292407
v 13.383439 6.316129 -8.609620
v 10.856140 5.209677 6.403508
v 7.852403 6.316129 -9.558099
v 12.909570 5.209677 -6.237631
v 12.119789 5.525822 -8.609620
v 16.229219 5.525822 -5.606363
v 14.332461 6.316129 4.031519
v 7.536491 5.209677 -7.186111
f 244 234 255 
f 221 220 219 
f 221 219 223 
f 222 224 225 
f 222 223 226 
f 224 222 226 
f 223 224 226 
f 221 223 228 
f 222 225 229 
f 219 220 230 
f 223 219 232 
f 224 223 232 
f 225 224 234 
f 219 230 235 
f 221 228 237 
f 229 221 237 
f 220 221 238 
f 221 229 238 
f 231 220 238 
f 223 222 239 
f 228 223 239 
f 230 220 240 
f 220 231 240 
f 236 230 240 
f 231 236 240 
f 222 229 241 
f 232 219 242 
f 224 232 242 
f 233 224 242 
f 219 233 242 
f 224 233 244 
f 229 225 245 
f 225 231 245 
f 238 229 245 
f 231 238 245 
f 235 227 246 
f 244 233 246 
f 230 236 247 
f 235 230 248 
f 227 235 248 
f 247 227 248 
f 230 247 248 
f 239 222 249 
f 228 239 249 
f 222 241 249 
f 241 228 249 
f 233 219 250 
f 219 235 250 
f 235 246 250 
f 246 233 250 
f 225 234 251 
f 243 251 252 
f 234 244 252 
f 246 227 252 
f 244 246 252 
f 227 247 252 
f 247 243 252 
f 251 234 252 
f 231 225 253 
f 236 231 253 
f 247 236 253 
f 243 247 253 
f 225 251 253 
f 251 243 253 
f 237 228 254 
f 229 237 254 
f 228 241 254 
f 241 229 254 
f 234 224 255 
f 224 244 255 
