o convex_0
v -2.315657 -6.239078 -6.333419
v 17.393474 6.624140 -5.164291
v 17.393474 6.624140 -6.333419
v 22.405752 -8.076001 -5.665412
v -6.327422 2.112734 -5.164291
v -2.652399 6.122873 -6.333419
v -0.813269 -6.573785 -5.164291
v 26.414279 -2.228939 -6.333419
v 23.739769 -2.397086 -5.164291
v 17.895350 -9.581389 -6.333419
v -0.479765 6.624140 -5.164291
v -6.327422 -2.062379 -6.333419
v 26.579413 0.107665 -5.665412
v 17.895350 -7.073466 -5.164291
v 16.056219 -9.581389 -5.665412
v -5.323671 -4.067448 -5.164291
v 21.068497 5.286898 -6.333419
v 21.068497 5.286898 -5.164291
v -6.159051 2.614001 -6.333419
v -4.323159 5.120338 -5.164291
v 23.241132 -7.408173 -6.333419
v 25.245396 -5.068397 -5.665412
v -0.479765 6.624140 -6.333419
v 26.579413 0.107665 -6.333419
v 14.718964 -9.413242 -6.333419
v -6.492555 -1.396137 -5.164291
v 21.903877 -5.236543 -5.164291
v 24.076512 0.107665 -5.164291
v -5.323671 -4.067448 -6.333419
v -3.154275 -5.904371 -5.164291
v 19.731242 -9.246682 -5.665412
v 26.414279 -2.228939 -5.665412
v -4.323159 5.120338 -6.333419
v 18.730729 6.455993 -5.164291
v -6.492555 1.443320 -6.333419
v 20.734993 -8.911975 -6.333419
v 25.245396 -5.068397 -6.333419
v 15.722715 -8.911975 -5.498295
v 20.067984 5.953140 -6.333419
v -4.154788 -5.236543 -6.333419
v -2.652399 6.122873 -5.164291
v -1.817020 -6.405638 -6.333419
v -5.492043 3.783096 -5.164291
v 22.904390 3.113682 -5.164291
v 20.734993 -8.242561 -5.498295
v 24.410016 -5.236543 -5.498295
v 14.718964 -9.413242 -5.665412
v 24.241645 -6.405638 -5.665412
v 18.228854 -8.911975 -5.498295
v 25.747271 -2.228939 -5.498295
v -6.159051 -2.563646 -5.164291
v -1.817020 -6.405638 -5.164291
f 42 47 52 
f 3 1 6 
f 2 5 7 
f 1 3 8 
f 2 7 9 
f 1 8 10 
f 2 3 11 
f 5 2 11 
f 6 1 12 
f 9 7 14 
f 7 5 16 
f 8 3 17 
f 13 17 18 
f 2 9 18 
f 6 12 19 
f 5 11 20 
f 10 8 21 
f 3 6 23 
f 11 3 23 
f 6 11 23 
f 13 8 24 
f 8 17 24 
f 17 13 24 
f 1 10 25 
f 10 15 25 
f 16 5 26 
f 9 14 27 
f 18 9 28 
f 12 1 29 
f 7 16 30 
f 15 10 31 
f 8 13 32 
f 22 8 32 
f 6 19 33 
f 20 6 33 
f 3 2 34 
f 2 18 34 
f 5 19 35 
f 19 12 35 
f 26 5 35 
f 12 26 35 
f 21 4 36 
f 10 21 36 
f 4 31 36 
f 31 10 36 
f 21 8 37 
f 8 22 37 
f 14 7 38 
f 7 15 38 
f 17 3 39 
f 18 17 39 
f 3 34 39 
f 34 18 39 
f 29 1 40 
f 16 29 40 
f 30 16 40 
f 1 30 40 
f 11 6 41 
f 20 11 41 
f 6 20 41 
f 1 25 42 
f 19 5 43 
f 5 20 43 
f 33 19 43 
f 20 33 43 
f 13 18 44 
f 28 13 44 
f 18 28 44 
f 4 27 45 
f 27 14 45 
f 31 4 45 
f 27 4 46 
f 9 27 46 
f 15 7 47 
f 25 15 47 
f 42 25 47 
f 4 21 48 
f 21 37 48 
f 37 22 48 
f 46 4 48 
f 22 46 48 
f 15 31 49 
f 14 38 49 
f 38 15 49 
f 45 14 49 
f 31 45 49 
f 28 9 50 
f 13 28 50 
f 32 13 50 
f 22 32 50 
f 46 22 50 
f 9 46 50 
f 16 26 51 
f 26 12 51 
f 12 29 51 
f 29 16 51 
f 30 1 52 
f 7 30 52 
f 1 42 52 
f 47 7 52 
o convex_1
v 1.524288 -8.244850 -2.991697
v 17.394881 6.624140 0.516226
v 18.728623 6.455307 0.516226
v 17.394881 6.624140 -5.164062
v -4.322937 5.119193 0.516226
v 20.733921 -5.571168 0.516226
v -6.159565 2.614345 -5.164062
v 21.402354 -5.069034 -5.164062
v -4.154267 -5.236412 0.516226
v -3.151618 -5.904469 -5.164062
v -0.481010 6.624140 -5.164062
v 23.407652 1.777455 -5.164062
v -8.164864 -2.062052 -2.157113
v 23.576322 0.942020 0.516226
v 18.063314 -6.573981 -5.164062
v 18.063314 -6.573981 0.516226
v -0.481010 6.624140 0.516226
v -2.986072 -7.908639 -2.157113
v 21.068137 5.286571 -5.164062
v -6.328235 2.112211 0.516226
v -0.980773 -6.573981 0.516226
v 23.242106 -2.395352 0.516226
v 22.405003 3.950458 0.516226
v -6.996668 -4.735734 -2.991697
v 23.407652 -1.894674 -5.164062
v -8.333534 0.108041 -2.991697
v -6.328235 -2.062052 -5.164062
v -4.322937 5.119193 -5.164062
v -0.815227 -6.573981 -5.164062
v -1.649206 -8.244850 -2.157113
v -6.159565 -2.562730 0.516226
v -6.328235 -5.571168 -2.157113
v -2.986072 -7.908639 -2.991697
v -2.651855 6.122006 0.516226
v 22.573673 -3.732921 0.516226
v 22.405003 3.950458 -5.164062
v 21.068137 5.286571 0.516226
v 20.065488 5.954628 -5.164062
v -1.649206 6.456762 -5.164062
v 19.397056 -6.239225 -5.164062
v -8.333534 0.108041 -2.157113
v -6.659328 -0.059337 0.516226
v 22.573673 -3.732921 -5.164062
v -5.491133 -6.406603 -2.991697
v -5.325586 -4.066222 -5.164062
v -8.164864 -2.062052 -2.991697
v -5.491133 3.783080 0.516226
v 23.073436 2.780267 0.516226
v 23.576322 -1.059239 -5.164062
v 1.524288 -8.244850 -2.157113
v 23.576322 -1.059239 0.516226
v -7.661977 -3.565543 -2.157113
v -5.491133 3.783080 -5.164062
v -4.822700 -6.907282 -2.157113
v -1.649206 -8.244850 -2.991697
v -3.320288 5.787250 -5.164062
v -5.325586 -4.066222 0.516226
v -6.493782 1.442699 -5.164062
v -2.820525 -6.071847 0.516226
v 19.397056 -6.239225 0.516226
v 18.728623 6.455307 -5.164062
v 22.070787 -4.400978 0.516226
v 20.065488 5.954628 0.516226
v 23.576322 0.942020 -5.164062
v 22.907889 3.115023 -5.164062
v -7.661977 -3.565543 -2.991697
v -6.493782 -1.393995 -5.164062
v 20.733921 -5.571168 -5.164062
v -1.649206 6.456762 0.516226
v -4.322937 -7.242038 -2.991697
v -4.154267 -5.236412 -5.164062
v -4.822700 4.618515 0.516226
v -6.493782 -1.559918 0.516226
v -8.333534 -0.893316 -2.157113
v -1.814752 -6.406603 -5.164062
v -6.996668 -4.735734 -2.157113
v 23.242106 -2.395352 -5.164062
v -2.651855 6.122006 -5.164062
v -3.320288 5.787250 0.516226
v 21.402354 -5.069034 0.516226
v 22.070787 -4.400978 -5.164062
v 23.407652 1.777455 0.516226
v 18.897293 -6.405148 -5.164062
f 92 112 135 
f 54 55 56 
f 55 54 57 
f 55 57 58 
f 59 56 60 
f 58 57 61 
f 59 60 62 
f 54 56 63 
f 56 59 63 
f 60 56 64 
f 55 58 66 
f 62 60 67 
f 58 61 68 
f 53 67 68 
f 57 54 69 
f 54 63 69 
f 64 56 71 
f 61 57 72 
f 68 61 73 
f 66 58 74 
f 55 66 75 
f 60 64 77 
f 59 62 79 
f 63 59 80 
f 67 53 81 
f 62 67 81 
f 68 73 82 
f 73 70 82 
f 61 72 83 
f 82 70 85 
f 57 69 86 
f 74 58 87 
f 64 71 88 
f 71 75 88 
f 55 75 89 
f 75 71 89 
f 71 56 90 
f 89 71 90 
f 69 63 91 
f 63 80 91 
f 67 60 92 
f 83 72 94 
f 72 93 94 
f 60 77 95 
f 74 87 95 
f 84 76 96 
f 79 62 97 
f 96 76 97 
f 72 57 99 
f 93 72 99 
f 75 66 100 
f 77 64 101 
f 53 68 102 
f 82 53 102 
f 68 82 102 
f 66 74 103 
f 74 77 103 
f 101 66 103 
f 77 101 103 
f 83 65 104 
f 65 98 104 
f 59 78 105 
f 80 59 105 
f 78 93 105 
f 93 99 105 
f 61 84 106 
f 84 96 106 
f 81 53 107 
f 53 82 107 
f 82 85 107 
f 80 57 108 
f 91 80 108 
f 61 83 109 
f 84 61 109 
f 83 104 109 
f 78 59 110 
f 59 79 110 
f 73 61 111 
f 70 73 111 
f 61 106 111 
f 106 70 111 
f 58 68 112 
f 92 58 112 
f 56 55 113 
f 55 90 113 
f 90 56 113 
f 87 58 114 
f 95 87 114 
f 55 89 115 
f 90 55 115 
f 89 90 115 
f 64 66 116 
f 101 64 116 
f 66 101 116 
f 64 88 117 
f 88 75 117 
f 100 64 117 
f 75 100 117 
f 97 76 118 
f 79 97 118 
f 98 79 118 
f 76 104 118 
f 104 98 118 
f 98 78 119 
f 79 98 119 
f 78 110 119 
f 110 79 119 
f 60 58 120 
f 58 92 120 
f 92 60 120 
f 86 69 121 
f 69 91 121 
f 91 86 121 
f 62 85 122 
f 85 70 122 
f 70 106 122 
f 106 96 122 
f 97 62 123 
f 96 97 123 
f 62 122 123 
f 122 96 123 
f 57 80 124 
f 99 57 124 
f 80 105 124 
f 105 99 124 
f 65 83 125 
f 83 94 125 
f 125 94 126 
f 93 78 126 
f 94 93 126 
f 98 65 126 
f 78 98 126 
f 65 125 126 
f 62 81 127 
f 85 62 127 
f 81 107 127 
f 107 85 127 
f 76 84 128 
f 104 76 128 
f 84 109 128 
f 109 104 128 
f 77 74 129 
f 95 77 129 
f 74 95 129 
f 86 91 130 
f 108 86 130 
f 91 108 130 
f 57 86 131 
f 108 57 131 
f 86 108 131 
f 58 60 132 
f 114 58 132 
f 60 114 132 
f 60 95 133 
f 114 60 133 
f 95 114 133 
f 66 64 134 
f 64 100 134 
f 100 66 134 
f 68 67 135 
f 67 92 135 
f 112 68 135 
o convex_2
v 1.524751 -8.244850 2.187030
v 17.391887 6.624140 5.027043
v 18.728725 6.456762 5.027043
v 17.391887 6.624140 0.516226
v -4.322351 5.119193 5.027043
v 20.733981 -5.571168 5.027043
v -6.158941 2.612889 0.516226
v 22.070818 -4.400978 0.516226
v -4.156808 -5.236412 5.027043
v -3.154180 -5.904469 0.516226
v -0.480505 6.624140 0.516226
v 23.407656 1.777455 5.027043
v -8.164197 -2.062052 3.021990
v 22.904780 3.115023 0.516226
v 18.063429 -6.573981 0.516226
v 18.063429 -6.573981 5.027043
v -2.985513 -7.910094 3.021990
v -0.480505 6.624140 5.027043
v 23.407656 -1.894674 5.027043
v -6.327607 2.112211 5.027043
v -6.996026 -4.735734 2.187030
v -0.814714 -6.573981 5.027043
v 23.573199 -1.059239 0.516226
v -8.329740 0.108041 2.187030
v -6.493150 -1.559918 0.516226
v -4.322351 5.119193 0.516226
v 21.068190 5.286571 5.027043
v 20.065562 5.954628 0.516226
v 1.524751 -8.244850 3.021990
v -0.980257 -6.573981 0.516226
v -6.158941 -2.562730 5.027043
v -6.327607 -5.571168 3.021990
v -2.985513 -7.910094 2.187030
v -2.651304 6.122006 0.516226
v 19.397143 -6.239225 0.516226
v 22.573694 -3.732921 5.027043
v 22.405028 3.950458 5.027043
v -8.329740 0.108041 3.021990
v 21.236857 5.119193 0.516226
v 23.238989 -2.395352 0.516226
v -2.151552 6.289384 5.027043
v 23.573199 0.942020 0.516226
v -5.490522 -6.406603 2.187030
v -5.324979 -4.066222 0.516226
v -8.164197 -2.062052 2.187030
v -5.490522 3.783080 5.027043
v 23.573199 0.942020 5.027043
v -1.648676 -8.244850 3.021990
v -6.493150 -1.393995 5.027043
v -7.664444 -3.565543 3.021990
v -4.825227 4.617059 0.516226
v 20.733981 -5.571168 0.516226
v -4.825227 -6.907282 3.021990
v -1.648676 -8.244850 2.187030
v -2.819970 -6.071847 5.027043
v -6.661816 0.108041 0.516226
v -5.324979 -4.066222 5.027043
v 18.728725 6.456762 0.516226
v 18.897391 -6.406603 5.027043
v 21.402400 -5.069034 5.027043
v 22.405028 3.950458 0.516226
v 20.065562 5.954628 5.027043
v -3.319723 5.787250 5.027043
v -7.664444 -3.565543 2.187030
v -1.648676 6.456762 0.516226
v 23.573199 -1.059239 5.027043
v 23.073446 2.780267 5.027043
v 23.407656 1.777455 0.516226
v 22.573694 -3.732921 0.516226
v -6.493150 1.442699 5.027043
v -4.322351 -7.240582 2.187030
v -4.156808 -5.236412 0.516226
v -5.490522 3.783080 0.516226
v -8.329740 -0.894772 2.187030
v -6.996026 -4.735734 3.021990
f 192 185 210 
f 137 138 139 
f 138 137 140 
f 138 140 141 
f 142 139 143 
f 141 140 144 
f 142 143 145 
f 137 139 146 
f 139 142 146 
f 138 141 147 
f 143 139 149 
f 145 143 150 
f 141 144 151 
f 136 150 151 
f 140 137 153 
f 137 146 153 
f 147 141 154 
f 144 140 155 
f 151 144 157 
f 143 149 158 
f 142 145 160 
f 146 142 161 
f 138 147 162 
f 149 139 163 
f 136 151 164 
f 151 157 164 
f 150 136 165 
f 145 150 165 
f 144 155 166 
f 145 165 168 
f 146 161 169 
f 150 143 170 
f 154 141 171 
f 162 147 172 
f 149 163 174 
f 163 162 174 
f 162 172 174 
f 143 158 175 
f 158 154 175 
f 154 171 175 
f 140 153 176 
f 158 149 177 
f 167 156 178 
f 160 145 179 
f 178 156 179 
f 155 140 181 
f 173 155 181 
f 159 173 181 
f 147 154 182 
f 177 147 182 
f 158 177 182 
f 136 164 183 
f 164 157 183 
f 152 168 183 
f 166 155 184 
f 148 166 184 
f 173 148 184 
f 166 148 185 
f 148 180 185 
f 161 142 186 
f 140 161 186 
f 181 140 186 
f 141 170 187 
f 170 143 187 
f 144 167 188 
f 167 178 188 
f 165 136 189 
f 168 165 189 
f 136 183 189 
f 183 168 189 
f 157 144 190 
f 152 183 190 
f 183 157 190 
f 144 188 190 
f 188 152 190 
f 159 142 191 
f 142 160 191 
f 144 166 192 
f 167 144 192 
f 166 185 192 
f 139 138 193 
f 138 163 193 
f 163 139 193 
f 141 151 194 
f 151 150 194 
f 170 141 194 
f 150 170 194 
f 171 141 195 
f 143 171 195 
f 141 187 195 
f 187 143 195 
f 172 149 196 
f 149 174 196 
f 174 172 196 
f 138 162 197 
f 162 163 197 
f 163 138 197 
f 161 140 198 
f 169 161 198 
f 140 176 198 
f 176 169 198 
f 179 156 199 
f 160 179 199 
f 180 160 199 
f 156 185 199 
f 185 180 199 
f 153 146 200 
f 146 169 200 
f 176 153 200 
f 169 176 200 
f 154 158 201 
f 182 154 201 
f 158 182 201 
f 172 147 202 
f 149 172 202 
f 147 177 203 
f 177 149 203 
f 202 147 203 
f 149 202 203 
f 171 143 204 
f 143 175 204 
f 175 171 204 
f 155 173 205 
f 184 155 205 
f 173 184 205 
f 168 152 206 
f 145 168 206 
f 152 188 206 
f 188 178 206 
f 179 145 207 
f 178 179 207 
f 145 206 207 
f 206 178 207 
f 142 159 208 
f 159 181 208 
f 186 142 208 
f 181 186 208 
f 173 159 209 
f 148 173 209 
f 180 148 209 
f 160 180 209 
f 159 191 209 
f 191 160 209 
f 156 167 210 
f 185 156 210 
f 167 192 210 
o convex_3
v -2.817442 -6.072517 5.027043
v 17.394065 6.624140 6.363582
v 18.731353 6.455993 6.363582
v 14.719489 -9.413242 6.363582
v 23.575380 -1.063017 5.027043
v -4.323105 5.120338 6.363582
v -0.479616 6.624140 5.027043
v -4.154730 -5.236543 6.363582
v 26.415093 -2.228939 6.363582
v 20.402154 -8.578854 5.528376
v 20.065403 5.954726 5.027043
v -6.492555 1.443320 5.027043
v 18.061090 -6.573785 5.027043
v 26.583468 -0.058896 5.695312
v -6.492555 -1.396137 6.363582
v -0.479616 6.624140 6.363582
v 23.241867 -7.408173 6.363582
v 24.575917 -5.236543 5.528376
v 16.056777 -9.581389 5.695312
v -5.657155 -3.566181 5.027043
v 17.394065 6.624140 5.027043
v -1.816904 -6.405638 6.363582
v 21.069179 5.286898 6.363582
v -4.323105 5.120338 5.027043
v -0.813128 -6.573785 5.027043
v -6.159043 2.614001 6.363582
v 19.064866 -9.413242 6.363582
v 26.583468 -0.058896 6.363582
v 22.406467 3.949657 5.027043
v 21.402691 -5.069983 5.027043
v 25.913205 -3.732741 5.695312
v 22.571604 -7.909440 5.695312
v 18.397840 -9.080122 5.528376
v -2.652304 6.122873 5.027043
v -6.492555 -1.396137 5.027043
v -5.492018 3.783096 5.027043
v -5.657155 -3.566181 6.363582
v 20.402154 -9.080122 5.695312
v 24.909430 -5.571250 6.363582
v 24.410780 -6.239078 5.695312
v -2.652304 6.122873 6.363582
v 23.407004 1.778027 5.027043
v 26.081580 -1.229577 5.528376
v -4.154730 -5.236543 5.027043
v -6.492555 1.443320 6.363582
v 22.905117 -7.075052 5.528376
v 23.241867 -2.397086 5.027043
v 20.402154 -9.080122 6.363582
v 14.719489 -9.413242 5.695312
v 21.069179 5.286898 5.027043
v 17.895953 -9.581389 5.695312
v 25.411317 -3.732741 5.528376
v 26.415093 -2.228939 5.695312
v 17.895953 -9.581389 6.363582
v -6.159043 -2.563646 6.363582
v -5.492018 3.783096 6.363582
v 18.731353 6.455993 5.027043
v -3.150954 -5.904371 6.363582
v -1.648529 6.455993 5.027043
f 244 251 269 
f 213 212 214 
f 214 212 216 
f 215 211 217 
f 214 216 218 
f 213 214 219 
f 215 217 221 
f 217 211 222 
f 211 215 223 
f 218 216 225 
f 216 212 226 
f 212 217 226 
f 219 214 227 
f 222 211 230 
f 212 213 231 
f 217 212 231 
f 221 217 231 
f 214 218 232 
f 213 219 233 
f 221 213 233 
f 217 222 234 
f 211 223 235 
f 232 211 235 
f 225 216 236 
f 227 214 237 
f 219 224 238 
f 233 219 238 
f 224 233 238 
f 215 221 239 
f 223 215 240 
f 220 223 240 
f 223 220 243 
f 235 223 243 
f 229 235 243 
f 234 216 244 
f 217 234 244 
f 225 222 245 
f 222 230 245 
f 216 234 246 
f 234 222 246 
f 222 236 246 
f 218 225 247 
f 230 218 247 
f 220 242 248 
f 243 220 248 
f 219 227 249 
f 241 219 249 
f 228 241 250 
f 227 242 250 
f 249 227 250 
f 241 249 250 
f 216 226 251 
f 244 216 251 
f 215 239 252 
f 239 224 252 
f 215 252 253 
f 252 224 253 
f 230 211 254 
f 218 230 254 
f 222 225 255 
f 225 236 255 
f 236 222 255 
f 220 240 256 
f 240 228 256 
f 242 220 256 
f 228 250 256 
f 250 242 256 
f 240 215 257 
f 228 240 257 
f 215 253 257 
f 227 237 258 
f 242 227 258 
f 237 248 258 
f 248 242 258 
f 229 214 259 
f 214 232 259 
f 235 229 259 
f 232 235 259 
f 221 233 260 
f 233 224 260 
f 239 221 260 
f 224 239 260 
f 229 243 261 
f 248 237 261 
f 243 248 261 
f 241 228 262 
f 228 257 262 
f 257 253 262 
f 224 219 263 
f 219 241 263 
f 253 224 263 
f 241 262 263 
f 262 253 263 
f 214 229 264 
f 237 214 264 
f 229 261 264 
f 261 237 264 
f 225 245 265 
f 245 230 265 
f 247 225 265 
f 230 247 265 
f 236 216 266 
f 216 246 266 
f 246 236 266 
f 213 221 267 
f 231 213 267 
f 221 231 267 
f 211 232 268 
f 232 218 268 
f 254 211 268 
f 218 254 268 
f 226 217 269 
f 217 244 269 
f 251 226 269 
