o convex_0
v 7.897482 -9.562923 -6.324364
v 9.088183 6.648477 -5.134537
v 10.426549 6.499312 -5.134537
v 9.088183 6.648477 -6.324364
v -6.526877 -1.233475 -5.134537
v -5.483842 3.822273 -6.324364
v 14.441650 -4.207258 -5.134537
v 17.418402 -2.571201 -6.324364
v -2.361767 6.200982 -5.134537
v -3.252449 -5.843314 -5.134537
v -5.038501 -4.356423 -6.324364
v 12.212601 -8.817097 -5.580722
v 14.739325 3.374777 -5.134537
v 13.253292 5.159999 -6.324364
v -1.321076 6.499312 -6.324364
v 17.418402 -4.058093 -5.580722
v 15.334675 -7.330206 -6.324364
v 10.128874 -6.735132 -5.134537
v 7.897482 -9.264593 -5.580722
v -5.483842 3.822273 -5.134537
v -6.526877 1.143647 -6.324364
v -3.252449 -5.843314 -6.324364
v -0.130375 6.648477 -5.134537
v 15.037000 -7.182627 -5.580722
v 6.856790 -9.412171 -5.729450
v 16.525376 -0.639988 -5.283382
v 11.021900 -9.412171 -6.324364
v 14.739325 3.374777 -6.324364
v -6.226858 -2.422036 -6.324364
v -5.483842 -3.761349 -5.134537
v -4.443150 5.010834 -6.324364
v -0.578060 -6.587553 -5.134537
v 13.253292 5.159999 -5.134537
v 16.970717 -5.397406 -6.324364
v -6.226858 2.333795 -5.134537
v 10.128874 -9.562923 -5.729450
v 11.764916 6.053403 -6.324364
v 13.550968 -8.520353 -5.729450
v 17.118383 -1.679384 -5.432110
v 15.780016 -0.938318 -5.134537
v 15.930026 -6.735132 -5.729450
v 12.360267 -5.990893 -5.134537
v 5.075426 -8.817097 -6.324364
v -0.130375 6.648477 -6.324364
v -4.443150 5.010834 -5.134537
v -3.104783 5.904238 -6.324364
v -4.295484 -5.100662 -5.134537
v -6.526877 -1.233475 -6.324364
v -6.526877 1.143647 -5.134537
v 12.212601 -9.115427 -6.324364
v -2.509433 -6.140058 -5.134537
v 12.360267 5.753486 -5.134537
v 10.426549 -9.264593 -5.580722
v 14.146318 4.268182 -5.134537
v 16.375367 -5.843314 -5.580722
v -6.226858 -2.422036 -5.134537
v 12.212601 -9.115427 -5.729450
v 16.970717 -5.397406 -5.729450
v 17.118383 -1.679384 -6.324364
v -6.226858 2.333795 -6.324364
v 17.418402 -4.058093 -6.324364
v 10.426549 6.499312 -6.324364
v 15.187010 -3.017110 -5.134537
f 55 16 63 
f 2 3 4 
f 3 2 5 
f 4 1 6 
f 3 5 7 
f 1 4 8 
f 5 2 9 
f 7 5 10 
f 6 1 11 
f 3 7 13 
f 8 4 14 
f 4 6 15 
f 1 8 17 
f 7 10 18 
f 5 9 20 
f 6 11 21 
f 11 1 22 
f 2 4 23 
f 9 2 23 
f 15 9 23 
f 1 17 27 
f 8 14 28 
f 21 11 29 
f 10 5 30 
f 29 11 30 
f 15 6 31 
f 6 20 31 
f 18 10 32 
f 19 18 32 
f 25 19 32 
f 3 13 33 
f 17 8 34 
f 5 20 35 
f 20 6 35 
f 25 1 36 
f 19 25 36 
f 1 27 36 
f 14 4 37 
f 24 12 38 
f 16 8 39 
f 13 26 39 
f 28 13 39 
f 13 7 40 
f 26 13 40 
f 16 39 40 
f 39 26 40 
f 17 34 41 
f 24 38 41 
f 38 17 41 
f 7 18 42 
f 18 12 42 
f 24 7 42 
f 12 24 42 
f 22 1 43 
f 1 25 43 
f 4 15 44 
f 23 4 44 
f 15 23 44 
f 20 9 45 
f 31 20 45 
f 31 45 46 
f 9 15 46 
f 15 31 46 
f 45 9 46 
f 22 10 47 
f 11 22 47 
f 10 30 47 
f 30 11 47 
f 5 21 48 
f 29 5 48 
f 21 29 48 
f 21 5 49 
f 5 35 49 
f 35 21 49 
f 27 17 50 
f 17 38 50 
f 10 22 51 
f 32 10 51 
f 25 32 51 
f 22 43 51 
f 43 25 51 
f 3 33 52 
f 33 14 52 
f 37 3 52 
f 14 37 52 
f 12 18 53 
f 18 19 53 
f 19 36 53 
f 13 28 54 
f 28 14 54 
f 33 13 54 
f 14 33 54 
f 7 24 55 
f 24 41 55 
f 5 29 56 
f 30 5 56 
f 29 30 56 
f 36 27 57 
f 38 12 57 
f 27 50 57 
f 50 38 57 
f 12 53 57 
f 53 36 57 
f 34 16 58 
f 41 34 58 
f 16 55 58 
f 55 41 58 
f 8 28 59 
f 39 8 59 
f 28 39 59 
f 6 21 60 
f 35 6 60 
f 21 35 60 
f 8 16 61 
f 34 8 61 
f 16 34 61 
f 4 3 62 
f 3 37 62 
f 37 4 62 
f 40 7 63 
f 16 40 63 
f 7 55 63 
o convex_1
v 11.171618 -6.290344 -0.077741
v 9.089187 6.648477 5.127726
v 10.427583 6.499472 5.127726
v 9.089187 6.648477 -5.134537
v -6.526877 -1.233242 5.127726
v -4.294771 -5.099599 -5.134537
v -4.442277 5.012013 -5.134537
v 15.483986 -1.529957 -5.134537
v 11.616304 -6.141339 5.127726
v -1.912991 6.350467 5.127726
v -1.617979 -6.439349 5.127726
v 15.037131 2.779529 5.127726
v 9.980728 -6.588354 -5.134537
v 14.145590 4.268283 -5.134537
v -6.526877 -1.233242 -5.134537
v 14.889626 -3.166421 5.127726
v -6.225358 2.333809 5.127726
v -0.127740 6.648477 -5.134537
v -0.574595 -6.588354 -5.134537
v 12.954700 -5.397609 -5.134537
v -5.038806 -4.355870 5.127726
v 9.980728 -6.588354 5.127726
v -6.526877 1.144360 -5.134537
v 12.360340 5.755743 5.127726
v -4.442277 5.012013 5.127726
v 11.765979 6.052457 -5.134537
v 15.633661 0.251626 5.127726
v 15.483986 1.442370 -5.134537
v -0.127740 6.648477 5.127726
v -6.080022 -2.720701 -5.134537
v -5.485661 3.821268 -5.134537
v -3.103881 5.903452 -5.134537
v 14.889626 -3.166421 -5.134537
v -3.251386 -5.843329 -5.134537
v -3.251386 -5.843329 5.127726
v -0.574595 -6.588354 5.127726
v 13.848410 -4.504875 5.127726
v 14.145590 4.268283 5.127726
v -6.225358 -2.422691 5.127726
v 15.483986 -1.529957 5.127726
v 13.254050 5.161018 -5.134537
v -6.526877 1.144360 5.127726
v -5.485661 3.821268 5.127726
v 14.739951 3.375549 -5.134537
v 15.633661 -0.340508 -5.134537
v -1.318630 6.499472 -5.134537
v 12.954700 -5.397609 5.127726
v -5.485661 -3.761145 -5.134537
v 14.293096 -4.059155 -5.134537
v -3.103881 5.903452 5.127726
v 11.616304 -6.141339 -5.134537
v -6.225358 2.333809 -5.134537
v 10.427583 6.499472 -5.134537
v -1.617979 -6.439349 -5.134537
v 15.483986 1.442370 5.127726
v 13.254050 5.161018 5.127726
v -4.294771 -5.099599 5.127726
v 14.442771 -3.910150 5.127726
v 15.334311 -2.125977 0.665611
v -5.485661 -3.761145 5.127726
v 12.510014 -5.695620 5.127726
v 11.765979 6.052457 5.127726
v 15.037131 2.779529 -5.134537
v -2.359846 6.201462 -5.134537
v -5.038806 -4.355870 -5.134537
v 10.724763 -6.439349 5.127726
v 14.739951 3.375549 5.127726
v -1.318630 6.499472 5.127726
v 15.633661 0.251626 -5.134537
v 12.360340 5.755743 -5.134537
v 10.724763 -6.439349 -5.134537
v -2.507351 -6.141339 -5.134537
v -6.225358 -2.422691 -5.134537
v 15.633661 -0.340508 3.788689
v 12.507845 -5.695620 -5.134537
v 15.037131 -2.868411 -5.134537
v 15.037131 -2.868411 5.127726
v -2.507351 -6.141339 5.127726
f 98 135 141 
f 65 66 67 
f 66 65 68 
f 67 69 70 
f 69 67 71 
f 66 68 72 
f 68 65 73 
f 72 68 74 
f 66 72 75 
f 69 71 76 
f 71 67 77 
f 70 69 78 
f 75 72 79 
f 68 73 80 
f 65 67 81 
f 67 70 81 
f 69 76 82 
f 76 71 83 
f 74 68 84 
f 72 74 85 
f 82 76 85 
f 78 68 86 
f 70 78 86 
f 66 75 87 
f 80 73 88 
f 77 67 89 
f 75 79 90 
f 71 77 91 
f 73 65 92 
f 65 81 92 
f 78 69 93 
f 70 86 94 
f 88 70 94 
f 81 70 95 
f 70 88 95 
f 83 71 96 
f 69 82 97 
f 74 84 98 
f 69 97 98 
f 74 82 99 
f 85 74 99 
f 82 85 99 
f 79 72 100 
f 87 75 101 
f 68 78 102 
f 84 68 102 
f 90 79 103 
f 77 89 104 
f 101 77 104 
f 68 80 105 
f 86 68 105 
f 80 86 105 
f 80 88 106 
f 94 80 106 
f 88 94 106 
f 91 77 107 
f 77 101 107 
f 71 91 108 
f 103 71 108 
f 92 81 109 
f 81 95 109 
f 100 72 110 
f 83 100 110 
f 93 69 111 
f 83 96 112 
f 100 83 112 
f 88 73 113 
f 95 88 113 
f 72 64 114 
f 76 83 114 
f 86 80 115 
f 94 86 115 
f 80 94 115 
f 67 66 116 
f 66 89 116 
f 89 67 116 
f 82 74 117 
f 97 82 117 
f 75 90 118 
f 91 75 118 
f 90 91 118 
f 87 101 119 
f 104 87 119 
f 101 104 119 
f 84 69 120 
f 69 98 120 
f 98 84 120 
f 96 79 121 
f 79 100 121 
f 112 96 121 
f 100 112 121 
f 71 103 122 
f 84 102 123 
f 102 93 123 
f 111 84 123 
f 93 111 123 
f 110 72 124 
f 83 110 124 
f 72 114 124 
f 66 87 125 
f 89 66 125 
f 87 89 125 
f 75 91 126 
f 91 107 126 
f 107 75 126 
f 73 109 127 
f 109 95 127 
f 113 73 127 
f 95 113 127 
f 69 84 128 
f 111 69 128 
f 84 111 128 
f 64 72 129 
f 72 85 129 
f 85 76 129 
f 101 75 130 
f 75 107 130 
f 107 101 130 
f 73 92 131 
f 109 73 131 
f 92 109 131 
f 91 90 132 
f 108 91 132 
f 90 108 132 
f 89 87 133 
f 104 89 133 
f 87 104 133 
f 114 64 134 
f 76 114 134 
f 64 129 134 
f 129 76 134 
f 98 97 135 
f 117 74 135 
f 97 117 135 
f 78 93 136 
f 102 78 136 
f 93 102 136 
f 90 103 137 
f 108 90 137 
f 103 108 137 
f 114 83 138 
f 83 124 138 
f 124 114 138 
f 96 71 139 
f 79 96 139 
f 71 122 139 
f 139 122 140 
f 103 79 140 
f 122 103 140 
f 79 139 140 
f 74 98 141 
f 135 74 141 
o convex_2
v 11.021900 -9.412171 6.317553
v 9.088183 6.648477 6.317553
v 10.426549 6.499312 6.317553
v -5.483842 3.822273 5.127726
v 15.780016 -0.044914 5.127726
v -6.526877 -1.233475 6.317553
v -1.618751 -6.438388 5.127726
v 10.426549 6.499312 5.127726
v -1.916426 6.350147 6.317553
v 17.418402 -2.571201 6.317553
v 13.698633 -8.072858 5.573911
v -3.252449 -5.843314 6.317553
v -6.226858 -2.422036 5.127726
v -0.130375 6.648477 5.127726
v 11.617251 -6.290810 5.127726
v 7.897482 -9.562923 5.722640
v 14.146318 4.268182 6.317553
v 16.970717 -5.397406 5.722640
v 14.739325 3.374777 5.127726
v -5.483842 3.822273 6.317553
v 15.334675 -7.330206 6.317553
v 6.411449 -9.263006 6.317553
v -6.526877 1.143647 5.127726
v 17.418402 -4.058093 5.573911
v 9.831199 -9.264593 5.573911
v -3.104783 5.904238 5.127726
v -5.038501 -4.356423 5.127726
v -5.483842 -3.761349 6.317553
v 14.146318 -4.504001 5.127726
v 13.253292 5.159999 5.127726
v 17.118383 -1.679384 5.425299
v -0.130375 6.648477 6.317553
v -6.226858 2.333795 6.317553
v 17.268393 -4.802332 6.317553
v -4.443150 5.010834 6.317553
v 12.212601 -9.115427 5.722640
v 9.981209 -6.735132 5.127726
v 12.360267 5.753486 6.317553
v 15.037000 2.779703 6.317553
v 15.187010 -7.031875 5.573911
v 9.088183 6.648477 5.127726
v -3.252449 -5.843314 5.127726
v 15.334675 -7.330206 5.722640
v 13.848643 -8.371188 6.317553
v 6.856790 -9.412171 5.722640
v 15.334675 -2.571201 5.127726
v -4.295484 -5.100662 6.317553
v -6.526877 1.143647 6.317553
v -6.526877 -1.233475 5.127726
v 8.047491 -9.264593 5.573911
v 11.764916 6.053403 5.127726
v -4.443150 5.010834 5.127726
v 7.897482 -9.562923 6.317553
v 10.128874 -9.562923 5.722640
v 12.062591 -8.817097 5.573911
v -0.578060 -6.587553 5.127726
v -1.321076 6.499312 5.127726
v -6.226858 -2.422036 6.317553
v -3.104783 5.904238 6.317553
v 17.268393 -1.976127 6.317553
v -6.226858 2.333795 5.127726
v 13.848643 -8.371188 5.722640
v -2.509433 -6.140058 6.317553
v 5.075426 -8.817097 5.722640
v 16.525376 -5.546571 5.573911
v 12.807952 -5.694149 5.127726
v 16.673042 -5.843314 6.317553
f 162 184 208 
f 144 143 142 
f 142 143 147 
f 145 146 148 
f 143 144 149 
f 146 145 149 
f 147 143 150 
f 144 142 151 
f 142 147 153 
f 145 148 154 
f 149 145 155 
f 148 146 156 
f 144 151 158 
f 146 149 160 
f 147 150 161 
f 151 142 162 
f 142 153 163 
f 145 154 164 
f 155 145 167 
f 154 148 168 
f 154 168 169 
f 153 147 169 
f 156 146 170 
f 160 149 171 
f 158 160 171 
f 146 160 172 
f 151 165 172 
f 150 143 173 
f 143 155 173 
f 161 145 174 
f 147 161 174 
f 151 162 175 
f 165 151 175 
f 159 165 175 
f 145 161 176 
f 161 150 176 
f 148 156 178 
f 144 158 179 
f 158 171 179 
f 158 151 180 
f 160 158 180 
f 172 160 180 
f 143 149 182 
f 155 143 182 
f 149 155 182 
f 168 148 183 
f 162 142 185 
f 142 177 185 
f 184 162 185 
f 170 146 187 
f 146 172 187 
f 172 165 187 
f 169 168 188 
f 153 169 188 
f 183 153 188 
f 168 183 188 
f 164 147 189 
f 147 174 189 
f 174 164 189 
f 154 147 190 
f 164 154 190 
f 147 164 190 
f 166 157 191 
f 178 166 191 
f 186 148 191 
f 157 186 191 
f 149 144 192 
f 171 149 192 
f 144 179 192 
f 179 171 192 
f 167 145 193 
f 145 176 193 
f 176 167 193 
f 142 163 194 
f 186 157 194 
f 163 186 194 
f 157 166 195 
f 177 142 195 
f 142 194 195 
f 194 157 195 
f 156 152 196 
f 152 177 196 
f 178 156 196 
f 166 178 196 
f 195 166 196 
f 177 195 196 
f 148 178 197 
f 191 148 197 
f 178 191 197 
f 155 167 198 
f 167 150 198 
f 150 173 198 
f 173 155 198 
f 147 154 199 
f 154 169 199 
f 169 147 199 
f 150 167 200 
f 176 150 200 
f 167 176 200 
f 151 172 201 
f 180 151 201 
f 172 180 201 
f 145 164 202 
f 174 145 202 
f 164 174 202 
f 177 152 203 
f 152 181 203 
f 181 184 203 
f 185 177 203 
f 184 185 203 
f 163 153 204 
f 183 148 204 
f 153 183 204 
f 148 186 205 
f 186 163 205 
f 163 204 205 
f 204 148 205 
f 165 159 206 
f 181 170 206 
f 159 184 206 
f 184 181 206 
f 170 187 206 
f 187 165 206 
f 152 156 207 
f 156 170 207 
f 181 152 207 
f 170 181 207 
f 175 162 208 
f 159 175 208 
f 184 159 208 
