o convex_0
v -5.237975 -2.178803 -2.974132
v 0.680605 5.654599 2.945018
v 0.680605 5.654599 -2.974132
v 6.947625 -6.878845 -2.974132
v -2.452906 -5.137952 2.945018
v 6.947625 5.653373 2.945018
v 6.947625 -6.878845 2.945018
v -5.237975 2.171588 2.945018
v 6.947625 5.653373 -2.974132
v -4.019661 4.086692 -2.974132
v -1.408811 -5.486376 -2.974132
v -5.237975 -2.178803 2.945018
v -2.104465 5.304949 2.945018
v -5.586416 0.952104 -2.974132
v -3.322780 -4.615317 -2.974132
v -1.583031 5.479161 -2.974132
v -0.711930 -5.660588 2.945018
v -4.019661 4.086692 2.945018
v -5.586416 -0.786335 2.945018
v -4.541094 -3.397060 2.945018
v 6.249517 -6.878845 -2.974132
v -4.715315 3.215632 -2.974132
v 6.249517 -6.878845 2.945018
v -3.148560 4.783540 -2.974132
v -4.541094 -3.397060 -2.974132
v -5.586416 0.952104 2.945018
v -5.586416 -0.786335 -2.974132
v -0.363490 5.654599 2.945018
v -3.322780 -4.615317 2.945018
v -0.711930 -5.660588 -2.974132
v -5.237975 2.171588 -2.974132
v -3.148560 4.783540 2.945018
v -4.715315 3.215632 2.945018
v -2.452906 -5.137952 -2.974132
v -0.363490 5.654599 -2.974132
f 16 28 35 
f 1 3 4 
f 2 5 6 
f 3 2 6 
f 4 6 7 
f 6 5 7 
f 5 2 8 
f 4 3 9 
f 3 6 9 
f 6 4 9 
f 3 1 10 
f 1 4 11 
f 5 8 12 
f 8 2 13 
f 10 1 14 
f 1 11 15 
f 3 10 16 
f 7 5 17 
f 5 11 17 
f 8 13 18 
f 1 12 19 
f 12 8 19 
f 12 1 20 
f 5 12 20 
f 4 7 21 
f 11 4 21 
f 10 14 22 
f 18 10 22 
f 7 17 23 
f 21 7 23 
f 17 21 23 
f 16 10 24 
f 13 16 24 
f 10 18 24 
f 1 15 25 
f 20 1 25 
f 15 20 25 
f 8 14 26 
f 19 8 26 
f 14 19 26 
f 14 1 27 
f 1 19 27 
f 19 14 27 
f 2 3 28 
f 13 2 28 
f 16 13 28 
f 15 5 29 
f 5 20 29 
f 20 15 29 
f 17 11 30 
f 11 21 30 
f 21 17 30 
f 14 8 31 
f 22 14 31 
f 8 22 31 
f 18 13 32 
f 13 24 32 
f 24 18 32 
f 8 18 33 
f 22 8 33 
f 18 22 33 
f 11 5 34 
f 15 11 34 
f 5 15 34 
f 3 16 35 
f 28 3 35 
o convex_1
v 6.947625 -6.008501 -10.634209
v 9.036481 9.658730 2.945018
v 9.210829 5.130038 -4.017393
v 9.210608 -12.102852 2.945018
v 6.947625 9.658730 2.945018
v 6.947625 -12.102852 2.945018
v 9.210608 -6.008501 -10.634209
v 6.947625 9.658730 -3.673127
v 9.036481 9.658730 -3.673127
v 9.210829 1.824050 2.945018
v 9.210608 -5.137271 -10.460083
v 9.210608 -11.928179 2.248511
v 6.947625 -5.137271 -10.460083
v 9.210829 4.433480 -6.106914
v 6.947625 -11.928179 2.248511
v 9.210608 -6.705059 -9.241195
v 6.947625 8.263484 -4.364318
v 6.947625 -6.705059 -9.241195
v 9.210829 5.654054 -5.410407
f 38 49 54 
f 39 37 40 
f 40 36 41 
f 39 40 41 
f 36 40 43 
f 40 37 43 
f 43 37 44 
f 38 37 45 
f 37 39 45 
f 42 36 46 
f 39 41 47 
f 45 39 47 
f 36 43 48 
f 46 36 48 
f 46 48 49 
f 38 45 49 
f 42 46 49 
f 45 47 49 
f 41 36 50 
f 47 41 50 
f 47 50 51 
f 36 42 51 
f 42 49 51 
f 49 47 51 
f 43 44 52 
f 48 43 52 
f 49 48 52 
f 44 49 52 
f 50 36 53 
f 51 50 53 
f 36 51 53 
f 37 38 54 
f 44 37 54 
f 49 44 54 
o convex_2
v 33.931987 -10.882635 -0.016466
v 11.824264 5.654599 -5.236280
v 12.692989 5.652861 -5.236280
v 9.210829 -6.006984 -10.632880
v 9.210829 -12.101113 2.943689
v 32.712384 1.823607 2.943689
v 28.533308 -6.877822 -8.022308
v 9.210829 1.823607 2.943689
v 28.359079 4.434383 -2.973962
v 33.060842 -12.101113 2.943689
v 9.210829 5.654599 -5.409078
v 30.970094 -8.096301 -6.106914
v 12.867218 -5.311704 -10.458753
v 31.492781 3.215905 0.158990
v 27.141896 3.215905 -4.017393
v 9.210829 -11.925555 2.247182
v 26.967667 -6.705741 -8.544688
v 12.518760 5.479041 -5.583205
v 30.624056 3.389725 -1.583607
v 33.757758 -10.011797 -0.885770
v 9.210829 2.518887 1.724801
v 29.752911 -7.574841 -7.325801
v 33.060842 0.952768 2.769562
v 31.492781 2.520625 -0.538846
v 33.931987 -10.708815 1.552004
v 9.210829 -5.136146 -10.458753
v 9.210829 -6.704002 -9.241195
v 33.409300 -11.927293 2.248511
v 31.492781 -7.053381 -4.888027
v 29.230224 4.260563 -2.104658
v 13.041447 -6.006984 -10.632880
v 29.752911 -6.008722 -6.802092
v 32.363926 1.997427 2.769562
v 27.141896 4.608203 -3.322216
v 29.752911 3.563545 -2.452911
v 30.795865 -7.053381 -6.106914
v 9.210829 5.129663 -4.017393
v 13.041447 4.957581 -5.758661
v 9.210829 4.434383 -6.106914
v 11.998493 -5.136146 -10.458753
v 33.235071 -11.230275 2.943689
v 31.492781 2.520625 1.724801
v 27.141896 -6.356362 -8.370562
v 33.931987 -9.837977 -0.016466
v 27.490354 -7.051642 -8.370562
v 33.060842 0.952768 2.943689
v 9.210829 1.997427 2.769562
v 33.757758 -11.230275 2.073055
v 20.005767 -6.704002 -9.241195
v 20.528454 -12.102852 2.769562
v 28.533308 3.912923 -3.148089
v 11.998493 4.434383 -6.106914
v 27.490354 4.608203 -2.973962
v 17.394752 -10.187355 -1.583607
v 33.409300 -10.185617 -1.582277
v 31.318552 -7.924219 -5.584534
v 30.624056 3.737365 -1.408151
v 18.265897 5.131401 -4.017393
f 84 107 112 
f 58 59 62 
f 59 60 62 
f 60 59 64 
f 56 57 65 
f 58 62 65 
f 59 58 70 
f 65 57 72 
f 65 62 75 
f 68 60 77 
f 77 74 78 
f 68 77 78 
f 58 65 80 
f 70 58 81 
f 78 74 83 
f 67 71 85 
f 58 80 85 
f 81 58 85 
f 76 61 86 
f 62 60 87 
f 60 68 87 
f 63 69 88 
f 72 57 88 
f 73 86 89 
f 66 76 90 
f 73 78 90 
f 78 83 90 
f 86 73 90 
f 76 86 90 
f 56 65 91 
f 65 75 91 
f 67 72 92 
f 88 69 92 
f 72 88 92 
f 65 72 93 
f 80 65 93 
f 80 93 94 
f 67 85 94 
f 85 80 94 
f 60 64 95 
f 68 84 96 
f 87 68 96 
f 61 71 97 
f 71 67 97 
f 67 92 97 
f 92 69 97 
f 55 74 98 
f 74 77 98 
f 79 55 98 
f 71 61 99 
f 61 76 99 
f 85 71 99 
f 77 60 100 
f 60 95 100 
f 98 77 100 
f 79 98 100 
f 75 62 101 
f 62 87 101 
f 87 96 101 
f 96 75 101 
f 55 79 102 
f 64 82 102 
f 82 55 102 
f 95 64 102 
f 100 95 102 
f 79 100 102 
f 81 85 103 
f 99 76 103 
f 85 99 103 
f 64 59 104 
f 59 70 104 
f 82 64 104 
f 70 82 104 
f 69 63 105 
f 86 61 105 
f 63 89 105 
f 89 86 105 
f 61 97 105 
f 97 69 105 
f 72 67 106 
f 93 72 106 
f 94 93 106 
f 67 94 106 
f 84 63 107 
f 63 88 107 
f 88 57 107 
f 70 81 108 
f 82 70 108 
f 103 76 108 
f 81 103 108 
f 74 55 109 
f 76 66 109 
f 55 82 109 
f 108 76 109 
f 82 108 109 
f 83 74 110 
f 66 90 110 
f 90 83 110 
f 74 109 110 
f 109 66 110 
f 78 73 111 
f 68 78 111 
f 63 84 111 
f 84 68 111 
f 89 63 111 
f 73 89 111 
f 57 56 112 
f 56 91 112 
f 91 75 112 
f 96 84 112 
f 75 96 112 
f 107 57 112 
o convex_3
v 29.056056 -1.831214 10.777960
v 10.777663 -2.701848 2.945018
v 10.777663 -2.701848 5.382588
v 13.393071 1.824561 2.945018
v 31.666931 -2.701848 2.945018
v 32.711734 1.824561 2.945018
v 23.313037 -2.527721 10.953007
v 33.407514 -0.090833 7.469246
v 11.301198 -0.612770 6.078686
v 24.181062 -1.831214 11.301465
v 13.567583 1.650434 3.641934
v 30.098593 -2.179025 10.082680
v 10.777663 0.953484 2.945018
v 33.931049 -0.438644 5.905275
v 13.567583 -1.657088 7.643475
v 27.836741 -2.701848 7.469246
v 32.711734 -1.308834 8.167797
v 33.407514 1.476307 3.990392
v 27.664496 -2.527721 10.953007
v 14.784631 -2.701848 7.643475
v 33.756538 0.257420 3.990392
v 12.346002 -0.960581 6.949013
v 31.666931 -0.960581 9.385764
v 23.138525 -1.831214 11.126418
v 14.263363 1.128054 4.688126
v 10.777663 -0.090833 5.034948
v 33.931049 0.779800 5.556817
v 31.666931 -2.701848 3.467705
v 33.060758 0.605674 2.945018
v 33.407514 -0.960581 7.469246
v 26.966449 -1.831214 11.301465
v 22.789502 -2.353595 10.953007
v 31.841443 -1.657088 9.038124
v 33.060758 1.650434 3.641934
v 24.702331 -2.353595 11.301465
v 13.393071 1.824561 3.119247
v 30.968884 -2.701848 4.860719
v 33.931049 0.083294 4.513897
v 33.582026 1.302181 3.817799
v 26.442914 -2.701848 7.817704
f 119 132 152 
f 115 114 117 
f 114 116 117 
f 117 116 118 
f 114 115 125 
f 116 114 125 
f 115 117 128 
f 124 113 131 
f 127 115 132 
f 115 128 132 
f 121 115 134 
f 115 127 134 
f 113 124 135 
f 134 127 136 
f 134 136 137 
f 123 121 137 
f 122 123 137 
f 121 134 137 
f 136 122 137 
f 115 121 138 
f 121 123 138 
f 125 115 138 
f 123 125 138 
f 120 126 139 
f 135 120 139 
f 117 126 140 
f 128 117 140 
f 117 118 141 
f 133 117 141 
f 126 120 142 
f 120 135 142 
f 135 129 142 
f 140 126 142 
f 129 140 142 
f 123 122 143 
f 131 113 143 
f 113 135 143 
f 127 132 144 
f 132 119 144 
f 136 127 144 
f 135 124 145 
f 129 135 145 
f 124 140 145 
f 140 129 145 
f 130 118 146 
f 139 130 146 
f 135 139 146 
f 123 143 146 
f 143 135 146 
f 119 131 147 
f 122 136 147 
f 143 122 147 
f 131 143 147 
f 144 119 147 
f 136 144 147 
f 118 116 148 
f 116 125 148 
f 125 123 148 
f 146 118 148 
f 123 146 148 
f 124 131 149 
f 131 128 149 
f 128 140 149 
f 140 124 149 
f 126 117 150 
f 117 133 150 
f 139 126 150 
f 139 150 151 
f 118 130 151 
f 130 139 151 
f 141 118 151 
f 133 141 151 
f 150 133 151 
f 131 119 152 
f 128 131 152 
f 132 128 152 
o convex_4
v 13.040203 -12.798898 5.208154
v 6.948289 -12.102664 2.945018
v 6.948289 -10.884407 2.945018
v 6.948289 -10.884407 5.904593
v 13.736574 -10.884407 2.945018
v 13.214296 -10.884407 5.904593
v 6.948289 -12.973110 5.034044
v 12.866111 -12.798898 4.164075
v 10.951091 -12.102664 2.945018
v 6.948289 -11.232627 5.904593
v 13.214296 -12.973110 5.034044
v 6.948289 -12.798898 4.164075
v 13.040203 -11.232627 5.904593
v 13.214296 -12.973110 4.685535
v 11.125184 -12.276672 3.119417
v 6.948289 -12.798898 5.208154
v 13.736574 -11.058619 2.945018
f 167 161 169 
f 155 154 156 
f 154 155 157 
f 155 156 157 
f 157 156 158 
f 156 154 159 
f 154 157 161 
f 158 156 162 
f 156 159 162 
f 153 159 163 
f 159 154 164 
f 162 153 165 
f 158 162 165 
f 153 163 165 
f 163 158 165 
f 163 159 166 
f 159 164 166 
f 164 160 166 
f 154 161 167 
f 164 154 167 
f 160 164 167 
f 159 153 168 
f 153 162 168 
f 162 159 168 
f 157 158 169 
f 161 157 169 
f 158 163 169 
f 166 160 169 
f 163 166 169 
f 160 167 169 
o convex_5
v 29.229576 -12.798847 5.729870
v 13.737238 -11.058773 2.945018
v 13.737238 -10.884459 2.945018
v 33.059632 -11.406890 2.945018
v 20.877218 -12.276672 3.119536
v 26.617573 -10.884459 3.989863
v 23.833454 -12.798847 6.252778
v 23.485439 -13.495593 5.729870
v 32.709725 -12.276672 3.119536
v 15.655103 -10.884459 3.989863
v 27.487610 -13.495593 5.904388
v 30.099614 -10.884459 2.945018
v 30.447628 -12.276672 5.207933
v 13.737238 -11.058773 3.467926
v 27.313603 -12.624789 6.078260
v 20.703211 -12.103124 2.945018
v 31.317666 -12.798847 4.163735
v 22.965308 -13.146964 6.078260
v 32.883733 -11.406890 3.293408
v 13.915029 -11.232831 3.119536
v 21.747256 -12.798847 4.163735
v 26.791580 -13.321023 6.252778
v 31.839688 -12.624789 4.163735
v 32.883733 -12.103124 2.945018
v 22.791300 -13.321023 5.904388
v 29.925606 -13.146964 5.207933
f 186 192 195 
f 171 172 173 
f 175 172 179 
f 173 172 181 
f 172 175 181 
f 172 171 183 
f 179 172 183 
f 175 179 184 
f 179 176 184 
f 182 175 184 
f 170 182 184 
f 171 173 185 
f 174 171 185 
f 178 174 185 
f 174 178 186 
f 180 177 186 
f 176 179 187 
f 179 183 187 
f 173 181 188 
f 181 175 188 
f 175 182 188 
f 171 174 189 
f 183 171 189 
f 174 186 190 
f 186 177 190 
f 189 174 190 
f 177 189 190 
f 180 170 191 
f 177 180 191 
f 184 176 191 
f 170 184 191 
f 176 187 191 
f 186 178 192 
f 178 188 192 
f 188 182 192 
f 185 173 193 
f 178 185 193 
f 173 188 193 
f 188 178 193 
f 187 183 194 
f 189 177 194 
f 183 189 194 
f 177 191 194 
f 191 187 194 
f 170 180 195 
f 182 170 195 
f 180 186 195 
f 192 182 195 
o convex_6
v 28.882760 -3.050255 6.774988
v 31.668782 -2.701848 3.293322
v 31.668782 -2.701848 2.945018
v 29.055713 -10.884203 2.945018
v 21.572294 -2.701848 2.945018
v 21.572294 -10.884203 4.163854
v 21.572294 -2.701848 7.645520
v 21.572294 -10.884203 2.945018
v 26.967432 -2.876452 7.645520
v 26.967432 -10.884203 3.990392
v 30.449218 -8.098550 3.119400
v 30.798088 -2.701848 5.034385
v 25.575903 -3.224859 7.645520
v 21.572294 -3.224859 7.645520
v 25.575903 -10.884203 4.163854
v 28.533890 -9.665179 3.990392
v 29.752465 -3.572465 5.903997
v 28.012067 -2.701848 7.296755
v 29.055713 -10.884203 3.119400
v 31.493853 -4.443081 3.119400
v 27.664184 -3.224859 7.296755
v 27.664184 -10.884203 3.815549
v 30.972029 -6.531921 2.945018
v 30.798088 -2.876452 5.034385
f 206 215 219 
f 197 198 200 
f 198 199 200 
f 200 201 202 
f 197 200 202 
f 200 199 203 
f 199 201 203 
f 201 200 203 
f 201 199 205 
f 197 202 207 
f 204 202 208 
f 202 201 209 
f 201 208 209 
f 208 202 209 
f 201 205 210 
f 205 204 210 
f 208 201 210 
f 204 208 210 
f 202 204 213 
f 207 202 213 
f 196 207 213 
f 205 199 214 
f 199 206 214 
f 196 211 214 
f 206 212 214 
f 212 196 214 
f 198 197 215 
f 211 196 216 
f 213 204 216 
f 196 213 216 
f 204 205 217 
f 205 214 217 
f 214 211 217 
f 216 204 217 
f 211 216 217 
f 199 198 218 
f 206 199 218 
f 198 215 218 
f 215 206 218 
f 197 207 219 
f 207 196 219 
f 212 206 219 
f 196 212 219 
f 215 197 219 
o convex_7
v 13.040118 -1.482808 10.256449
v 6.947625 -2.701848 5.556868
v 6.947625 -2.701848 7.297471
v 6.947625 0.605912 5.556868
v 6.947625 -1.482808 10.256449
v 13.214960 -2.701524 8.863691
v 9.210761 0.257523 5.556868
v 9.559219 -2.701848 5.556868
v 6.947625 -2.701524 9.734222
v 13.040118 -1.135065 9.734222
v 9.037146 0.605912 5.905172
v 13.040118 -2.701524 9.734222
v 6.947625 -0.961194 9.385918
v 13.214960 -1.308936 9.385918
v 6.947625 0.605912 5.905172
v 13.040118 -1.657002 10.256449
v 9.559219 -1.831197 5.556868
f 227 226 236 
f 221 222 223 
f 223 222 224 
f 221 223 226 
f 222 221 227 
f 221 226 227 
f 224 222 228 
f 224 220 229 
f 226 223 230 
f 222 227 231 
f 227 225 231 
f 228 222 231 
f 223 224 232 
f 224 229 232 
f 229 230 232 
f 225 226 233 
f 229 220 233 
f 226 230 233 
f 230 229 233 
f 230 223 234 
f 223 232 234 
f 232 230 234 
f 220 224 235 
f 224 228 235 
f 231 225 235 
f 228 231 235 
f 233 220 235 
f 225 233 235 
f 226 225 236 
f 225 227 236 
o convex_8
v 13.389053 -10.884203 3.119213
v 13.214398 -2.701848 9.560539
v 6.947625 -2.701848 9.560539
v 6.947625 -2.701848 2.945018
v 6.947625 -10.884203 6.079231
v 13.389053 -2.701848 2.945018
v 6.947625 -10.884203 2.945018
v 13.040374 -10.884203 6.079231
v 13.040374 -3.224859 9.560539
v 6.947625 -3.224859 9.560539
v 13.389053 -4.616884 8.167627
v 13.389053 -10.884203 2.945018
v 13.389053 -9.665179 5.905684
v 13.389053 -2.701848 6.774715
v 13.214398 -10.884203 5.905684
f 249 247 251 
f 239 238 240 
f 239 240 241 
f 240 238 242 
f 240 242 243 
f 237 241 243 
f 241 240 243 
f 241 237 244 
f 241 244 245 
f 238 239 245 
f 239 241 246 
f 241 245 246 
f 245 239 246 
f 237 242 247 
f 242 237 248 
f 243 242 248 
f 237 243 248 
f 237 247 249 
f 242 238 250 
f 238 247 250 
f 247 242 250 
f 244 237 251 
f 245 244 251 
f 238 245 251 
f 247 238 251 
f 237 249 251 
o convex_9
v 9.384888 1.650434 3.641695
v 6.947625 -2.701848 2.945273
v 10.777663 -2.701848 2.945273
v 6.947625 -2.701848 5.556152
v 6.947625 1.824561 2.945273
v 9.036600 0.779800 5.556152
v 10.777663 -2.701848 5.207813
v 10.777663 0.779800 2.945273
v 6.947625 0.779800 5.556152
v 10.777663 -0.090833 5.033772
v 9.558844 -2.701848 5.556152
v 9.558844 1.824561 2.945273
f 261 259 263 
f 253 254 255 
f 254 253 256 
f 253 255 256 
f 255 254 258 
f 254 256 259 
f 258 254 259 
f 252 256 260 
f 256 255 260 
f 257 252 260 
f 255 257 260 
f 252 257 261 
f 257 258 261 
f 258 259 261 
f 257 255 262 
f 255 258 262 
f 258 257 262 
f 256 252 263 
f 259 256 263 
f 252 261 263 
o convex_10
v 19.481172 -9.143566 6.252761
v 13.389854 -10.883913 2.945018
v 13.389854 -10.883913 3.293220
v 13.389854 -7.924917 2.945018
v 21.571408 -10.883913 2.945018
v 21.571408 -7.924917 2.945018
v 13.389854 -8.795381 6.078481
v 21.571408 -7.924917 5.382076
v 15.827662 -10.013450 6.426326
v 21.571408 -10.883913 4.163905
v 14.782544 -7.924917 5.208154
v 14.957131 -9.143566 6.600964
v 13.738227 -9.839357 6.078481
v 14.957131 -10.883913 3.989983
v 17.394138 -10.013450 6.426326
v 17.914695 -9.143566 6.600964
v 13.389854 -7.924917 4.512465
v 20.177917 -9.665265 5.730279
v 16.001448 -7.924917 5.382076
v 18.785227 -9.839357 6.252761
f 273 281 283 
f 265 266 267 
f 266 265 268 
f 265 267 268 
f 268 267 269 
f 267 266 270 
f 269 267 271 
f 268 269 271 
f 266 268 273 
f 268 271 273 
f 271 267 274 
f 275 270 276 
f 270 266 276 
f 272 275 276 
f 272 276 277 
f 266 273 277 
f 273 272 277 
f 276 266 277 
f 272 273 278 
f 275 272 278 
f 275 278 279 
f 264 271 279 
f 271 275 279 
f 267 270 280 
f 274 267 280 
f 270 274 280 
f 271 264 281 
f 273 271 281 
f 274 270 282 
f 271 274 282 
f 275 271 282 
f 270 275 282 
f 278 273 283 
f 279 278 283 
f 264 279 283 
f 281 264 283 
o convex_11
v 18.785227 -4.791778 8.515949
v 13.389854 -7.924628 2.945018
v 13.389854 -7.924628 4.686115
v 13.389854 -2.701848 2.945018
v 21.571408 -7.924628 2.945018
v 21.571408 -2.701848 2.945018
v 13.564441 -2.701848 7.123071
v 21.571408 -2.701848 7.645111
v 21.571408 -7.924628 5.382554
v 15.304703 -4.965087 8.689189
v 13.389854 -4.268784 8.341549
v 15.479290 -7.924628 5.382554
v 16.349821 -4.443116 8.864168
v 17.394138 -5.313238 8.515949
v 15.130917 -2.701848 7.645111
v 13.564441 -5.139418 8.167150
v 20.351703 -4.965087 7.819510
v 21.571408 -4.268784 7.296312
v 15.653076 -5.313238 8.515949
v 13.389854 -7.227814 5.731352
v 18.436854 -4.268784 8.689189
v 14.608758 -4.268784 8.689189
v 13.389854 -2.701848 6.948672
v 20.525489 -4.268784 7.993330
v 21.571408 -7.750297 5.556953
f 301 300 308 
f 285 286 287 
f 286 285 288 
f 285 287 288 
f 288 287 289 
f 289 287 290 
f 289 290 291 
f 288 289 291 
f 288 291 292 
f 286 288 292 
f 287 286 294 
f 286 292 295 
f 284 296 297 
f 296 293 297 
f 291 290 298 
f 290 294 298 
f 296 291 298 
f 292 291 301 
f 295 292 302 
f 292 297 302 
f 297 293 302 
f 293 299 302 
f 302 299 303 
f 294 286 303 
f 286 295 303 
f 299 294 303 
f 295 302 303 
f 291 296 304 
f 296 284 304 
f 293 296 305 
f 298 294 305 
f 296 298 305 
f 294 299 305 
f 299 293 305 
f 290 287 306 
f 287 294 306 
f 294 290 306 
f 284 300 307 
f 300 301 307 
f 301 291 307 
f 304 284 307 
f 291 304 307 
f 284 297 308 
f 297 292 308 
f 300 284 308 
f 292 301 308 
