####
#
# OBJ File Generated by Meshlab
#
####
# Object flange_iso_04.obj
#
# Vertices: 624
# Faces: 1244
#
####
vn 3.0931563 -0.4910794 -2.9846385
v -31.1103935 4.9384227 0.0000000
vn 3.0933337 0.4900171 -2.9845440
v -31.1121235 -4.9276185 0.0000000
vn 3.1318955 -0.0001195 -2.9844642
v -31.5000000 0.0000000 0.0000000
vn 5.4566746 -0.0718437 -2.2600789
v -31.5000000 0.0000000 -4.5000000
vn 5.9960122 -0.7549307 -1.3249366
v -31.1121826 4.9276857 -4.5000000
vn 2.9785056 0.9682069 -2.9847069
v -29.9565639 -9.7387800 0.0000000
vn 5.2589927 1.8272128 -2.1360185
v -29.9582806 -9.7340355 -4.5000000
vn 5.6053972 0.8405182 -2.0092790
v -31.1121826 -4.9276857 -4.5000000
vn 2.9777801 -0.9704826 -2.9850855
v -29.9490814 9.7617512 0.0000000
vn 2.7903118 1.4223189 -2.9844627
v -28.0646095 -14.3049431 0.0000000
vn 5.0125580 2.4272718 -2.1335726
v -28.0667057 -14.3007011 -4.5000000
vn 1.8961461 2.4051356 -3.5905533
v -25.6380825 -11.0828819 0.0000000
vn 2.5339024 1.8407594 -2.9849367
v -25.4858799 -18.5119381 0.0000000
vn 2.7888348 -1.4253360 -2.9852569
v -28.0490208 14.3355074 0.0000000
vn 3.0617371 0.0020388 -3.5934172
v -26.6499996 9.0000000 0.0000000
vn 3.0617371 0.0020388 -3.5934198
v -26.6499996 -9.0000000 0.0000000
vn 2.7535863 1.3388506 -3.5930407
v -26.3826103 -10.1593409 0.0000000
vn -1.9115779 2.3939829 -3.5883634
v -22.3472309 -11.0712996 0.0000000
vn 2.2147403 2.2144675 -2.9848173
v -22.2743664 -22.2728233 0.0000000
vn 4.5566702 3.3689013 -2.0111616
v -25.4840355 -18.5152359 -4.5000000
vn -0.6902956 2.9848948 -3.5879068
v -23.4027119 -11.5817394 0.0000000
vn 0.6668302 2.9900458 -3.5883009
v -24.5764542 -11.5864887 0.0000000
vn -3.0617371 -0.0020388 -3.5934167
v -21.3500004 -9.0000000 0.0000000
vn 1.8411645 2.5335982 -2.9848530
v -18.5161552 -25.4830074 0.0000000
vn 3.8386290 3.8386292 -2.2962227
v -22.2738628 -22.2738628 -4.5000000
vn -2.7587783 1.3307985 -3.5899558
v -21.6142235 -10.1529236 0.0000000
vn 1.8389405 -2.5352752 -2.9853935
v -18.4971218 25.4968548 0.0000000
vn 1.4225807 2.7902193 -2.9848993
v -14.3064432 -28.0635834 0.0000000
vn 3.3689294 4.5566545 -2.0110135
v -18.5152359 -25.4840355 -4.5000000
vn 1.4203627 -2.7913740 -2.9851546
v -14.2872219 28.0733452 0.0000000
vn 0.9689097 2.9782960 -2.9848754
v -9.7444611 -29.9547863 0.0000000
vn 2.4270561 5.0133123 -2.1327550
v -14.3007011 -28.0667057 -4.5000000
vn 0.9667246 -2.9790111 -2.9849181
v -9.7244396 29.9612770 0.0000000
vn 0.4910424 3.0931950 -2.9848022
v -4.9379916 -31.1104908 0.0000000
vn 1.8278768 5.2593474 -2.1350832
v -9.7340355 -29.9582806 -4.5000000
vn 0.4890000 -3.0935190 -2.9847810
v -4.9190364 31.1135006 0.0000000
vn 0.0009749 3.1319242 -2.9847391
v -0.0089758 -31.4999809 0.0000000
vn 0.7497789 5.8327928 -1.6690438
v -4.9276857 -31.1121826 -4.5000000
vn -0.0009749 -3.1319242 -2.9847391
v 0.0089758 31.4999809 0.0000000
vn -0.4890000 3.0935190 -2.9847810
v 4.9190364 -31.1135006 0.0000000
vn 0.0577088 5.4516587 -2.2667942
v -0.0000000 -31.5000000 -4.5000000
vn -0.4910424 -3.0931950 -2.9848022
v 4.9379916 31.1104908 0.0000000
vn -0.9667246 2.9790111 -2.9849179
v 9.7244396 -29.9612770 0.0000000
vn -0.8405855 5.6054068 -2.0090349
v 4.9276857 -31.1121826 -4.5000000
vn -0.9689097 -2.9782960 -2.9848752
v 9.7444611 29.9547863 0.0000000
vn -1.4203627 2.7913740 -2.9851549
v 14.2872219 -28.0733452 0.0000000
vn -1.8273395 5.2589731 -2.1357541
v 9.7340355 -29.9582806 -4.5000000
vn -1.4225807 -2.7902193 -2.9848993
v 14.3064432 28.0635834 0.0000000
vn -1.8389405 2.5352752 -2.9853935
v 18.4971218 -25.4968548 0.0000000
vn -2.4273016 5.0125751 -2.1332803
v 14.3007011 -28.0667057 -4.5000000
vn 2.7535863 1.3388506 -3.5930409
v 21.6173897 -10.1593409 0.0000000
vn -2.2124443 2.2168560 -2.9855170
v 22.2530365 -22.2942638 0.0000000
vn -3.3689661 4.5566888 -2.0104575
v 18.5152359 -25.4840355 -4.5000000
vn -1.8411645 -2.5335982 -2.9848530
v 18.5161552 25.4830074 0.0000000
vn 3.0617371 0.0020388 -3.5934167
v 21.3500004 9.0000000 0.0000000
vn 3.0617371 0.0020388 -3.5934196
v 21.3500004 -9.0000000 0.0000000
vn -0.6902956 2.9848948 -3.5879066
v 24.5972881 -11.5817394 0.0000000
vn -2.5316358 1.8440020 -2.9858127
v 25.4644489 -18.5415306 0.0000000
vn -3.8388271 3.8385186 -2.2954290
v 22.2738628 -22.2738628 -4.5000000
vn 0.6668302 2.9900458 -3.5883009
v 23.4235458 -11.5864887 0.0000000
vn 1.8961461 2.4051356 -3.5905530
v 22.3619175 -11.0828819 0.0000000
vn -3.0617371 -0.0020388 -3.5934174
v 26.6499996 -9.0000000 0.0000000
vn -2.7888348 1.4253360 -2.9852569
v 28.0490208 -14.3355074 0.0000000
vn -4.5568218 3.3688135 -2.0102026
v 25.4840355 -18.5152359 -4.5000000
vn -2.7587783 1.3307985 -3.5899563
v 26.3857765 -10.1529236 0.0000000
vn -1.9115779 2.3939829 -3.5883634
v 25.6527691 -11.0712996 0.0000000
vn -2.7903118 -1.4223189 -2.9844627
v 28.0646095 14.3049431 0.0000000
vn -2.9777801 0.9704826 -2.9850855
v 29.9490814 -9.7617512 0.0000000
vn -5.0135932 2.4266281 -2.1320000
v 28.0667057 -14.3007011 -4.5000000
vn -2.9785056 -0.9682069 -2.9847069
v 29.9565639 9.7387800 0.0000000
vn -3.0931563 0.4910794 -2.9846387
v 31.1103935 -4.9384227 0.0000000
vn -5.2594800 1.8275232 -2.1348941
v 29.9582806 -9.7340355 -4.5000000
vn -3.0933337 -0.4900171 -2.9845440
v 31.1121235 4.9276185 0.0000000
vn -3.1318955 0.0001195 -2.9844642
v 31.5000000 0.0000000 0.0000000
vn -5.8328028 0.7496589 -1.6691666
v 31.1121826 -4.9276857 -4.5000000
vn -5.4516406 0.0577817 -2.2670145
v 31.5000000 -0.0000000 -4.5000000
vn -5.1824951 -1.7574048 -2.2479174
v 29.9582806 9.7340355 -4.5000000
vn -5.3579264 -0.8560300 -2.2997394
v 31.1121826 4.9276857 -4.5000000
vn -5.1236281 -2.5220821 -1.9483930
v 28.0667057 14.3007011 -4.5000000
vn -1.8961461 -2.4051356 -3.5905533
v 25.6380825 11.0828819 0.0000000
vn -2.5339024 -1.8407594 -2.9849367
v 25.4858799 18.5119381 0.0000000
vn -2.7535863 -1.3388506 -3.5930407
v 26.3826103 10.1593409 0.0000000
vn -3.0617371 -0.0020388 -3.5934198
v 26.6499996 9.0000000 0.0000000
vn 1.9115779 -2.3939829 -3.5883634
v 22.3472309 11.0712996 0.0000000
vn -2.2147403 -2.2144675 -2.9848173
v 22.2743664 22.2728233 0.0000000
vn -4.4486871 -3.3784437 -2.1128504
v 25.4840355 18.5152359 -4.5000000
vn 0.6902956 -2.9848948 -3.5879068
v 23.4027119 11.5817394 0.0000000
vn -0.6668302 -2.9900458 -3.5883009
v 24.5764542 11.5864887 0.0000000
vn -4.0789747 -3.9084365 -2.0315421
v 22.2738628 22.2738628 -4.5000000
vn 2.7587783 -1.3307985 -3.5899558
v 21.6142235 10.1529236 0.0000000
vn -3.2545333 -4.7383966 -1.8888309
v 18.5152359 25.4840355 -4.5000000
vn -2.6482525 -4.8930278 -2.1380985
v 14.3007011 28.0667057 -4.5000000
vn -1.6643145 -5.7043815 -1.5512470
v 9.7340355 29.9582806 -4.5000000
vn -0.9643277 -5.3942623 -2.2348824
v 4.9276857 31.1121826 -4.5000000
vn 0.0005647 -5.7439709 -1.9010663
v 0.0000000 31.5000000 -4.5000000
vn 0.8883800 -5.3670979 -2.2833848
v -4.9276857 31.1121826 -4.5000000
vn 1.7182678 -5.4645534 -1.9234947
v -9.7340355 29.9582806 -4.5000000
vn 2.5953074 -4.8778028 -2.1865907
v -14.3007011 28.0667057 -4.5000000
vn -2.7535863 -1.3388506 -3.5930409
v -21.6173897 10.1593409 0.0000000
vn 2.2124443 -2.2168560 -2.9855170
v -22.2530365 22.2942638 0.0000000
vn 3.2557015 -4.6558967 -1.9884391
v -18.5152359 25.4840355 -4.5000000
vn -3.0617371 -0.0020388 -3.5934196
v -21.3500004 9.0000000 0.0000000
vn 0.6902956 -2.9848948 -3.5879066
v -24.5972881 11.5817394 0.0000000
vn 2.5316358 -1.8440020 -2.9858127
v -25.4644489 18.5415306 0.0000000
vn 4.1037412 -3.9089763 -2.0050199
v -22.2738628 22.2738628 -4.5000000
vn -0.6668302 -2.9900458 -3.5883009
v -23.4235458 11.5864887 0.0000000
vn -1.8961461 -2.4051356 -3.5905530
v -22.3619175 11.0828819 0.0000000
vn 4.4565578 -3.4039302 -2.0835247
v -25.4840355 18.5152359 -4.5000000
vn 2.7587783 -1.3307985 -3.5899563
v -26.3857765 10.1529236 0.0000000
vn 1.9115779 -2.3939829 -3.5883634
v -25.6527691 11.0712996 0.0000000
vn 5.2829080 -2.5037346 -1.7299296
v -28.0667057 14.3007011 -4.5000000
vn 5.2057137 -1.8282568 -2.1921282
v -29.9582806 9.7340355 -4.5000000
vn -2.7535863 -1.3388503 -3.5930412
v 26.3826103 -7.8406591 0.0000000
vn -2.7587783 1.3307985 -3.5899563
v 26.3857765 7.8470764 0.0000000
vn -3.0626178 0.0000265 -2.6921701
v 26.6499996 9.0000000 26.0000000
vn -2.7593141 -1.3294759 -2.6930594
v 26.3870907 10.1503353 26.0000000
vn -1.9115777 2.3939829 -3.5883636
v 25.6527691 6.9287004 0.0000000
vn -2.7592754 1.3295050 -2.6929097
v 26.3870907 7.8496642 26.0000000
vn -1.8961463 -2.4051352 -3.5905533
v 25.6380825 -6.9171176 0.0000000
vn -0.6902963 2.9848948 -3.5879066
v 24.5972881 6.4182606 0.0000000
vn -1.9100478 2.3945367 -2.6934087
v 25.6522923 6.9285383 26.0000000
vn -0.6668296 -2.9900455 -3.5883019
v 24.5764542 -6.4135108 0.0000000
vn 0.6668296 2.9900455 -3.5883017
v 23.4235458 6.4135108 0.0000000
vn -0.6821142 2.9858189 -2.6927142
v 24.5903416 6.4166632 26.0000000
vn 0.6902963 -2.9848948 -3.5879066
v 23.4027119 -6.4182606 0.0000000
vn 1.8961463 2.4051352 -3.5905535
v 22.3619175 6.9171176 0.0000000
vn 0.6820261 2.9858599 -2.6928637
v 23.4096584 6.4166632 26.0000000
vn 1.9115777 -2.3939829 -3.5883636
v 22.3472309 -6.9287004 0.0000000
vn 2.7535863 1.3388503 -3.5930412
v 21.6173897 7.8406591 0.0000000
vn 1.9100919 2.3945494 -2.6936650
v 22.3477077 6.9285383 26.0000000
vn 2.7593136 1.3294761 -2.6930585
v 21.6129093 7.8496642 26.0000000
vn 2.7587783 -1.3307985 -3.5899563
v 21.6142235 -7.8470764 0.0000000
vn 3.0626178 -0.0000267 -2.6921701
v 21.3500004 9.0000000 26.0000000
vn 2.7592759 -1.3295047 -2.6929102
v 21.6129093 10.1503353 26.0000000
vn 1.9100480 -2.3945365 -2.6934090
v 22.3477077 11.0714617 26.0000000
vn 0.6821142 -2.9858189 -2.6927142
v 23.4096584 11.5833368 26.0000000
vn -0.6820261 -2.9858599 -2.6928637
v 24.5903416 11.5833368 26.0000000
vn -1.9100921 -2.3945489 -2.6936650
v 25.6522923 11.0714617 26.0000000
vn -3.0626178 0.0000267 -2.6921701
v 26.6499996 -9.0000000 26.0000000
vn -2.7593136 -1.3294761 -2.6930585
v 26.3870907 -7.8496642 26.0000000
vn -2.7592759 1.3295047 -2.6929102
v 26.3870907 -10.1503353 26.0000000
vn -1.9100480 2.3945365 -2.6934090
v 25.6522923 -11.0714617 26.0000000
vn -0.6821142 2.9858189 -2.6927142
v 24.5903416 -11.5833368 26.0000000
vn 0.6820261 2.9858599 -2.6928637
v 23.4096584 -11.5833368 26.0000000
vn 1.9100921 2.3945489 -2.6936650
v 22.3477077 -11.0714617 26.0000000
vn 2.7593141 1.3294759 -2.6930594
v 21.6129093 -10.1503353 26.0000000
vn 3.0626178 -0.0000265 -2.6921701
v 21.3500004 -9.0000000 26.0000000
vn 2.7592754 -1.3295050 -2.6929097
v 21.6129093 -7.8496642 26.0000000
vn 1.9100478 -2.3945367 -2.6934087
v 22.3477077 -6.9285383 26.0000000
vn 0.6821142 -2.9858189 -2.6927142
v 23.4096584 -6.4166632 26.0000000
vn -0.6820261 -2.9858599 -2.6928637
v 24.5903416 -6.4166632 26.0000000
vn -1.9100919 -2.3945494 -2.6936650
v 25.6522923 -6.9285383 26.0000000
vn -2.7535863 -1.3388503 -3.5930412
v -21.6173897 -7.8406591 0.0000000
vn -2.7587783 1.3307985 -3.5899563
v -21.6142235 7.8470764 0.0000000
vn -3.0626178 0.0000265 -2.6921701
v -21.3500004 9.0000000 26.0000000
vn -2.7593141 -1.3294759 -2.6930594
v -21.6129093 10.1503353 26.0000000
vn -1.9115777 2.3939829 -3.5883636
v -22.3472309 6.9287004 0.0000000
vn -2.7592754 1.3295050 -2.6929097
v -21.6129093 7.8496642 26.0000000
vn -1.8961463 -2.4051352 -3.5905533
v -22.3619175 -6.9171176 0.0000000
vn -0.6902963 2.9848948 -3.5879066
v -23.4027119 6.4182606 0.0000000
vn -1.9100478 2.3945367 -2.6934087
v -22.3477077 6.9285383 26.0000000
vn -0.6668296 -2.9900455 -3.5883019
v -23.4235458 -6.4135108 0.0000000
vn 0.6668296 2.9900455 -3.5883017
v -24.5764542 6.4135108 0.0000000
vn -0.6821142 2.9858189 -2.6927142
v -23.4096584 6.4166632 26.0000000
vn 0.6902963 -2.9848948 -3.5879066
v -24.5972881 -6.4182606 0.0000000
vn 1.8961463 2.4051352 -3.5905535
v -25.6380825 6.9171176 0.0000000
vn 0.6820261 2.9858599 -2.6928637
v -24.5903416 6.4166632 26.0000000
vn 1.9115777 -2.3939829 -3.5883636
v -25.6527691 -6.9287004 0.0000000
vn 2.7535863 1.3388503 -3.5930412
v -26.3826103 7.8406591 0.0000000
vn 1.9100919 2.3945494 -2.6936650
v -25.6522923 6.9285383 26.0000000
vn 2.7593136 1.3294761 -2.6930585
v -26.3870907 7.8496642 26.0000000
vn 2.7587783 -1.3307985 -3.5899563
v -26.3857765 -7.8470764 0.0000000
vn 3.0626178 -0.0000267 -2.6921701
v -26.6499996 9.0000000 26.0000000
vn 2.7592759 -1.3295047 -2.6929102
v -26.3870907 10.1503353 26.0000000
vn 1.9100480 -2.3945365 -2.6934090
v -25.6522923 11.0714617 26.0000000
vn 0.6821142 -2.9858189 -2.6927142
v -24.5903416 11.5833368 26.0000000
vn -0.6820261 -2.9858599 -2.6928637
v -23.4096584 11.5833368 26.0000000
vn -1.9100921 -2.3945489 -2.6936650
v -22.3477077 11.0714617 26.0000000
vn -3.0626178 0.0000267 -2.6921701
v -21.3500004 -9.0000000 26.0000000
vn -2.7593136 -1.3294761 -2.6930585
v -21.6129093 -7.8496642 26.0000000
vn -2.7592759 1.3295047 -2.6929102
v -21.6129093 -10.1503353 26.0000000
vn -1.9100480 2.3945365 -2.6934090
v -22.3477077 -11.0714617 26.0000000
vn -0.6821142 2.9858189 -2.6927142
v -23.4096584 -11.5833368 26.0000000
vn 0.6820261 2.9858599 -2.6928637
v -24.5903416 -11.5833368 26.0000000
vn 1.9100921 2.3945489 -2.6936650
v -25.6522923 -11.0714617 26.0000000
vn 2.7593141 1.3294759 -2.6930594
v -26.3870907 -10.1503353 26.0000000
vn 3.0626178 -0.0000265 -2.6921701
v -26.6499996 -9.0000000 26.0000000
vn 2.7592754 -1.3295050 -2.6929097
v -26.3870907 -7.8496642 26.0000000
vn 1.9100478 -2.3945367 -2.6934087
v -25.6522923 -6.9285383 26.0000000
vn 0.6821142 -2.9858189 -2.6927142
v -24.5903416 -6.4166632 26.0000000
vn -0.6820261 -2.9858599 -2.6928637
v -23.4096584 -6.4166632 26.0000000
vn -1.9100919 -2.3945494 -2.6936650
v -22.3477077 -6.9285383 26.0000000
vn 0.0429248 2.1089604 -5.4624395
v -0.0000000 -32.5000000 -5.5000000
vn 0.5292439 2.0365536 -5.4695015
v -8.4203863 -31.3901176 -5.5000000
vn -0.5376508 2.0364091 -5.4683504
v 8.4202719 -31.3901482 -5.5000000
vn -1.0604788 1.8196295 -5.4684467
v 16.2560043 -28.1420555 -5.5000000
vn -1.5108972 1.5109104 -5.4392862
v 22.9806671 -22.9808178 -5.5000000
vn -1.8196400 1.0603956 -5.4684696
v 28.1419621 -16.2561684 -5.5000000
vn -2.0365534 0.5292439 -5.4695024
v 31.3901176 -8.4203863 -5.5000000
vn -2.1107836 0.0543310 -5.4616909
v 32.5000000 0.0000000 -5.5000000
vn 2.1022406 -0.0545171 -5.4675503
v -32.5000000 0.0000000 -5.5000000
vn 2.0282037 -0.5919792 -5.4594383
v -31.1817684 9.1622725 -5.5000000
vn 2.0364091 0.5376508 -5.4683499
v -31.3901482 -8.4202719 -5.5000000
vn 1.8196295 1.0604788 -5.4684472
v -28.1420555 -16.2560043 -5.5000000
vn 1.5109104 1.5108972 -5.4392858
v -22.9808178 -22.9806671 -5.5000000
vn 1.0603956 1.8196400 -5.4684706
v -16.2561684 -28.1419621 -5.5000000
vn 0.4420363 -3.0780876 -2.8562424
v 5.0480919 -35.1392288 -5.5000000
vn -0.4426653 -3.0779679 -2.8561492
v -5.0530853 -35.1385117 -5.5000000
vn 1.2904910 -2.8293028 -2.8564949
v 14.7340117 -32.2979507 -5.5000000
vn 2.0345204 -2.3518109 -2.8565331
v 23.2239647 -26.8495159 -5.5000000
vn 2.6143632 -1.6837786 -2.8563945
v 29.8451214 -19.2228546 -5.5000000
vn 2.9629300 -0.9887988 -2.9273801
v 34.0525017 -10.0337934 -5.5000000
vn 2.9835043 0.8769057 -2.8596702
v 34.0591125 10.0113239 -5.5000000
vn -2.1194665 -0.2773010 -5.4409661
v 32.1676521 4.6359577 -5.5000000
vn -2.9835043 -0.8769057 -2.8596709
v -34.0591125 -10.0113239 -5.5000000
vn -2.9629300 0.9887988 -2.9273798
v -34.0525017 10.0337934 -5.5000000
vn -2.6143632 1.6837786 -2.8564055
v -29.8451214 19.2228546 -5.5000000
vn -2.6159406 -1.6813397 -2.8564169
v -29.8658676 -19.1906090 -5.5000000
vn -2.0362570 -2.3502336 -2.8563466
v -23.2437592 -26.8323822 -5.5000000
vn -1.2917464 -2.8286712 -2.8563180
v -14.7486887 -32.2912521 -5.5000000
vn 3.1026049 -0.4246573 -2.9588540
v 35.1364174 -5.0677590 -5.5000000
vn 3.1196575 0.0893032 -2.8981826
v 35.5000000 0.0000000 -5.5000000
vn 3.1196575 -0.0893032 2.8981826
v 35.5000000 -0.0000000 26.0000000
vn 2.9835043 -0.8769058 2.8596702
v 34.0591125 -10.0113239 26.0000000
vn -2.0380800 -0.6029321 -5.4510570
v 31.1754837 9.1836300 -5.5000000
vn 2.6159406 1.6813397 -2.8564169
v 29.8658676 19.1906090 -5.5000000
vn 2.9629297 0.9887989 2.9273791
v 34.0525017 10.0337934 26.0000000
vn 3.1026049 0.4246573 2.9588540
v 35.1364174 5.0677590 26.0000000
vn -1.7722870 -1.1319730 -5.4708548
v 27.3214340 17.6008167 -5.5000000
vn 2.0362570 2.3502336 -2.8563466
v 23.2437592 26.8323822 -5.5000000
vn 2.6143630 1.6837788 2.8563933
v 29.8451214 19.2228546 26.0000000
vn -1.3671284 -1.5897415 -5.4763041
v 21.2638874 24.5783710 -5.5000000
vn 1.2917464 2.8286712 -2.8563180
v 14.7486887 32.2912521 -5.5000000
vn 2.0345206 2.3518109 2.8565326
v 23.2239647 26.8495159 26.0000000
vn -0.8637175 -1.9211967 -5.4663572
v 13.4921846 29.5670414 -5.5000000
vn 0.4426653 3.0779679 -2.8561492
v 5.0530853 35.1385117 -5.5000000
vn 1.2904910 2.8293028 2.8564925
v 14.7340117 32.2979507 26.0000000
vn 0.2949141 -2.1112447 -5.4435911
v -4.6355033 32.1677017 -5.5000000
vn -0.4420363 3.0780876 -2.8562422
v -5.0480919 35.1392288 -5.5000000
vn 0.4420363 3.0780873 2.8562427
v 5.0480919 35.1392288 26.0000000
vn -0.3230424 -2.0906258 -5.4567838
v 4.6197743 32.1699638 -5.5000000
vn 0.8659242 -1.9256433 -5.4629917
v -13.5106325 29.5586166 -5.5000000
vn -1.2904910 2.8293028 -2.8564951
v -14.7340117 32.2979507 -5.5000000
vn -0.4426653 3.0779681 2.8561487
v -5.0530853 35.1385117 26.0000000
vn 1.3732271 -1.5854098 -5.4758482
v -21.2838726 24.5610657 -5.5000000
vn -2.0345204 2.3518109 -2.8565333
v -23.2239647 26.8495159 -5.5000000
vn -1.2917464 2.8286712 2.8563156
v -14.7486887 32.2912521 26.0000000
vn 1.7730129 -1.1257591 -5.4726934
v -27.3416824 17.5693493 -5.5000000
vn -2.0362573 2.3502336 2.8563480
v -23.2437592 26.8323822 26.0000000
vn -2.6159406 1.6813397 2.8564155
v -29.8658676 19.1906090 26.0000000
vn -3.1026049 0.4246573 -2.9588540
v -35.1364174 5.0677590 -5.5000000
vn -2.9835043 0.8769057 2.8596702
v -34.0591125 10.0113239 26.0000000
vn -3.1196575 -0.0893032 -2.8981826
v -35.5000000 0.0000000 -5.5000000
vn -3.1196575 0.0893032 2.8981826
v -35.5000000 0.0000000 26.0000000
vn -2.9629297 -0.9887989 2.9273791
v -34.0525017 -10.0337934 26.0000000
vn -3.1026049 -0.4246573 2.9588540
v -35.1364174 -5.0677590 26.0000000
vn -2.6143630 -1.6837788 2.8563936
v -29.8451214 -19.2228546 26.0000000
vn -2.0345206 -2.3518109 2.8565326
v -23.2239647 -26.8495159 26.0000000
vn -1.2904910 -2.8293028 2.8564923
v -14.7340117 -32.2979507 26.0000000
vn -0.4420363 -3.0780873 2.8562427
v -5.0480919 -35.1392288 26.0000000
vn 0.4426653 -3.0779681 2.8561487
v 5.0530853 -35.1385117 26.0000000
vn 1.2917464 -2.8286712 2.8563154
v 14.7486887 -32.2912521 26.0000000
vn 2.0362573 -2.3502336 2.8563483
v 23.2437592 -26.8323822 26.0000000
vn 2.6159406 -1.6813397 2.8564155
v 29.8658676 -19.1906090 26.0000000
vn 3.0628467 0.0000281 3.5903668
v 30.0000000 9.0000000 26.0000000
vn 2.7799733 1.3089991 3.5443544
v 29.4059753 11.6028185 26.0000000
vn -0.7481322 2.9837070 3.5163457
v 22.6641064 14.8491268 26.0000000
vn 1.9205294 2.4112425 3.5059676
v 27.7410831 13.6906443 26.0000000
vn 0.6848223 3.0083642 3.4976525
v 25.3348484 14.8493652 26.0000000
vn -3.0628467 -0.0000281 3.5903664
v 18.0000000 -9.0000000 26.0000000
vn -1.9100112 2.3943956 3.5900075
v 20.2582188 13.6900873 26.0000000
vn -2.7597761 1.3284799 3.5901592
v 18.5937939 11.6023369 26.0000000
vn -3.0628467 -0.0000282 3.5903661
v 18.0000000 9.0000000 26.0000000
vn 2.7799733 1.3089991 3.5443547
v -18.5940247 11.6028185 26.0000000
vn 3.0628467 0.0000281 3.5903664
v -18.0000000 9.0000000 26.0000000
vn -0.7481322 2.9837070 3.5163455
v -25.3358936 14.8491268 26.0000000
vn 1.9205294 2.4112425 3.5059679
v -20.2589169 13.6906443 26.0000000
vn 0.6848223 3.0083642 3.4976523
v -22.6651516 14.8493652 26.0000000
vn -3.0628467 -0.0000282 3.5903656
v -30.0000000 9.0000000 26.0000000
vn -1.9100112 2.3943956 3.5900078
v -27.7417812 13.6900873 26.0000000
vn -2.7597761 1.3284799 3.5901594
v -29.4062061 11.6023369 26.0000000
vn -3.0628467 -0.0000281 3.5903668
v -30.0000000 -9.0000000 26.0000000
vn 3.0628467 0.0000282 3.5903656
v 30.0000000 -9.0000000 26.0000000
vn 0.7481322 -2.9837070 3.5163457
v 25.3358936 -14.8491268 26.0000000
vn 2.7597761 -1.3284799 3.5901594
v 29.4062061 -11.6023369 26.0000000
vn 1.9100112 -2.3943956 3.5900078
v 27.7417812 -13.6900873 26.0000000
vn -2.7799733 -1.3089991 3.5443544
v 18.5940247 -11.6028185 26.0000000
vn -1.9205294 -2.4112425 3.5059679
v 20.2589169 -13.6906443 26.0000000
vn -0.6848223 -3.0083642 3.4976523
v 22.6651516 -14.8493652 26.0000000
vn 0.7481322 -2.9837070 3.5163457
v -22.6641064 -14.8491268 26.0000000
vn 3.0628467 0.0000282 3.5903661
v -18.0000000 -9.0000000 26.0000000
vn 2.7597761 -1.3284799 3.5901592
v -18.5937939 -11.6023369 26.0000000
vn 1.9100112 -2.3943956 3.5900075
v -20.2582188 -13.6900873 26.0000000
vn -2.7799733 -1.3089991 3.5443544
v -29.4059753 -11.6028185 26.0000000
vn -1.9205294 -2.4112425 3.5059676
v -27.7410831 -13.6906443 26.0000000
vn -0.6848223 -3.0083642 3.4976525
v -25.3348484 -14.8493652 26.0000000
vn 6.1385698 -0.0612824 -0.0240576
v -18.0000000 9.0000000 28.0000000
vn 2.7597768 -1.3284804 3.5901597
v -18.5937939 6.3976636 26.0000000
vn 2.7602031 -1.3282430 2.6937134
v -18.5950527 6.3950796 42.0000000
vn 4.3866100 4.3401380 0.0182949
v -19.7573586 13.2426405 28.0000000
vn 5.7144065 2.2982087 -0.0252526
v -18.4567223 11.2961006 28.0000000
vn 2.3806419 5.6965227 0.0216866
v -21.7038994 14.5432768 28.0000000
vn 0.2114145 6.2070789 -0.0330824
v -24.0000000 15.0000000 28.0000000
vn -0.7530343 2.9824214 2.7664993
v -25.3452148 14.8469543 42.0000000
vn 0.2087858 6.2068510 0.0329261
v -24.0000000 15.0000000 40.0000000
vn -1.9132770 2.3922379 2.6940746
v -27.7504005 13.6830425 42.0000000
vn -2.7602036 1.3282430 2.6937134
v -29.4049473 11.6049204 42.0000000
vn -2.7597768 1.3284804 3.5901594
v -29.4062061 -6.3976636 26.0000000
vn -2.7799733 -1.3089991 3.5443542
v -29.4059753 6.3971815 26.0000000
vn -6.1385698 0.0612824 -0.0240576
v -30.0000000 9.0000000 28.0000000
vn -1.9100114 2.3943956 3.5900071
v -27.7417812 -4.3099132 26.0000000
vn -1.9205298 -2.4112425 3.5059676
v -27.7410831 4.3093557 26.0000000
vn -4.3866105 -4.3401375 0.0182949
v -28.2426414 4.7573595 28.0000000
vn -5.7144065 -2.2982087 -0.0252526
v -29.5432777 6.7038994 28.0000000
vn -0.7481326 2.9837070 3.5163455
v -25.3358936 -3.1508732 26.0000000
vn -0.6848221 -3.0083642 3.4976530
v -25.3348484 3.1506343 26.0000000
vn -2.3806422 -5.6965227 0.0216866
v -26.2961006 3.4567227 28.0000000
vn 0.6848221 3.0083642 3.4976528
v -22.6651516 -3.1506343 26.0000000
vn 0.7481326 -2.9837070 3.5163457
v -22.6641064 3.1508732 26.0000000
vn -0.2114138 -6.2070794 -0.0330822
v -24.0000000 3.0000000 28.0000000
vn 1.9205298 2.4112425 3.5059676
v -20.2589169 -4.3093557 26.0000000
vn 1.9100114 -2.3943956 3.5900071
v -20.2582188 4.3099132 26.0000000
vn 0.7530344 -2.9824214 2.7664990
v -22.6547852 3.1530454 42.0000000
vn -0.2087857 -6.2068515 0.0329260
v -24.0000000 3.0000000 40.0000000
vn 2.7799733 1.3089991 3.5443544
v -18.5940247 -6.3971815 26.0000000
vn 1.9132776 -2.3922384 2.6940746
v -20.2495995 4.3169575 42.0000000
vn 6.1385698 -0.0612824 -0.0240576
v -18.0000000 -9.0000000 28.0000000
vn 2.7602036 -1.3282430 2.6937134
v -18.5950527 -11.6049204 42.0000000
vn 4.3866105 4.3401375 0.0182948
v -19.7573586 -4.7573595 28.0000000
vn 5.7144065 2.2982087 -0.0252526
v -18.4567223 -6.7038994 28.0000000
vn 2.3806419 5.6965227 0.0216866
v -21.7038994 -3.4567227 28.0000000
vn 0.2114138 6.2070789 -0.0330822
v -24.0000000 -3.0000000 28.0000000
vn -0.7530344 2.9824214 2.7664990
v -25.3452148 -3.1530454 42.0000000
vn 0.2087857 6.2068515 0.0329260
v -24.0000000 -3.0000000 40.0000000
vn -1.9132776 2.3922384 2.6940746
v -27.7504005 -4.3169575 42.0000000
vn -2.7602031 1.3282430 2.6937134
v -29.4049473 -6.3950796 42.0000000
vn -6.1385698 0.0612824 -0.0240576
v -30.0000000 -9.0000000 28.0000000
vn -4.3866100 -4.3401380 0.0182949
v -28.2426414 -13.2426405 28.0000000
vn -5.7144065 -2.2982087 -0.0252526
v -29.5432777 -11.2961006 28.0000000
vn -2.3806419 -5.6965232 0.0216866
v -26.2961006 -14.5432768 28.0000000
vn -0.2114145 -6.2070794 -0.0330824
v -24.0000000 -15.0000000 28.0000000
vn 0.7530343 -2.9824214 2.7664993
v -22.6547852 -14.8469543 42.0000000
vn -0.2087858 -6.2068510 0.0329261
v -24.0000000 -15.0000000 40.0000000
vn 1.9132770 -2.3922379 2.6940746
v -20.2495995 -13.6830425 42.0000000
vn 6.1385698 -0.0612824 -0.0240576
v 30.0000000 9.0000000 28.0000000
vn 2.7597768 -1.3284804 3.5901597
v 29.4062061 6.3976636 26.0000000
vn 2.7602031 -1.3282430 2.6937134
v 29.4049473 6.3950796 42.0000000
vn 4.3866100 4.3401380 0.0182949
v 28.2426414 13.2426405 28.0000000
vn 5.7144065 2.2982087 -0.0252526
v 29.5432777 11.2961006 28.0000000
vn 2.3806419 5.6965227 0.0216866
v 26.2961006 14.5432768 28.0000000
vn 0.2114145 6.2070789 -0.0330824
v 24.0000000 15.0000000 28.0000000
vn -0.7530343 2.9824214 2.7664993
v 22.6547852 14.8469543 42.0000000
vn 0.2087858 6.2068510 0.0329261
v 24.0000000 15.0000000 40.0000000
vn -1.9132770 2.3922379 2.6940746
v 20.2495995 13.6830425 42.0000000
vn -2.7602036 1.3282430 2.6937134
v 18.5950527 11.6049204 42.0000000
vn -2.7597768 1.3284804 3.5901594
v 18.5937939 -6.3976636 26.0000000
vn -2.7799733 -1.3089991 3.5443542
v 18.5940247 6.3971815 26.0000000
vn -6.1385698 0.0612824 -0.0240576
v 18.0000000 9.0000000 28.0000000
vn -1.9100114 2.3943956 3.5900071
v 20.2582188 -4.3099132 26.0000000
vn -1.9205298 -2.4112425 3.5059676
v 20.2589169 4.3093557 26.0000000
vn -4.3866105 -4.3401375 0.0182949
v 19.7573586 4.7573595 28.0000000
vn -5.7144065 -2.2982087 -0.0252526
v 18.4567223 6.7038994 28.0000000
vn -0.7481326 2.9837070 3.5163455
v 22.6641064 -3.1508732 26.0000000
vn -0.6848221 -3.0083642 3.4976530
v 22.6651516 3.1506343 26.0000000
vn -2.3806422 -5.6965227 0.0216866
v 21.7038994 3.4567227 28.0000000
vn 0.6848221 3.0083642 3.4976528
v 25.3348484 -3.1506343 26.0000000
vn 0.7481326 -2.9837070 3.5163457
v 25.3358936 3.1508732 26.0000000
vn -0.2114138 -6.2070794 -0.0330822
v 24.0000000 3.0000000 28.0000000
vn 1.9205298 2.4112425 3.5059676
v 27.7410831 -4.3093557 26.0000000
vn 1.9100114 -2.3943956 3.5900071
v 27.7417812 4.3099132 26.0000000
vn 0.7530344 -2.9824214 2.7664990
v 25.3452148 3.1530454 42.0000000
vn -0.2087857 -6.2068515 0.0329260
v 24.0000000 3.0000000 40.0000000
vn 2.7799733 1.3089991 3.5443544
v 29.4059753 -6.3971815 26.0000000
vn 1.9132776 -2.3922384 2.6940746
v 27.7504005 4.3169575 42.0000000
vn 6.1385698 -0.0612824 -0.0240576
v 30.0000000 -9.0000000 28.0000000
vn 2.7602036 -1.3282430 2.6937134
v 29.4049473 -11.6049204 42.0000000
vn 4.3866105 4.3401375 0.0182948
v 28.2426414 -4.7573595 28.0000000
vn 5.7144065 2.2982087 -0.0252526
v 29.5432777 -6.7038994 28.0000000
vn 2.3806419 5.6965227 0.0216866
v 26.2961006 -3.4567227 28.0000000
vn 0.2114138 6.2070789 -0.0330822
v 24.0000000 -3.0000000 28.0000000
vn -0.7530344 2.9824214 2.7664990
v 22.6547852 -3.1530454 42.0000000
vn 0.2087857 6.2068515 0.0329260
v 24.0000000 -3.0000000 40.0000000
vn -1.9132776 2.3922384 2.6940746
v 20.2495995 -4.3169575 42.0000000
vn -2.7602031 1.3282430 2.6937134
v 18.5950527 -6.3950796 42.0000000
vn -6.1385698 0.0612824 -0.0240576
v 18.0000000 -9.0000000 28.0000000
vn -4.3866100 -4.3401380 0.0182949
v 19.7573586 -13.2426405 28.0000000
vn -5.7144065 -2.2982087 -0.0252526
v 18.4567223 -11.2961006 28.0000000
vn -2.3806419 -5.6965232 0.0216866
v 21.7038994 -14.5432768 28.0000000
vn -0.2114145 -6.2070794 -0.0330824
v 24.0000000 -15.0000000 28.0000000
vn 0.7530343 -2.9824214 2.7664993
v 25.3452148 -14.8469543 42.0000000
vn -0.2087858 -6.2068510 0.0329261
v 24.0000000 -15.0000000 40.0000000
vn 1.9132770 -2.3922379 2.6940746
v 27.7504005 -13.6830425 42.0000000
vn 2.1686132 1.0551993 5.1090140
v -22.1934185 9.8789454 55.0000000
vn -2.1733682 1.0475893 5.1079669
v -25.8091164 9.8739319 55.0000000
vn -2.4139161 0.0002664 5.1056390
v -26.0095005 9.0000000 55.0000000
vn -5.0348363 0.0004165 1.9726803
v -26.5000000 9.0000000 54.5094986
vn 2.4139161 -0.0002664 5.1056390
v -21.9904995 9.0000000 55.0000000
vn -2.1686130 -1.0551991 5.1090140
v -25.8065815 8.1210546 55.0000000
vn -4.5374370 -2.1832666 1.9723791
v -26.2524223 7.9152908 54.5094986
vn -1.5088676 1.8826256 5.1081400
v -25.2560692 10.5684662 55.0000000
vn -4.5368552 2.1833146 1.9731103
v -26.2524223 10.0847092 54.5094986
vn 1.4930911 1.8943367 5.1088519
v -22.7552090 10.5774708 55.0000000
vn -0.5466446 2.3487492 5.1097856
v -24.4533882 10.9573717 55.0000000
vn -3.1399705 3.9376152 1.9724647
v -25.5587254 10.9545784 54.5094986
vn 0.5223767 2.3539634 5.1102128
v -23.5625668 10.9610548 55.0000000
vn -1.1204742 4.9103599 1.9724075
v -24.5563030 11.4373198 54.5094986
vn 1.1217905 4.9106331 1.9717168
v -23.4436970 11.4373198 54.5094986
vn 3.1418436 3.9370539 1.9714044
v -22.4412746 10.9545784 54.5094986
vn 4.5374360 2.1832669 1.9723788
v -21.7475777 10.0847092 54.5094986
vn 2.1733682 -1.0475893 5.1079669
v -22.1908836 8.1260681 55.0000000
vn 5.0348358 -0.0004165 1.9726803
v -21.5000000 9.0000000 54.5094986
vn 1.5088669 -1.8826253 5.1081409
v -22.7439308 7.4315338 55.0000000
vn 4.5368552 -2.1833143 1.9731106
v -21.7475777 7.9152908 54.5094986
vn -1.4930900 -1.8943353 5.1088533
v -25.2447910 7.4225297 55.0000000
vn 0.5466451 -2.3487473 5.1097884
v -23.5466118 7.0426288 55.0000000
vn 3.1399691 -3.9376142 1.9724648
v -22.4412746 7.0454211 54.5094986
vn -0.5223777 -2.3539646 5.1102104
v -24.4374332 7.0389447 55.0000000
vn 1.1204739 -4.9103599 1.9724081
v -23.4436970 6.5626802 54.5094986
vn -1.1217904 -4.9106336 1.9717162
v -24.5563030 6.5626802 54.5094986
vn -3.1418417 -3.9370527 1.9714054
v -25.5587254 7.0454211 54.5094986
vn -3.0617609 0.0019295 3.5932550
v -26.5000000 9.0000000 42.0000000
vn -2.7587652 -1.3308144 3.5899804
v -26.2507324 7.9123363 42.0000000
vn -2.7536609 1.3388350 3.5926423
v -26.2477455 10.0937176 42.0000000
vn -1.8961439 2.4052117 3.5901673
v -25.5453625 10.9649830 42.0000000
vn -0.6668050 2.9900913 3.5880394
v -24.5438251 11.4400845 42.0000000
vn 0.6903520 2.9849029 3.5877647
v -23.4365196 11.4356031 42.0000000
vn 1.9116120 2.3939590 3.5883532
v -22.4407845 10.9540558 42.0000000
vn 2.7587647 1.3308147 3.5899806
v -21.7492676 10.0876637 42.0000000
vn 3.0617609 -0.0019294 3.5932550
v -21.5000000 9.0000000 42.0000000
vn 2.7536607 -1.3388351 3.5926428
v -21.7522545 7.9062819 42.0000000
vn 1.8961431 -2.4052124 3.5901599
v -22.4546375 7.0350170 42.0000000
vn 0.6668050 -2.9900916 3.5880384
v -23.4561749 6.5599160 42.0000000
vn -0.6903507 -2.9849033 3.5877643
v -24.5634804 6.5643969 42.0000000
vn -1.9116118 -2.3939588 3.5883539
v -25.5592155 7.0459437 42.0000000
vn 3.0676842 -0.0229758 2.7155902
v -18.0000000 9.0000000 42.0000000
vn 2.7716730 1.3363805 2.7568424
v -18.6015072 11.6182585 42.0000000
vn -2.7716727 -1.3363805 2.7568417
v -29.3984928 6.3817410 42.0000000
vn -3.0676844 0.0229758 2.7155790
v -30.0000000 9.0000000 42.0000000
vn 6.1439271 -0.0867315 0.0000000
v -18.0000000 9.0000000 40.0000000
vn 5.7101822 2.3251970 -0.0052909
v -18.4567223 11.2961006 40.0000000
vn -1.9149786 -2.4160542 2.7781274
v -27.7300587 4.3006644 42.0000000
vn -0.6796963 -3.0096407 2.7857916
v -25.3253746 3.1484840 42.0000000
vn -2.3800249 -5.6968975 -0.0221916
v -26.2961006 3.4567227 40.0000000
vn -4.3863363 -4.3407183 -0.0188299
v -28.2426414 4.7573595 40.0000000
vn -5.7101831 -2.3251967 -0.0052911
v -29.5432777 6.7038994 40.0000000
vn -6.1439276 0.0867315 0.0000000
v -30.0000000 9.0000000 40.0000000
vn 1.9149787 2.4160542 2.7781279
v -20.2699413 13.6993351 42.0000000
vn 0.6796966 3.0096402 2.7857919
v -22.6746254 14.8515158 42.0000000
vn 2.3800254 5.6968980 -0.0221915
v -21.7038994 14.5432768 40.0000000
vn 4.3863354 4.3407187 -0.0188295
v -19.7573586 13.2426405 40.0000000
vn 2.1686130 1.0551991 5.1090140
v -22.1934185 -8.1210546 55.0000000
vn -2.1733682 1.0475893 5.1079669
v -25.8091164 -8.1260681 55.0000000
vn -2.4139161 0.0002664 5.1056390
v -26.0095005 -9.0000000 55.0000000
vn -5.0348363 0.0004165 1.9726803
v -26.5000000 -9.0000000 54.5094986
vn 2.4139161 -0.0002664 5.1056390
v -21.9904995 -9.0000000 55.0000000
vn -2.1686132 -1.0551993 5.1090140
v -25.8065815 -9.8789454 55.0000000
vn -4.5374365 -2.1832669 1.9723788
v -26.2524223 -10.0847092 54.5094986
vn -1.5088669 1.8826253 5.1081409
v -25.2560692 -7.4315338 55.0000000
vn -4.5368552 2.1833143 1.9731106
v -26.2524223 -7.9152908 54.5094986
vn 1.4930900 1.8943353 5.1088533
v -22.7552090 -7.4225297 55.0000000
vn -0.5466451 2.3487473 5.1097884
v -24.4533882 -7.0426288 55.0000000
vn -3.1399691 3.9376142 1.9724648
v -25.5587254 -7.0454211 54.5094986
vn 0.5223777 2.3539646 5.1102104
v -23.5625668 -7.0389447 55.0000000
vn -1.1204739 4.9103599 1.9724081
v -24.5563030 -6.5626802 54.5094986
vn 1.1217904 4.9106336 1.9717162
v -23.4436970 -6.5626802 54.5094986
vn 3.1418417 3.9370527 1.9714054
v -22.4412746 -7.0454211 54.5094986
vn 4.5374370 2.1832664 1.9723791
v -21.7475777 -7.9152908 54.5094986
vn 2.1733682 -1.0475893 5.1079669
v -22.1908836 -9.8739319 55.0000000
vn 5.0348358 -0.0004165 1.9726803
v -21.5000000 -9.0000000 54.5094986
vn 1.5088676 -1.8826256 5.1081400
v -22.7439308 -10.5684662 55.0000000
vn 4.5368552 -2.1833146 1.9731103
v -21.7475777 -10.0847092 54.5094986
vn -1.4930911 -1.8943367 5.1088519
v -25.2447910 -10.5774708 55.0000000
vn 0.5466446 -2.3487492 5.1097856
v -23.5466118 -10.9573717 55.0000000
vn 3.1399705 -3.9376152 1.9724647
v -22.4412746 -10.9545784 54.5094986
vn -0.5223767 -2.3539634 5.1102128
v -24.4374332 -10.9610548 55.0000000
vn 1.1204742 -4.9103599 1.9724075
v -23.4436970 -11.4373198 54.5094986
vn -1.1217905 -4.9106331 1.9717168
v -24.5563030 -11.4373198 54.5094986
vn -3.1418436 -3.9370539 1.9714044
v -25.5587254 -10.9545784 54.5094986
vn -3.0617609 0.0019294 3.5932550
v -26.5000000 -9.0000000 42.0000000
vn -2.7587647 -1.3308147 3.5899806
v -26.2507324 -10.0876637 42.0000000
vn -2.7536607 1.3388351 3.5926428
v -26.2477455 -7.9062819 42.0000000
vn -1.8961431 2.4052124 3.5901599
v -25.5453625 -7.0350170 42.0000000
vn -0.6668050 2.9900916 3.5880384
v -24.5438251 -6.5599160 42.0000000
vn 0.6903507 2.9849033 3.5877643
v -23.4365196 -6.5643969 42.0000000
vn 1.9116118 2.3939588 3.5883539
v -22.4407845 -7.0459437 42.0000000
vn 2.7587652 1.3308144 3.5899804
v -21.7492676 -7.9123363 42.0000000
vn 3.0617609 -0.0019295 3.5932550
v -21.5000000 -9.0000000 42.0000000
vn 2.7536609 -1.3388350 3.5926423
v -21.7522545 -10.0937176 42.0000000
vn 1.8961439 -2.4052117 3.5901673
v -22.4546375 -10.9649830 42.0000000
vn 0.6668050 -2.9900913 3.5880394
v -23.4561749 -11.4400845 42.0000000
vn -0.6903520 -2.9849029 3.5877647
v -24.5634804 -11.4356031 42.0000000
vn -1.9116120 -2.3939590 3.5883532
v -25.5592155 -10.9540558 42.0000000
vn 3.0676844 -0.0229758 2.7155790
v -18.0000000 -9.0000000 42.0000000
vn 2.7716727 1.3363805 2.7568417
v -18.6015072 -6.3817410 42.0000000
vn -2.7716730 -1.3363805 2.7568424
v -29.3984928 -11.6182585 42.0000000
vn -3.0676842 0.0229758 2.7155902
v -30.0000000 -9.0000000 42.0000000
vn 6.1439271 -0.0867315 0.0000000
v -18.0000000 -9.0000000 40.0000000
vn 5.7101831 2.3251970 -0.0052912
v -18.4567223 -6.7038994 40.0000000
vn -1.9149787 -2.4160542 2.7781279
v -27.7300587 -13.6993351 42.0000000
vn -0.6796966 -3.0096402 2.7857919
v -25.3253746 -14.8515158 42.0000000
vn -2.3800254 -5.6968975 -0.0221915
v -26.2961006 -14.5432768 40.0000000
vn -4.3863354 -4.3407187 -0.0188295
v -28.2426414 -13.2426405 40.0000000
vn -5.7101831 -2.3251970 -0.0052909
v -29.5432777 -11.2961006 40.0000000
vn -6.1439276 0.0867315 0.0000000
v -30.0000000 -9.0000000 40.0000000
vn 1.9149786 2.4160542 2.7781274
v -20.2699413 -4.3006644 42.0000000
vn 0.6796963 3.0096407 2.7857916
v -22.6746254 -3.1484840 42.0000000
vn 2.3800249 5.6968980 -0.0221916
v -21.7038994 -3.4567227 40.0000000
vn 4.3863358 4.3407187 -0.0188299
v -19.7573586 -4.7573595 40.0000000
vn 2.1686132 1.0551993 5.1090140
v 25.8065815 9.8789454 55.0000000
vn -2.1733682 1.0475893 5.1079669
v 22.1908836 9.8739319 55.0000000
vn -2.4139161 0.0002664 5.1056390
v 21.9904995 9.0000000 55.0000000
vn -5.0348363 0.0004165 1.9726803
v 21.5000000 9.0000000 54.5094986
vn 2.4139161 -0.0002664 5.1056390
v 26.0095005 9.0000000 55.0000000
vn -2.1686130 -1.0551991 5.1090140
v 22.1934185 8.1210546 55.0000000
vn -4.5374370 -2.1832666 1.9723791
v 21.7475777 7.9152908 54.5094986
vn -1.5088676 1.8826256 5.1081400
v 22.7439308 10.5684662 55.0000000
vn -4.5368552 2.1833146 1.9731103
v 21.7475777 10.0847092 54.5094986
vn 1.4930911 1.8943367 5.1088519
v 25.2447910 10.5774708 55.0000000
vn -0.5466446 2.3487492 5.1097856
v 23.5466118 10.9573717 55.0000000
vn -3.1399705 3.9376152 1.9724647
v 22.4412746 10.9545784 54.5094986
vn 0.5223767 2.3539634 5.1102128
v 24.4374332 10.9610548 55.0000000
vn -1.1204742 4.9103599 1.9724075
v 23.4436970 11.4373198 54.5094986
vn 1.1217905 4.9106331 1.9717168
v 24.5563030 11.4373198 54.5094986
vn 3.1418436 3.9370539 1.9714044
v 25.5587254 10.9545784 54.5094986
vn 4.5374360 2.1832669 1.9723788
v 26.2524223 10.0847092 54.5094986
vn 2.1733682 -1.0475893 5.1079669
v 25.8091164 8.1260681 55.0000000
vn 5.0348358 -0.0004165 1.9726803
v 26.5000000 9.0000000 54.5094986
vn 1.5088669 -1.8826253 5.1081409
v 25.2560692 7.4315338 55.0000000
vn 4.5368552 -2.1833143 1.9731106
v 26.2524223 7.9152908 54.5094986
vn -1.4930900 -1.8943353 5.1088533
v 22.7552090 7.4225297 55.0000000
vn 0.5466451 -2.3487473 5.1097884
v 24.4533882 7.0426288 55.0000000
vn 3.1399691 -3.9376142 1.9724648
v 25.5587254 7.0454211 54.5094986
vn -0.5223777 -2.3539646 5.1102104
v 23.5625668 7.0389447 55.0000000
vn 1.1204739 -4.9103599 1.9724081
v 24.5563030 6.5626802 54.5094986
vn -1.1217904 -4.9106336 1.9717162
v 23.4436970 6.5626802 54.5094986
vn -3.1418417 -3.9370527 1.9714054
v 22.4412746 7.0454211 54.5094986
vn -3.0617609 0.0019295 3.5932550
v 21.5000000 9.0000000 42.0000000
vn -2.7587652 -1.3308144 3.5899804
v 21.7492676 7.9123363 42.0000000
vn -2.7536609 1.3388350 3.5926423
v 21.7522545 10.0937176 42.0000000
vn -1.8961439 2.4052117 3.5901673
v 22.4546375 10.9649830 42.0000000
vn -0.6668050 2.9900913 3.5880394
v 23.4561749 11.4400845 42.0000000
vn 0.6903520 2.9849029 3.5877647
v 24.5634804 11.4356031 42.0000000
vn 1.9116120 2.3939590 3.5883532
v 25.5592155 10.9540558 42.0000000
vn 2.7587647 1.3308147 3.5899806
v 26.2507324 10.0876637 42.0000000
vn 3.0617609 -0.0019294 3.5932550
v 26.5000000 9.0000000 42.0000000
vn 2.7536607 -1.3388351 3.5926428
v 26.2477455 7.9062819 42.0000000
vn 1.8961431 -2.4052124 3.5901599
v 25.5453625 7.0350170 42.0000000
vn 0.6668050 -2.9900916 3.5880384
v 24.5438251 6.5599160 42.0000000
vn -0.6903507 -2.9849033 3.5877643
v 23.4365196 6.5643969 42.0000000
vn -1.9116118 -2.3939588 3.5883539
v 22.4407845 7.0459437 42.0000000
vn 3.0676842 -0.0229758 2.7155902
v 30.0000000 9.0000000 42.0000000
vn 2.7716730 1.3363805 2.7568424
v 29.3984928 11.6182585 42.0000000
vn -2.7716727 -1.3363805 2.7568417
v 18.6015072 6.3817410 42.0000000
vn -3.0676844 0.0229758 2.7155790
v 18.0000000 9.0000000 42.0000000
vn 6.1439271 -0.0867315 0.0000000
v 30.0000000 9.0000000 40.0000000
vn 5.7101822 2.3251970 -0.0052909
v 29.5432777 11.2961006 40.0000000
vn -1.9149786 -2.4160542 2.7781274
v 20.2699413 4.3006644 42.0000000
vn -0.6796963 -3.0096407 2.7857916
v 22.6746254 3.1484840 42.0000000
vn -2.3800249 -5.6968975 -0.0221916
v 21.7038994 3.4567227 40.0000000
vn -4.3863363 -4.3407183 -0.0188299
v 19.7573586 4.7573595 40.0000000
vn -5.7101831 -2.3251967 -0.0052911
v 18.4567223 6.7038994 40.0000000
vn -6.1439276 0.0867315 0.0000000
v 18.0000000 9.0000000 40.0000000
vn 1.9149787 2.4160542 2.7781279
v 27.7300587 13.6993351 42.0000000
vn 0.6796966 3.0096402 2.7857919
v 25.3253746 14.8515158 42.0000000
vn 2.3800254 5.6968980 -0.0221915
v 26.2961006 14.5432768 40.0000000
vn 4.3863354 4.3407187 -0.0188295
v 28.2426414 13.2426405 40.0000000
vn 2.1686130 1.0551991 5.1090140
v 25.8065815 -8.1210546 55.0000000
vn -2.1733682 1.0475893 5.1079669
v 22.1908836 -8.1260681 55.0000000
vn -2.4139161 0.0002664 5.1056390
v 21.9904995 -9.0000000 55.0000000
vn -5.0348363 0.0004165 1.9726803
v 21.5000000 -9.0000000 54.5094986
vn 2.4139161 -0.0002664 5.1056390
v 26.0095005 -9.0000000 55.0000000
vn -2.1686132 -1.0551993 5.1090140
v 22.1934185 -9.8789454 55.0000000
vn -4.5374365 -2.1832669 1.9723788
v 21.7475777 -10.0847092 54.5094986
vn -1.5088669 1.8826253 5.1081409
v 22.7439308 -7.4315338 55.0000000
vn -4.5368552 2.1833143 1.9731106
v 21.7475777 -7.9152908 54.5094986
vn 1.4930900 1.8943353 5.1088533
v 25.2447910 -7.4225297 55.0000000
vn -0.5466451 2.3487473 5.1097884
v 23.5466118 -7.0426288 55.0000000
vn -3.1399691 3.9376142 1.9724648
v 22.4412746 -7.0454211 54.5094986
vn 0.5223777 2.3539646 5.1102104
v 24.4374332 -7.0389447 55.0000000
vn -1.1204739 4.9103599 1.9724081
v 23.4436970 -6.5626802 54.5094986
vn 1.1217904 4.9106336 1.9717162
v 24.5563030 -6.5626802 54.5094986
vn 3.1418417 3.9370527 1.9714054
v 25.5587254 -7.0454211 54.5094986
vn 4.5374370 2.1832664 1.9723791
v 26.2524223 -7.9152908 54.5094986
vn 2.1733682 -1.0475893 5.1079669
v 25.8091164 -9.8739319 55.0000000
vn 5.0348358 -0.0004165 1.9726803
v 26.5000000 -9.0000000 54.5094986
vn 1.5088676 -1.8826256 5.1081400
v 25.2560692 -10.5684662 55.0000000
vn 4.5368552 -2.1833146 1.9731103
v 26.2524223 -10.0847092 54.5094986
vn -1.4930911 -1.8943367 5.1088519
v 22.7552090 -10.5774708 55.0000000
vn 0.5466446 -2.3487492 5.1097856
v 24.4533882 -10.9573717 55.0000000
vn 3.1399705 -3.9376152 1.9724647
v 25.5587254 -10.9545784 54.5094986
vn -0.5223767 -2.3539634 5.1102128
v 23.5625668 -10.9610548 55.0000000
vn 1.1204742 -4.9103599 1.9724075
v 24.5563030 -11.4373198 54.5094986
vn -1.1217905 -4.9106331 1.9717168
v 23.4436970 -11.4373198 54.5094986
vn -3.1418436 -3.9370539 1.9714044
v 22.4412746 -10.9545784 54.5094986
vn -3.0617609 0.0019294 3.5932550
v 21.5000000 -9.0000000 42.0000000
vn -2.7587647 -1.3308147 3.5899806
v 21.7492676 -10.0876637 42.0000000
vn -2.7536607 1.3388351 3.5926428
v 21.7522545 -7.9062819 42.0000000
vn -1.8961431 2.4052124 3.5901599
v 22.4546375 -7.0350170 42.0000000
vn -0.6668050 2.9900916 3.5880384
v 23.4561749 -6.5599160 42.0000000
vn 0.6903507 2.9849033 3.5877643
v 24.5634804 -6.5643969 42.0000000
vn 1.9116118 2.3939588 3.5883539
v 25.5592155 -7.0459437 42.0000000
vn 2.7587652 1.3308144 3.5899804
v 26.2507324 -7.9123363 42.0000000
vn 3.0617609 -0.0019295 3.5932550
v 26.5000000 -9.0000000 42.0000000
vn 2.7536609 -1.3388350 3.5926423
v 26.2477455 -10.0937176 42.0000000
vn 1.8961439 -2.4052117 3.5901673
v 25.5453625 -10.9649830 42.0000000
vn 0.6668050 -2.9900913 3.5880394
v 24.5438251 -11.4400845 42.0000000
vn -0.6903520 -2.9849029 3.5877647
v 23.4365196 -11.4356031 42.0000000
vn -1.9116120 -2.3939590 3.5883532
v 22.4407845 -10.9540558 42.0000000
vn 3.0676844 -0.0229758 2.7155790
v 30.0000000 -9.0000000 42.0000000
vn 2.7716727 1.3363805 2.7568417
v 29.3984928 -6.3817410 42.0000000
vn -2.7716730 -1.3363805 2.7568424
v 18.6015072 -11.6182585 42.0000000
vn -3.0676842 0.0229758 2.7155902
v 18.0000000 -9.0000000 42.0000000
vn 6.1439271 -0.0867315 0.0000000
v 30.0000000 -9.0000000 40.0000000
vn 5.7101831 2.3251970 -0.0052912
v 29.5432777 -6.7038994 40.0000000
vn -1.9149787 -2.4160542 2.7781279
v 20.2699413 -13.6993351 42.0000000
vn -0.6796966 -3.0096402 2.7857919
v 22.6746254 -14.8515158 42.0000000
vn -2.3800254 -5.6968975 -0.0221915
v 21.7038994 -14.5432768 40.0000000
vn -4.3863354 -4.3407187 -0.0188295
v 19.7573586 -13.2426405 40.0000000
vn -5.7101831 -2.3251970 -0.0052909
v 18.4567223 -11.2961006 40.0000000
vn -6.1439276 0.0867315 0.0000000
v 18.0000000 -9.0000000 40.0000000
vn 1.9149786 2.4160542 2.7781274
v 27.7300587 -4.3006644 42.0000000
vn 0.6796963 3.0096407 2.7857916
v 25.3253746 -3.1484840 42.0000000
vn 2.3800249 5.6968980 -0.0221916
v 26.2961006 -3.4567227 40.0000000
vn 4.3863358 4.3407187 -0.0188299
v 28.2426414 -4.7573595 40.0000000
# 624 vertices, 0 vertices normals

f 1//1 2//2 3//3
f 4//4 3//3 2//2
f 5//5 1//1 3//3
f 5//5 3//3 4//4
f 1//1 6//6 2//2
f 7//7 2//2 6//6
f 8//8 4//4 2//2
f 7//7 8//8 2//2
f 9//9 10//10 6//6
f 11//11 6//6 10//10
f 1//1 9//9 6//6
f 11//11 7//7 6//6
f 12//12 13//13 10//10
f 11//11 10//10 13//13
f 9//9 14//14 10//10
f 15//15 10//10 14//14
f 16//16 10//10 15//15
f 17//17 12//12 10//10
f 16//16 17//17 10//10
f 18//18 19//19 13//13
f 20//20 13//13 19//19
f 21//21 18//18 13//13
f 22//22 21//21 13//13
f 12//12 22//22 13//13
f 20//20 11//11 13//13
f 23//23 24//24 19//19
f 25//25 19//19 24//24
f 26//26 23//23 19//19
f 18//18 26//26 19//19
f 25//25 20//20 19//19
f 27//27 28//28 24//24
f 29//29 24//24 28//28
f 23//23 27//27 24//24
f 29//29 25//25 24//24
f 30//30 31//31 28//28
f 32//32 28//28 31//31
f 27//27 30//30 28//28
f 32//32 29//29 28//28
f 33//33 34//34 31//31
f 35//35 31//31 34//34
f 30//30 33//33 31//31
f 35//35 32//32 31//31
f 36//36 37//37 34//34
f 38//38 34//34 37//37
f 33//33 36//36 34//34
f 38//38 35//35 34//34
f 39//39 40//40 37//37
f 41//41 37//37 40//40
f 36//36 39//39 37//37
f 38//38 37//37 41//41
f 42//42 43//43 40//40
f 44//44 40//40 43//43
f 39//39 42//42 40//40
f 44//44 41//41 40//40
f 45//45 46//46 43//43
f 47//47 43//43 46//46
f 42//42 45//45 43//43
f 47//47 44//44 43//43
f 48//48 49//49 46//46
f 50//50 46//46 49//49
f 45//45 48//48 46//46
f 50//50 47//47 46//46
f 51//51 52//52 49//49
f 53//53 49//49 52//52
f 48//48 54//54 49//49
f 55//55 49//49 54//54
f 56//56 49//49 55//55
f 56//56 51//51 49//49
f 53//53 50//50 49//49
f 57//57 58//58 52//52
f 59//59 52//52 58//58
f 60//60 57//57 52//52
f 61//61 60//60 52//52
f 51//51 61//61 52//52
f 59//59 53//53 52//52
f 62//62 63//63 58//58
f 64//64 58//58 63//63
f 65//65 62//62 58//58
f 66//66 65//65 58//58
f 57//57 66//66 58//58
f 64//64 59//59 58//58
f 67//67 68//68 63//63
f 69//69 63//63 68//68
f 62//62 67//67 63//63
f 69//69 64//64 63//63
f 70//70 71//71 68//68
f 72//72 68//68 71//71
f 67//67 70//70 68//68
f 72//72 69//69 68//68
f 73//73 74//74 71//71
f 75//75 71//71 74//74
f 70//70 73//73 71//71
f 75//75 72//72 71//71
f 76//76 74//74 73//73
f 76//76 75//75 74//74
f 77//77 73//73 70//70
f 78//78 76//76 73//73
f 78//78 73//73 77//77
f 79//79 70//70 67//67
f 77//77 70//70 79//79
f 80//80 81//81 67//67
f 79//79 67//67 81//81
f 82//82 67//67 83//83
f 62//62 83//83 67//67
f 82//82 80//80 67//67
f 84//84 85//85 81//81
f 86//86 81//81 85//85
f 87//87 84//84 81//81
f 88//88 87//87 81//81
f 80//80 88//88 81//81
f 79//79 81//81 86//86
f 55//55 54//54 85//85
f 89//89 85//85 54//54
f 90//90 55//55 85//85
f 84//84 90//90 85//85
f 86//86 85//85 89//89
f 91//91 54//54 48//48
f 89//89 54//54 91//91
f 92//92 48//48 45//45
f 91//91 48//48 92//92
f 93//93 45//45 42//42
f 92//92 45//45 93//93
f 94//94 42//42 39//39
f 93//93 42//42 94//94
f 95//95 39//39 36//36
f 94//94 39//39 95//95
f 96//96 36//36 33//33
f 95//95 36//36 96//96
f 97//97 33//33 30//30
f 96//96 33//33 97//97
f 98//98 30//30 27//27
f 97//97 30//30 98//98
f 99//99 100//100 27//27
f 101//101 27//27 100//100
f 99//99 27//27 102//102
f 23//23 102//102 27//27
f 98//98 27//27 101//101
f 103//103 104//104 100//100
f 105//105 100//100 104//104
f 106//106 103//103 100//100
f 107//107 106//106 100//100
f 99//99 107//107 100//100
f 101//101 100//100 105//105
f 15//15 14//14 104//104
f 108//108 104//104 14//14
f 109//109 15//15 104//104
f 110//110 109//109 104//104
f 103//103 110//110 104//104
f 105//105 104//104 108//108
f 111//111 14//14 9//9
f 108//108 14//14 111//111
f 112//112 9//9 1//1
f 111//111 9//9 112//112
f 112//112 1//1 5//5
f 113//113 114//114 83//83
f 115//115 83//83 114//114
f 116//116 82//82 83//83
f 113//113 83//83 62//62
f 116//116 83//83 115//115
f 113//113 117//117 114//114
f 118//118 114//114 117//117
f 118//118 115//115 114//114
f 119//119 120//120 117//117
f 121//121 117//117 120//120
f 113//113 119//119 117//117
f 121//121 118//118 117//117
f 122//122 123//123 120//120
f 124//124 120//120 123//123
f 119//119 122//122 120//120
f 124//124 121//121 120//120
f 125//125 126//126 123//123
f 127//127 123//123 126//126
f 122//122 125//125 123//123
f 127//127 124//124 123//123
f 128//128 129//129 126//126
f 130//130 126//126 129//129
f 125//125 128//128 126//126
f 130//130 127//127 126//126
f 56//56 55//55 129//129
f 131//131 129//129 55//55
f 132//132 56//56 129//129
f 128//128 132//132 129//129
f 131//131 130//130 129//129
f 133//133 55//55 90//90
f 131//131 55//55 133//133
f 134//134 90//90 84//84
f 134//134 133//133 90//90
f 135//135 84//84 87//87
f 135//135 134//134 84//84
f 136//136 87//87 88//88
f 136//136 135//135 87//87
f 137//137 88//88 80//80
f 137//137 136//136 88//88
f 138//138 80//80 82//82
f 138//138 137//137 80//80
f 116//116 138//138 82//82
f 139//139 62//62 65//65
f 140//140 113//113 62//62
f 140//140 62//62 139//139
f 141//141 65//65 66//66
f 141//141 139//139 65//65
f 142//142 66//66 57//57
f 142//142 141//141 66//66
f 143//143 57//57 60//60
f 143//143 142//142 57//57
f 144//144 60//60 61//61
f 144//144 143//143 60//60
f 145//145 61//61 51//51
f 145//145 144//144 61//61
f 146//146 51//51 56//56
f 146//146 145//145 51//51
f 147//147 56//56 132//132
f 146//146 56//56 147//147
f 148//148 132//132 128//128
f 148//148 147//147 132//132
f 149//149 128//128 125//125
f 149//149 148//148 128//128
f 150//150 125//125 122//122
f 150//150 149//149 125//125
f 151//151 122//122 119//119
f 151//151 150//150 122//122
f 152//152 119//119 113//113
f 152//152 151//151 119//119
f 140//140 152//152 113//113
f 153//153 154//154 102//102
f 155//155 102//102 154//154
f 156//156 99//99 102//102
f 153//153 102//102 23//23
f 156//156 102//102 155//155
f 153//153 157//157 154//154
f 158//158 154//154 157//157
f 158//158 155//155 154//154
f 159//159 160//160 157//157
f 161//161 157//157 160//160
f 153//153 159//159 157//157
f 161//161 158//158 157//157
f 162//162 163//163 160//160
f 164//164 160//160 163//163
f 159//159 162//162 160//160
f 164//164 161//161 160//160
f 165//165 166//166 163//163
f 167//167 163//163 166//166
f 162//162 165//165 163//163
f 167//167 164//164 163//163
f 168//168 169//169 166//166
f 170//170 166//166 169//169
f 165//165 168//168 166//166
f 170//170 167//167 166//166
f 16//16 15//15 169//169
f 171//171 169//169 15//15
f 172//172 16//16 169//169
f 168//168 172//172 169//169
f 171//171 170//170 169//169
f 173//173 15//15 109//109
f 171//171 15//15 173//173
f 174//174 109//109 110//110
f 174//174 173//173 109//109
f 175//175 110//110 103//103
f 175//175 174//174 110//110
f 176//176 103//103 106//106
f 176//176 175//175 103//103
f 177//177 106//106 107//107
f 177//177 176//176 106//106
f 178//178 107//107 99//99
f 178//178 177//177 107//107
f 156//156 178//178 99//99
f 179//179 23//23 26//26
f 180//180 153//153 23//23
f 180//180 23//23 179//179
f 181//181 26//26 18//18
f 181//181 179//179 26//26
f 182//182 18//18 21//21
f 182//182 181//181 18//18
f 183//183 21//21 22//22
f 183//183 182//182 21//21
f 184//184 22//22 12//12
f 184//184 183//183 22//22
f 185//185 12//12 17//17
f 185//185 184//184 12//12
f 186//186 17//17 16//16
f 186//186 185//185 17//17
f 187//187 16//16 172//172
f 186//186 16//16 187//187
f 188//188 172//172 168//168
f 188//188 187//187 172//172
f 189//189 168//168 165//165
f 189//189 188//188 168//168
f 190//190 165//165 162//162
f 190//190 189//189 165//165
f 191//191 162//162 159//159
f 191//191 190//190 162//162
f 192//192 159//159 153//153
f 192//192 191//191 159//159
f 180//180 192//192 153//153
f 193//193 41//41 44//44
f 194//194 38//38 41//41
f 194//194 41//41 193//193
f 195//195 44//44 47//47
f 195//195 193//193 44//44
f 195//195 47//47 50//50
f 196//196 50//50 53//53
f 196//196 195//195 50//50
f 197//197 53//53 59//59
f 197//197 196//196 53//53
f 197//197 59//59 64//64
f 198//198 64//64 69//69
f 198//198 197//197 64//64
f 198//198 69//69 72//72
f 199//199 72//72 75//75
f 199//199 198//198 72//72
f 199//199 75//75 76//76
f 200//200 199//199 76//76
f 78//78 200//200 76//76
f 201//201 4//4 8//8
f 202//202 4//4 201//201
f 5//5 4//4 202//202
f 203//203 8//8 7//7
f 203//203 201//201 8//8
f 203//203 7//7 11//11
f 204//204 11//11 20//20
f 204//204 203//203 11//11
f 205//205 20//20 25//25
f 205//205 204//204 20//20
f 205//205 25//25 29//29
f 206//206 29//29 32//32
f 206//206 205//205 29//29
f 206//206 32//32 35//35
f 194//194 35//35 38//38
f 194//194 206//206 35//35
f 207//207 193//193 195//195
f 208//208 194//194 193//193
f 207//207 208//208 193//193
f 209//209 195//195 196//196
f 209//209 207//207 195//195
f 209//209 196//196 197//197
f 210//210 197//197 198//198
f 210//210 209//209 197//197
f 211//211 198//198 199//199
f 211//211 210//210 198//198
f 212//212 199//199 200//200
f 212//212 211//211 199//199
f 212//212 200//200 213//213
f 214//214 213//213 200//200
f 78//78 214//214 200//200
f 215//215 201//201 203//203
f 216//216 217//217 201//201
f 202//202 201//201 217//217
f 215//215 216//216 201//201
f 218//218 203//203 204//204
f 218//218 215//215 203//203
f 219//219 204//204 205//205
f 219//219 218//218 204//204
f 219//219 205//205 206//206
f 220//220 206//206 194//194
f 220//220 219//219 206//206
f 208//208 220//220 194//194
f 221//221 213//213 222//222
f 223//223 222//222 213//213
f 224//224 221//221 222//222
f 224//224 222//222 223//223
f 225//225 226//226 213//213
f 227//227 213//213 226//226
f 221//221 212//212 213//213
f 214//214 225//225 213//213
f 228//228 223//223 213//213
f 227//227 228//228 213//213
f 229//229 230//230 226//226
f 231//231 226//226 230//230
f 225//225 229//229 226//226
f 231//231 227//227 226//226
f 232//232 233//233 230//230
f 234//234 230//230 233//233
f 229//229 232//232 230//230
f 234//234 231//231 230//230
f 235//235 236//236 233//233
f 237//237 233//233 236//236
f 232//232 235//235 233//233
f 237//237 234//234 233//233
f 238//238 239//239 236//236
f 240//240 236//236 239//239
f 241//241 238//238 236//236
f 235//235 241//241 236//236
f 240//240 237//237 236//236
f 242//242 243//243 239//239
f 244//244 239//239 243//243
f 238//238 242//242 239//239
f 244//244 240//240 239//239
f 245//245 246//246 243//243
f 247//247 243//243 246//246
f 242//242 245//245 243//243
f 247//247 244//244 243//243
f 248//248 217//217 246//246
f 249//249 246//246 217//217
f 245//245 248//248 246//246
f 249//249 247//247 246//246
f 250//250 217//217 216//216
f 248//248 202//202 217//217
f 250//250 249//249 217//217
f 215//215 251//251 216//216
f 252//252 216//216 251//251
f 252//252 250//250 216//216
f 215//215 253//253 251//251
f 252//252 251//251 253//253
f 254//254 253//253 215//215
f 252//252 253//253 254//254
f 255//255 215//215 218//218
f 256//256 254//254 215//215
f 256//256 215//215 255//255
f 257//257 218//218 219//219
f 255//255 218//218 257//257
f 258//258 219//219 220//220
f 257//257 219//219 258//258
f 259//259 220//220 208//208
f 258//258 220//220 259//259
f 260//260 208//208 207//207
f 259//259 208//208 260//260
f 261//261 207//207 209//209
f 260//260 207//207 261//261
f 262//262 209//209 210//210
f 261//261 209//209 262//262
f 263//263 210//210 211//211
f 262//262 210//210 263//263
f 264//264 211//211 212//212
f 263//263 211//211 264//264
f 224//224 212//212 221//221
f 264//264 212//212 224//224
f 112//112 202//202 248//248
f 112//112 5//5 202//202
f 108//108 248//248 245//245
f 111//111 112//112 248//248
f 108//108 111//111 248//248
f 101//101 245//245 242//242
f 105//105 108//108 245//245
f 101//101 105//105 245//245
f 97//97 242//242 238//238
f 98//98 101//101 242//242
f 97//97 98//98 242//242
f 95//95 238//238 241//241
f 96//96 97//97 238//238
f 95//95 96//96 238//238
f 94//94 241//241 235//235
f 94//94 95//95 241//241
f 92//92 235//235 232//232
f 93//93 94//94 235//235
f 92//92 93//93 235//235
f 89//89 232//232 229//229
f 91//91 92//92 232//232
f 89//89 91//91 232//232
f 79//79 229//229 225//225
f 86//86 89//89 229//229
f 79//79 86//86 229//229
f 78//78 225//225 214//214
f 77//77 79//79 225//225
f 78//78 77//77 225//225
f 256//256 252//252 254//254
f 224//224 223//223 228//228
f 224//224 228//228 227//227
f 265//265 227//227 231//231
f 265//265 224//224 227//227
f 266//266 231//231 234//234
f 266//266 265//265 231//231
f 267//267 234//234 237//237
f 268//268 266//266 234//234
f 269//269 268//268 234//234
f 267//267 269//269 234//234
f 261//261 237//237 240//240
f 261//261 262//262 237//237
f 270//270 237//237 262//262
f 271//271 267//267 237//237
f 272//272 271//271 237//237
f 273//273 272//272 237//237
f 270//270 273//273 237//237
f 260//260 240//240 244//244
f 260//260 261//261 240//240
f 259//259 244//244 247//247
f 259//259 260//260 244//244
f 274//274 247//247 249//249
f 275//275 259//259 247//247
f 274//274 275//275 247//247
f 276//276 249//249 250//250
f 277//277 274//274 249//249
f 278//278 277//277 249//249
f 276//276 278//278 249//249
f 279//279 250//250 252//252
f 280//280 276//276 250//250
f 281//281 280//280 250//250
f 279//279 281//281 250//250
f 256//256 255//255 252//252
f 282//282 252//252 255//255
f 282//282 279//279 252//252
f 283//283 264//264 224//224
f 283//283 224//224 265//265
f 284//284 263//263 264//264
f 285//285 264//264 283//283
f 286//286 284//284 264//264
f 285//285 286//286 264//264
f 287//287 262//262 263//263
f 288//288 287//287 263//263
f 289//289 288//288 263//263
f 284//284 289//289 263//263
f 287//287 270//270 262//262
f 290//290 258//258 259//259
f 291//291 259//259 275//275
f 292//292 259//259 291//291
f 293//293 290//290 259//259
f 292//292 293//293 259//259
f 294//294 257//257 258//258
f 295//295 294//294 258//258
f 296//296 295//295 258//258
f 290//290 296//296 258//258
f 282//282 255//255 257//257
f 294//294 282//282 257//257
f 297//297 275//275 274//274
f 291//291 275//275 298//298
f 299//299 298//298 275//275
f 297//297 299//299 275//275
f 300//300 274//274 277//277
f 301//301 274//274 300//300
f 297//297 274//274 301//301
f 302//302 277//277 278//278
f 300//300 277//277 302//302
f 303//303 278//278 276//276
f 302//302 278//278 303//303
f 304//304 276//276 280//280
f 305//305 276//276 304//304
f 303//303 276//276 305//305
f 306//306 280//280 281//281
f 304//304 280//280 306//306
f 307//307 281//281 279//279
f 306//306 281//281 307//307
f 308//308 309//309 279//279
f 310//310 279//279 309//309
f 282//282 308//308 279//279
f 310//310 307//307 279//279
f 311//311 312//312 309//309
f 313//313 309//309 312//312
f 308//308 311//311 309//309
f 314//314 310//310 309//309
f 313//313 314//314 309//309
f 315//315 316//316 312//312
f 317//317 312//312 316//316
f 311//311 315//315 312//312
f 317//317 313//313 312//312
f 318//318 319//319 316//316
f 320//320 316//316 319//319
f 315//315 318//318 316//316
f 320//320 317//317 316//316
f 321//321 322//322 319//319
f 323//323 319//319 322//322
f 318//318 321//321 319//319
f 324//324 319//319 323//323
f 324//324 320//320 319//319
f 325//325 298//298 322//322
f 326//326 322//322 298//298
f 321//321 325//325 322//322
f 323//323 322//322 326//326
f 325//325 291//291 298//298
f 326//326 298//298 299//299
f 327//327 291//291 325//325
f 328//328 292//292 291//291
f 327//327 328//328 291//291
f 329//329 325//325 321//321
f 330//330 325//325 329//329
f 327//327 325//325 330//330
f 331//331 321//321 318//318
f 329//329 321//321 331//331
f 332//332 318//318 315//315
f 331//331 318//318 332//332
f 333//333 315//315 311//311
f 334//334 315//315 333//333
f 332//332 315//315 334//334
f 335//335 311//311 308//308
f 333//333 311//311 335//335
f 336//336 308//308 282//282
f 335//335 308//308 336//336
f 337//337 282//282 294//294
f 337//337 336//336 282//282
f 338//338 294//294 295//295
f 339//339 337//337 294//294
f 338//338 339//339 294//294
f 340//340 295//295 296//296
f 340//340 338//338 295//295
f 341//341 296//296 290//290
f 341//341 340//340 296//296
f 342//342 290//290 293//293
f 343//343 290//290 342//342
f 343//343 341//341 290//290
f 344//344 293//293 292//292
f 342//342 293//293 344//344
f 344//344 292//292 328//328
f 345//345 265//265 266//266
f 283//283 265//265 346//346
f 347//347 346//346 265//265
f 345//345 347//347 265//265
f 348//348 266//266 268//268
f 349//349 266//266 348//348
f 345//345 266//266 349//349
f 350//350 268//268 269//269
f 348//348 268//268 350//350
f 351//351 269//269 267//267
f 350//350 269//269 351//351
f 352//352 267//267 271//271
f 353//353 267//267 352//352
f 351//351 267//267 353//353
f 354//354 271//271 272//272
f 352//352 271//271 354//354
f 355//355 272//272 273//273
f 354//354 272//272 355//355
f 356//356 357//357 273//273
f 358//358 273//273 357//357
f 270//270 356//356 273//273
f 358//358 355//355 273//273
f 359//359 360//360 357//357
f 361//361 357//357 360//360
f 356//356 359//359 357//357
f 362//362 358//358 357//357
f 361//361 362//362 357//357
f 363//363 364//364 360//360
f 365//365 360//360 364//364
f 359//359 363//363 360//360
f 365//365 361//361 360//360
f 366//366 367//367 364//364
f 368//368 364//364 367//367
f 363//363 366//366 364//364
f 368//368 365//365 364//364
f 369//369 370//370 367//367
f 371//371 367//367 370//370
f 366//366 369//369 367//367
f 372//372 367//367 371//371
f 372//372 368//368 367//367
f 373//373 346//346 370//370
f 374//374 370//370 346//346
f 369//369 373//373 370//370
f 371//371 370//370 374//374
f 373//373 283//283 346//346
f 374//374 346//346 347//347
f 375//375 283//283 373//373
f 376//376 285//285 283//283
f 375//375 376//376 283//283
f 377//377 373//373 369//369
f 378//378 373//373 377//377
f 375//375 373//373 378//378
f 379//379 369//369 366//366
f 377//377 369//369 379//379
f 380//380 366//366 363//363
f 379//379 366//366 380//380
f 381//381 363//363 359//359
f 382//382 363//363 381//381
f 380//380 363//363 382//382
f 383//383 359//359 356//356
f 381//381 359//359 383//383
f 384//384 356//356 270//270
f 383//383 356//356 384//384
f 385//385 270//270 287//287
f 385//385 384//384 270//270
f 386//386 287//287 288//288
f 387//387 385//385 287//287
f 386//386 387//387 287//287
f 388//388 288//288 289//289
f 388//388 386//386 288//288
f 389//389 289//289 284//284
f 389//389 388//388 289//289
f 390//390 284//284 286//286
f 391//391 284//284 390//390
f 391//391 389//389 284//284
f 392//392 286//286 285//285
f 390//390 286//286 392//392
f 392//392 285//285 376//376
f 118//118 133//133 115//115
f 134//134 115//115 133//133
f 131//131 133//133 118//118
f 116//116 115//115 134//134
f 131//131 118//118 121//121
f 130//130 121//121 124//124
f 131//131 121//121 130//130
f 130//130 124//124 127//127
f 116//116 134//134 135//135
f 138//138 135//135 136//136
f 116//116 135//135 138//138
f 138//138 136//136 137//137
f 141//141 147//147 139//139
f 148//148 139//139 147//147
f 146//146 147//147 141//141
f 140//140 139//139 148//148
f 146//146 141//141 142//142
f 145//145 142//142 143//143
f 146//146 142//142 145//145
f 145//145 143//143 144//144
f 140//140 148//148 149//149
f 152//152 149//149 150//150
f 140//140 149//149 152//152
f 152//152 150//150 151//151
f 158//158 173//173 155//155
f 174//174 155//155 173//173
f 171//171 173//173 158//158
f 156//156 155//155 174//174
f 171//171 158//158 161//161
f 170//170 161//161 164//164
f 171//171 161//161 170//170
f 170//170 164//164 167//167
f 156//156 174//174 175//175
f 178//178 175//175 176//176
f 156//156 175//175 178//178
f 178//178 176//176 177//177
f 181//181 187//187 179//179
f 188//188 179//179 187//187
f 186//186 187//187 181//181
f 180//180 179//179 188//188
f 186//186 181//181 182//182
f 185//185 182//182 183//183
f 186//186 182//182 185//185
f 185//185 183//183 184//184
f 180//180 188//188 189//189
f 192//192 189//189 190//190
f 180//180 189//189 192//192
f 192//192 190//190 191//191
f 393//393 394//394 395//395
f 396//396 395//395 394//394
f 397//397 393//393 395//395
f 398//398 397//397 395//395
f 399//399 398//398 395//395
f 399//399 395//395 396//396
f 393//393 400//400 394//394
f 401//401 394//394 400//400
f 401//401 396//396 394//394
f 402//402 403//403 400//400
f 404//404 400//400 403//403
f 393//393 402//402 400//400
f 404//404 401//401 400//400
f 402//402 405//405 403//403
f 406//406 403//403 405//405
f 406//406 404//404 403//403
f 407//407 405//405 402//402
f 407//407 406//406 405//405
f 408//408 402//402 393//393
f 408//408 407//407 402//402
f 409//409 393//393 397//397
f 409//409 408//408 393//393
f 398//398 410//410 397//397
f 411//411 397//397 410//410
f 411//411 409//409 397//397
f 398//398 412//412 410//410
f 413//413 410//410 412//412
f 413//413 411//411 410//410
f 414//414 415//415 412//412
f 416//416 412//412 415//415
f 398//398 414//414 412//412
f 416//416 413//413 412//412
f 414//414 417//417 415//415
f 418//418 415//415 417//417
f 418//418 416//416 415//415
f 419//419 417//417 414//414
f 419//419 418//418 417//417
f 420//420 414//414 398//398
f 420//420 419//419 414//414
f 399//399 420//420 398//398
f 421//421 396//396 401//401
f 422//422 399//399 396//396
f 421//421 422//422 396//396
f 423//423 401//401 404//404
f 423//423 421//421 401//401
f 424//424 404//404 406//406
f 424//424 423//423 404//404
f 425//425 406//406 407//407
f 425//425 424//424 406//406
f 426//426 407//407 408//408
f 426//426 425//425 407//407
f 427//427 408//408 409//409
f 427//427 426//426 408//408
f 428//428 409//409 411//411
f 428//428 427//427 409//409
f 429//429 411//411 413//413
f 428//428 411//411 429//429
f 430//430 413//413 416//416
f 430//430 429//429 413//413
f 431//431 416//416 418//418
f 431//431 430//430 416//416
f 432//432 418//418 419//419
f 432//432 431//431 418//418
f 433//433 419//419 420//420
f 433//433 432//432 419//419
f 434//434 420//420 399//399
f 434//434 433//433 420//420
f 422//422 434//434 399//399
f 435//435 429//429 430//430
f 436//436 428//428 429//429
f 436//436 429//429 435//435
f 435//435 430//430 431//431
f 435//435 431//431 432//432
f 437//437 432//432 433//433
f 299//299 435//435 432//432
f 437//437 299//299 432//432
f 437//437 433//433 434//434
f 437//437 434//434 422//422
f 437//437 422//422 421//421
f 438//438 421//421 423//423
f 438//438 437//437 421//421
f 438//438 423//423 424//424
f 438//438 424//424 425//425
f 436//436 425//425 426//426
f 307//307 438//438 425//425
f 436//436 307//307 425//425
f 436//436 426//426 427//427
f 436//436 427//427 428//428
f 439//439 435//435 299//299
f 440//440 436//436 435//435
f 440//440 435//435 439//439
f 437//437 326//326 299//299
f 297//297 439//439 299//299
f 441//441 323//323 326//326
f 437//437 441//441 326//326
f 441//441 442//442 323//323
f 324//324 323//323 442//442
f 443//443 442//442 441//441
f 443//443 324//324 442//442
f 444//444 441//441 437//437
f 444//444 443//443 441//441
f 445//445 437//437 438//438
f 445//445 444//444 437//437
f 446//446 438//438 307//307
f 446//446 445//445 438//438
f 436//436 306//306 307//307
f 446//446 307//307 310//310
f 447//447 304//304 306//306
f 436//436 447//447 306//306
f 447//447 448//448 304//304
f 305//305 304//304 448//448
f 449//449 448//448 447//447
f 305//305 448//448 449//449
f 450//450 447//447 436//436
f 449//449 447//447 450//450
f 450//450 436//436 440//440
f 446//446 310//310 314//314
f 445//445 314//314 313//313
f 446//446 314//314 445//445
f 444//444 313//313 317//317
f 445//445 313//313 444//444
f 443//443 317//317 320//320
f 444//444 317//317 443//443
f 443//443 320//320 324//324
f 301//301 440//440 439//439
f 297//297 301//301 439//439
f 300//300 450//450 440//440
f 301//301 300//300 440//440
f 302//302 449//449 450//450
f 300//300 302//302 450//450
f 303//303 305//305 449//449
f 302//302 303//303 449//449
f 451//451 452//452 453//453
f 454//454 453//453 452//452
f 455//455 451//451 453//453
f 456//456 455//455 453//453
f 457//457 456//456 453//453
f 457//457 453//453 454//454
f 451//451 458//458 452//452
f 459//459 452//452 458//458
f 459//459 454//454 452//452
f 460//460 461//461 458//458
f 462//462 458//458 461//461
f 451//451 460//460 458//458
f 462//462 459//459 458//458
f 460//460 463//463 461//461
f 464//464 461//461 463//463
f 464//464 462//462 461//461
f 465//465 463//463 460//460
f 465//465 464//464 463//463
f 466//466 460//460 451//451
f 466//466 465//465 460//460
f 467//467 451//451 455//455
f 467//467 466//466 451//451
f 456//456 468//468 455//455
f 469//469 455//455 468//468
f 469//469 467//467 455//455
f 456//456 470//470 468//468
f 471//471 468//468 470//470
f 471//471 469//469 468//468
f 472//472 473//473 470//470
f 474//474 470//470 473//473
f 456//456 472//472 470//470
f 474//474 471//471 470//470
f 472//472 475//475 473//473
f 476//476 473//473 475//475
f 476//476 474//474 473//473
f 477//477 475//475 472//472
f 477//477 476//476 475//475
f 478//478 472//472 456//456
f 478//478 477//477 472//472
f 457//457 478//478 456//456
f 479//479 454//454 459//459
f 480//480 457//457 454//454
f 479//479 480//480 454//454
f 481//481 459//459 462//462
f 481//481 479//479 459//459
f 482//482 462//462 464//464
f 482//482 481//481 462//462
f 483//483 464//464 465//465
f 483//483 482//482 464//464
f 484//484 465//465 466//466
f 484//484 483//483 465//465
f 485//485 466//466 467//467
f 485//485 484//484 466//466
f 486//486 467//467 469//469
f 486//486 485//485 467//467
f 487//487 469//469 471//471
f 486//486 469//469 487//487
f 488//488 471//471 474//474
f 488//488 487//487 471//471
f 489//489 474//474 476//476
f 489//489 488//488 474//474
f 490//490 476//476 477//477
f 490//490 489//489 476//476
f 491//491 477//477 478//478
f 491//491 490//490 477//477
f 492//492 478//478 457//457
f 492//492 491//491 478//478
f 480//480 492//492 457//457
f 493//493 487//487 488//488
f 494//494 486//486 487//487
f 494//494 487//487 493//493
f 493//493 488//488 489//489
f 493//493 489//489 490//490
f 495//495 490//490 491//491
f 328//328 493//493 490//490
f 495//495 328//328 490//490
f 495//495 491//491 492//492
f 495//495 492//492 480//480
f 495//495 480//480 479//479
f 496//496 479//479 481//481
f 496//496 495//495 479//479
f 496//496 481//481 482//482
f 496//496 482//482 483//483
f 494//494 483//483 484//484
f 336//336 496//496 483//483
f 494//494 336//336 483//483
f 494//494 484//484 485//485
f 494//494 485//485 486//486
f 497//497 493//493 328//328
f 498//498 494//494 493//493
f 498//498 493//493 497//497
f 495//495 344//344 328//328
f 327//327 497//497 328//328
f 499//499 342//342 344//344
f 495//495 499//499 344//344
f 499//499 500//500 342//342
f 343//343 342//342 500//500
f 501//501 500//500 499//499
f 501//501 343//343 500//500
f 502//502 499//499 495//495
f 502//502 501//501 499//499
f 503//503 495//495 496//496
f 503//503 502//502 495//495
f 504//504 496//496 336//336
f 504//504 503//503 496//496
f 494//494 335//335 336//336
f 504//504 336//336 337//337
f 505//505 333//333 335//335
f 494//494 505//505 335//335
f 505//505 506//506 333//333
f 334//334 333//333 506//506
f 507//507 506//506 505//505
f 334//334 506//506 507//507
f 508//508 505//505 494//494
f 507//507 505//505 508//508
f 508//508 494//494 498//498
f 504//504 337//337 339//339
f 503//503 339//339 338//338
f 504//504 339//339 503//503
f 502//502 338//338 340//340
f 503//503 338//338 502//502
f 501//501 340//340 341//341
f 502//502 340//340 501//501
f 501//501 341//341 343//343
f 330//330 498//498 497//497
f 327//327 330//330 497//497
f 329//329 508//508 498//498
f 330//330 329//329 498//498
f 331//331 507//507 508//508
f 329//329 331//331 508//508
f 332//332 334//334 507//507
f 331//331 332//332 507//507
f 509//509 510//510 511//511
f 512//512 511//511 510//510
f 513//513 509//509 511//511
f 514//514 513//513 511//511
f 515//515 514//514 511//511
f 515//515 511//511 512//512
f 509//509 516//516 510//510
f 517//517 510//510 516//516
f 517//517 512//512 510//510
f 518//518 519//519 516//516
f 520//520 516//516 519//519
f 509//509 518//518 516//516
f 520//520 517//517 516//516
f 518//518 521//521 519//519
f 522//522 519//519 521//521
f 522//522 520//520 519//519
f 523//523 521//521 518//518
f 523//523 522//522 521//521
f 524//524 518//518 509//509
f 524//524 523//523 518//518
f 525//525 509//509 513//513
f 525//525 524//524 509//509
f 514//514 526//526 513//513
f 527//527 513//513 526//526
f 527//527 525//525 513//513
f 514//514 528//528 526//526
f 529//529 526//526 528//528
f 529//529 527//527 526//526
f 530//530 531//531 528//528
f 532//532 528//528 531//531
f 514//514 530//530 528//528
f 532//532 529//529 528//528
f 530//530 533//533 531//531
f 534//534 531//531 533//533
f 534//534 532//532 531//531
f 535//535 533//533 530//530
f 535//535 534//534 533//533
f 536//536 530//530 514//514
f 536//536 535//535 530//530
f 515//515 536//536 514//514
f 537//537 512//512 517//517
f 538//538 515//515 512//512
f 537//537 538//538 512//512
f 539//539 517//517 520//520
f 539//539 537//537 517//517
f 540//540 520//520 522//522
f 540//540 539//539 520//520
f 541//541 522//522 523//523
f 541//541 540//540 522//522
f 542//542 523//523 524//524
f 542//542 541//541 523//523
f 543//543 524//524 525//525
f 543//543 542//542 524//524
f 544//544 525//525 527//527
f 544//544 543//543 525//525
f 545//545 527//527 529//529
f 544//544 527//527 545//545
f 546//546 529//529 532//532
f 546//546 545//545 529//529
f 547//547 532//532 534//534
f 547//547 546//546 532//532
f 548//548 534//534 535//535
f 548//548 547//547 534//534
f 549//549 535//535 536//536
f 549//549 548//548 535//535
f 550//550 536//536 515//515
f 550//550 549//549 536//536
f 538//538 550//550 515//515
f 551//551 545//545 546//546
f 552//552 544//544 545//545
f 552//552 545//545 551//551
f 551//551 546//546 547//547
f 551//551 547//547 548//548
f 553//553 548//548 549//549
f 347//347 551//551 548//548
f 553//553 347//347 548//548
f 553//553 549//549 550//550
f 553//553 550//550 538//538
f 553//553 538//538 537//537
f 554//554 537//537 539//539
f 554//554 553//553 537//537
f 554//554 539//539 540//540
f 554//554 540//540 541//541
f 552//552 541//541 542//542
f 355//355 554//554 541//541
f 552//552 355//355 541//541
f 552//552 542//542 543//543
f 552//552 543//543 544//544
f 555//555 551//551 347//347
f 556//556 552//552 551//551
f 556//556 551//551 555//555
f 553//553 374//374 347//347
f 345//345 555//555 347//347
f 557//557 371//371 374//374
f 553//553 557//557 374//374
f 557//557 558//558 371//371
f 372//372 371//371 558//558
f 559//559 558//558 557//557
f 559//559 372//372 558//558
f 560//560 557//557 553//553
f 560//560 559//559 557//557
f 561//561 553//553 554//554
f 561//561 560//560 553//553
f 562//562 554//554 355//355
f 562//562 561//561 554//554
f 552//552 354//354 355//355
f 562//562 355//355 358//358
f 563//563 352//352 354//354
f 552//552 563//563 354//354
f 563//563 564//564 352//352
f 353//353 352//352 564//564
f 565//565 564//564 563//563
f 353//353 564//564 565//565
f 566//566 563//563 552//552
f 565//565 563//563 566//566
f 566//566 552//552 556//556
f 562//562 358//358 362//362
f 561//561 362//362 361//361
f 562//562 362//362 561//561
f 560//560 361//361 365//365
f 561//561 361//361 560//560
f 559//559 365//365 368//368
f 560//560 365//365 559//559
f 559//559 368//368 372//372
f 349//349 556//556 555//555
f 345//345 349//349 555//555
f 348//348 566//566 556//556
f 349//349 348//348 556//556
f 350//350 565//565 566//566
f 348//348 350//350 566//566
f 351//351 353//353 565//565
f 350//350 351//351 565//565
f 567//567 568//568 569//569
f 570//570 569//569 568//568
f 571//571 567//567 569//569
f 572//572 571//571 569//569
f 573//573 572//572 569//569
f 573//573 569//569 570//570
f 567//567 574//574 568//568
f 575//575 568//568 574//574
f 575//575 570//570 568//568
f 576//576 577//577 574//574
f 578//578 574//574 577//577
f 567//567 576//576 574//574
f 578//578 575//575 574//574
f 576//576 579//579 577//577
f 580//580 577//577 579//579
f 580//580 578//578 577//577
f 581//581 579//579 576//576
f 581//581 580//580 579//579
f 582//582 576//576 567//567
f 582//582 581//581 576//576
f 583//583 567//567 571//571
f 583//583 582//582 567//567
f 572//572 584//584 571//571
f 585//585 571//571 584//584
f 585//585 583//583 571//571
f 572//572 586//586 584//584
f 587//587 584//584 586//586
f 587//587 585//585 584//584
f 588//588 589//589 586//586
f 590//590 586//586 589//589
f 572//572 588//588 586//586
f 590//590 587//587 586//586
f 588//588 591//591 589//589
f 592//592 589//589 591//591
f 592//592 590//590 589//589
f 593//593 591//591 588//588
f 593//593 592//592 591//591
f 594//594 588//588 572//572
f 594//594 593//593 588//588
f 573//573 594//594 572//572
f 595//595 570//570 575//575
f 596//596 573//573 570//570
f 595//595 596//596 570//570
f 597//597 575//575 578//578
f 597//597 595//595 575//575
f 598//598 578//578 580//580
f 598//598 597//597 578//578
f 599//599 580//580 581//581
f 599//599 598//598 580//580
f 600//600 581//581 582//582
f 600//600 599//599 581//581
f 601//601 582//582 583//583
f 601//601 600//600 582//582
f 602//602 583//583 585//585
f 602//602 601//601 583//583
f 603//603 585//585 587//587
f 602//602 585//585 603//603
f 604//604 587//587 590//590
f 604//604 603//603 587//587
f 605//605 590//590 592//592
f 605//605 604//604 590//590
f 606//606 592//592 593//593
f 606//606 605//605 592//592
f 607//607 593//593 594//594
f 607//607 606//606 593//593
f 608//608 594//594 573//573
f 608//608 607//607 594//594
f 596//596 608//608 573//573
f 609//609 603//603 604//604
f 610//610 602//602 603//603
f 610//610 603//603 609//609
f 609//609 604//604 605//605
f 609//609 605//605 606//606
f 611//611 606//606 607//607
f 376//376 609//609 606//606
f 611//611 376//376 606//606
f 611//611 607//607 608//608
f 611//611 608//608 596//596
f 611//611 596//596 595//595
f 612//612 595//595 597//597
f 612//612 611//611 595//595
f 612//612 597//597 598//598
f 612//612 598//598 599//599
f 610//610 599//599 600//600
f 384//384 612//612 599//599
f 610//610 384//384 599//599
f 610//610 600//600 601//601
f 610//610 601//601 602//602
f 613//613 609//609 376//376
f 614//614 610//610 609//609
f 614//614 609//609 613//613
f 611//611 392//392 376//376
f 375//375 613//613 376//376
f 615//615 390//390 392//392
f 611//611 615//615 392//392
f 615//615 616//616 390//390
f 391//391 390//390 616//616
f 617//617 616//616 615//615
f 617//617 391//391 616//616
f 618//618 615//615 611//611
f 618//618 617//617 615//615
f 619//619 611//611 612//612
f 619//619 618//618 611//611
f 620//620 612//612 384//384
f 620//620 619//619 612//612
f 610//610 383//383 384//384
f 620//620 384//384 385//385
f 621//621 381//381 383//383
f 610//610 621//621 383//383
f 621//621 622//622 381//381
f 382//382 381//381 622//622
f 623//623 622//622 621//621
f 382//382 622//622 623//623
f 624//624 621//621 610//610
f 623//623 621//621 624//624
f 624//624 610//610 614//614
f 620//620 385//385 387//387
f 619//619 387//387 386//386
f 620//620 387//387 619//619
f 618//618 386//386 388//388
f 619//619 386//386 618//618
f 617//617 388//388 389//389
f 618//618 388//388 617//617
f 617//617 389//389 391//391
f 378//378 614//614 613//613
f 375//375 378//378 613//613
f 377//377 624//624 614//614
f 378//378 377//377 614//614
f 379//379 623//623 624//624
f 377//377 379//379 624//624
f 380//380 382//382 623//623
f 379//379 380//380 623//623
# 1244 faces, 0 coords texture

# End of File
