####
#
# OBJ File Generated by Meshlab
#
####
# Object palm_pinch_r.obj
#
# Vertices: 617
# Faces: 1242
#
####
vn 1.5707965 1.5707963 4.7123890
v -7.7500000 1.0000000 3.5000000
vn -1.5707964 1.5707964 1.5707939
v -12.2500000 9.0000000 3.5000000
vn -1.5707964 1.5707964 4.7123890
v -12.2500000 2.0000000 3.5000000
vn -1.5707964 1.5707964 -4.7123890
v -12.2500000 2.0000000 0.0000000
vn -1.5707964 1.5707964 4.7123895
v -12.2500000 1.0000000 3.5000000
vn -1.5707964 1.5707964 1.5707965
v -30.0000000 2.0000000 3.5000000
vn -1.5707964 1.5707964 -1.5707965
v -30.0000000 2.0000000 0.0000000
vn -0.6913028 -2.9848881 3.5857451
v 1.3534310 5.8453407 3.5000000
vn 1.5707964 1.5707965 1.5707966
v 12.2500000 9.0000000 3.5000000
vn -1.5707964 1.5707965 -1.5707964
v -12.2500000 9.0000000 0.0000000
vn 3.0779181 0.0825806 3.5694175
v -6.0000000 -0.0000000 3.5000000
vn 0.6717331 -2.9893637 3.5857589
v -1.3203216 5.8529072 3.5000000
vn 1.9014057 -2.4026904 3.5853736
v -3.7244031 4.7041097 3.5000000
vn 2.7069237 -1.5055634 3.4767325
v -5.3965740 2.6223860 3.5000000
vn 3.0391927 -0.5888856 3.6097846
v -5.8470869 1.3459382 3.5000000
vn 1.5707964 1.5707964 4.7123847
v 12.2500000 2.0000000 3.5000000
vn 1.5707964 1.5707964 -1.5707964
v 12.2500000 9.0000000 0.0000000
vn 1.5707963 1.5707964 4.7123885
v 32.0000000 -3.0000000 3.5000000
vn 1.5707964 1.5707963 1.5707964
v 32.0000000 2.0000000 3.5000000
vn 1.5707964 1.5707963 -4.7123890
v 12.2500000 2.0000000 0.0000000
vn 1.5707964 1.5707965 4.7123919
v 32.0000000 -4.0000000 3.5000000
vn -0.6913029 -2.9848881 3.5857496
v 21.3534317 -1.1546590 3.5000000
vn 1.5707964 1.5707963 4.7123847
v 12.2500000 1.0000000 3.5000000
vn 1.5539453 1.8002632 4.5657740
v 14.3186626 -16.0000000 3.5000000
vn 3.0779181 0.0825806 3.5694168
v 14.0000000 -7.0000000 3.5000000
vn 0.6717333 -2.9893637 3.5857584
v 18.6796780 -1.1470927 3.5000000
vn 1.9014060 -2.4026902 3.5853736
v 16.2755966 -2.2958906 3.5000000
vn 2.7069237 -1.5055634 3.4767325
v 14.6034260 -4.3776140 3.5000000
vn 3.0391927 -0.5888856 3.6097848
v 14.1529131 -5.6540618 3.5000000
vn 1.5707963 1.5707964 -1.5707964
v 32.0000000 2.0000000 0.0000000
vn -0.6913028 -2.9848886 3.5857489
v 41.3534317 -6.1546593 3.5000000
vn 1.5707964 1.5707961 1.5707959
v 50.0000000 -3.0000000 3.5000000
vn 1.5707964 1.5707961 -4.7123885
v 32.0000000 -3.0000000 0.0000000
vn 1.5680313 1.6639546 4.6530461
v 33.5247116 -21.0000000 3.5000000
vn 3.0779183 0.0825808 3.5694160
v 34.0000000 -12.0000000 3.5000000
vn 0.6717323 -2.9893639 3.5857580
v 38.6796799 -6.1470928 3.5000000
vn 1.9014051 -2.4026914 3.5853724
v 36.2755966 -7.2958903 3.5000000
vn 2.7069237 -1.5055625 3.4767342
v 34.6034241 -9.3776140 3.5000000
vn 3.0391932 -0.5888836 3.6097863
v 34.1529121 -10.6540613 3.5000000
vn -2.7560086 -1.3454293 3.5477831
v 45.4034042 -9.3917112 3.5000000
vn 4.7123890 1.5707964 1.5707953
v 50.0000000 -21.0000000 3.5000000
vn 1.5707961 1.5707964 -1.5707964
v 50.0000000 -3.0000000 0.0000000
vn -1.9166613 -2.3908625 3.5850918
v 43.7516670 -7.3176003 3.5000000
vn -3.0391932 0.5888836 3.6097860
v 45.8470879 -13.3459387 3.5000000
vn -1.5280328 1.9348251 4.4785161
v 45.5058670 -21.0000000 3.5000000
vn -1.5280325 1.9348251 1.8046703
v 45.5058670 -21.0000000 9.8500004
vn -3.0779183 -0.0825808 3.5694163
v 46.0000000 -12.0000000 3.5000000
vn 3.0871856 -0.4098350 -2.8776288
v 50.0000000 -38.0000000 0.0000000
vn 3.0871856 -0.4098350 2.8776290
v 50.0000000 -38.0000000 9.8500004
vn 1.5707964 1.5707964 1.5707964
v 50.0000000 -21.0000000 9.8500004
vn -1.9014051 2.4026914 3.5853717
v 43.7244034 -16.7041092 3.5000000
vn -1.5280325 1.9348251 1.8046714
v 43.5999985 -29.0000000 3.5000000
vn -2.7069237 1.5055625 3.4767342
v 45.3965759 -14.6223860 3.5000000
vn 2.7560086 1.3454293 3.5477824
v 34.5965958 -14.6082888 3.5000000
vn 1.5680314 1.6639547 1.6301370
v 34.0000000 -29.0000000 3.5000000
vn -1.5280328 1.9348249 4.4785147
v 43.5999985 -29.0000000 9.8500004
vn 1.9166610 2.3908625 3.5850928
v 36.2483330 -16.6823997 3.5000000
vn 0.6913029 2.9848883 3.5857489
v 38.6465683 -17.8453407 3.5000000
vn -0.6717325 2.9893639 3.5857580
v 41.3203201 -17.8529072 3.5000000
vn 1.5680313 1.6639547 4.6530480
v 34.0000000 -29.0000000 9.8500004
vn 1.5707964 1.5707964 1.5707964
v 32.0000000 -21.0000000 3.5000000
vn 1.5707964 1.5707963 4.7123890
v 32.0000000 -21.0000000 9.8500004
vn 1.5680314 1.6639547 1.6301377
v 33.5247116 -21.0000000 9.8500004
vn -1.5707964 1.5707964 4.7123885
v 28.0000000 -4.0000000 3.5000000
vn -1.5707964 1.5707965 1.5707954
v 28.0000000 -4.0000000 9.8500004
vn 1.5707964 1.5707964 1.5707964
v 32.0000000 -4.0000000 9.8500004
vn -3.0779183 -0.0825808 3.5694165
v 26.0000000 -7.0000000 3.5000000
vn -1.5707964 1.5707965 1.5707961
v 28.0000000 -16.0000000 3.5000000
vn -2.7560079 -1.3454304 3.5477850
v 25.4034042 -4.3917112 3.5000000
vn -1.9166616 -2.3908625 3.5850904
v 23.7516651 -2.3176003 3.5000000
vn -3.0391927 0.5888849 3.6097870
v 25.8470879 -8.3459387 3.5000000
vn -1.5280328 1.9348251 4.4785161
v 25.5058689 -16.0000000 3.5000000
vn -1.5280325 1.9348252 1.8046703
v 25.5058689 -16.0000000 9.8500004
vn -1.5707964 1.5707964 4.7123895
v 28.0000000 -16.0000000 9.8500004
vn -1.9014060 2.4026899 3.5853736
v 23.7244034 -11.7041092 3.5000000
vn -1.5280325 1.9348251 1.8046712
v 23.6000004 -24.0000000 3.5000000
vn -2.7069230 1.5055648 3.4767311
v 25.3965740 -9.6223860 3.5000000
vn 1.9166616 2.3908625 3.5850911
v 16.2483349 -11.6823997 3.5000000
vn 1.5539453 1.8002629 1.7174016
v 15.5000000 -24.0000000 3.5000000
vn -1.5280328 1.9348249 4.4785147
v 23.6000004 -24.0000000 9.8500004
vn 0.6913030 2.9848881 3.5857484
v 18.6465683 -12.8453407 3.5000000
vn -0.6717333 2.9893634 3.5857589
v 21.3203220 -12.8529072 3.5000000
vn 2.7560077 1.3454301 3.5477834
v 14.5965967 -9.6082888 3.5000000
vn 1.5539453 1.8002632 4.5657783
v 15.5000000 -24.0000000 9.8500004
vn 1.5707964 1.5707964 1.5707964
v 12.2500000 -16.0000000 3.5000000
vn 1.5707964 1.5707964 4.7123861
v 12.2500000 -16.0000000 9.8500004
vn 1.5539453 1.8002630 1.7174040
v 14.3186626 -16.0000000 9.8500004
vn -1.9166617 -2.3908625 3.5850909
v 3.7516654 4.6823997 3.5000000
vn -1.5707964 1.5707964 4.7123899
v 7.7500000 1.0000000 3.5000000
vn -1.5707965 1.5707963 1.5707963
v 7.7500000 1.0000000 9.8500004
vn 1.5707964 1.5707964 1.5707964
v 12.2500000 1.0000000 9.8500004
vn -3.0779181 -0.0825806 3.5694172
v 6.0000000 -0.0000000 3.5000000
vn -1.5707965 1.5707966 1.5707960
v 7.7500000 -9.0000000 3.5000000
vn -2.7560084 -1.3454303 3.5477839
v 5.4034033 2.6082888 3.5000000
vn -3.0391927 0.5888856 3.6097853
v 5.8470869 -1.3459382 3.5000000
vn -1.5280328 1.9348252 4.4785161
v 5.5058689 -9.0000000 3.5000000
vn -1.5280327 1.9348254 1.8046706
v 5.5058689 -9.0000000 9.8500004
vn -1.5707964 1.5707964 4.7123885
v 7.7500000 -9.0000000 9.8500004
vn -1.9014057 2.4026904 3.5853736
v 3.7244031 -4.7041097 3.5000000
vn -1.5280327 1.9348251 1.8046708
v 3.5999999 -17.0000000 3.5000000
vn -2.7069237 1.5055634 3.4767327
v 5.3965740 -2.6223860 3.5000000
vn 0.6913028 2.9848881 3.5857484
v -1.3534310 -5.8453407 3.5000000
vn 1.5280328 1.9348249 1.8046706
v -3.5999999 -17.0000000 3.5000000
vn -1.5280328 1.9348252 4.4785147
v 3.5999999 -17.0000000 9.8500004
vn -0.6717331 2.9893637 3.5857589
v 1.3203216 -5.8529072 3.5000000
vn 2.7560084 1.3454303 3.5477839
v -5.4034033 -2.6082888 3.5000000
vn 1.5280327 1.9348254 4.4785161
v -5.5058689 -9.0000000 3.5000000
vn 1.5280327 1.9348252 4.4785151
v -3.5999999 -17.0000000 9.8500004
vn 1.9166617 2.3908625 3.5850909
v -3.7516654 -4.6823997 3.5000000
vn 1.5707964 1.5707964 1.5707964
v -7.7500000 -9.0000000 3.5000000
vn 1.5707965 1.5707966 4.7123895
v -7.7500000 -9.0000000 9.8500004
vn 1.5280328 1.9348252 1.8046705
v -5.5058689 -9.0000000 9.8500004
vn -1.5707964 1.5707963 1.5707965
v -12.2500000 1.0000000 9.8500004
vn 1.5707964 1.5707964 1.5707964
v -7.7500000 1.0000000 9.8500004
vn -3.0779181 -0.0825806 3.5694172
v -14.0000000 -7.0000000 3.5000000
vn -1.5707964 1.5707964 1.5707959
v -12.2500000 -16.0000000 3.5000000
vn -0.6913029 -2.9848881 3.5857489
v -18.6465683 -1.1546590 3.5000000
vn -2.7560081 -1.3454303 3.5477843
v -14.5965967 -4.3917112 3.5000000
vn -1.9166619 -2.3908625 3.5850904
v -16.2483349 -2.3176003 3.5000000
vn -3.0391927 0.5888857 3.6097848
v -14.1529131 -8.3459387 3.5000000
vn -1.5539453 1.8002630 4.5657806
v -14.3186626 -16.0000000 3.5000000
vn -1.5539453 1.8002632 1.7174040
v -14.3186626 -16.0000000 9.8500004
vn -1.5707964 1.5707964 4.7123885
v -12.2500000 -16.0000000 9.8500004
vn -2.7069235 1.5055635 3.4767330
v -14.6034260 -9.6223860 3.5000000
vn -1.5539453 1.8002632 1.7174045
v -15.5000000 -24.0000000 3.5000000
vn 0.6913030 2.9848881 3.5857487
v -21.3534317 -12.8453407 3.5000000
vn 1.5280328 1.9348249 1.8046701
v -23.6000004 -24.0000000 3.5000000
vn -1.5539453 1.8002629 4.5657816
v -15.5000000 -24.0000000 9.8500004
vn -0.6717333 2.9893634 3.5857589
v -18.6796780 -12.8529072 3.5000000
vn -1.9014060 2.4026899 3.5853736
v -16.2755966 -11.7041092 3.5000000
vn 2.7560077 1.3454304 3.5477841
v -25.4034042 -9.6082888 3.5000000
vn 1.5280325 1.9348249 4.4785156
v -25.5058689 -16.0000000 3.5000000
vn 1.5280325 1.9348251 4.4785147
v -23.6000004 -24.0000000 9.8500004
vn 1.9166614 2.3908627 3.5850909
v -23.7516651 -11.6823997 3.5000000
vn -4.7123890 1.5707964 1.5707964
v -30.0000000 -16.0000000 3.5000000
vn -1.5707964 1.5707963 1.5707961
v -30.0000000 -16.0000000 9.8500004
vn 3.0779181 0.0825808 3.5694172
v -26.0000000 -7.0000000 3.5000000
vn 1.5280328 1.9348251 1.8046705
v -25.5058689 -16.0000000 9.8500004
vn -1.1030872 2.9415650 -3.1415925
v -30.0000000 -24.7500000 0.0000000
vn 0.6717333 -2.9893637 3.5857584
v -21.3203220 -1.1470927 3.5000000
vn 1.9014060 -2.4026902 3.5853734
v -23.7244034 -2.2958906 3.5000000
vn 2.7069235 -1.5055647 3.4767313
v -25.3965740 -4.3776140 3.5000000
vn 3.0391927 -0.5888849 3.6097867
v -25.8470879 -5.6540618 3.5000000
vn -3.0779178 0.0825806 2.7137678
v -14.0000000 -7.0000000 1.0000000
vn -2.7560077 1.3454301 2.7354004
v -14.5965967 -9.6082888 1.0000000
vn -2.7069237 -1.5055634 2.8064525
v -14.6034260 -4.3776140 1.0000000
vn -3.0391927 -0.5888856 2.6734004
v -14.1529131 -5.6540618 1.0000000
vn -1.9014062 -2.4026902 2.6978114
v -16.2755966 -2.2958906 1.0000000
vn -0.6717333 -2.9893637 2.6974268
v -18.6796780 -1.1470927 1.0000000
vn 0.6913029 -2.9848881 2.6974363
v -21.3534317 -1.1546590 1.0000000
vn 1.9166616 -2.3908625 2.6980946
v -23.7516651 -2.3176003 1.0000000
vn 2.7560081 -1.3454304 2.7354002
v -25.4034042 -4.3917112 1.0000000
vn 3.0779183 -0.0825808 2.7137687
v -26.0000000 -7.0000000 1.0000000
vn 2.7069230 1.5055647 2.8064544
v -25.3965740 -9.6223860 1.0000000
vn 3.0391927 0.5888849 2.6733980
v -25.8470879 -8.3459387 1.0000000
vn 1.9014060 2.4026902 2.6978116
v -23.7244034 -11.7041092 1.0000000
vn 0.6717333 2.9893637 2.6974268
v -21.3203220 -12.8529072 1.0000000
vn -0.6913030 2.9848881 2.6974363
v -18.6465683 -12.8453407 1.0000000
vn -1.9166616 2.3908625 2.6980944
v -16.2483349 -11.6823997 1.0000000
vn -3.0779181 0.0825808 2.7137687
v 26.0000000 -7.0000000 1.0000000
vn -2.7560077 1.3454304 2.7354002
v 25.4034042 -9.6082888 1.0000000
vn -2.7069232 -1.5055647 2.8064542
v 25.3965740 -4.3776140 1.0000000
vn -3.0391927 -0.5888849 2.6733985
v 25.8470879 -5.6540618 1.0000000
vn -1.9014062 -2.4026902 2.6978114
v 23.7244034 -2.2958906 1.0000000
vn -0.6717333 -2.9893637 2.6974268
v 21.3203220 -1.1470927 1.0000000
vn 0.6913029 -2.9848881 2.6974363
v 18.6465683 -1.1546590 1.0000000
vn 1.9166619 -2.3908625 2.6980946
v 16.2483349 -2.3176003 1.0000000
vn 2.7560081 -1.3454303 2.7354002
v 14.5965967 -4.3917112 1.0000000
vn 3.0779178 -0.0825806 2.7137680
v 14.0000000 -7.0000000 1.0000000
vn 2.7069235 1.5055635 2.8064528
v 14.6034260 -9.6223860 1.0000000
vn 3.0391927 0.5888857 2.6733999
v 14.1529131 -8.3459387 1.0000000
vn 1.9014060 2.4026902 2.6978116
v 16.2755966 -11.7041092 1.0000000
vn 0.6717333 2.9893637 2.6974268
v 18.6796780 -12.8529072 1.0000000
vn -0.6913030 2.9848881 2.6974363
v 21.3534317 -12.8453407 1.0000000
vn -1.9166614 2.3908627 2.6980941
v 23.7516651 -11.6823997 1.0000000
vn -3.0779183 0.0825808 2.7137687
v 46.0000000 -12.0000000 1.0000000
vn -2.7560086 1.3454292 2.7354019
v 45.4034042 -14.6082888 1.0000000
vn -2.7069237 -1.5055625 2.8064508
v 45.3965759 -9.3776140 1.0000000
vn -3.0391932 -0.5888836 2.6733990
v 45.8470879 -10.6540613 1.0000000
vn -1.9014051 -2.4026914 2.6978126
v 43.7244034 -7.2958903 1.0000000
vn -0.6717323 -2.9893639 2.6974270
v 41.3203201 -6.1470928 1.0000000
vn 0.6913028 -2.9848883 2.6974366
v 38.6465683 -6.1546593 1.0000000
vn 1.9166611 -2.3908625 2.6980929
v 36.2483330 -7.3176003 1.0000000
vn 2.7560086 -1.3454293 2.7354019
v 34.5965958 -9.3917112 1.0000000
vn 3.0779183 -0.0825808 2.7137687
v 34.0000000 -12.0000000 1.0000000
vn 2.7069235 1.5055625 2.8064508
v 34.6034241 -14.6223860 1.0000000
vn 3.0391932 0.5888836 2.6733990
v 34.1529121 -13.3459387 1.0000000
vn 1.9014050 2.4026914 2.6978130
v 36.2755966 -16.7041092 1.0000000
vn 0.6717325 2.9893639 2.6974270
v 38.6796799 -17.8529072 1.0000000
vn -0.6913029 2.9848883 2.6974363
v 41.3534317 -17.8453407 1.0000000
vn -1.9166611 2.3908625 2.6980927
v 43.7516670 -16.6823997 1.0000000
vn -3.0779178 0.0825806 2.7137678
v 6.0000000 -0.0000000 1.0000000
vn -2.7560084 1.3454303 2.7354007
v 5.4034033 -2.6082888 1.0000000
vn -2.7069240 -1.5055634 2.8064525
v 5.3965740 2.6223860 1.0000000
vn -3.0391927 -0.5888856 2.6734004
v 5.8470869 1.3459382 1.0000000
vn -1.9014059 -2.4026904 2.6978114
v 3.7244031 4.7041097 1.0000000
vn -0.6717331 -2.9893639 2.6974263
v 1.3203216 5.8529072 1.0000000
vn 0.6913027 -2.9848881 2.6974368
v -1.3534310 5.8453407 1.0000000
vn 1.9166617 -2.3908625 2.6980941
v -3.7516654 4.6823997 1.0000000
vn 2.7560084 -1.3454303 2.7354004
v -5.4034033 2.6082888 1.0000000
vn 3.0779178 -0.0825806 2.7137678
v -6.0000000 0.0000000 1.0000000
vn 2.7069240 1.5055634 2.8064525
v -5.3965740 -2.6223860 1.0000000
vn 3.0391927 0.5888856 2.6734004
v -5.8470869 -1.3459382 1.0000000
vn 1.9014059 2.4026904 2.6978114
v -3.7244031 -4.7041097 1.0000000
vn 0.6717331 2.9893639 2.6974263
v -1.3203216 -5.8529072 1.0000000
vn -0.6913027 2.9848881 2.6974368
v 1.3534310 -5.8453407 1.0000000
vn -1.9166617 2.3908625 2.6980941
v 3.7516654 -4.6823997 1.0000000
vn -1.1030867 -2.9415646 -3.1415927
v -30.0000000 -68.5000000 0.0000000
vn 4.7123895 1.5707963 -1.5707964
v 40.0000000 -96.4499969 0.0000000
vn -4.7123885 1.5707964 -1.5707964
v -30.0000000 -96.4499969 0.0000000
vn -1.5707964 1.5707963 -1.5707964
v -30.0000000 -96.4499969 -4.5000000
vn -2.1223397 -1.4707825 4.3536181
v -30.0000000 -68.5000000 9.8500004
vn -4.7123895 1.5707964 -1.5707964
v -30.0000000 -85.1999969 14.3500004
vn -4.7123890 1.5706384 1.5707964
v -30.0000000 -85.1999969 9.8500004
vn -4.2523112 0.7853981 2.6815171
v -30.0000000 -77.5500031 30.9011002
vn -1.5707960 -1.5707943 -1.5707970
v -30.0000000 -102.4499969 -4.5000000
vn 3.0871856 -0.4098350 -3.4055572
v 40.0000000 -75.0000000 0.0000000
vn 3.0871856 -0.4098350 3.4055574
v 40.0000000 -75.0000000 9.8500004
vn 4.7123861 1.5707964 1.5706837
v 40.0000000 -85.1999969 9.8500004
vn 1.5707946 -1.5708208 -1.5707964
v 40.0000000 -102.4499969 -4.5000000
vn 1.5707964 1.5707964 -1.5707970
v 40.0000000 -96.4499969 -4.5000000
vn 0.0000000 -3.1415925 -3.1415925
v -30.0000000 -42.2500000 0.0000000
vn 0.0000000 3.1415925 -3.1415927
v -30.0000000 -51.0000000 0.0000000
vn 1.0192530 1.4707825 -1.2120258
v -30.0000000 -24.7500000 -8.1499996
vn -2.1223397 1.4707825 4.3536186
v -30.0000000 -24.7500000 9.8500004
vn -2.1223400 1.4707829 -1.9295670
v -50.0000000 -32.2500000 -8.1499996
vn -1.5707964 -1.5707964 4.7123895
v -30.0000000 -42.2500000 9.8500004
vn -1.5707964 -1.5707966 1.5707964
v -50.0000000 -42.2500000 9.8500004
vn 1.5707964 -1.5707979 -1.5707964
v -30.0000000 -42.2500000 -8.1499996
vn 1.5707965 1.5707963 -1.5707964
v -30.0000000 -51.0000000 -8.1499996
vn -1.5707964 1.5707939 4.7123890
v -30.0000000 -51.0000000 9.8500004
vn -2.3945539 3.5898764 1.9100037
v -40.7169342 -51.0000000 -4.4187346
vn -1.3295460 3.5902460 2.7592616
v -42.1768074 -51.0000000 -5.5833044
vn -2.1223397 -1.4707826 1.9295670
v -50.0000000 -61.0000000 9.8500004
vn 1.0192529 -1.4707825 -1.2120256
v -30.0000000 -68.5000000 -8.1499996
vn 4.1616740 -0.4098350 3.2160962
v 40.0000000 -75.0000000 31.0294552
vn 2.1080403 -1.9198620 1.4760656
v 40.0000000 -102.4499969 31.0294552
vn -2.1080403 -4.3633237 -1.4760658
v 38.0000000 -102.4499969 29.6290398
vn 4.7123885 1.5707963 -1.5707966
v 40.0000000 -85.1999969 14.3500004
vn 0.6916297 -3.5878813 2.9844656
v -20.0591812 -102.4499969 2.8700409
vn -1.5707965 -4.7123890 1.5707964
v 38.0000000 -102.4499969 14.3500004
vn 1.5707964 -4.7123885 1.5707986
v 37.7999992 -102.4499969 14.3500004
vn -3.0616255 -3.5937197 0.0021879
v 31.2500000 -102.4499969 23.5000000
vn -3.0616956 -3.5932963 0.0018861
v -16.7500000 -102.4499969 5.5000000
vn -3.0616255 -3.5937262 0.0021879
v -16.7500000 -102.4499969 23.5000000
vn 1.9139293 -3.5886364 2.3919473
v 26.8623238 -102.4499969 3.3925807
vn -2.7548153 -3.5907030 1.3377862
v -17.0226440 -102.4499969 4.3190331
vn -0.6675376 -3.5881124 2.9897876
v -18.8622570 -102.4499969 2.8650913
vn -1.8982019 -3.5901506 2.4034679
v -17.7774754 -102.4499969 3.3804827
vn -2.7548153 -3.5907030 1.3377862
v 30.9773560 -102.4499969 4.3190331
vn -3.0616956 -3.5932963 0.0018861
v 31.2500000 -102.4499969 5.5000000
vn 0.6916297 -3.5878806 2.9844656
v 27.9408188 -102.4499969 2.8700409
vn -0.6675376 -3.5881131 2.9897876
v 29.1377430 -102.4499969 2.8650913
vn -1.8982019 -3.5901506 2.4034679
v 30.2225246 -102.4499969 3.3804827
vn 0.5372437 -2.7925272 3.0468612
v 16.4526539 -102.4499969 39.5999870
vn 3.0871856 -0.4098350 -3.4055574
v 40.0000000 -75.0000000 14.3500004
vn 3.0871859 -0.4098350 -2.8776290
v 50.0000000 -38.0000000 14.3500004
vn 0.9945018 0.4825619 6.1286020
v 40.0000000 -16.0400009 31.0294552
vn 3.0096731 0.2066187 3.1279445
v 50.0000000 -16.0400009 31.0294552
vn 3.0871859 -0.4098350 2.8776286
v 50.0000000 -38.0000000 31.0294552
vn -3.0855293 0.4592361 -2.9469476
v 39.5000000 -71.1008682 14.3500004
vn -3.0871859 0.4098350 -3.4055564
v 48.0000000 -39.6508713 14.3500004
vn -1.5688365 4.6624308 -1.6492382
v 39.5000000 -85.1999969 14.3500004
vn -2.7598443 -2.6935971 -1.3288389
v 30.9820938 -96.4499969 6.6716452
vn -2.7599318 -2.6940002 1.3288093
v 30.9820938 -96.4499969 4.3283548
vn -3.0625243 -2.6918402 -0.0001160
v 31.2500000 -96.4499969 5.5000000
vn -2.7598152 -3.5887957 -1.3296164
v 30.9807606 -102.4499969 6.6742311
vn -1.9099623 -2.6929946 -2.3942795
v 30.2340775 -96.4499969 7.6102939
vn -1.9100580 -2.6935408 2.3943143
v 30.2340775 -96.4499969 3.3897059
vn -0.6814730 -2.6939983 -2.9862778
v 29.1498451 -96.4499969 8.1322393
vn -0.6812988 -2.6943016 2.9863663
v 29.1498451 -96.4499969 2.8677609
vn 0.6812983 -2.6943016 -2.9863665
v 27.9501553 -96.4499969 8.1322393
vn 0.6814715 -2.6939995 2.9862788
v 27.9501553 -96.4499969 2.8677609
vn 1.9100589 -2.6935391 -2.3943133
v 26.8659210 -96.4499969 7.6102939
vn 1.9099622 -2.6929917 2.3942783
v 26.8659210 -96.4499969 3.3897059
vn 2.7599330 -2.6940014 -1.3288080
v 26.1179066 -96.4499969 6.6716452
vn 2.7598455 -2.6935980 1.3288375
v 26.1179066 -96.4499969 4.3283548
vn 3.0625243 -2.6918402 0.0001160
v 25.8500004 -96.4499969 5.5000000
vn 2.7598152 -3.5887952 1.3296162
v 26.1192398 -102.4499969 4.3257689
vn 3.0616956 -3.5933003 -0.0018861
v 25.8500004 -102.4499969 5.5000000
vn 2.7548156 -3.5906982 -1.3377862
v 26.1226444 -102.4499969 6.6809669
vn 1.8982019 -3.5901484 -2.4034681
v 26.8774757 -102.4499969 7.6195173
vn 0.6675376 -3.5881135 -2.9897876
v 27.9622574 -102.4499969 8.1349087
vn -0.6916302 -3.5878820 -2.9844656
v 29.1591816 -102.4499969 8.1299591
vn -1.9139295 -3.5886359 -2.3919475
v 30.2376766 -102.4499969 7.6074190
vn -2.7598443 -2.6935971 -1.3288389
v -17.0179062 -96.4499969 6.6716452
vn -2.7599318 -2.6940002 1.3288093
v -17.0179062 -96.4499969 4.3283548
vn -3.0625243 -2.6918402 -0.0001160
v -16.7500000 -96.4499969 5.5000000
vn -2.7598152 -3.5887957 -1.3296164
v -17.0192394 -102.4499969 6.6742311
vn -1.9099623 -2.6929946 -2.3942795
v -17.7659225 -96.4499969 7.6102939
vn -1.9100580 -2.6935408 2.3943143
v -17.7659225 -96.4499969 3.3897059
vn -0.6814730 -2.6939983 -2.9862778
v -18.8501549 -96.4499969 8.1322393
vn -0.6812988 -2.6943016 2.9863663
v -18.8501549 -96.4499969 2.8677609
vn 0.6812983 -2.6943016 -2.9863665
v -20.0498447 -96.4499969 8.1322393
vn 0.6814715 -2.6939995 2.9862788
v -20.0498447 -96.4499969 2.8677609
vn 1.9100589 -2.6935391 -2.3943133
v -21.1340790 -96.4499969 7.6102939
vn 1.9099622 -2.6929917 2.3942783
v -21.1340790 -96.4499969 3.3897059
vn 2.7599330 -2.6940014 -1.3288080
v -21.8820934 -96.4499969 6.6716452
vn 2.7598455 -2.6935980 1.3288375
v -21.8820934 -96.4499969 4.3283548
vn 1.9139293 -3.5886366 2.3919473
v -21.1376762 -102.4499969 3.3925807
vn 3.0625243 -2.6918402 0.0001160
v -22.1499996 -96.4499969 5.5000000
vn 2.7598152 -3.5887990 1.3296162
v -21.8807602 -102.4499969 4.3257689
vn 3.0616956 -3.5933056 -0.0018861
v -22.1499996 -102.4499969 5.5000000
vn 2.7548156 -3.5906985 -1.3377862
v -21.8773556 -102.4499969 6.6809669
vn 1.8982019 -3.5901484 -2.4034681
v -21.1225243 -102.4499969 7.6195173
vn 0.6675376 -3.5881135 -2.9897876
v -20.0377426 -102.4499969 8.1349087
vn -0.6916302 -3.5878820 -2.9844656
v -18.8408184 -102.4499969 8.1299591
vn -1.9139295 -3.5886359 -2.3919475
v -17.7623234 -102.4499969 7.6074190
vn -2.1223397 1.4707825 1.9295671
v -50.0000000 -32.2500000 9.8500004
vn -1.5707964 1.5707961 1.5707963
v -50.0000000 -51.0000000 9.8500004
vn 1.3427541 3.5882990 -2.7532718
v -45.8374443 -51.0000000 1.9762118
vn 0.0012627 3.5916049 -3.0623317
v -44.0000000 -51.0000000 2.4000001
vn -1.3295451 3.5902510 -2.7592611
v -42.1768074 -51.0000000 1.9833050
vn -2.3945522 3.5898843 -1.9100039
v -40.7169342 -51.0000000 0.8187356
vn -2.9857886 3.5907531 -0.6820537
v -39.9056587 -51.0000000 -0.8643423
vn -2.9857888 3.5907516 0.6820531
v -39.9056587 -51.0000000 -2.7356572
vn 3.1415927 3.1415925 0.0000004
v -28.0000000 -85.1999969 14.3500004
vn -1.5707964 4.7123890 1.5707986
v -27.7999992 -85.1999969 14.3500004
vn -1.5707964 4.7123880 1.5707986
v 38.0000000 -85.1999969 14.3500004
vn 2.7547097 3.5915053 1.3376970
v -21.8773556 -85.1999969 22.3190327
vn 3.0616255 3.5936823 0.0021879
v -22.1499996 -85.1999969 23.5000000
vn -0.6914612 3.5878384 2.9845026
v -18.8408184 -85.1999969 20.8700409
vn -1.9138846 3.5882349 2.3920562
v -17.7623234 -85.1999969 21.3925800
vn 0.5372440 2.7925332 3.0468621
v 15.1000004 -85.1999969 37.0999985
vn 0.6676257 3.5884316 2.9897056
v -20.0377426 -85.1999969 20.8650913
vn 1.8982244 3.5907433 2.4033167
v -21.1225243 -85.1999969 21.3804817
vn 2.7547097 3.5915053 1.3376970
v 26.1226444 -85.1999969 22.3190327
vn 3.0616255 3.5937197 0.0021879
v 25.8500004 -85.1999969 23.5000000
vn 0.6676257 3.5884316 2.9897056
v 27.9622574 -85.1999969 20.8650913
vn -0.6914612 3.5878389 2.9845026
v 29.1591816 -85.1999969 20.8700409
vn 1.5707963 4.7123904 1.5707964
v 37.7999992 -85.1999969 14.3500004
vn 1.8982244 3.5907433 2.4033167
v 26.8774757 -85.1999969 21.3804817
vn -4.8285794 -2.3534138 0.9169322
v -30.0000000 -67.7500000 19.3500004
vn -2.1223397 -1.4707826 -4.3536177
v -30.0000000 -67.7500000 14.3500004
vn -3.0015776 -1.9771037 1.7195942
v -50.0000000 -60.2500000 19.3500004
vn 2.1223397 1.4707825 -1.9295664
v -28.0000000 -66.3639984 14.3500004
vn -2.1223395 -1.4707825 -1.9295669
v -50.0000000 -60.2500000 14.3500004
vn -1.9180412 -0.7196135 5.4160328
v -30.0000000 -55.7500000 30.9011002
vn -2.6207280 0.5107947 4.9047709
v -19.5696526 -16.0400009 30.9011002
vn -1.9180410 0.7196135 5.4160333
v -30.0000000 -36.0000000 30.9011002
vn -2.6815169 -2.3561943 1.1107209
v -30.0000000 -102.4499969 30.9011002
vn -1.1107205 2.3561945 2.6815171
v -21.3011112 -77.5500031 39.5999870
vn -1.3603495 2.0943952 2.3561950
v -19.5696526 -77.5500031 30.9011002
vn 1.5707964 -4.7123890 1.5707986
v -28.0000000 -102.4499969 14.3500004
vn 2.6815169 -3.9269910 -1.1107210
v -28.0000000 -102.4499969 28.9011002
vn -1.1107205 -2.3561945 2.6815171
v -21.3011112 -102.4499969 39.5999870
vn -1.5707964 1.5707971 -1.5707964
v -50.0000000 -51.0000000 -8.1499996
vn -2.1223397 -1.4707825 -1.9295671
v -50.0000000 -61.0000000 -8.1499996
vn 2.9960160 3.5827727 -0.6493333
v -48.0993423 -51.0000000 -0.8863739
vn 2.4164562 3.5844827 -1.8850397
v -47.3011703 -51.0000000 0.7962077
vn -1.5707964 -1.5707966 -1.5707963
v -50.0000000 -42.2500000 -8.1499996
vn 2.9960160 -3.5827723 0.6493334
v -48.0993423 -42.2500000 -2.7136261
vn -2.3945541 -3.5898774 -1.9100035
v -40.7169342 -42.2500000 0.8187346
vn 1.3236798 -3.5893540 -2.7625411
v -45.8272743 -42.2500000 1.9812293
vn 0.0009098 -3.5915732 -3.0624130
v -44.0000000 -42.2500000 2.4000001
vn -1.3295460 -3.5902443 -2.7592616
v -42.1768074 -42.2500000 1.9833045
vn 2.3829453 -3.5857153 -1.9271852
v -47.2828140 -42.2500000 0.8194822
vn 2.9824538 -3.5824559 -0.7093524
v -48.0918121 -42.2500000 -0.8533545
vn 0.0012628 -3.5916052 3.0623319
v -44.0000000 -42.2500000 -6.0000000
vn 2.4164565 -3.5844831 1.8850398
v -47.3011703 -42.2500000 -4.3962078
vn 1.3427536 -3.5883007 2.7532718
v -45.8374443 -42.2500000 -5.5762119
vn -1.3295451 -3.5902510 2.7592611
v -42.1768074 -42.2500000 -5.5833049
vn -2.3945522 -3.5898838 1.9100039
v -40.7169342 -42.2500000 -4.4187355
vn -2.9857888 -3.5907528 0.6820538
v -39.9056587 -42.2500000 -2.7356577
vn -2.9857891 -3.5907514 -0.6820530
v -39.9056587 -42.2500000 -0.8643429
vn 0.0012627 -2.6915808 -3.0623317
v -44.0000000 -41.7500000 2.4000001
vn -1.3295451 -2.6929350 -2.7592611
v -42.1768074 -41.7500000 1.9833050
vn 1.3427541 -2.6948862 -2.7532718
v -45.8374443 -41.7500000 1.9762118
vn 2.4164565 -2.6987019 -1.8850396
v -47.3011703 -41.7500000 0.7962077
vn 2.9960160 -2.7004132 -0.6493333
v -48.0993423 -41.7500000 -0.8863739
vn 2.9824541 -2.7007294 0.7093523
v -48.0918121 -41.7500000 -2.7466455
vn 2.3829453 -2.6974699 1.9271852
v -47.2828140 -41.7500000 -4.4194822
vn 1.3236797 -2.6938324 2.7625413
v -45.8272743 -41.7500000 -5.5812292
vn 0.0009098 -2.6916120 3.0624132
v -44.0000000 -41.7500000 -6.0000000
vn -1.3295460 -2.6929398 2.7592614
v -42.1768074 -41.7500000 -5.5833044
vn -2.3945539 -2.6933081 1.9100037
v -40.7169342 -41.7500000 -4.4187346
vn -2.9857888 -2.6924338 0.6820531
v -39.9056587 -41.7500000 -2.7356572
vn -2.9857883 -2.6924322 -0.6820538
v -39.9056587 -41.7500000 -0.8643423
vn -2.3945522 -2.6933010 -1.9100038
v -40.7169342 -41.7500000 0.8187356
vn -1.8985578 -3.5870717 2.4039986
v -42.1416397 -41.7500000 -4.1550193
vn -0.6674704 -3.5845230 2.9905477
v -43.3469505 -41.7500000 -4.7276764
vn -3.0617766 -3.5929801 0.0015332
v -41.0000000 -41.7500000 -1.8000000
vn -2.7554879 -3.5889547 1.3372455
v -41.3029366 -41.7500000 -3.1121857
vn -2.7603450 -3.5879738 -1.3288963
v -41.2991562 -41.7500000 -0.4952990
vn -0.6922148 -3.5840585 -2.9851003
v -43.3231316 -41.7500000 1.1221768
vn -1.9152355 -3.5858517 -2.3915875
v -42.1248016 -41.7500000 0.5415769
vn 0.6674703 -3.5845230 -2.9905477
v -44.6530495 -41.7500000 1.1276764
vn 1.8985578 -3.5870719 -2.4039989
v -45.8583603 -41.7500000 0.5550194
vn 3.0617766 -3.5929804 -0.0015332
v -47.0000000 -41.7500000 -1.8000000
vn 2.7554879 -3.5889542 -1.3372455
v -46.6970634 -41.7500000 -0.4878144
vn 2.7603445 -3.5879736 1.3288960
v -46.7008438 -41.7500000 -3.1047010
vn 0.6922151 -3.5840580 2.9851005
v -44.6768684 -41.7500000 -4.7221766
vn 1.9152355 -3.5858514 2.3915875
v -45.8751984 -41.7500000 -4.1415768
vn -3.0617766 -2.6902051 -0.0015332
v -41.0000000 -39.4000015 -1.8000000
vn -2.7603447 -2.6952114 1.3288962
v -41.2991562 -39.4000015 -3.1047010
vn -2.7554882 -2.6942315 -1.3372455
v -41.3029366 -39.4000015 -0.4878144
vn -1.8985578 -2.6961136 -2.4039986
v -42.1416397 -39.4000015 0.5550194
vn -0.6674703 -2.6986623 -2.9905477
v -43.3469505 -39.4000015 1.1276764
vn 0.6922148 -2.6991272 -2.9851007
v -44.6768684 -39.4000015 1.1221768
vn 1.9152355 -2.6973333 -2.3915875
v -45.8751984 -39.4000015 0.5415769
vn 2.7603450 -2.6952114 -1.3288963
v -46.7008438 -39.4000015 -0.4952990
vn 3.0617766 -2.6902051 0.0015332
v -47.0000000 -39.4000015 -1.8000000
vn 2.7554879 -2.6942315 1.3372453
v -46.6970634 -39.4000015 -3.1121857
vn 1.8985577 -2.6961129 2.4039986
v -45.8583603 -39.4000015 -4.1550193
vn 0.6674703 -2.6986620 2.9905477
v -44.6530495 -39.4000015 -4.7276764
vn -0.6922151 -2.6991277 2.9851007
v -43.3231316 -39.4000015 -4.7221766
vn -1.9152353 -2.6973336 2.3915875
v -42.1248016 -39.4000015 -4.1415768
vn 1.3236798 3.5893526 2.7625413
v -45.8272743 -51.0000000 -5.5812292
vn 0.0009098 3.5915737 3.0624130
v -44.0000000 -51.0000000 -6.0000000
vn 2.3829453 3.5857153 1.9271851
v -47.2828140 -51.0000000 -4.4194822
vn 2.9824541 3.5824559 0.7093523
v -48.0918121 -51.0000000 -2.7466455
vn 0.0012627 2.6915805 3.0623319
v -44.0000000 -51.5000000 -6.0000000
vn -1.3295451 2.6929345 2.7592611
v -42.1768074 -51.5000000 -5.5833049
vn 1.3427536 2.6948848 2.7532718
v -45.8374443 -51.5000000 -5.5762119
vn 2.4164565 2.6987021 1.8850398
v -47.3011703 -51.5000000 -4.3962078
vn 2.9960160 2.7004130 0.6493334
v -48.0993423 -51.5000000 -2.7136261
vn 2.9824541 2.7007291 -0.7093524
v -48.0918121 -51.5000000 -0.8533545
vn 2.3829453 2.6974699 -1.9271852
v -47.2828140 -51.5000000 0.8194822
vn 1.3236798 2.6938310 -2.7625411
v -45.8272743 -51.5000000 1.9812293
vn 0.0009098 2.6916120 -3.0624132
v -44.0000000 -51.5000000 2.4000001
vn -1.3295460 2.6929398 -2.7592614
v -42.1768074 -51.5000000 1.9833045
vn -2.3945539 2.6933086 -1.9100035
v -40.7169342 -51.5000000 0.8187346
vn -2.9857893 2.6924338 -0.6820530
v -39.9056587 -51.5000000 -0.8643429
vn -2.9857886 2.6924322 0.6820538
v -39.9056587 -51.5000000 -2.7356577
vn -2.3945522 2.6933010 1.9100039
v -40.7169342 -51.5000000 -4.4187355
vn -1.8985578 3.5870714 -2.4039989
v -42.1416397 -51.5000000 0.5550194
vn -0.6674703 3.5845230 -2.9905477
v -43.3469505 -51.5000000 1.1276764
vn -3.0617766 3.5929801 -0.0015332
v -41.0000000 -51.5000000 -1.8000000
vn -2.7554879 3.5889544 -1.3372455
v -41.3029366 -51.5000000 -0.4878144
vn -2.7603445 3.5879736 1.3288960
v -41.2991562 -51.5000000 -3.1047010
vn -0.6922151 3.5840576 2.9851005
v -43.3231316 -51.5000000 -4.7221766
vn -1.9152355 3.5858514 2.3915875
v -42.1248016 -51.5000000 -4.1415768
vn 0.6674704 3.5845227 2.9905477
v -44.6530495 -51.5000000 -4.7276764
vn 1.8985578 3.5870719 2.4039986
v -45.8583603 -51.5000000 -4.1550193
vn 3.0617766 3.5929801 0.0015332
v -47.0000000 -51.5000000 -1.8000000
vn 2.7554879 3.5889547 1.3372455
v -46.6970634 -51.5000000 -3.1121857
vn 2.7603450 3.5879738 -1.3288963
v -46.7008438 -51.5000000 -0.4952990
vn 0.6922148 3.5840583 -2.9851003
v -44.6768684 -51.5000000 1.1221768
vn 1.9152355 3.5858514 -2.3915875
v -45.8751984 -51.5000000 0.5415769
vn 3.0617766 2.6902051 -0.0015332
v -47.0000000 -53.8499985 -1.8000000
vn 2.7603447 2.6952114 1.3288962
v -46.7008438 -53.8499985 -3.1047010
vn 2.7554882 2.6942315 -1.3372455
v -46.6970634 -53.8499985 -0.4878144
vn 1.8985578 2.6961136 -2.4039986
v -45.8583603 -53.8499985 0.5550194
vn 0.6674703 2.6986623 -2.9905477
v -44.6530495 -53.8499985 1.1276764
vn -0.6922148 2.6991272 -2.9851007
v -43.3231316 -53.8499985 1.1221768
vn -1.9152355 2.6973333 -2.3915875
v -42.1248016 -53.8499985 0.5415769
vn -2.7603450 2.6952114 -1.3288963
v -41.2991562 -53.8499985 -0.4952990
vn -3.0617766 2.6902051 0.0015332
v -41.0000000 -53.8499985 -1.8000000
vn -2.7554879 2.6942315 1.3372453
v -41.3029366 -53.8499985 -3.1121857
vn -1.8985577 2.6961129 2.4039986
v -42.1416397 -53.8499985 -4.1550193
vn -0.6674703 2.6986620 2.9905477
v -43.3469505 -53.8499985 -4.7276764
vn 0.6922151 2.6991277 2.9851007
v -44.6768684 -53.8499985 -4.7221766
vn 1.9152353 2.6973336 2.3915875
v -45.8751984 -53.8499985 -4.1415768
vn -0.0016097 2.7968428 -3.1226189
v 43.8616142 -16.0400009 29.0155029
vn -0.5372447 2.7925243 -3.0468621
v 40.0000000 -16.0400009 28.9011002
vn -0.6435006 -0.1360881 -6.1623220
v 39.6805878 -16.0400009 29.0173569
vn -4.1028395 0.8443729 -2.9528151
v 40.0000000 -69.2508698 28.9011002
vn -1.0953468 -0.6654389 -6.0611548
v 39.7561340 -9.6265249 28.3097610
vn -2.0551364 -0.1904821 -5.9288330
v 39.6510124 -16.1376514 29.0281200
vn -1.4567595 1.3836347 -1.5595808
v 48.0000000 -16.0400009 29.0132294
vn -4.7123890 1.5707964 -1.5707964
v 48.0000000 -16.0400009 28.9011002
vn -1.5707964 1.5707964 -1.5707964
v 48.0000000 -29.0000000 28.9011002
vn -1.5707964 1.5707965 -4.7123890
v 42.0000000 -29.0000000 28.9011002
vn -1.5707963 -1.5707964 -4.7123895
v 42.0000000 -35.0000000 28.9011002
vn -3.1983547 -0.3852511 -3.1173503
v 48.0000000 -9.4715195 28.1746101
vn -1.5707933 4.7123890 -1.5707968
v 48.0000000 -29.0000000 26.6499882
vn -0.3998416 -3.7537034 -3.0451703
v 39.8548164 -2.9030716 27.5653553
vn -1.9215628 -0.7782081 -5.8713150
v 28.2076206 -16.3216171 33.1931763
vn -0.0856946 -3.5303450 -3.1162655
v 43.9276428 -2.9030716 27.4586945
vn -1.5707964 -1.5707645 -4.7123804
v 48.0000000 -2.9030716 26.6499882
vn -0.5421097 -4.0206900 -2.9665351
v 27.4645519 -2.9030716 29.5500832
vn 1.5447955 -3.1484399 -2.4308617
v -12.3197308 -2.9030716 32.4468460
vn -1.7447870 -1.7994457 -1.5536348
v 48.0000038 -2.9030716 27.3356304
vn 0.0534873 -3.4072285 -3.1298833
v -21.5601311 -2.9030716 27.8682632
vn 1.6889362 -1.7278252 -1.5627534
v -28.0000000 -2.9030716 27.7434692
vn 3.1809413 -0.2656407 -3.1300845
v -28.0000000 -9.5137510 28.3257580
vn 1.5707948 -1.5707964 -4.7123895
v -28.0000000 -2.9030716 26.6499882
vn 1.3889049 -4.6887021 -2.1051352
v -14.9003983 -2.9030716 27.9768562
vn 2.8068156 -1.3489048 -4.2947702
v -13.4171419 -16.2973976 37.5575600
vn 2.6559968 -1.0288918 -4.6524258
v -16.6874924 -9.7314787 28.4561043
vn -0.7324997 -4.1788392 -2.8718677
v 20.9398537 -2.9030716 30.8897495
vn -0.3155703 -4.0925951 -2.9660935
v 14.1542463 -2.9030716 32.4468460
vn 2.3613086 -0.6323199 -4.5912457
v -13.3926458 -16.4085979 37.5999870
vn -0.6515709 -2.2958961 -5.7745886
v 15.1135550 -9.6557570 35.0233879
vn -2.0821087 -1.0239674 -5.7460165
v 22.2380867 -16.3831768 35.3659096
vn -1.2560527 -0.7935035 -5.8648820
v 16.1000004 -16.4312897 37.5999870
vn -0.6317829 -1.3280823 -5.8900661
v 16.0727692 -16.4085979 37.5999870
vn 0.4758603 3.0677738 -2.8338137
v 12.2500000 12.0000000 26.6499882
vn 2.0466583 1.4969825 -1.8785763
v 50.0000000 -0.0000000 26.6499882
vn 3.0659916 -0.1275405 -3.1363997
v -28.0000000 -16.1261120 28.9011002
vn 1.5707960 1.5707963 -1.5707964
v -28.0000000 -24.0000000 28.9011002
vn 1.5707964 4.7123890 -1.5707964
v -28.0000000 -24.0000000 26.6499882
vn -4.7123890 1.5707964 -1.5707968
v -30.0000000 -24.0000000 26.6499882
vn -2.0738089 1.4880790 -1.8967663
v -30.0000000 6.0000000 26.6499882
vn -0.5030127 3.0588756 -2.8156228
v -12.2500000 12.0000000 26.6499882
vn 1.5752857 1.5716586 -4.7123857
v -23.0000000 -24.0000000 28.9011002
vn 1.5707964 1.5707968 -1.5707964
v -23.0000000 -24.0000000 14.3500004
vn 2.6298766 -0.5235893 -4.9036980
v -18.4105186 -16.2970982 28.9086208
vn -0.6155112 -0.1536813 -6.2030859
v -18.4149513 -16.1096306 28.9011002
vn 0.0003761 -0.2187549 -6.2755594
v -23.2074718 -16.1178722 28.9011002
vn 0.0484828 -0.3570240 -6.2666044
v -18.4110413 -16.2029114 28.9011002
vn 1.5707964 -1.5707964 -1.5707967
v -23.0000000 -31.0000000 14.3500004
vn -1.6869868 5.4950061 0.9169322
v -30.0000000 -24.0000000 19.3500004
vn -0.5515434 3.0415788 -2.7828226
v -30.0000000 -24.0000000 14.3500004
vn 1.5707964 -1.5707967 -4.7123885
v -23.0000000 -31.0000000 28.9011002
vn 1.3603486 -2.0943868 -2.3561966
v -18.4149513 -78.0500031 28.9011002
vn -3.0683026 0.1225872 3.1367664
v -30.0000000 -16.0400009 30.9011002
vn -2.2221794 1.6592903 1.8867474
v -30.0000000 6.0000000 28.9011002
vn -2.1223397 1.4707826 -1.9295671
v -50.0000000 -31.5000000 14.3500004
vn -3.0015779 1.9771036 1.7195944
v -50.0000000 -31.5000000 19.3500004
vn -1.0192533 -1.4707818 -5.0711598
v -30.0000000 -26.1360016 14.3500004
vn 2.1223395 -1.4707826 -4.3536186
v -42.0000000 -30.6360016 14.3500004
vn 4.2523141 -0.7853981 -2.6815171
v -28.0000000 -80.5500031 28.9011002
vn 2.1223402 1.4707832 -4.3536191
v -42.0000000 -61.1139984 14.3500004
vn 4.6073484 2.5389178 -0.7797065
v -28.0000000 -66.3639984 17.9979973
vn 4.0008068 2.4242783 -0.8779436
v -42.0000000 -61.1139984 17.6608334
vn 1.3243097 4.9481215 -2.3876514
v -29.4774876 -65.8099442 18.5377293
vn 3.1202621 2.9225354 -2.1393089
v -41.4938126 -61.3038177 18.5377293
vn 4.0008111 -2.4242768 -0.8779448
v -42.0000000 -30.6360016 17.6608334
vn -1.5707964 -1.5707961 -1.5707964
v -30.0000000 -31.0000000 14.3500004
vn 0.3217853 -4.9205222 -3.1200290
v -30.0000000 -31.0000000 23.2197742
vn 3.1202617 -2.9225354 -2.1393099
v -41.4938126 -30.4461823 18.5377293
vn -1.4546061 -2.3534136 -0.9169320
v -30.0000000 -26.1360016 18.5377293
vn 0.7984942 -5.8084693 -1.1251711
v -28.0000000 -31.0000000 23.4668446
vn 1.1107206 -3.9269907 -2.6815174
v -19.3011112 -102.4499969 37.5999870
vn -1.5707963 -4.7123890 1.5707964
v -27.7999992 -102.4499969 14.3500004
vn -2.6815171 -2.3561378 1.1107209
v -27.7999992 -102.4499969 28.3500004
vn -2.6815169 2.3561945 1.1107209
v -27.7999992 -85.1999969 28.3500004
vn 0.6676257 -3.5884316 -2.9897058
v -20.0377426 -102.4499969 26.1349087
vn -1.1107206 -2.3561871 2.6815171
v -19.0499992 -102.4499969 37.0999985
vn -1.1107206 2.3564179 2.6815171
v -19.0499992 -85.1999969 37.0999985
vn 1.8982244 -3.5907435 -2.4033167
v -21.1225243 -102.4499969 25.6195183
vn 2.7547095 -3.5915053 -1.3376970
v -21.8773556 -102.4499969 24.6809673
vn 3.0616255 -3.5937157 -0.0021879
v -22.1499996 -102.4499969 23.5000000
vn 0.5372440 -2.7925210 3.0468621
v 15.1000004 -102.4499969 37.0999985
vn -2.7599285 -3.5885382 -1.3294698
v -17.0192394 -102.4499969 24.6742306
vn -1.9138846 -3.5882347 -2.3920562
v -17.7623234 -102.4499969 25.6074200
vn -0.6914611 -3.5878384 -2.9845026
v -18.8408184 -102.4499969 26.1299591
vn -1.9138846 -3.5882354 -2.3920562
v 30.2376766 -102.4499969 25.6074200
vn 2.1080403 -1.9198625 1.4760659
v 37.7999992 -102.4499969 28.8378754
vn 3.0616255 -3.5937159 -0.0021879
v 25.8500004 -102.4499969 23.5000000
vn -0.6914611 -3.5878384 -2.9845026
v 29.1591816 -102.4499969 26.1299591
vn 0.6676257 -3.5884316 -2.9897058
v 27.9622574 -102.4499969 26.1349087
vn 1.8982244 -3.5907435 -2.4033167
v 26.8774757 -102.4499969 25.6195183
vn 2.7547095 -3.5915055 -1.3376970
v 26.1226444 -102.4499969 24.6809673
vn -2.7599285 -3.5885372 -1.3294698
v 30.9807606 -102.4499969 24.6742306
vn 2.1080403 1.9198673 1.4760658
v 37.7999992 -85.1999969 28.8378754
vn -3.1825275 1.2217308 -4.4281969
v 38.0000000 -85.1999969 29.6290398
vn -0.5372439 -3.4906588 -3.0468621
v 16.1000004 -102.4499969 37.5999870
vn 2.6815171 -0.7853984 -4.2523136
v -19.3011112 -80.5500031 37.5999870
vn 1.3603498 -1.0471977 -5.4977856
v -13.3926458 -78.0500031 37.5999870
vn 1.5707964 -1.5707964 -1.5707965
v -19.3011112 -78.0500031 37.5999870
vn -3.0616255 3.5937200 -0.0021879
v -16.7500000 -85.1999969 23.5000000
vn -2.7547095 -3.5915010 1.3376970
v -17.0226440 -102.4499969 22.3190327
vn -2.7599285 3.5885377 1.3294698
v -17.0192394 -85.1999969 22.3257694
vn -2.7547097 3.5915051 -1.3376970
v -17.0226440 -85.1999969 24.6809673
vn -1.8982244 3.5907438 -2.4033167
v -17.7774754 -85.1999969 25.6195183
vn -0.6676257 3.5884318 -2.9897056
v -18.8622570 -85.1999969 26.1349087
vn 0.6914612 3.5878382 -2.9845026
v -20.0591812 -85.1999969 26.1299591
vn 1.9138846 3.5882349 -2.3920562
v -21.1376762 -85.1999969 25.6074200
vn 2.7599285 3.5885596 -1.3294698
v -21.8807602 -85.1999969 24.6742306
vn 2.7599285 -3.5885382 1.3294698
v -21.8807602 -102.4499969 22.3257694
vn 1.9138846 -3.5882339 2.3920562
v -21.1376762 -102.4499969 21.3925800
vn 0.6914611 -3.5878375 2.9845026
v -20.0591812 -102.4499969 20.8700409
vn -0.6676257 -3.5884321 2.9897058
v -18.8622570 -102.4499969 20.8650913
vn -1.8982244 -3.5907428 2.4033167
v -17.7774754 -102.4499969 21.3804817
vn -2.7547095 -3.5915010 1.3376970
v 30.9773560 -102.4499969 22.3190327
vn -1.8982244 -3.5907428 2.4033167
v 30.2225246 -102.4499969 21.3804817
vn -0.6676257 -3.5884321 2.9897058
v 29.1377430 -102.4499969 20.8650913
vn 0.6914611 -3.5878375 2.9845026
v 27.9408188 -102.4499969 20.8700409
vn 1.9138846 -3.5882339 2.3920562
v 26.8623238 -102.4499969 21.3925800
vn 2.7599285 -3.5885382 1.3294698
v 26.1192398 -102.4499969 22.3257694
vn -3.0616255 3.5937200 -0.0021879
v 31.2500000 -85.1999969 23.5000000
vn -2.7599285 3.5885370 1.3294698
v 30.9807606 -85.1999969 22.3257694
vn -2.7547097 3.5915053 -1.3376970
v 30.9773560 -85.1999969 24.6809673
vn -1.8982244 3.5907435 -2.4033167
v 30.2225246 -85.1999969 25.6195183
vn -0.6676257 3.5884316 -2.9897056
v 29.1377430 -85.1999969 26.1349087
vn 0.6914612 3.5878384 -2.9845026
v 27.9408188 -85.1999969 26.1299591
vn 1.9138846 3.5882347 -2.3920562
v 26.8623238 -85.1999969 25.6074200
vn 2.7599285 3.5885377 -1.3294698
v 26.1192398 -85.1999969 24.6742306
vn -1.9138846 3.5882347 2.3920562
v 30.2376766 -85.1999969 21.3925800
vn 1.0373906 1.1096522 5.7586131
v 16.4526539 -16.0400009 39.5999870
vn -1.3603494 1.0471975 5.4977870
v -14.5473461 -77.5500031 39.5999870
vn 1.9713151 0.8982148 5.8235636
v 28.2263279 -16.0400009 35.3147240
vn 0.7396730 2.2384849 5.7752523
v 14.3513269 -2.0200000 34.2505455
vn -2.4476099 0.8613325 4.3801394
v -14.5473461 -16.0400009 39.5999870
vn -0.8082588 3.8156524 2.6904690
v -12.2500000 12.0000000 28.9011002
vn 1.3954779 1.5504632 5.9209838
v 31.4504433 -4.9603972 31.3936996
vn 1.2014935 1.8375450 5.8840370
v 22.9008846 -3.4901986 32.8221207
vn 2.2248299 1.7152977 1.8626158
v 50.0000000 -0.0000000 28.9011002
vn 0.5835993 0.7964868 6.1912961
v 40.0000000 -6.4305959 29.9652786
vn 4.7123890 1.5707964 -1.5707964
v 50.0000000 -29.0000000 26.6499882
vn 1.5707965 1.5707963 -1.5707965
v 50.0000000 -29.0000000 14.3500004
vn 0.6422163 4.0617447 2.6642783
v 12.2500000 12.0000000 28.9011002
vn 1.0615790 3.3395500 3.1205931
v 40.0000000 3.1788080 28.9011002
vn 1.3432381 3.8297613 3.0010710
v 26.1250000 7.5894041 28.9011002
vn -1.5707963 1.5707964 -1.5707963
v 42.0000000 -29.0000000 14.3500004
vn -1.5707965 -1.5707964 -4.7123895
v 48.0000000 -35.0000000 14.3500004
vn -1.5707964 -1.5707963 -1.5707964
v 42.0000000 -35.0000000 14.3500004
vn -3.0871859 0.4098350 -2.8776288
v 48.0000000 -39.6508713 28.9011002
vn -1.5707964 -1.5707963 -1.5707964
v 48.0000000 -35.0000000 28.9011002
vn -6.1721082 0.7702696 -0.0875659
v 39.0000000 -72.9508667 24.3500004
vn -4.1660585 0.3851326 -3.2152989
v 39.0000000 -72.9508667 29.2650700
vn -3.1396327 3.1915510 -0.0784418
v 39.0000000 -85.1999969 24.3500004
vn -2.1080399 1.9198620 -1.4760659
v 39.0000000 -85.1999969 29.2650700
vn 0.7723021 1.0960798 -5.8375621
v -28.0000000 -55.1715126 28.9011002
vn 1.5707964 -1.5707963 -4.7123890
v -19.3011112 -78.0500031 28.9011002
vn 1.5707964 -1.5707964 -1.5707961
v -19.3011112 -80.5500031 28.9011002
vn 1.5707964 -1.5707964 -1.5707965
v -28.0000000 -31.0000000 28.9011002
vn 0.7723022 -1.0960801 -5.8375607
v -28.0000000 -36.5784874 28.9011002
vn 0.4537668 -2.3221121 -5.1814742
v -29.1369972 -36.5784874 28.9011002
vn 1.4826925 -1.6022345 -5.1209483
v -29.4639378 -36.7010918 28.9011002
vn 0.4611434 -5.1049781 -2.3862572
v -29.3155403 -31.0000000 23.4668446
vn 3.2159421 -1.6804235 -4.0340271
v -38.5362053 -34.6598320 23.6613655
vn 1.4826912 1.6022415 -5.1209412
v -29.4639378 -55.0489082 28.9011002
vn 0.4537697 2.3221130 -5.1814713
v -29.1369972 -55.1715126 28.9011002
vn 3.2159433 1.6804253 -4.0340290
v -38.5362053 -57.0901680 23.6613655
# 617 vertices, 0 vertices normals

f 1//1 2//2 3//3
f 4//4 3//3 2//2
f 5//5 1//1 3//3
f 6//6 5//5 3//3
f 7//7 6//6 3//3
f 7//7 3//3 4//4
f 8//8 9//9 2//2
f 10//10 2//2 9//9
f 11//11 2//2 1//1
f 12//12 8//8 2//2
f 13//13 12//12 2//2
f 14//14 13//13 2//2
f 15//15 14//14 2//2
f 11//11 15//15 2//2
f 10//10 4//4 2//2
f 8//8 16//16 9//9
f 17//17 9//9 16//16
f 10//10 9//9 17//17
f 18//18 19//19 16//16
f 20//20 16//16 19//19
f 21//21 18//18 16//16
f 22//22 21//21 16//16
f 23//23 24//24 16//16
f 25//25 16//16 24//24
f 8//8 23//23 16//16
f 26//26 22//22 16//16
f 27//27 26//26 16//16
f 28//28 27//27 16//16
f 29//29 28//28 16//16
f 25//25 29//29 16//16
f 17//17 16//16 20//20
f 30//30 19//19 18//18
f 20//20 19//19 30//30
f 31//31 32//32 18//18
f 33//33 18//18 32//32
f 21//21 34//34 18//18
f 35//35 18//18 34//34
f 36//36 31//31 18//18
f 37//37 36//36 18//18
f 38//38 37//37 18//18
f 39//39 38//38 18//18
f 35//35 39//39 18//18
f 30//30 18//18 33//33
f 40//40 41//41 32//32
f 42//42 32//32 41//41
f 43//43 40//40 32//32
f 31//31 43//43 32//32
f 33//33 32//32 42//42
f 44//44 45//45 41//41
f 46//46 41//41 45//45
f 40//40 47//47 41//41
f 44//44 41//41 47//47
f 42//42 41//41 48//48
f 49//49 48//48 41//41
f 50//50 49//49 41//41
f 50//50 41//41 46//46
f 51//51 52//52 45//45
f 46//46 45//45 52//52
f 53//53 51//51 45//45
f 44//44 53//53 45//45
f 54//54 55//55 52//52
f 56//56 52//52 55//55
f 57//57 54//54 52//52
f 58//58 57//57 52//52
f 59//59 58//58 52//52
f 51//51 59//59 52//52
f 46//46 52//52 56//56
f 35//35 34//34 55//55
f 60//60 55//55 34//34
f 54//54 35//35 55//55
f 56//56 55//55 60//60
f 21//21 61//61 34//34
f 62//62 34//34 61//61
f 63//63 34//34 62//62
f 60//60 34//34 63//63
f 62//62 61//61 21//21
f 22//22 64//64 21//21
f 65//65 21//21 64//64
f 66//66 21//21 65//65
f 62//62 21//21 66//66
f 67//67 68//68 64//64
f 65//65 64//64 68//68
f 69//69 67//67 64//64
f 70//70 69//69 64//64
f 22//22 70//70 64//64
f 71//71 72//72 68//68
f 73//73 68//68 72//72
f 71//71 68//68 67//67
f 74//74 68//68 73//73
f 65//65 68//68 74//74
f 75//75 76//76 72//72
f 73//73 72//72 76//76
f 77//77 75//75 72//72
f 71//71 77//77 72//72
f 78//78 79//79 76//76
f 80//80 76//76 79//79
f 81//81 78//78 76//76
f 82//82 81//81 76//76
f 75//75 82//82 76//76
f 73//73 76//76 80//80
f 83//83 24//24 79//79
f 84//84 79//79 24//24
f 78//78 83//83 79//79
f 80//80 79//79 84//84
f 23//23 85//85 24//24
f 86//86 24//24 85//85
f 83//83 25//25 24//24
f 87//87 24//24 86//86
f 84//84 24//24 87//87
f 86//86 85//85 23//23
f 88//88 89//89 23//23
f 90//90 23//23 89//89
f 8//8 88//88 23//23
f 91//91 23//23 90//90
f 86//86 23//23 91//91
f 92//92 93//93 89//89
f 90//90 89//89 93//93
f 94//94 92//92 89//89
f 88//88 94//94 89//89
f 95//95 96//96 93//93
f 97//97 93//93 96//96
f 95//95 93//93 92//92
f 98//98 93//93 97//97
f 90//90 93//93 98//98
f 99//99 100//100 96//96
f 97//97 96//96 100//100
f 101//101 99//99 96//96
f 95//95 101//101 96//96
f 102//102 103//103 100//100
f 104//104 100//100 103//103
f 105//105 102//102 100//100
f 99//99 105//105 100//100
f 97//97 100//100 104//104
f 106//106 107//107 103//103
f 108//108 103//103 107//107
f 109//109 106//106 103//103
f 102//102 109//109 103//103
f 104//104 103//103 108//108
f 1//1 110//110 107//107
f 111//111 107//107 110//110
f 11//11 1//1 107//107
f 106//106 11//11 107//107
f 112//112 107//107 111//111
f 108//108 107//107 112//112
f 111//111 110//110 1//1
f 113//113 1//1 5//5
f 114//114 1//1 113//113
f 111//111 1//1 114//114
f 115//115 116//116 5//5
f 113//113 5//5 116//116
f 117//117 5//5 6//6
f 118//118 115//115 5//5
f 119//119 118//118 5//5
f 117//117 119//119 5//5
f 120//120 121//121 116//116
f 122//122 116//116 121//121
f 120//120 116//116 115//115
f 123//123 116//116 122//122
f 113//113 116//116 123//123
f 124//124 125//125 121//121
f 122//122 121//121 125//125
f 120//120 124//124 121//121
f 126//126 127//127 125//125
f 128//128 125//125 127//127
f 129//129 126//126 125//125
f 130//130 129//129 125//125
f 124//124 130//130 125//125
f 122//122 125//125 128//128
f 131//131 132//132 127//127
f 133//133 127//127 132//132
f 134//134 131//131 127//127
f 126//126 134//134 127//127
f 128//128 127//127 133//133
f 6//6 135//135 132//132
f 136//136 132//132 135//135
f 137//137 6//6 132//132
f 131//131 137//137 132//132
f 138//138 132//132 136//136
f 133//133 132//132 138//138
f 139//139 135//135 6//6
f 136//136 135//135 139//139
f 140//140 117//117 6//6
f 141//141 140//140 6//6
f 142//142 141//141 6//6
f 143//143 142//142 6//6
f 137//137 143//143 6//6
f 139//139 6//6 7//7
f 144//144 115//115 118//118
f 145//145 120//120 115//115
f 145//145 115//115 144//144
f 146//146 118//118 119//119
f 147//147 144//144 118//118
f 146//146 147//147 118//118
f 148//148 119//119 117//117
f 148//148 146//146 119//119
f 149//149 117//117 140//140
f 149//149 148//148 117//117
f 150//150 140//140 141//141
f 150//150 149//149 140//140
f 151//151 141//141 142//142
f 151//151 150//150 141//141
f 152//152 142//142 143//143
f 152//152 151//151 142//142
f 152//152 143//143 137//137
f 153//153 137//137 131//131
f 153//153 152//152 137//137
f 154//154 131//131 134//134
f 155//155 153//153 131//131
f 154//154 155//155 131//131
f 156//156 134//134 126//126
f 156//156 154//154 134//134
f 157//157 126//126 129//129
f 157//157 156//156 126//126
f 158//158 129//129 130//130
f 158//158 157//157 129//129
f 159//159 130//130 124//124
f 159//159 158//158 130//130
f 145//145 124//124 120//120
f 145//145 159//159 124//124
f 160//160 67//67 69//69
f 161//161 71//71 67//67
f 161//161 67//67 160//160
f 162//162 69//69 70//70
f 163//163 160//160 69//69
f 162//162 163//163 69//69
f 164//164 70//70 22//22
f 164//164 162//162 70//70
f 165//165 22//22 26//26
f 165//165 164//164 22//22
f 166//166 26//26 27//27
f 166//166 165//165 26//26
f 167//167 27//27 28//28
f 167//167 166//166 27//27
f 168//168 28//28 29//29
f 168//168 167//167 28//28
f 168//168 29//29 25//25
f 169//169 25//25 83//83
f 169//169 168//168 25//25
f 170//170 83//83 78//78
f 171//171 169//169 83//83
f 170//170 171//171 83//83
f 172//172 78//78 81//81
f 172//172 170//170 78//78
f 173//173 81//81 82//82
f 173//173 172//172 81//81
f 174//174 82//82 75//75
f 174//174 173//173 82//82
f 175//175 75//75 77//77
f 175//175 174//174 75//75
f 161//161 77//77 71//71
f 161//161 175//175 77//77
f 176//176 47//47 40//40
f 177//177 44//44 47//47
f 177//177 47//47 176//176
f 178//178 40//40 43//43
f 179//179 176//176 40//40
f 178//178 179//179 40//40
f 180//180 43//43 31//31
f 180//180 178//178 43//43
f 181//181 31//31 36//36
f 181//181 180//180 31//31
f 182//182 36//36 37//37
f 182//182 181//181 36//36
f 183//183 37//37 38//38
f 183//183 182//182 37//37
f 184//184 38//38 39//39
f 184//184 183//183 38//38
f 184//184 39//39 35//35
f 185//185 35//35 54//54
f 185//185 184//184 35//35
f 186//186 54//54 57//57
f 187//187 185//185 54//54
f 186//186 187//187 54//54
f 188//188 57//57 58//58
f 188//188 186//186 57//57
f 189//189 58//58 59//59
f 189//189 188//188 58//58
f 190//190 59//59 51//51
f 190//190 189//189 59//59
f 191//191 51//51 53//53
f 191//191 190//190 51//51
f 177//177 53//53 44//44
f 177//177 191//191 53//53
f 192//192 92//92 94//94
f 193//193 95//95 92//92
f 193//193 92//92 192//192
f 194//194 94//94 88//88
f 195//195 192//192 94//94
f 194//194 195//195 94//94
f 196//196 88//88 8//8
f 196//196 194//194 88//88
f 197//197 8//8 12//12
f 197//197 196//196 8//8
f 198//198 12//12 13//13
f 198//198 197//197 12//12
f 199//199 13//13 14//14
f 199//199 198//198 13//13
f 200//200 14//14 15//15
f 200//200 199//199 14//14
f 200//200 15//15 11//11
f 201//201 11//11 106//106
f 201//201 200//200 11//11
f 202//202 106//106 109//109
f 203//203 201//201 106//106
f 202//202 203//203 106//106
f 204//204 109//109 102//102
f 204//204 202//202 109//109
f 205//205 102//102 105//105
f 205//205 204//204 102//102
f 206//206 105//105 99//99
f 206//206 205//205 105//105
f 207//207 99//99 101//101
f 207//207 206//206 99//99
f 193//193 101//101 95//95
f 193//193 207//207 101//101
f 33//33 7//7 4//4
f 20//20 33//33 4//4
f 10//10 20//20 4//4
f 139//139 7//7 33//33
f 208//208 209//209 210//210
f 211//211 210//210 209//209
f 212//212 208//208 210//210
f 213//213 214//214 210//210
f 212//212 210//210 214//214
f 215//215 213//213 210//210
f 216//216 215//215 210//210
f 211//211 216//216 210//210
f 208//208 217//217 209//209
f 218//218 209//209 217//217
f 219//219 209//209 218//218
f 219//219 220//220 209//209
f 221//221 209//209 220//220
f 211//211 209//209 221//221
f 222//222 48//48 217//217
f 218//218 217//217 48//48
f 223//223 222//222 217//217
f 208//208 223//223 217//217
f 33//33 42//42 48//48
f 139//139 33//33 48//48
f 222//222 139//139 48//48
f 49//49 218//218 48//48
f 20//20 30//30 33//33
f 10//10 17//17 20//20
f 224//224 139//139 222//222
f 136//136 139//139 225//225
f 226//226 225//225 139//139
f 224//224 226//226 139//139
f 227//227 222//222 223//223
f 228//228 222//222 227//227
f 229//229 222//222 228//228
f 229//229 224//224 222//222
f 230//230 223//223 208//208
f 227//227 223//223 231//231
f 232//232 231//231 223//223
f 233//233 223//223 230//230
f 233//233 232//232 223//223
f 234//234 208//208 212//212
f 235//235 208//208 234//234
f 230//230 208//208 235//235
f 56//56 218//218 49//49
f 60//60 219//219 218//218
f 56//56 60//60 218//218
f 46//46 56//56 49//49
f 50//50 46//46 49//49
f 236//236 237//237 220//220
f 238//238 220//220 237//237
f 239//239 236//236 220//220
f 219//219 239//239 220//220
f 216//216 221//221 220//220
f 240//240 216//216 220//220
f 241//241 242//242 220//220
f 243//243 220//220 242//242
f 238//238 241//241 220//220
f 244//244 220//220 245//245
f 246//246 245//245 220//220
f 247//247 220//220 244//244
f 248//248 240//240 220//220
f 249//249 248//248 220//220
f 247//247 249//249 220//220
f 250//250 220//220 251//251
f 243//243 251//251 220//220
f 252//252 246//246 220//220
f 253//253 252//252 220//220
f 254//254 253//253 220//220
f 250//250 254//254 220//220
f 255//255 237//237 236//236
f 255//255 238//238 237//237
f 239//239 256//256 236//236
f 257//257 236//236 256//256
f 258//258 255//255 236//236
f 259//259 258//258 236//236
f 260//260 236//236 257//257
f 259//259 236//236 260//260
f 261//261 256//256 239//239
f 261//261 262//262 256//256
f 257//257 256//256 262//262
f 214//214 239//239 219//219
f 263//263 239//239 214//214
f 263//263 261//261 239//239
f 227//227 219//219 225//225
f 133//133 225//225 219//219
f 227//227 231//231 219//219
f 212//212 219//219 231//231
f 212//212 214//214 219//219
f 128//128 133//133 219//219
f 122//122 128//128 219//219
f 123//123 122//122 219//219
f 108//108 123//123 219//219
f 104//104 108//108 219//219
f 97//97 104//104 219//219
f 98//98 97//97 219//219
f 86//86 98//98 219//219
f 84//84 86//86 219//219
f 80//80 84//84 219//219
f 73//73 80//80 219//219
f 74//74 73//73 219//219
f 65//65 74//74 219//219
f 62//62 65//65 219//219
f 60//60 62//62 219//219
f 211//211 221//221 216//216
f 264//264 265//265 266//266
f 251//251 266//266 265//265
f 267//267 264//264 266//266
f 267//267 266//266 251//251
f 268//268 269//269 265//265
f 250//250 265//265 269//269
f 264//264 268//268 265//265
f 250//250 251//251 265//265
f 270//270 271//271 269//269
f 254//254 269//269 271//271
f 268//268 270//270 269//269
f 250//250 269//269 254//254
f 272//272 273//273 271//271
f 253//253 271//271 273//273
f 270//270 272//272 271//271
f 254//254 271//271 253//253
f 274//274 275//275 273//273
f 252//252 273//273 275//275
f 272//272 274//274 273//273
f 253//253 273//273 252//252
f 276//276 277//277 275//275
f 246//246 275//275 277//277
f 274//274 276//276 275//275
f 252//252 275//275 246//246
f 276//276 278//278 277//277
f 279//279 277//277 278//278
f 246//246 277//277 279//279
f 280//280 278//278 276//276
f 279//279 278//278 280//280
f 281//281 276//276 274//274
f 280//280 276//276 281//281
f 282//282 274//274 272//272
f 281//281 274//274 282//282
f 283//283 272//272 270//270
f 282//282 272//272 283//283
f 284//284 270//270 268//268
f 283//283 270//270 284//284
f 285//285 268//268 264//264
f 284//284 268//268 285//285
f 285//285 264//264 267//267
f 286//286 287//287 288//288
f 244//244 288//288 287//287
f 289//289 286//286 288//288
f 289//289 288//288 244//244
f 290//290 291//291 287//287
f 247//247 287//287 291//291
f 286//286 290//290 287//287
f 247//247 244//244 287//287
f 292//292 293//293 291//291
f 249//249 291//291 293//293
f 290//290 292//292 291//291
f 247//247 291//291 249//249
f 294//294 295//295 293//293
f 248//248 293//293 295//295
f 292//292 294//294 293//293
f 249//249 293//293 248//248
f 296//296 297//297 295//295
f 240//240 295//295 297//297
f 294//294 296//296 295//295
f 248//248 295//295 240//240
f 298//298 299//299 297//297
f 300//300 297//297 299//299
f 296//296 298//298 297//297
f 240//240 297//297 300//300
f 298//298 301//301 299//299
f 302//302 299//299 301//301
f 300//300 299//299 302//302
f 303//303 301//301 298//298
f 302//302 301//301 303//303
f 304//304 298//298 296//296
f 303//303 298//298 304//304
f 305//305 296//296 294//294
f 304//304 296//296 305//305
f 306//306 294//294 292//292
f 305//305 294//294 306//306
f 307//307 292//292 290//290
f 306//306 292//292 307//307
f 308//308 290//290 286//286
f 307//307 290//290 308//308
f 308//308 286//286 289//289
f 133//133 136//136 225//225
f 309//309 227//227 225//225
f 226//226 309//309 225//225
f 133//133 138//138 136//136
f 310//310 212//212 231//231
f 311//311 310//310 231//231
f 312//312 311//311 231//231
f 313//313 312//312 231//231
f 314//314 313//313 231//231
f 315//315 314//314 231//231
f 316//316 315//315 231//231
f 232//232 316//316 231//231
f 309//309 228//228 227//227
f 317//317 214//214 213//213
f 318//318 214//214 317//317
f 319//319 263//263 214//214
f 320//320 214//214 321//321
f 318//318 321//321 214//214
f 322//322 323//323 214//214
f 324//324 214//214 323//323
f 325//325 322//322 214//214
f 326//326 325//325 214//214
f 320//320 326//326 214//214
f 327//327 214//214 328//328
f 324//324 328//328 214//214
f 329//329 330//330 214//214
f 331//331 214//214 330//330
f 332//332 329//329 214//214
f 327//327 332//332 214//214
f 331//331 319//319 214//214
f 333//333 334//334 213//213
f 317//317 213//213 334//334
f 215//215 333//333 213//213
f 335//335 334//334 333//333
f 336//336 317//317 334//334
f 337//337 336//336 334//334
f 335//335 337//337 334//334
f 215//215 338//338 333//333
f 335//335 333//333 338//338
f 339//339 338//338 215//215
f 339//339 340//340 338//338
f 335//335 338//338 340//340
f 216//216 341//341 215//215
f 342//342 215//215 341//341
f 343//343 215//215 342//342
f 339//339 215//215 343//343
f 344//344 341//341 216//216
f 344//344 345//345 341//341
f 346//346 341//341 345//345
f 342//342 341//341 346//346
f 302//302 344//344 216//216
f 300//300 302//302 216//216
f 240//240 300//300 216//216
f 310//310 234//234 212//212
f 111//111 113//113 123//123
f 108//108 111//111 123//123
f 111//111 114//114 113//113
f 108//108 112//112 111//111
f 86//86 90//90 98//98
f 86//86 91//91 90//90
f 84//84 87//87 86//86
f 62//62 66//66 65//65
f 60//60 63//63 62//62
f 347//347 234//234 310//310
f 347//347 348//348 234//234
f 235//235 234//234 348//348
f 349//349 347//347 310//310
f 350//350 349//349 310//310
f 311//311 350//350 310//310
f 226//226 228//228 309//309
f 226//226 351//351 228//228
f 352//352 228//228 351//351
f 353//353 229//229 228//228
f 354//354 355//355 228//228
f 356//356 228//228 355//355
f 357//357 354//354 228//228
f 358//358 357//357 228//228
f 352//352 358//358 228//228
f 356//356 353//353 228//228
f 145//145 144//144 147//147
f 145//145 147//147 146//146
f 159//159 146//146 148//148
f 145//145 146//146 159//159
f 158//158 148//148 149//149
f 159//159 148//148 158//158
f 157//157 149//149 150//150
f 158//158 149//149 157//157
f 156//156 150//150 151//151
f 157//157 150//150 156//156
f 154//154 151//151 152//152
f 156//156 151//151 154//154
f 155//155 152//152 153//153
f 154//154 152//152 155//155
f 161//161 160//160 163//163
f 161//161 163//163 162//162
f 175//175 162//162 164//164
f 161//161 162//162 175//175
f 174//174 164//164 165//165
f 175//175 164//164 174//174
f 173//173 165//165 166//166
f 174//174 165//165 173//173
f 172//172 166//166 167//167
f 173//173 166//166 172//172
f 170//170 167//167 168//168
f 172//172 167//167 170//170
f 171//171 168//168 169//169
f 170//170 168//168 171//171
f 177//177 176//176 179//179
f 177//177 179//179 178//178
f 191//191 178//178 180//180
f 177//177 178//178 191//191
f 190//190 180//180 181//181
f 191//191 180//180 190//190
f 189//189 181//181 182//182
f 190//190 181//181 189//189
f 188//188 182//182 183//183
f 189//189 182//182 188//188
f 186//186 183//183 184//184
f 188//188 183//183 186//186
f 187//187 184//184 185//185
f 186//186 184//184 187//187
f 193//193 192//192 195//195
f 193//193 195//195 194//194
f 207//207 194//194 196//196
f 193//193 194//194 207//207
f 206//206 196//196 197//197
f 207//207 196//196 206//206
f 205//205 197//197 198//198
f 206//206 197//197 205//205
f 204//204 198//198 199//199
f 205//205 198//198 204//204
f 202//202 199//199 200//200
f 204//204 199//199 202//202
f 203//203 200//200 201//201
f 202//202 200//200 203//203
f 224//224 351//351 226//226
f 229//229 351//351 224//224
f 359//359 351//351 229//229
f 360//360 352//352 351//351
f 361//361 360//360 351//351
f 359//359 361//361 351//351
f 362//362 359//359 229//229
f 363//363 362//362 229//229
f 364//364 363//363 229//229
f 365//365 364//364 229//229
f 353//353 365//365 229//229
f 366//366 355//355 354//354
f 367//367 356//356 355//355
f 366//366 367//367 355//355
f 368//368 354//354 357//357
f 368//368 366//366 354//354
f 369//369 357//357 358//358
f 369//369 368//368 357//357
f 370//370 358//358 352//352
f 370//370 369//369 358//358
f 371//371 352//352 360//360
f 371//371 370//370 352//352
f 372//372 360//360 361//361
f 372//372 371//371 360//360
f 373//373 361//361 359//359
f 373//373 372//372 361//361
f 374//374 359//359 362//362
f 373//373 359//359 374//374
f 375//375 362//362 363//363
f 375//375 374//374 362//362
f 376//376 363//363 364//364
f 376//376 375//375 363//363
f 377//377 364//364 365//365
f 377//377 376//376 364//364
f 378//378 365//365 353//353
f 378//378 377//377 365//365
f 379//379 353//353 356//356
f 379//379 378//378 353//353
f 367//367 379//379 356//356
f 373//373 374//374 375//375
f 373//373 375//375 376//376
f 380//380 376//376 377//377
f 381//381 373//373 376//376
f 380//380 381//381 376//376
f 382//382 377//377 378//378
f 383//383 377//377 382//382
f 383//383 380//380 377//377
f 384//384 378//378 379//379
f 384//384 382//382 378//378
f 385//385 379//379 367//367
f 386//386 384//384 379//379
f 385//385 386//386 379//379
f 368//368 367//367 366//366
f 387//387 367//367 368//368
f 387//387 385//385 367//367
f 387//387 368//368 369//369
f 388//388 369//369 370//370
f 388//388 387//387 369//369
f 389//389 370//370 371//371
f 390//390 388//388 370//370
f 389//389 390//390 370//370
f 391//391 371//371 372//372
f 391//391 389//389 371//371
f 392//392 372//372 373//373
f 393//393 391//391 372//372
f 392//392 393//393 372//372
f 381//381 392//392 373//373
f 394//394 382//382 384//384
f 395//395 383//383 382//382
f 395//395 382//382 394//394
f 396//396 384//384 386//386
f 396//396 394//394 384//384
f 397//397 386//386 385//385
f 397//397 396//396 386//386
f 398//398 385//385 387//387
f 398//398 397//397 385//385
f 399//399 387//387 388//388
f 399//399 398//398 387//387
f 400//400 388//388 390//390
f 400//400 399//399 388//388
f 401//401 390//390 389//389
f 401//401 400//400 390//390
f 402//402 389//389 391//391
f 402//402 401//401 389//389
f 403//403 391//391 393//393
f 403//403 402//402 391//391
f 404//404 393//393 392//392
f 404//404 403//403 393//393
f 405//405 392//392 381//381
f 405//405 404//404 392//392
f 406//406 381//381 380//380
f 406//406 405//405 381//381
f 407//407 380//380 383//383
f 407//407 406//406 380//380
f 395//395 407//407 383//383
f 402//402 394//394 396//396
f 403//403 394//394 402//402
f 395//395 394//394 403//403
f 400//400 396//396 397//397
f 401//401 396//396 400//400
f 402//402 396//396 401//401
f 399//399 397//397 398//398
f 400//400 397//397 399//399
f 407//407 403//403 404//404
f 395//395 403//403 407//407
f 406//406 404//404 405//405
f 407//407 404//404 406//406
f 230//230 348//348 347//347
f 230//230 235//235 348//348
f 233//233 230//230 347//347
f 408//408 409//409 347//347
f 233//233 347//347 409//409
f 410//410 408//408 347//347
f 411//411 410//410 347//347
f 349//349 411//411 347//347
f 412//412 409//409 408//408
f 413//413 233//233 409//409
f 412//412 413//413 409//409
f 414//414 408//408 410//410
f 414//414 412//412 408//408
f 415//415 410//410 411//411
f 415//415 414//414 410//410
f 416//416 411//411 349//349
f 416//416 415//415 411//411
f 417//417 349//349 350//350
f 417//417 416//416 349//349
f 418//418 350//350 311//311
f 418//418 417//417 350//350
f 419//419 311//311 312//312
f 419//419 418//418 311//311
f 420//420 312//312 313//313
f 419//419 312//312 420//420
f 421//421 313//313 314//314
f 421//421 420//420 313//313
f 422//422 314//314 315//315
f 422//422 421//421 314//314
f 423//423 315//315 316//316
f 423//423 422//422 315//315
f 424//424 316//316 232//232
f 424//424 423//423 316//316
f 425//425 232//232 233//233
f 425//425 424//424 232//232
f 413//413 425//425 233//233
f 419//419 420//420 421//421
f 419//419 421//421 422//422
f 426//426 422//422 423//423
f 427//427 419//419 422//422
f 426//426 427//427 422//422
f 428//428 423//423 424//424
f 429//429 426//426 423//423
f 428//428 429//429 423//423
f 430//430 424//424 425//425
f 430//430 428//428 424//424
f 431//431 425//425 413//413
f 432//432 430//430 425//425
f 431//431 432//432 425//425
f 414//414 413//413 412//412
f 433//433 413//413 414//414
f 433//433 431//431 413//413
f 433//433 414//414 415//415
f 434//434 415//415 416//416
f 434//434 433//433 415//415
f 435//435 416//416 417//417
f 436//436 416//416 435//435
f 436//436 434//434 416//416
f 437//437 417//417 418//418
f 437//437 435//435 417//417
f 438//438 418//418 419//419
f 439//439 437//437 418//418
f 438//438 439//439 418//418
f 427//427 438//438 419//419
f 440//440 435//435 437//437
f 441//441 436//436 435//435
f 441//441 435//435 440//440
f 442//442 437//437 439//439
f 442//442 440//440 437//437
f 443//443 439//439 438//438
f 443//443 442//442 439//439
f 444//444 438//438 427//427
f 444//444 443//443 438//438
f 445//445 427//427 426//426
f 445//445 444//444 427//427
f 446//446 426//426 429//429
f 446//446 445//445 426//426
f 447//447 429//429 428//428
f 447//447 446//446 429//429
f 448//448 428//428 430//430
f 448//448 447//447 428//428
f 449//449 430//430 432//432
f 449//449 448//448 430//430
f 450//450 432//432 431//431
f 450//450 449//449 432//432
f 451//451 431//431 433//433
f 451//451 450//450 431//431
f 452//452 433//433 434//434
f 452//452 451//451 433//433
f 453//453 434//434 436//436
f 453//453 452//452 434//434
f 441//441 453//453 436//436
f 448//448 440//440 442//442
f 449//449 440//440 448//448
f 441//441 440//440 449//449
f 446//446 442//442 443//443
f 447//447 442//442 446//446
f 448//448 442//442 447//447
f 445//445 443//443 444//444
f 446//446 443//443 445//445
f 453//453 449//449 450//450
f 441//441 449//449 453//453
f 452//452 450//450 451//451
f 453//453 450//450 452//452
f 454//454 455//455 456//456
f 457//457 456//456 455//455
f 458//458 454//454 456//456
f 459//459 458//458 456//456
f 457//457 459//459 456//456
f 460//460 461//461 455//455
f 462//462 455//455 461//461
f 454//454 460//460 455//455
f 463//463 455//455 462//462
f 464//464 455//455 463//463
f 457//457 455//455 464//464
f 465//465 461//461 460//460
f 466//466 461//461 465//465
f 462//462 461//461 466//466
f 458//458 460//460 454//454
f 465//465 460//460 458//458
f 465//465 458//458 467//467
f 468//468 467//467 458//458
f 469//469 465//465 467//467
f 470//470 469//469 467//467
f 471//471 472//472 467//467
f 470//470 467//467 472//472
f 468//468 471//471 467//467
f 468//468 458//458 459//459
f 468//468 459//459 457//457
f 469//469 473//473 465//465
f 466//466 465//465 473//473
f 470//470 473//473 469//469
f 466//466 473//473 470//470
f 470//470 474//474 475//475
f 476//476 475//475 474//474
f 477//477 470//470 475//475
f 476//476 477//477 475//475
f 470//470 478//478 474//474
f 476//476 474//474 478//478
f 470//470 472//472 478//478
f 479//479 478//478 472//472
f 480//480 476//476 478//478
f 480//480 478//478 479//479
f 481//481 482//482 472//472
f 483//483 472//472 482//482
f 471//471 481//481 472//472
f 483//483 479//479 472//472
f 484//484 482//482 481//481
f 483//483 482//482 484//484
f 468//468 481//481 471//471
f 485//485 481//481 468//468
f 486//486 481//481 485//485
f 487//487 481//481 486//486
f 487//487 484//484 481//481
f 488//488 470//470 477//477
f 489//489 466//466 470//470
f 488//488 489//489 470//470
f 490//490 491//491 477//477
f 492//492 477//477 491//491
f 476//476 490//490 477//477
f 493//493 477//477 492//492
f 494//494 477//477 493//493
f 495//495 477//477 494//494
f 495//495 488//488 477//477
f 496//496 491//491 490//490
f 497//497 492//492 491//491
f 496//496 497//497 491//491
f 480//480 490//490 476//476
f 498//498 496//496 490//490
f 480//480 499//499 500//500
f 501//501 498//498 490//490
f 500//500 490//490 480//480
f 501//501 490//490 500//500
f 493//493 492//492 497//497
f 502//502 497//497 496//496
f 503//503 493//493 497//497
f 504//504 503//503 497//497
f 502//502 504//504 497//497
f 505//505 502//502 496//496
f 506//506 496//496 498//498
f 505//505 496//496 506//506
f 340//340 493//493 503//503
f 507//507 493//493 340//340
f 508//508 493//493 507//507
f 508//508 494//494 493//493
f 509//509 503//503 504//504
f 510//510 503//503 509//509
f 510//510 340//340 503//503
f 511//511 512//512 504//504
f 509//509 504//504 512//512
f 502//502 511//511 504//504
f 513//513 317//317 336//336
f 344//344 317//317 345//345
f 513//513 345//345 317//317
f 318//318 317//317 344//344
f 337//337 514//514 336//336
f 515//515 336//336 514//514
f 515//515 513//513 336//336
f 509//509 512//512 514//514
f 516//516 514//514 512//512
f 337//337 509//509 514//514
f 517//517 515//515 514//514
f 518//518 517//517 514//514
f 516//516 518//518 514//514
f 519//519 512//512 511//511
f 516//516 512//512 519//519
f 502//502 520//520 511//511
f 521//521 511//511 520//520
f 519//519 511//511 522//522
f 523//523 522//522 511//511
f 521//521 523//523 511//511
f 505//505 520//520 502//502
f 524//524 520//520 505//505
f 524//524 521//521 520//520
f 510//510 509//509 337//337
f 510//510 337//337 335//335
f 346//346 345//345 525//525
f 513//513 525//525 345//345
f 302//302 526//526 344//344
f 318//318 344//344 526//526
f 302//302 527//527 526//526
f 528//528 526//526 527//527
f 318//318 526//526 528//528
f 529//529 530//530 527//527
f 531//531 527//527 530//530
f 532//532 529//529 527//527
f 533//533 532//532 527//527
f 534//534 533//533 527//527
f 303//303 534//534 527//527
f 302//302 303//303 527//527
f 528//528 527//527 531//531
f 245//245 535//535 530//530
f 531//531 530//530 535//535
f 536//536 245//245 530//530
f 537//537 536//536 530//530
f 538//538 537//537 530//530
f 529//529 538//538 530//530
f 539//539 540//540 535//535
f 324//324 535//535 540//540
f 279//279 535//535 245//245
f 279//279 280//280 535//535
f 541//541 535//535 280//280
f 542//542 539//539 535//535
f 543//543 542//542 535//535
f 544//544 543//543 535//535
f 545//545 544//544 535//535
f 541//541 545//545 535//535
f 531//531 535//535 324//324
f 546//546 242//242 540//540
f 331//331 540//540 242//242
f 539//539 546//546 540//540
f 547//547 540//540 331//331
f 324//324 540//540 547//547
f 319//319 242//242 241//241
f 546//546 243//243 242//242
f 331//331 242//242 319//319
f 548//548 241//241 238//238
f 548//548 319//319 241//241
f 255//255 549//549 238//238
f 486//486 238//238 549//549
f 486//486 548//548 238//238
f 346//346 525//525 549//549
f 550//550 549//549 525//525
f 255//255 346//346 549//549
f 551//551 486//486 549//549
f 552//552 549//549 550//550
f 552//552 551//551 549//549
f 550//550 525//525 513//513
f 553//553 245//245 536//536
f 244//244 245//245 554//554
f 555//555 554//554 245//245
f 246//246 279//279 245//245
f 555//555 245//245 553//553
f 556//556 536//536 537//537
f 553//553 536//536 556//556
f 557//557 537//537 538//538
f 556//556 537//537 557//557
f 558//558 538//538 529//529
f 557//557 538//538 558//558
f 559//559 529//529 532//532
f 558//558 529//529 559//559
f 560//560 532//532 533//533
f 559//559 532//532 560//560
f 561//561 533//533 534//534
f 560//560 533//533 561//561
f 304//304 562//562 534//534
f 321//321 534//534 562//562
f 303//303 304//304 534//534
f 561//561 534//534 321//321
f 304//304 563//563 562//562
f 320//320 562//562 563//563
f 320//320 321//321 562//562
f 305//305 564//564 563//563
f 326//326 563//563 564//564
f 304//304 305//305 563//563
f 320//320 563//563 326//326
f 306//306 565//565 564//564
f 325//325 564//564 565//565
f 305//305 306//306 564//564
f 326//326 564//564 325//325
f 307//307 566//566 565//565
f 322//322 565//565 566//566
f 306//306 307//307 565//565
f 325//325 565//565 322//322
f 308//308 554//554 566//566
f 323//323 566//566 554//554
f 307//307 308//308 566//566
f 322//322 566//566 323//323
f 289//289 244//244 554//554
f 308//308 289//289 554//554
f 323//323 554//554 555//555
f 567//567 267//267 251//251
f 567//567 251//251 243//243
f 567//567 285//285 267//267
f 568//568 284//284 285//285
f 567//567 568//568 285//285
f 569//569 283//283 284//284
f 568//568 569//569 284//284
f 570//570 282//282 283//283
f 569//569 570//570 283//283
f 571//571 281//281 282//282
f 570//570 571//571 282//282
f 541//541 280//280 281//281
f 572//572 541//541 281//281
f 571//571 572//572 281//281
f 573//573 243//243 546//546
f 574//574 567//567 243//243
f 574//574 243//243 573//573
f 575//575 546//546 539//539
f 573//573 546//546 575//575
f 576//576 539//539 542//542
f 575//575 539//539 576//576
f 577//577 542//542 543//543
f 576//576 542//542 577//577
f 578//578 543//543 544//544
f 577//577 543//543 578//578
f 579//579 544//544 545//545
f 578//578 544//544 579//579
f 580//580 545//545 541//541
f 579//579 545//545 580//580
f 328//328 541//541 572//572
f 580//580 541//541 328//328
f 327//327 572//572 571//571
f 327//327 328//328 572//572
f 332//332 571//571 570//570
f 327//327 571//571 332//332
f 329//329 570//570 569//569
f 332//332 570//570 329//329
f 330//330 569//569 568//568
f 329//329 569//569 330//330
f 581//581 568//568 567//567
f 330//330 568//568 581//581
f 581//581 567//567 574//574
f 582//582 346//346 255//255
f 583//583 346//346 582//582
f 583//583 342//342 346//346
f 584//584 582//582 255//255
f 258//258 584//584 255//255
f 585//585 582//582 584//584
f 586//586 583//583 582//582
f 587//587 586//586 582//582
f 587//587 582//582 585//585
f 588//588 584//584 258//258
f 589//589 585//585 584//584
f 588//588 589//589 584//584
f 590//590 258//258 259//259
f 591//591 258//258 590//590
f 588//588 258//258 591//591
f 343//343 342//342 583//583
f 343//343 583//583 586//586
f 339//339 343//343 586//586
f 587//587 339//339 586//586
f 339//339 507//507 340//340
f 510//510 335//335 340//340
f 587//587 507//507 339//339
f 587//587 508//508 507//507
f 587//587 494//494 508//508
f 587//587 495//495 494//494
f 489//489 592//592 466//466
f 593//593 466//466 592//592
f 463//463 462//462 466//466
f 593//593 463//463 466//466
f 259//259 592//592 489//489
f 260//260 593//593 592//592
f 259//259 260//260 592//592
f 590//590 489//489 488//488
f 590//590 259//259 489//489
f 594//594 488//488 495//495
f 595//595 590//590 488//488
f 596//596 595//595 488//488
f 596//596 488//488 594//594
f 587//587 594//594 495//495
f 593//593 597//597 463//463
f 464//464 463//463 597//597
f 598//598 597//597 593//593
f 599//599 464//464 597//597
f 599//599 597//597 598//598
f 257//257 598//598 593//593
f 260//260 257//257 593//593
f 600//600 464//464 601//601
f 599//599 601//601 464//464
f 598//598 600//600 601//601
f 599//599 598//598 601//601
f 600//600 457//457 464//464
f 261//261 457//457 600//600
f 261//261 602//602 457//457
f 603//603 457//457 602//602
f 486//486 457//457 603//603
f 485//485 468//468 457//457
f 486//486 485//485 457//457
f 262//262 600//600 598//598
f 261//261 600//600 262//262
f 257//257 262//262 598//598
f 263//263 602//602 261//261
f 604//604 603//603 602//602
f 604//604 602//602 263//263
f 605//605 603//603 604//604
f 486//486 603//603 605//605
f 319//319 604//604 263//263
f 605//605 604//604 319//319
f 531//531 561//561 321//321
f 318//318 531//531 321//321
f 531//531 560//560 561//561
f 531//531 559//559 560//560
f 531//531 558//558 559//559
f 324//324 557//557 558//558
f 531//531 324//324 558//558
f 324//324 556//556 557//557
f 324//324 553//553 556//556
f 324//324 555//555 553//553
f 324//324 323//323 555//555
f 324//324 580//580 328//328
f 324//324 579//579 580//580
f 324//324 578//578 579//579
f 547//547 577//577 578//578
f 324//324 547//547 578//578
f 547//547 576//576 577//577
f 547//547 575//575 576//576
f 547//547 573//573 575//575
f 547//547 574//574 573//573
f 547//547 581//581 574//574
f 331//331 330//330 581//581
f 547//547 331//331 581//581
f 548//548 605//605 319//319
f 318//318 528//528 531//531
f 486//486 605//605 548//548
f 483//483 487//487 486//486
f 551//551 483//483 486//486
f 595//595 591//591 590//590
f 596//596 591//591 595//595
f 596//596 588//588 591//591
f 594//594 585//585 589//589
f 587//587 585//585 594//594
f 596//596 589//589 588//588
f 596//596 594//594 589//589
f 483//483 484//484 487//487
f 498//498 479//479 483//483
f 498//498 480//480 479//479
f 551//551 498//498 483//483
f 501//501 480//480 498//498
f 501//501 499//499 480//480
f 551//551 506//506 498//498
f 501//501 500//500 499//499
f 606//606 607//607 608//608
f 552//552 608//608 607//607
f 513//513 606//606 608//608
f 550//550 513//513 608//608
f 552//552 550//550 608//608
f 606//606 506//506 607//607
f 551//551 607//607 506//506
f 552//552 607//607 551//551
f 609//609 505//505 506//506
f 610//610 609//609 506//506
f 611//611 610//610 506//506
f 612//612 611//611 506//506
f 606//606 612//612 506//506
f 524//524 505//505 609//609
f 524//524 609//609 610//610
f 613//613 610//610 611//611
f 524//524 610//610 613//613
f 614//614 611//611 612//612
f 613//613 611//611 614//614
f 606//606 615//615 612//612
f 614//614 612//612 615//615
f 606//606 616//616 615//615
f 517//517 615//615 616//616
f 617//617 615//615 517//517
f 614//614 615//615 617//617
f 515//515 616//616 606//606
f 517//517 616//616 515//515
f 515//515 606//606 513//513
f 518//518 617//617 517//517
f 516//516 617//617 518//518
f 519//519 614//614 617//617
f 516//516 519//519 617//617
f 519//519 522//522 614//614
f 521//521 614//614 522//522
f 613//613 614//614 521//521
f 521//521 522//522 523//523
f 524//524 613//613 521//521
# 1242 faces, 0 coords texture

# End of File
