####
#
# OBJ File Generated by Meshlab
#
####
# Object ph_distal.obj
#
# Vertices: 133
# Faces: 262
#
####
vn 0.1175502 -3.1371884 3.0666881
v 12.8336725 -10.4894447 6.7500000
vn -0.2422113 -3.1228061 -2.9867737
v 4.5000000 -10.4894447 -6.7500000
vn 0.1175457 -3.1371884 -3.0666938
v 12.8336725 -10.4894447 -6.7500000
vn -0.3517888 3.1009727 -3.3714771
v 17.8615017 6.4646220 -6.7500000
vn 0.4674813 -3.0977142 -2.9918337
v 14.3988237 -10.3719921 -6.7500000
vn 0.0379997 -0.0078132 -6.2829256
v 17.3891411 4.3189373 -6.7500000
vn -0.2422964 -3.1227932 2.9867237
v 4.5000000 -10.4894447 6.7500000
vn -0.9457207 -2.9564881 2.8321600
v 3.2507606 -10.2944145 6.7500000
vn -0.9451282 -2.9567513 -2.8324413
v 3.2515292 -10.2946091 -6.7500000
vn -0.1901450 3.1296561 3.0162675
v 0.0000000 6.5000000 6.7500000
vn 0.4674928 -3.0977118 2.9918332
v 14.3988867 -10.3719826 6.7500000
vn -2.9332743 -1.0156538 -2.8324494
v 0.6258463 -7.7310562 -6.7500000
vn -1.6424364 -1.8471975 4.4719939
v 0.4011753 -6.4876080 6.7500000
vn -1.6423424 -1.8471195 -4.4721060
v 0.4011753 -6.4876080 -6.7500000
vn -0.5724819 -3.0648208 2.8954456
v -1.1939206 -6.3892412 6.7500000
vn -0.1900362 3.1296697 -3.0163386
v 0.0000000 6.5000000 -6.7500000
vn -0.5724493 -3.0647988 -2.8953037
v -1.1933159 -6.3893991 -6.7500000
vn -2.9329967 -1.0162399 2.8321674
v 0.6260588 -7.7318196 6.7500000
vn -2.4848409 -1.8603178 -2.8321605
v 1.2177534 -8.8463545 -6.7500000
vn -2.4845693 -1.8608270 2.8325279
v 1.2184700 -8.8471003 6.7500000
vn -1.8002915 -2.5286686 -2.8321605
v 2.1223788 -9.7295742 -6.7500000
vn -1.8008070 -2.5284095 2.8325279
v 2.1216164 -9.7288761 6.7500000
vn -0.5455996 3.0893736 3.0355771
v 18.6538868 6.6483226 6.7500000
vn -0.3516417 3.1010063 3.3713813
v 17.8615017 6.4646220 6.7500000
vn 0.1964674 -3.0161853 3.1292572
v 19.4581547 4.5999999 6.7500000
vn 1.1863220 -2.6003795 3.9976065
v 17.6705608 4.5999999 6.7500000
vn -0.5459203 3.0893166 -3.0355773
v 18.6523781 6.6480560 -6.7500000
vn 1.1861253 -2.6005955 -3.9974194
v 17.6705608 4.5999999 -6.7500000
vn 2.2361925 -2.1944084 -2.9852281
v 17.5398808 4.4494257 -6.7500000
vn -0.0200810 3.0142689 3.0096598
v 19.4581547 6.7467709 6.7500000
vn 0.0083957 3.0138655 -2.9969263
v 19.4581547 6.7467709 -6.7500000
vn 0.7249422 2.9198430 2.9442084
v 20.5270061 6.7458019 6.6445546
vn 0.9085938 2.8918960 -2.8933671
v 20.7244091 6.7292523 -6.6025124
vn 0.1914076 -3.0220244 -3.1298816
v 19.4581547 4.5999999 -6.7500000
vn 1.6761781 2.9149563 2.8088915
v 21.5714149 6.5990553 6.3279877
vn 1.9434800 2.8963099 -2.7553623
v 21.9845562 6.4996123 -6.1354575
vn 0.7727984 -2.9041972 -3.0211639
v 20.8223820 4.5999999 -6.5780187
vn 2.5590403 2.8379276 2.5747447
v 22.4862309 6.3454170 5.8416128
vn 2.7285931 2.8144038 -2.5469027
v 22.5824986 6.3114591 -5.7762914
vn 1.4962789 -2.9213815 -2.7367594
v 22.1013889 4.5999999 -6.0732055
vn 3.3605592 2.7033105 2.2314129
v 23.3155441 6.0035310 5.1708384
vn 3.2056048 2.7397702 -2.3651454
v 23.1435509 6.0839152 -5.3323894
vn 3.7716107 2.5963862 -2.0320451
v 23.6524315 5.8305731 -4.8074703
vn 2.1265631 -2.9265265 -2.2819781
v 23.2150917 4.5999999 -5.2667556
vn 4.0928020 2.5506744 1.7813464
v 24.0941048 5.5703125 4.2093868
vn 4.1652226 2.5094213 -1.7720263
v 24.0941048 5.5703125 -4.2093868
vn 4.6560235 2.3812819 1.3045523
v 24.7171860 5.1294503 3.0188355
vn 4.6662645 2.3947980 -1.2861159
v 24.7191544 5.1279049 -3.0141268
vn 2.6007984 -2.9296222 -1.7302945
v 24.0941048 4.5999999 -4.2093868
vn 5.0515838 2.1977873 0.8208867
v 25.1455688 4.7669907 1.6572342
vn 5.0528274 2.2002966 -0.8187798
v 25.1463089 4.7663169 -1.6538200
vn 2.9065425 -2.9609673 -1.1592252
v 24.7509136 4.5999999 -2.9367652
vn 4.7764902 0.6187879 0.3126728
v 25.2697544 4.6513152 0.9121819
vn 4.7745671 0.6152636 -0.3123437
v 25.2698898 4.6511850 -0.9110170
vn 3.0692391 -3.0087309 -0.6379694
v 25.1648540 4.5999999 -1.5653393
vn 2.1873882 -0.8868714 0.0072579
v 25.3226357 4.5999999 0.1379888
vn 2.1877148 -0.8871876 -0.0072789
v 25.3226318 4.5999999 -0.1379887
vn 3.1226368 -3.3576183 0.0049864
v 23.3231487 4.5999999 -0.0000000
vn 3.0462389 -3.3486543 -0.6895055
v 23.1371613 4.5999999 -1.6616737
vn 3.0695434 -3.0075312 0.6364046
v 25.1648540 4.5999999 1.5653393
vn 2.9028895 -2.9535365 1.1662703
v 24.7509136 4.5999999 2.9367652
vn 2.6096833 -2.9341211 1.7173947
v 24.0941048 4.5999999 4.2093868
vn 2.1375217 -2.9268064 2.2734833
v 23.2150917 4.5999999 5.2667556
vn 1.4994650 -2.9399841 2.7378349
v 22.1013889 4.5999999 6.0732055
vn 0.7564539 -2.9185004 3.0263419
v 20.8223820 4.5999999 6.5780187
vn 2.8153996 -3.3550115 -1.3511059
v 22.5892735 4.5999999 -3.2391548
vn 2.4578965 -3.3554034 -1.9270315
v 21.7058830 4.5999999 -4.6581864
vn 3.0467820 -3.3546329 0.6847338
v 23.1371613 4.5999999 1.6616737
vn 2.8177235 -3.3490205 1.3473333
v 22.5892735 4.5999999 3.2391548
vn 2.4536352 -3.3530865 1.9327444
v 21.7058830 4.5999999 4.6581864
vn 6.1188698 -0.5604101 0.6741660
v 23.2110043 -1.5294806 1.2934343
vn 6.2522573 -0.0898971 0.0204590
v 23.3231163 -0.0000005 0.0000000
vn 6.1173840 -0.5677717 -0.6771073
v 23.2078209 -1.5509207 -1.3115288
vn 5.8214836 -0.9975098 1.1835588
v 22.8676548 -3.0573909 2.5768495
vn 5.4109306 -1.3749732 1.6314073
v 22.3468189 -4.4193320 3.7047126
vn 5.4015951 -1.3560847 -1.6474446
v 22.3546944 -4.4022079 -3.6907747
vn 5.8249769 -0.9945257 -1.1797817
v 22.8713703 -3.0451725 -2.5666461
vn 4.9703817 -1.6527344 2.0073662
v 21.7058830 -5.5957417 4.6581864
vn 1.9886938 -3.3519289 2.4092119
v 20.8884449 4.5999999 5.4932137
vn 4.9812350 -1.6576875 -1.9947299
v 21.7058830 -5.5957417 -4.6581864
vn 4.5678730 -1.8685838 2.2818031
v 21.2453022 -6.2668109 5.1711540
vn 4.5672202 -1.8720359 -2.2825389
v 21.2453022 -6.2668109 -5.1711540
vn 1.9873588 -3.3470478 -2.4107704
v 20.8884449 4.5999999 -5.4932137
vn 0.2116096 -0.0255463 6.2759371
v 17.3891411 -4.5079374 6.7500000
vn 0.3589795 -0.0055181 6.2625899
v 17.5460472 -3.3700047 6.7500000
vn 0.0000000 0.0000000 6.2831855
v 17.3891411 -2.2332861 6.7500000
vn 0.0371836 -0.0071924 6.2829356
v 17.3891411 4.3189373 6.7500000
vn 2.1060269 -2.5061448 2.9762738
v 18.5132370 -8.8187866 6.6338978
vn 2.3100264 -2.2482247 3.2817817
v 17.5395489 4.4491005 6.7479429
vn 1.4396555 -2.7381487 2.2662354
v 17.6705608 4.5999999 6.7427955
vn 1.4074471 -2.7539601 3.0018992
v 17.3891411 -9.4486055 6.7500000
vn 0.9243719 -2.9933167 2.9918807
v 15.9289389 -10.0223303 6.7500000
vn 1.4063528 -2.7567503 -3.0020108
v 17.3891411 -9.4486055 -6.7500000
vn 2.1116683 -2.5105238 -2.9756820
v 18.5132370 -8.8187866 -6.6338978
vn 0.9243627 -2.9933190 -2.9918792
v 15.9289083 -10.0223389 -6.7500000
vn -0.7605655 3.0236406 2.8954470
v -1.5859838 6.3033724 6.7500000
vn -1.3023465 -2.8327479 2.8952100
v -2.7149653 -5.9058051 6.7500000
vn -1.4746908 2.7469702 2.8951964
v -3.0742915 5.7269807 6.7500000
vn -1.9541870 -2.4293001 2.8950150
v -4.0742936 -5.0646400 6.7500000
vn -1.3027368 -2.8325419 -2.8950939
v -2.7162285 -5.9052496 -6.7500000
vn -2.1003914 2.3040631 2.8950269
v -4.3791118 4.8035221 6.7500000
vn -2.4880040 -1.8788818 2.8950241
v -5.1870084 -3.9173090 6.7500000
vn -1.9543676 -2.4292226 -2.8953013
v -4.0740962 -5.0646133 -6.7500000
vn -2.5992279 1.7217361 2.8950343
v -5.4188929 3.5897024 6.7500000
vn -2.8711827 -1.2153949 2.8954647
v -5.9857035 -2.5336545 6.7500000
vn -2.8710852 -1.2155201 -2.8952539
v -5.9853902 -2.5345504 -6.7500000
vn -2.4878283 -1.8791420 -2.8951240
v -5.1869373 -3.9173012 -6.7500000
vn -2.9407234 1.0358627 2.8954523
v -6.1306677 2.1593909 6.7500000
vn -3.0808041 -0.4786440 2.8951147
v -6.4227748 -0.9985116 6.7500000
vn -3.1044703 0.2875941 2.8951030
v -6.4721575 0.6001989 6.7500000
vn -3.0808387 -0.4784959 -2.8951666
v -6.4230056 -0.9970939 -6.7500000
vn -3.1044965 0.2874449 -2.8951557
v -6.4723001 0.5987697 -6.7500000
vn -2.9406343 1.0359931 -2.8952427
v -6.1304097 2.1603045 -6.7500000
vn -2.5990696 1.7220064 -2.8951340
v -5.4188218 3.5896990 -6.7500000
vn -1.4750679 2.7467413 -2.8950813
v -3.0755179 5.7263479 -6.7500000
vn -2.1005664 2.3039744 -2.8953121
v -4.3789134 4.8035078 -6.7500000
vn -0.7605317 3.0236211 -2.8953047
v -1.5853900 6.3035674 -6.7500000
vn 2.2354517 -2.1952839 2.9861445
v 17.5398808 4.4494257 6.7500000
vn 4.1176462 -2.0395024 2.5175617
v 20.7439117 -6.8888717 5.6084905
vn 4.1207128 -2.0422308 -2.5154886
v 20.7439117 -6.8888717 -5.6084905
vn 3.6630042 -2.2022107 2.6992333
v 20.2098923 -7.4578695 5.9716811
vn 3.6627500 -2.2032001 -2.6994069
v 20.2098923 -7.4578695 -5.9716811
vn 2.9982731 -2.3555775 2.8636241
v 19.6529293 -7.9703317 6.2625108
vn 2.9982724 -2.3555770 -2.8636241
v 19.6529293 -7.9703317 -6.2625108
vn 1.4334784 -3.3483338 -2.7759652
v 19.9131203 4.5999999 -6.1366677
vn 0.8150990 -3.3489535 -3.0160108
v 18.8239326 4.5999999 -6.5595546
vn 0.3589676 -0.0031198 -6.2626085
v 17.5460472 -3.3700047 -6.7500000
vn 1.4394741 -2.7383668 -2.2664225
v 17.6705608 4.5999999 -6.7427955
vn 0.0000000 0.0000000 -6.2831855
v 17.3891411 -4.5079374 -6.7500000
vn 0.0060255 0.0007892 -6.2831798
v 17.3891411 -2.2332861 -6.7500000
vn 0.8150991 -3.3489540 3.0160108
v 18.8239326 4.5999999 6.5595546
vn 1.4340494 -3.3493319 2.7755914
v 19.9131203 4.5999999 6.1366677
vn 2.3105464 -2.2477860 -3.2822380
v 17.5395489 4.4491005 -6.7479429
# 133 vertices, 0 vertices normals

f 1//1 2//2 3//3
f 4//4 3//3 2//2
f 5//5 1//1 3//3
f 6//6 3//3 4//4
f 6//6 5//5 3//3
f 1//1 7//7 2//2
f 8//8 2//2 7//7
f 9//9 2//2 8//8
f 4//4 2//2 9//9
f 10//10 7//7 1//1
f 10//10 8//8 7//7
f 10//10 1//1 11//11
f 5//5 11//11 1//1
f 12//12 13//13 14//14
f 15//15 14//14 13//13
f 4//4 12//12 14//14
f 16//16 4//4 14//14
f 17//17 14//14 15//15
f 17//17 16//16 14//14
f 12//12 18//18 13//13
f 10//10 13//13 18//18
f 10//10 15//15 13//13
f 19//19 20//20 18//18
f 10//10 18//18 20//20
f 12//12 19//19 18//18
f 21//21 22//22 20//20
f 10//10 20//20 22//22
f 19//19 21//21 20//20
f 21//21 8//8 22//22
f 10//10 22//22 8//8
f 21//21 9//9 8//8
f 4//4 9//9 21//21
f 4//4 21//21 19//19
f 4//4 19//19 12//12
f 23//23 4//4 24//24
f 16//16 24//24 4//4
f 25//25 23//23 24//24
f 26//26 24//24 10//10
f 16//16 10//10 24//24
f 26//26 25//25 24//24
f 23//23 27//27 4//4
f 28//28 4//4 27//27
f 29//29 6//6 4//4
f 28//28 29//29 4//4
f 30//30 31//31 27//27
f 28//28 27//27 31//31
f 23//23 30//30 27//27
f 32//32 33//33 31//31
f 34//34 31//31 33//33
f 30//30 32//32 31//31
f 34//34 28//28 31//31
f 35//35 36//36 33//33
f 37//37 33//33 36//36
f 32//32 35//35 33//33
f 37//37 34//34 33//33
f 38//38 39//39 36//36
f 40//40 36//36 39//39
f 35//35 38//38 36//36
f 40//40 37//37 36//36
f 41//41 42//42 39//39
f 40//40 39//39 42//42
f 38//38 41//41 39//39
f 41//41 43//43 42//42
f 44//44 42//42 43//43
f 44//44 40//40 42//42
f 45//45 46//46 43//43
f 44//44 43//43 46//46
f 41//41 45//45 43//43
f 47//47 48//48 46//46
f 49//49 46//46 48//48
f 45//45 47//47 46//46
f 44//44 46//46 49//49
f 50//50 51//51 48//48
f 52//52 48//48 51//51
f 47//47 50//50 48//48
f 52//52 49//49 48//48
f 53//53 54//54 51//51
f 55//55 51//51 54//54
f 50//50 53//53 51//51
f 55//55 52//52 51//51
f 56//56 57//57 54//54
f 55//55 54//54 57//57
f 53//53 56//56 54//54
f 58//58 57//57 56//56
f 59//59 55//55 57//57
f 59//59 57//57 58//58
f 60//60 56//56 53//53
f 58//58 56//56 60//60
f 60//60 53//53 50//50
f 61//61 50//50 47//47
f 61//61 60//60 50//50
f 61//61 47//47 45//45
f 62//62 45//45 41//41
f 62//62 61//61 45//45
f 63//63 41//41 38//38
f 63//63 62//62 41//41
f 64//64 38//38 35//35
f 64//64 63//63 38//38
f 65//65 35//35 32//32
f 65//65 64//64 35//35
f 65//65 32//32 30//30
f 25//25 30//30 23//23
f 65//65 30//30 25//25
f 66//66 49//49 52//52
f 67//67 49//49 66//66
f 44//44 49//49 67//67
f 59//59 52//52 55//55
f 66//66 52//52 59//59
f 68//68 60//60 61//61
f 58//58 60//60 68//68
f 69//69 61//61 62//62
f 68//68 61//61 69//69
f 69//69 62//62 70//70
f 63//63 70//70 62//62
f 68//68 71//71 72//72
f 73//73 72//72 71//71
f 58//58 68//68 72//72
f 73//73 58//58 72//72
f 68//68 74//74 71//71
f 73//73 71//71 74//74
f 69//69 75//75 74//74
f 76//76 74//74 75//75
f 68//68 69//69 74//74
f 77//77 74//74 76//76
f 73//73 74//74 77//77
f 70//70 78//78 75//75
f 76//76 75//75 78//78
f 69//69 70//70 75//75
f 79//79 78//78 70//70
f 76//76 78//78 80//80
f 81//81 80//80 78//78
f 79//79 81//81 78//78
f 63//63 79//79 70//70
f 73//73 59//59 58//58
f 77//77 66//66 59//59
f 73//73 77//77 59//59
f 80//80 67//67 66//66
f 76//76 80//80 66//66
f 77//77 76//76 66//66
f 82//82 67//67 80//80
f 83//83 67//67 82//82
f 44//44 67//67 83//83
f 81//81 82//82 80//80
f 84//84 85//85 86//86
f 87//87 86//86 85//85
f 10//10 84//84 86//86
f 87//87 10//10 86//86
f 88//88 85//85 84//84
f 89//89 87//87 85//85
f 90//90 85//85 88//88
f 90//90 89//89 85//85
f 10//10 91//91 84//84
f 88//88 84//84 91//91
f 10//10 92//92 91//91
f 93//93 91//91 92//92
f 93//93 94//94 91//91
f 88//88 91//91 94//94
f 10//10 11//11 92//92
f 95//95 92//92 11//11
f 95//95 93//93 92//92
f 5//5 95//95 11//11
f 96//96 97//97 15//15
f 17//17 15//15 97//97
f 10//10 96//96 15//15
f 98//98 99//99 97//97
f 100//100 97//97 99//99
f 96//96 98//98 97//97
f 17//17 97//97 100//100
f 101//101 102//102 99//99
f 103//103 99//99 102//102
f 98//98 101//101 99//99
f 100//100 99//99 103//103
f 104//104 105//105 102//102
f 106//106 102//102 105//105
f 101//101 104//104 102//102
f 107//107 102//102 106//106
f 103//103 102//102 107//107
f 108//108 109//109 105//105
f 106//106 105//105 109//109
f 104//104 108//108 105//105
f 108//108 110//110 109//109
f 111//111 109//109 110//110
f 106//106 109//109 111//111
f 112//112 110//110 108//108
f 111//111 110//110 112//112
f 113//113 108//108 104//104
f 112//112 108//108 113//113
f 114//114 104//104 101//101
f 113//113 104//104 114//114
f 115//115 101//101 98//98
f 116//116 101//101 115//115
f 114//114 101//101 116//116
f 115//115 98//98 96//96
f 117//117 96//96 10//10
f 115//115 96//96 117//117
f 118//118 26//26 10//10
f 87//87 118//118 10//10
f 117//117 10//10 16//16
f 90//90 25//25 26//26
f 65//65 25//25 90//90
f 90//90 26//26 118//118
f 89//89 118//118 87//87
f 90//90 118//118 89//89
f 119//119 120//120 82//82
f 83//83 82//82 120//120
f 81//81 119//119 82//82
f 121//121 122//122 120//120
f 83//83 120//120 122//122
f 119//119 121//121 120//120
f 123//123 124//124 122//122
f 125//125 122//122 124//124
f 121//121 123//123 122//122
f 125//125 83//83 122//122
f 88//88 94//94 124//124
f 126//126 124//124 94//94
f 123//123 88//88 124//124
f 126//126 125//125 124//124
f 127//127 94//94 93//93
f 128//128 94//94 127//127
f 128//128 126//126 94//94
f 129//129 93//93 95//95
f 127//127 93//93 129//129
f 6//6 95//95 5//5
f 130//130 95//95 6//6
f 130//130 129//129 95//95
f 131//131 88//88 123//123
f 131//131 90//90 88//88
f 132//132 123//123 121//121
f 132//132 131//131 123//123
f 132//132 121//121 119//119
f 79//79 119//119 81//81
f 79//79 132//132 119//119
f 133//133 6//6 29//29
f 133//133 130//130 6//6
f 133//133 29//29 28//28
f 37//37 28//28 34//34
f 133//133 28//28 128//128
f 37//37 128//128 28//28
f 17//17 117//117 16//16
f 100//100 115//115 117//117
f 17//17 100//100 117//117
f 103//103 116//116 115//115
f 100//100 103//103 115//115
f 107//107 114//114 116//116
f 103//103 107//107 116//116
f 106//106 113//113 114//114
f 107//107 106//106 114//114
f 111//111 112//112 113//113
f 106//106 111//111 113//113
f 130//130 127//127 129//129
f 133//133 127//127 130//130
f 133//133 128//128 127//127
f 65//65 90//90 131//131
f 65//65 131//131 132//132
f 64//64 132//132 79//79
f 65//65 132//132 64//64
f 64//64 79//79 63//63
f 40//40 83//83 125//125
f 44//44 83//83 40//40
f 40//40 125//125 126//126
f 37//37 126//126 128//128
f 40//40 126//126 37//37
# 262 faces, 0 coords texture

# End of File
