####
#
# OBJ File Generated by Meshlab
#
####
# Object ph_knuckle.obj
#
# Vertices: 249
# Faces: 494
#
####
vn 2.0595345 2.9500744 -2.3531845
v 15.2571898 6.2500000 -7.1481686
vn 2.6737390 3.6373904 1.4591155
v 15.5060577 6.2500000 0.0026750
vn 2.1812251 3.2560556 2.2540393
v 15.5227337 6.2500000 -0.0153603
vn 4.3162165 0.0018824 4.5575008
v 15.5227356 5.7833977 -0.0146453
vn 2.3402581 2.8693914 2.0515068
v 16.3534260 6.2500000 -0.7343179
vn 2.8268871 -2.8211701 2.0273581
v 16.3540230 5.4070253 -0.7337433
vn 3.0812933 3.2783005 0.5739319
v 15.4999466 6.2500000 0.0263834
vn 3.1702676 -3.5984862 1.3579587
v 15.5060158 5.2510610 0.0033935
vn 2.7216907 -3.2076061 2.2011013
v 15.5227356 5.2540116 -0.0147102
vn 3.0411367 2.9178023 0.7056487
v 15.3317356 6.2500000 1.4692770
vn 6.1697836 0.0013022 1.1197351
v 15.4999437 5.7816987 0.0270988
vn 2.8087540 2.9178898 1.3629147
v 14.8478279 6.2500000 2.8376701
vn 3.0410738 -2.9177523 0.7059415
v 15.3315506 -6.2500000 1.4700857
vn 3.0812335 -3.2778854 0.5743442
v 15.4999437 -6.2500000 0.0270143
vn 6.1689105 0.0010439 1.1234852
v 15.4999437 -5.7273946 0.0270924
vn 6.2123923 -0.3034612 0.6599718
v 15.4999437 5.2500000 0.0270253
vn 1.5725693 2.9496579 -2.7029552
v 13.7777367 6.2500000 -8.2111530
vn 2.4362967 2.9178138 1.9521801
v 14.0724688 6.2500000 4.0644712
vn 2.8086119 -2.9179106 1.3632145
v 14.8475294 -6.2500000 2.8382845
vn 1.9422889 2.9178092 2.4441891
v 13.0438833 6.2500000 5.0888977
vn 2.4361353 -2.9178312 1.9523873
v 14.0721273 -6.2500000 4.0648975
vn 1.0280830 2.9499729 -2.9533243
v 12.1234541 6.2500000 -8.9717884
vn 1.3515149 2.9178786 2.8142550
v 11.8139448 6.2500000 5.8592806
vn 1.9421368 -2.9178271 2.4443142
v 13.0435619 -6.2500000 5.0891523
vn 0.4454848 2.9497859 -3.0952427
v 10.3532658 6.2500000 -9.4030867
vn 0.6932529 2.9177430 3.0439906
v 10.4435921 6.2500000 6.3376408
vn 1.3513992 -2.9178960 2.8143146
v 11.8136988 -6.2500000 5.8593988
vn 0.1755577 3.0295961 3.1317556
v 9.0000000 6.2500000 6.5000000
vn 0.6931898 -2.9177589 3.0440085
v 10.4434595 -6.2500000 6.3376713
vn -0.1747442 3.0420034 -3.1317518
v 0.0000000 6.2500000 -6.5000000
vn -0.1894386 3.0206978 3.1301279
v 0.0000000 6.2500000 6.5000000
vn -0.0003686 3.2150099 3.3683348
v 0.0000000 4.0000000 6.5000000
vn -1.0371761 3.8627932 -2.7504857
v 2.0717967 6.2500000 -6.5000000
vn -1.8301539 2.9499860 -2.5356631
v 3.4400885 6.2500000 -7.7029943
vn -1.3122859 2.9496484 -2.8384557
v 5.0130234 6.2500000 -8.6228647
vn -0.7465543 2.9499857 -3.0367322
v 6.7316079 6.2500000 -9.2251482
vn -0.1530804 2.9498100 -3.1233902
v 8.5345869 6.2500000 -9.4885588
vn 0.1755423 -3.0296049 3.1317532
v 9.0000000 -6.2500000 6.5000000
vn 2.5100038 -1.8242589 3.4557559
v 3.2356429 -2.3517258 6.5000000
vn 0.9583380 2.9512391 3.4556718
v 1.2352011 3.8045077 6.5000000
vn 2.9509330 -0.9591296 3.4558523
v 3.8040848 -1.2365025 6.5000000
vn 3.1028848 -0.0000111 3.4558816
v 4.0000000 -0.0000000 6.5000000
vn 2.9509311 0.9591406 3.4558372
v 3.8040848 1.2365025 6.5000000
vn 2.5100038 1.8242589 3.4557559
v 3.2356429 2.3517258 6.5000000
vn 1.8233017 2.5107069 3.4557245
v 2.3504488 3.2365706 6.5000000
vn -0.7550669 2.9317675 -3.0282788
v -1.5556080 6.2500000 -6.3110137
vn -0.7439650 2.9231858 3.0299087
v -1.5556080 6.2500000 6.3110137
vn -1.4471507 2.9199793 -2.7643514
v -3.0204737 6.2500000 -5.7555747
vn -1.4486508 2.9274099 2.7640238
v -3.0204737 6.2500000 5.7555747
vn -2.3945868 2.8953505 3.1602268
v -1.7187653 3.6119070 6.2686400
vn -0.8006271 3.2873435 3.2989507
v -0.5967148 3.9552083 6.4725523
vn -1.5546610 3.0780838 3.2430475
v -1.1756130 3.8233750 6.3928032
vn -2.0749938 2.9124873 -2.3295503
v -4.3104143 6.2500000 -4.8651052
vn -2.0759656 2.9139829 2.3288641
v -4.3104143 6.2500000 4.8651052
vn -4.5703030 1.4817463 2.7971947
v -3.4500005 2.0237362 5.5088563
vn -3.0717590 2.6113887 3.0776665
v -2.2739584 3.2907617 6.0892620
vn -3.8516040 2.1062686 2.9496882
v -2.8736427 2.7829394 5.8302813
vn -2.5665958 2.8998599 -1.7716390
v -5.3491592 6.2500000 -3.6927183
vn -2.5665965 2.8998597 1.7716396
v -5.3491592 6.2500000 3.6927183
vn -2.0749614 -2.9124320 2.3295743
v -4.3104143 -6.2500000 4.8651052
vn -5.1261864 0.0057688 2.6818678
v -4.0000000 -0.0000000 5.1234756
vn -4.9645090 0.7280631 2.7381320
v -3.8630626 1.0359943 5.2274990
vn -2.9160340 2.8999729 -1.1058947
v -6.0776649 6.2500000 -2.3045857
vn -2.9160335 2.8999732 1.1058944
v -6.0776649 6.2500000 2.3045857
vn -2.5665960 -2.8998599 1.7716391
v -5.3491592 -6.2500000 3.6927183
vn -3.0959420 2.8999145 -0.3759427
v -6.4525127 6.2500000 -0.7838818
vn -3.0959418 2.8999143 0.3759427
v -6.4525127 6.2500000 0.7838818
vn -2.9160342 -2.8999729 1.1058947
v -6.0776649 -6.2500000 2.3045857
vn -3.0959418 -2.8999145 0.3759427
v -6.4525127 -6.2500000 0.7838818
vn -3.0959420 -2.8999143 -0.3759427
v -6.4525127 -6.2500000 -0.7838818
vn -2.9160337 -2.8999732 -1.1058944
v -6.0776649 -6.2500000 -2.3045857
vn -2.5665965 -2.8998597 -1.7716396
v -5.3491592 -6.2500000 -3.6927183
vn -4.9629173 0.7367845 -2.7314689
v -3.8624575 1.0382478 -5.2279463
vn -2.0760062 -2.9140441 -2.3288367
v -4.3104143 -6.2500000 -4.8651052
vn -5.1261511 -0.0020955 -2.6818111
v -4.0000000 -0.0000000 -5.1234756
vn -3.8429039 2.1243894 -2.9538913
v -2.8718786 2.7847600 -5.8311501
vn -4.5897098 1.4937602 -2.7839861
v -3.4485679 2.0261829 -5.5097532
vn -1.5575995 3.0894580 -3.2239938
v -1.1746155 3.8236816 -6.3929868
vn -3.1614552 2.6554270 -3.0258141
v -2.2722678 3.2919292 -6.0898933
vn -2.3326771 2.8693287 -3.1514223
v -1.7173899 3.6125612 -6.2690167
vn -1.1222973 -0.7175981 -5.8708191
v 2.0717967 5.7789807 -6.5000000
vn 0.0320419 3.1620817 -3.3945920
v -0.0000000 4.0000000 -6.5000000
vn -0.8254620 3.2343984 -3.2923398
v -0.5961573 3.9552927 -6.4726033
vn -1.5302039 -2.9064844 -3.3069608
v 5.0122800 5.7789807 -8.6225338
vn -2.1315145 -2.9062252 -2.9544222
v 3.4398174 5.7789807 -7.7028804
vn -0.8699611 -2.9062064 -3.5387173
v 6.7313676 5.7789807 -9.2251453
vn -0.1786952 -2.9064460 -3.6388309
v 8.5338697 5.7789807 -9.4885578
vn 0.5189271 -2.9063823 -3.6063776
v 10.3535118 5.7789807 -9.4030848
vn 1.1985502 -2.9065385 -3.4390576
v 12.1233864 5.7789807 -8.9718704
vn 1.8313527 -2.9068556 -3.1477406
v 13.7784176 5.7789807 -8.2107687
vn 2.5048311 2.9075773 -1.8603507
v 16.5064831 6.2500000 -5.8226199
vn 2.3995314 -2.9063187 -2.7413168
v 15.2577496 5.7789807 -7.1477671
vn 2.8100286 2.8682172 1.3371321
v 16.9582024 6.2500000 -1.6531481
vn 2.8848634 2.8680954 -1.1672125
v 17.0544128 6.2500000 -4.8693037
vn 2.9129291 -2.8637173 -2.1846466
v 16.5070076 5.7789807 -5.8219275
vn 5.0103045 0.0001030 -3.7198653
v 16.5067654 6.0131812 -5.8222384
vn 3.0682521 2.8692646 0.5208127
v 17.2895317 6.2500000 -2.7026038
vn 3.0936265 2.8680799 -0.3375883
v 17.3225727 6.2500000 -3.8024330
vn 3.3394766 -2.8203831 -1.4265223
v 17.0559464 5.7633924 -4.8661938
vn 3.5731077 -2.8205123 -0.5312164
v 17.3235226 5.7169929 -3.7964511
vn 3.3049533 -2.8203840 1.2577230
v 16.9598427 5.5374360 -1.6552691
vn 3.5605011 -2.8207371 0.3820986
v 17.2902832 5.6414709 -2.7040789
vn 0.4134177 -3.2023363 -3.6792190
v 9.7296877 5.2500000 -6.4589128
vn 0.0843564 -3.1456118 -3.7088017
v 9.0000000 5.2500000 -6.5000000
vn 0.0906674 3.1479125 -3.7106218
v 9.0000000 -5.2500000 -6.5000000
vn -0.0844087 -3.0893135 -3.7051585
v 7.9053974 5.2661123 -6.5000000
vn 0.9583457 2.9512372 -3.4556639
v 1.2352011 3.8045077 -6.5000000
vn 1.8233050 2.5107036 -3.4557321
v 2.3504488 3.2365706 -6.5000000
vn 2.5100012 1.8242613 -3.4557614
v 3.2356429 2.3517258 -6.5000000
vn 0.8263724 -3.2018893 -3.6084116
v 10.4501495 5.2500000 -6.3361712
vn 0.4347529 3.2073171 -3.6784751
v 9.7685566 -5.2500000 -6.4544034
vn 1.2307074 -3.2006786 -3.4952853
v 11.1522789 5.2500000 -6.1333265
vn 0.8692011 3.2072177 -3.5983474
v 10.5263386 -5.2500000 -6.3182507
vn 1.6080073 -3.1998606 -3.3410239
v 11.8271990 5.2500000 -5.8529434
vn 1.2900581 3.2066507 -3.4703543
v 11.2627144 -5.2500000 -6.0934491
vn 1.9772623 -3.2003303 -3.1313486
v 12.4663773 5.2500000 -5.4985662
vn 1.6885076 3.2062101 -3.2952583
v 11.9673481 -5.2500000 -5.7831521
vn 2.3119204 -3.2000098 -2.8933165
v 13.0617332 5.2500000 -5.0746751
vn 2.0739646 3.2051556 -3.0721014
v 12.6303387 -5.2500000 -5.3917193
vn 2.6241429 -3.2000537 -2.6114500
v 13.6057396 5.2500000 -4.5866289
vn 2.4156158 3.2051029 -2.8097177
v 13.2424841 -5.2500000 -4.9245634
vn 2.8990192 -3.1999886 -2.3016450
v 14.0915194 5.2500000 -4.0405979
vn 2.7304318 3.2055905 -2.4998987
v 13.7948236 -5.2500000 -4.3885837
vn 3.1385615 -3.2000825 -1.9605790
v 14.5129309 5.2500000 -3.4434850
vn 3.0056961 3.2059240 -2.1575327
v 14.2804632 -5.2500000 -3.7903438
vn 3.3386137 -3.2001004 -1.5957392
v 14.8646479 5.2500000 -2.8028388
vn 3.2393966 3.2054906 -1.7872691
v 14.6919918 -5.2500000 -3.1386662
vn 3.4964650 -3.2001212 -1.2107785
v 15.1422224 5.2500000 -2.1267588
vn 3.4247410 3.2021940 -1.3987628
v 15.0212784 -5.2500000 -2.4483073
vn 3.6101508 -3.2001514 -0.8105860
v 15.3421459 5.2500000 -1.4237915
vn 3.5577931 3.1949892 -1.0118042
v 15.2561436 -5.2500000 -1.7637075
vn 3.6778176 -3.2019484 -0.3999921
v 15.4618912 5.2500000 -0.7028252
vn 3.6524417 3.2254436 -0.5728369
v 15.4032764 -5.2500000 -1.1171626
vn 6.2303424 0.3324606 0.2589795
v 15.4999466 -5.2500000 0.0263796
vn -0.1645837 -3.0899336 -3.6838641
v 6.8204188 5.3126726 -6.5000000
vn -0.2386178 -3.0900486 -3.6548762
v 5.7379308 5.3861980 -6.5000000
vn -0.3167641 -3.0905013 -3.6077232
v 4.0397620 5.5455837 -6.5000000
vn 2.5051448 -2.9077797 -1.8598759
v 16.5066586 -6.2500000 -5.8223500
vn 2.6745353 -3.6349742 1.4584513
v 15.5060577 -6.2500000 0.0033062
vn 2.0598099 -2.9500761 -2.3529348
v 15.2576809 -6.2500000 -7.1477337
vn 2.1798162 -3.2529905 2.2554998
v 15.5227356 -6.2500000 -0.0147271
vn 3.1284289 3.6063747 1.3444796
v 15.5060167 -5.2510610 0.0027473
vn 2.3363028 -2.8676467 2.0561275
v 16.3499985 -6.2500000 -0.7294991
vn 4.3163218 0.0018686 4.5572166
v 15.5227356 -5.7295661 -0.0146486
vn 2.7690511 -2.9353702 1.4485359
v 16.9525032 -6.2500000 -1.6403944
vn 2.8238320 2.8272648 2.0295830
v 16.3539429 -5.4070210 -0.7342818
vn 2.7065258 3.2140770 2.1841626
v 15.5227337 -5.2540116 -0.0153553
vn 2.8778596 -2.8709714 -1.1932912
v 17.0558414 -6.2500000 -4.8660917
vn 2.9947526 -2.7823579 0.8652064
v 17.1557121 -6.2500000 -2.1516800
vn 3.3006158 2.8634787 1.2765121
v 16.9598236 -5.5374517 -1.6558042
vn 2.9822464 -2.6715870 -0.8567283
v 17.2271824 -6.2500000 -4.3382959
vn 3.0778589 -2.8761160 0.4914036
v 17.2881470 -6.2500000 -2.6922662
vn 3.1166642 -2.9351995 -0.2256489
v 17.3235664 -6.2500000 -3.7955775
vn 3.5622759 2.8246889 0.3787273
v 17.2902393 -5.6414843 -2.7044616
vn 3.5806284 2.8675821 -0.5016382
v 17.3234768 -5.7169986 -3.7966332
vn 3.3397071 2.8200369 -1.4272127
v 17.0559273 -5.7633944 -4.8662443
vn 2.3982008 2.9064000 -2.7411556
v 15.2577753 -5.7789807 -7.1477447
vn 2.9132533 2.8636460 -2.1850481
v 16.5070095 -5.7789807 -5.8219242
vn 5.1566877 -0.0007365 -3.5527205
v 16.5070381 -6.0158648 -5.8218875
vn 1.5727880 -2.9495852 -2.7028160
v 13.7781439 -6.2500000 -8.2109156
vn 1.8328810 2.9066849 -3.1474426
v 13.7784414 -5.7789807 -8.2107553
vn 1.0283082 -2.9499311 -2.9532399
v 12.1237297 -6.2500000 -8.9716930
vn 0.4455291 -2.9497874 -3.0952365
v 10.3533754 -6.2500000 -9.4030714
vn 1.1980966 2.9062328 -3.4409363
v 12.1234093 -5.7789807 -8.9718628
vn -0.1531218 -2.9497883 -3.1233854
v 8.5345383 -6.2500000 -9.4885569
vn 0.5183264 2.9064960 -3.6058226
v 10.3535318 -5.7789807 -9.4030819
vn -0.1749777 -3.0417643 3.1317260
v 0.0000000 -6.2500000 6.5000000
vn -0.7466516 -2.9499671 -3.0367057
v 6.7314501 -6.2500000 -9.2251091
vn -0.1782202 2.9065404 -3.6382532
v 8.5338860 -5.7789807 -9.4885578
vn -1.3123953 -2.9496267 -2.8384020
v 5.0128345 -6.2500000 -8.6227779
vn -0.8698848 2.9061847 -3.5387282
v 6.7313790 -5.7789807 -9.2251482
vn -1.8301711 -2.9500289 -2.5356576
v 3.4399579 -6.2500000 -7.7028999
vn -1.5301409 2.9064398 -3.3071599
v 5.0122876 -5.7789807 -8.6225376
vn -1.0372285 -3.8628435 -2.7504401
v 2.0717967 -6.2500000 -6.5000000
vn -2.1315186 2.9062269 -2.9547198
v 3.4398205 -5.7789807 -7.7028828
vn -0.1894386 -3.0206978 -3.1301279
v 0.0000000 -6.2500000 -6.5000000
vn -0.0015670 -3.2150512 -3.3688028
v -0.0000000 -4.0000000 -6.5000000
vn -1.1224308 0.7176413 -5.8707542
v 2.0717967 -5.7789807 -6.5000000
vn -0.7551336 -2.9310768 3.0281916
v -1.5556080 -6.2500000 6.3110137
vn -0.7436219 -2.9236615 -3.0300326
v -1.5556080 -6.2500000 -6.3110137
vn -1.4468029 -2.9193416 2.7644773
v -3.0204737 -6.2500000 5.7555747
vn -1.4488773 -2.9277329 -2.7639484
v -3.0204737 -6.2500000 -5.7555747
vn -2.4039717 -2.8922577 -3.1553607
v -1.7288319 -3.6071033 -6.2658710
vn -0.8029823 -3.2871628 -3.2943366
v -0.6007312 -3.9545996 -6.4721808
vn -1.5678399 -3.0750575 -3.2402167
v -1.1836019 -3.8209050 -6.3913288
vn -4.5758271 -1.4740173 -2.7964661
v -3.4560254 -2.0134337 -5.5050783
vn -3.0860248 -2.6028190 -3.0745103
v -2.2839773 -3.2838161 -6.0855112
vn -3.8629382 -2.0976272 -2.9483318
v -2.8827968 -2.7734442 -5.8257604
vn -4.9659839 -0.7248955 -2.7359672
v -3.8648779 -1.0292227 -5.2261572
vn -4.9657164 -0.7299957 2.7283213
v -3.8654678 -1.0270069 5.2257209
vn -3.8571653 -2.1147294 2.9500325
v -2.8845446 -2.7716260 5.8248949
vn -4.6004510 -1.4844398 2.7781079
v -3.4574296 -2.0110154 5.5041966
vn -1.5706950 -3.0870388 3.2239580
v -1.1846310 -3.8205860 6.3911386
vn -3.1817687 -2.6502948 3.0215895
v -2.2856646 -3.2826419 6.0848780
vn -2.3503623 -2.8648071 3.1502712
v -1.7302258 -3.6064348 6.2654862
vn -0.8306243 -3.2354074 3.2987194
v -0.6013060 -3.9545119 6.4721274
vn 0.0269740 -3.1620617 3.3990338
v 0.0000000 -4.0000000 6.5000000
vn 0.9583410 -2.9512384 3.4556680
v 1.2352011 -3.8045077 6.5000000
vn 1.8233017 -2.5107069 3.4557240
v 2.3504488 -3.2365706 6.5000000
vn 0.0019139 3.1032648 2.8319225
v 0.0000000 3.9998910 11.6999998
vn 0.9586323 2.9511111 2.8274503
v 1.2356695 3.8043087 11.6999998
vn -0.9581072 2.9519768 2.8349628
v -1.2356695 3.8043087 11.6999998
vn -1.8202057 2.5149240 2.8430459
v -2.3513777 3.2358785 11.6999998
vn -2.5131757 1.8238494 2.8494651
v -3.2361057 2.3509181 11.6999998
vn -2.9540076 0.9531201 2.8373976
v -3.8040435 1.2363812 11.6999998
vn -3.1035192 0.0042212 2.8333077
v -4.0000000 -0.0000000 11.6999998
vn -2.9533892 -0.9571966 2.8434324
v -3.8040435 -1.2363812 11.6999998
vn -2.5130775 -1.8240032 2.8495817
v -3.2361057 -2.3509181 11.6999998
vn -1.8259025 -2.5119462 2.8520694
v -2.3513777 -3.2358785 11.6999998
vn -0.9510267 -2.9550068 2.8426743
v -1.2356695 -3.8043087 11.6999998
vn -0.0000030 -3.1029711 2.8277054
v 0.0000000 -3.9998910 11.6999998
vn 0.0013616 -3.1031790 -2.8307524
v 0.0000000 -3.9998910 -12.8000002
vn 0.9583433 -2.9512379 -3.4556673
v 1.2352011 -3.8045077 -6.5000000
vn 0.9586344 -2.9511096 -2.8274374
v 1.2356695 -3.8043087 -12.8000002
vn -0.3179145 3.0905356 -3.6067247
v 4.0205607 -5.5476341 -6.5000000
vn -0.2399638 3.0900896 -3.6540151
v 5.7135458 -5.3881316 -6.5000000
vn -0.1657754 3.0899327 -3.6835039
v 6.8000917 -5.3138132 -6.5000000
vn -0.0851557 3.0892808 -3.7052093
v 7.8938589 -5.2664499 -6.5000000
vn -0.9582384 -2.9517441 -2.8329737
v -1.2356695 -3.8043087 -12.8000002
vn -1.8205886 -2.5142810 -2.8402598
v -2.3513777 -3.2358785 -12.8000002
vn -2.5126662 -1.8239872 -2.8464203
v -3.2361057 -2.3509181 -12.8000002
vn -2.9536071 -0.9539120 -2.8361614
v -3.8040435 -1.2363812 -12.8000002
vn -3.1034026 -0.0034592 -2.8322740
v -4.0000000 -0.0000000 -12.8000002
vn -2.9530017 0.9574550 -2.8408432
v -3.8040435 1.2363812 -12.8000002
vn -2.5127487 1.8238548 -2.8463149
v -3.2361057 2.3509181 -12.8000002
vn -1.8254346 2.5117874 -2.8483233
v -2.3513777 3.2358785 -12.8000002
vn -0.9522839 2.9543495 -2.8398445
v -1.2356695 3.8043087 -12.8000002
vn -0.0000025 3.1029699 -2.8276935
v 0.0000000 3.9998910 -12.8000002
vn 0.9586368 2.9511089 -2.8274410
v 1.2356695 3.8043087 -12.8000002
vn 1.8239427 2.5102034 -2.8273618
v 2.3513777 3.2358785 -12.8000002
vn 2.9509323 0.9591328 -3.4558496
v 3.8040848 1.2365025 -6.5000000
vn 2.5104501 1.8237395 -2.8276815
v 3.2361057 2.3509181 -12.8000002
vn 3.1028850 0.0000092 -3.4558792
v 4.0000000 -0.0000000 -6.5000000
vn 2.9510009 0.9590559 -2.8275256
v 3.8040435 1.2363812 -12.8000002
vn 2.9509304 -0.9591420 -3.4558370
v 3.8040848 -1.2365025 -6.5000000
vn 3.1028643 0.0000093 -2.8272367
v 4.0000000 0.0000000 -12.8000002
vn 2.5100012 -1.8242613 -3.4557617
v 3.2356429 -2.3517258 -6.5000000
vn 2.5104501 -1.8237395 -2.8276820
v 3.2361057 -2.3509181 -12.8000002
vn 2.9509993 -0.9590651 -2.8275385
v 3.8040435 -1.2363812 -12.8000002
vn 1.8233050 -2.5107036 -3.4557321
v 2.3504488 -3.2365706 -6.5000000
vn 1.8239427 -2.5102034 -2.8273613
v 2.3513777 -3.2358785 -12.8000002
vn 0.9586353 -2.9511108 2.8274546
v 1.2356695 -3.8043087 11.6999998
vn 1.8239431 -2.5102057 2.8273790
v 2.3513777 -3.2358785 11.6999998
vn 2.5104547 -1.8237362 2.8276973
v 3.2361057 -2.3509181 11.6999998
vn 2.9510026 -0.9590532 2.8275311
v 3.8040435 -1.2363812 11.6999998
vn 3.1028643 -0.0000112 2.8272390
v 4.0000000 0.0000000 11.6999998
vn 2.5104547 1.8237362 2.8276978
v 3.2361057 2.3509181 11.6999998
vn 2.9510007 0.9590644 2.8275466
v 3.8040435 1.2363812 11.6999998
vn 1.8239431 2.5102057 2.8273787
v 2.3513777 3.2358785 11.6999998
# 249 vertices, 0 vertices normals

f 1//1 2//2 3//3
f 4//4 3//3 2//2
f 5//5 1//1 3//3
f 6//6 5//5 3//3
f 4//4 6//6 3//3
f 1//1 7//7 2//2
f 8//8 2//2 7//7
f 9//9 2//2 8//8
f 4//4 2//2 9//9
f 1//1 10//10 7//7
f 11//11 7//7 10//10
f 11//11 8//8 7//7
f 1//1 12//12 10//10
f 13//13 10//10 12//12
f 13//13 14//14 10//10
f 15//15 10//10 14//14
f 10//10 15//15 16//16
f 17//17 18//18 12//12
f 19//19 12//12 18//18
f 1//1 17//17 12//12
f 13//13 12//12 19//19
f 17//17 20//20 18//18
f 21//21 18//18 20//20
f 19//19 18//18 21//21
f 22//22 23//23 20//20
f 24//24 20//20 23//23
f 17//17 22//22 20//20
f 21//21 20//20 24//24
f 25//25 26//26 23//23
f 27//27 23//23 26//26
f 22//22 25//25 23//23
f 24//24 23//23 27//27
f 25//25 28//28 26//26
f 29//29 26//26 28//28
f 27//27 26//26 29//29
f 30//30 31//31 28//28
f 32//32 28//28 31//31
f 33//33 30//30 28//28
f 34//34 33//33 28//28
f 35//35 34//34 28//28
f 36//36 35//35 28//28
f 37//37 36//36 28//28
f 25//25 37//37 28//28
f 29//29 28//28 38//38
f 39//39 38//38 28//28
f 40//40 28//28 32//32
f 41//41 39//39 28//28
f 42//42 41//41 28//28
f 43//43 42//42 28//28
f 44//44 43//43 28//28
f 45//45 44//44 28//28
f 40//40 45//45 28//28
f 46//46 47//47 31//31
f 32//32 31//31 47//47
f 30//30 46//46 31//31
f 48//48 49//49 47//47
f 50//50 47//47 49//49
f 46//46 48//48 47//47
f 51//51 32//32 47//47
f 52//52 51//51 47//47
f 50//50 52//52 47//47
f 53//53 54//54 49//49
f 55//55 49//49 54//54
f 48//48 53//53 49//49
f 56//56 50//50 49//49
f 57//57 56//56 49//49
f 55//55 57//57 49//49
f 58//58 59//59 54//54
f 60//60 54//54 59//59
f 53//53 58//58 54//54
f 61//61 54//54 60//60
f 62//62 55//55 54//54
f 61//61 62//62 54//54
f 63//63 64//64 59//59
f 65//65 59//59 64//64
f 58//58 63//63 59//59
f 60//60 59//59 65//65
f 66//66 67//67 64//64
f 68//68 64//64 67//67
f 63//63 66//66 64//64
f 65//65 64//64 68//68
f 69//69 67//67 66//66
f 68//68 67//67 69//69
f 70//70 66//66 63//63
f 69//69 66//66 70//70
f 71//71 63//63 58//58
f 70//70 63//63 71//71
f 72//72 58//58 53//53
f 71//71 58//58 72//72
f 73//73 53//53 48//48
f 72//72 53//53 74//74
f 75//75 74//74 53//53
f 73//73 75//75 53//53
f 76//76 48//48 46//46
f 77//77 73//73 48//48
f 76//76 77//77 48//48
f 78//78 46//46 30//30
f 79//79 76//76 46//46
f 80//80 79//79 46//46
f 78//78 80//80 46//46
f 81//81 30//30 33//33
f 82//82 30//30 81//81
f 83//83 78//78 30//30
f 82//82 83//83 30//30
f 81//81 33//33 34//34
f 84//84 34//34 35//35
f 85//85 34//34 84//84
f 81//81 34//34 85//85
f 86//86 35//35 36//36
f 84//84 35//35 86//86
f 87//87 36//36 37//37
f 86//86 36//36 87//87
f 88//88 37//37 25//25
f 87//87 37//37 88//88
f 88//88 25//25 22//22
f 89//89 22//22 17//17
f 88//88 22//22 89//89
f 90//90 17//17 1//1
f 89//89 17//17 90//90
f 5//5 91//91 1//1
f 92//92 1//1 91//91
f 90//90 1//1 92//92
f 93//93 94//94 91//91
f 94//94 95//95 96//96
f 5//5 93//93 91//91
f 96//96 91//91 94//94
f 96//96 92//92 91//91
f 97//97 98//98 94//94
f 99//99 94//94 98//98
f 93//93 97//97 94//94
f 95//95 94//94 99//99
f 100//100 98//98 97//97
f 99//99 98//98 100//100
f 101//101 97//97 93//93
f 102//102 97//97 101//101
f 100//100 97//97 102//102
f 6//6 93//93 5//5
f 101//101 93//93 6//6
f 88//88 103//103 104//104
f 105//105 104//104 103//103
f 87//87 88//88 104//104
f 106//106 87//87 104//104
f 82//82 106//106 104//104
f 107//107 82//82 104//104
f 108//108 107//107 104//104
f 109//109 108//108 104//104
f 105//105 109//109 104//104
f 88//88 110//110 103//103
f 111//111 103//103 110//110
f 111//111 105//105 103//103
f 89//89 112//112 110//110
f 113//113 110//110 112//112
f 88//88 89//89 110//110
f 113//113 111//111 110//110
f 90//90 114//114 112//112
f 115//115 112//112 114//114
f 89//89 90//90 112//112
f 115//115 113//113 112//112
f 90//90 116//116 114//114
f 117//117 114//114 116//116
f 117//117 115//115 114//114
f 92//92 118//118 116//116
f 119//119 116//116 118//118
f 90//90 92//92 116//116
f 119//119 117//117 116//116
f 92//92 120//120 118//118
f 121//121 118//118 120//120
f 121//121 119//119 118//118
f 95//95 122//122 120//120
f 123//123 120//120 122//122
f 92//92 95//95 120//120
f 123//123 121//121 120//120
f 95//95 124//124 122//122
f 125//125 122//122 124//124
f 125//125 123//123 122//122
f 99//99 126//126 124//124
f 127//127 124//124 126//126
f 95//95 99//99 124//124
f 127//127 125//125 124//124
f 100//100 128//128 126//126
f 129//129 126//126 128//128
f 99//99 100//100 126//126
f 129//129 127//127 126//126
f 102//102 130//130 128//128
f 131//131 128//128 130//130
f 100//100 102//102 128//128
f 131//131 129//129 128//128
f 101//101 132//132 130//130
f 133//133 130//130 132//132
f 102//102 101//101 130//130
f 133//133 131//131 130//130
f 8//8 16//16 132//132
f 134//134 132//132 16//16
f 9//9 8//8 132//132
f 6//6 9//9 132//132
f 101//101 6//6 132//132
f 134//134 133//133 132//132
f 11//11 16//16 8//8
f 16//16 11//11 10//10
f 4//4 9//9 6//6
f 96//96 95//95 92//92
f 106//106 86//86 87//87
f 135//135 84//84 86//86
f 106//106 135//135 86//86
f 136//136 85//85 84//84
f 135//135 136//136 84//84
f 137//137 81//81 85//85
f 136//136 137//137 85//85
f 82//82 81//81 137//137
f 82//82 137//137 136//136
f 82//82 136//136 135//135
f 82//82 135//135 106//106
f 138//138 139//139 14//14
f 15//15 14//14 139//139
f 140//140 138//138 14//14
f 13//13 140//140 14//14
f 138//138 141//141 139//139
f 142//142 139//139 141//141
f 15//15 139//139 134//134
f 142//142 134//134 139//139
f 138//138 143//143 141//141
f 144//144 141//141 143//143
f 144//144 142//142 141//141
f 138//138 145//145 143//143
f 146//146 143//143 145//145
f 146//146 147//147 143//143
f 144//144 143//143 147//147
f 148//148 149//149 145//145
f 150//150 145//145 149//149
f 138//138 148//148 145//145
f 146//146 145//145 150//150
f 151//151 152//152 149//149
f 150//150 149//149 152//152
f 148//148 151//151 149//149
f 151//151 153//153 152//152
f 154//154 152//152 153//153
f 150//150 152//152 154//154
f 155//155 153//153 151//151
f 154//154 153//153 155//155
f 155//155 151//151 148//148
f 156//156 148//148 138//138
f 155//155 148//148 156//156
f 157//157 138//138 140//140
f 158//158 138//138 157//157
f 159//159 138//138 158//158
f 159//159 156//156 138//138
f 21//21 160//160 140//140
f 161//161 140//140 160//160
f 19//19 21//21 140//140
f 13//13 19//19 140//140
f 157//157 140//140 161//161
f 24//24 162//162 160//160
f 161//161 160//160 162//162
f 21//21 24//24 160//160
f 29//29 163//163 162//162
f 164//164 162//162 163//163
f 27//27 29//29 162//162
f 24//24 27//27 162//162
f 161//161 162//162 164//164
f 38//38 165//165 163//163
f 166//166 163//163 165//165
f 29//29 38//38 163//163
f 164//164 163//163 166//166
f 167//167 168//168 165//165
f 169//169 165//165 168//168
f 38//38 167//167 165//165
f 166//166 165//165 169//169
f 167//167 170//170 168//168
f 171//171 168//168 170//170
f 169//169 168//168 171//171
f 167//167 172//172 170//170
f 173//173 170//170 172//172
f 171//171 170//170 173//173
f 167//167 174//174 172//172
f 175//175 172//172 174//174
f 173//173 172//172 175//175
f 167//167 176//176 174//174
f 177//177 174//174 176//176
f 178//178 174//174 177//177
f 175//175 174//174 178//178
f 179//179 180//180 176//176
f 177//177 176//176 180//180
f 167//167 179//179 176//176
f 181//181 182//182 180//180
f 183//183 180//180 182//182
f 179//179 181//181 180//180
f 184//184 177//177 180//180
f 185//185 184//184 180//180
f 183//183 185//185 180//180
f 60//60 74//74 182//182
f 186//186 182//182 74//74
f 181//181 60//60 182//182
f 187//187 183//183 182//182
f 188//188 187//187 182//182
f 186//186 188//188 182//182
f 65//65 72//72 74//74
f 60//60 65//65 74//74
f 189//189 186//186 74//74
f 75//75 189//189 74//74
f 68//68 71//71 72//72
f 65//65 68//68 72//72
f 69//69 70//70 71//71
f 68//68 69//69 71//71
f 190//190 60//60 181//181
f 190//190 61//61 60//60
f 191//191 181//181 179//179
f 192//192 190//190 181//181
f 191//191 192//192 181//181
f 193//193 179//179 167//167
f 194//194 191//191 179//179
f 195//195 194//194 179//179
f 193//193 195//195 179//179
f 39//39 167//167 38//38
f 196//196 193//193 167//167
f 197//197 196//196 167//167
f 198//198 197//197 167//167
f 199//199 198//198 167//167
f 39//39 199//199 167//167
f 200//200 32//32 51//51
f 201//201 40//40 32//32
f 201//201 32//32 200//200
f 200//200 51//51 52//52
f 202//202 52//52 50//50
f 200//200 52//52 202//202
f 202//202 50//50 56//56
f 203//203 56//56 57//57
f 202//202 56//56 203//203
f 204//204 57//57 55//55
f 203//203 57//57 204//204
f 205//205 55//55 62//62
f 204//204 55//55 205//205
f 205//205 62//62 61//61
f 206//206 61//61 190//190
f 205//205 61//61 206//206
f 207//207 190//190 192//192
f 207//207 206//206 190//190
f 208//208 192//192 191//191
f 207//207 192//192 208//208
f 209//209 191//191 194//194
f 208//208 191//191 209//209
f 209//209 194//194 195//195
f 210//210 195//195 193//193
f 209//209 195//195 210//210
f 210//210 193//193 196//196
f 210//210 196//196 197//197
f 211//211 197//197 198//198
f 210//210 197//197 211//211
f 212//212 177//177 184//184
f 105//105 177//177 213//213
f 214//214 213//213 177//177
f 215//215 178//178 177//177
f 216//216 215//215 177//177
f 217//217 216//216 177//177
f 218//218 217//217 177//177
f 105//105 218//218 177//177
f 214//214 177//177 212//212
f 212//212 184//184 185//185
f 219//219 185//185 183//183
f 212//212 185//185 219//219
f 219//219 183//183 187//187
f 220//220 187//187 188//188
f 219//219 187//187 220//220
f 221//221 188//188 186//186
f 220//220 188//188 221//221
f 222//222 186//186 189//189
f 221//221 186//186 222//222
f 222//222 189//189 75//75
f 223//223 75//75 73//73
f 222//222 75//75 223//223
f 224//224 73//73 77//77
f 224//224 223//223 73//73
f 225//225 77//77 76//76
f 224//224 77//77 225//225
f 226//226 76//76 79//79
f 225//225 76//76 226//226
f 226//226 79//79 80//80
f 227//227 80//80 78//78
f 226//226 80//80 227//227
f 227//227 78//78 83//83
f 227//227 83//83 82//82
f 228//228 82//82 107//107
f 227//227 82//82 228//228
f 229//229 107//107 108//108
f 228//228 107//107 229//229
f 230//230 108//108 109//109
f 229//229 108//108 230//230
f 105//105 231//231 109//109
f 232//232 109//109 231//231
f 230//230 109//109 232//232
f 105//105 233//233 231//231
f 234//234 231//231 233//233
f 232//232 231//231 234//234
f 105//105 235//235 233//233
f 236//236 233//233 235//235
f 234//234 233//233 236//236
f 105//105 237//237 235//235
f 238//238 235//235 237//237
f 239//239 235//235 238//238
f 236//236 235//235 239//239
f 105//105 240//240 237//237
f 241//241 237//237 240//240
f 238//238 237//237 241//241
f 105//105 213//213 240//240
f 214//214 240//240 213//213
f 241//241 240//240 214//214
f 175//175 178//178 215//215
f 175//175 215//215 216//216
f 173//173 216//216 217//217
f 173//173 175//175 216//216
f 171//171 217//217 218//218
f 171//171 173//173 217//217
f 169//169 218//218 105//105
f 169//169 171//171 218//218
f 169//169 105//105 111//111
f 242//242 198//198 199//199
f 211//211 198//198 242//242
f 243//243 199//199 39//39
f 242//242 199//199 243//243
f 244//244 39//39 41//41
f 243//243 39//39 244//244
f 245//245 41//41 42//42
f 244//244 41//41 245//245
f 246//246 42//42 43//43
f 245//245 42//42 246//246
f 247//247 43//43 44//44
f 248//248 43//43 247//247
f 246//246 43//43 248//248
f 249//249 44//44 45//45
f 247//247 44//44 249//249
f 201//201 45//45 40//40
f 249//249 45//45 201//201
f 15//15 134//134 16//16
f 166//166 111//111 113//113
f 166//166 169//169 111//111
f 164//164 113//113 115//115
f 164//164 166//166 113//113
f 164//164 115//115 117//117
f 161//161 117//117 119//119
f 161//161 164//164 117//117
f 161//161 119//119 121//121
f 157//157 121//121 123//123
f 157//157 161//161 121//121
f 158//158 123//123 125//125
f 158//158 157//157 123//123
f 156//156 125//125 127//127
f 156//156 158//158 125//125
f 155//155 127//127 129//129
f 155//155 156//156 127//127
f 154//154 129//129 131//131
f 154//154 155//155 129//129
f 150//150 131//131 133//133
f 150//150 154//154 131//131
f 142//142 133//133 134//134
f 142//142 147//147 133//133
f 146//146 133//133 147//147
f 146//146 150//150 133//133
f 144//144 147//147 142//142
f 159//159 158//158 156//156
f 248//248 205//205 206//206
f 246//246 248//248 206//206
f 207//207 246//246 206//206
f 247//247 204//204 205//205
f 248//248 247//247 205//205
f 249//249 203//203 204//204
f 247//247 249//249 204//204
f 201//201 202//202 203//203
f 249//249 201//201 203//203
f 201//201 200//200 202//202
f 207//207 245//245 246//246
f 208//208 244//244 245//245
f 207//207 208//208 245//245
f 209//209 243//243 244//244
f 208//208 209//209 244//244
f 210//210 242//242 243//243
f 209//209 210//210 243//243
f 210//210 211//211 242//242
f 239//239 222//222 223//223
f 236//236 239//239 223//223
f 224//224 236//236 223//223
f 238//238 221//221 222//222
f 239//239 238//238 222//222
f 241//241 220//220 221//221
f 238//238 241//241 221//221
f 214//214 219//219 220//220
f 241//241 214//214 220//220
f 214//214 212//212 219//219
f 224//224 234//234 236//236
f 225//225 232//232 234//234
f 224//224 225//225 234//234
f 226//226 230//230 232//232
f 225//225 226//226 232//232
f 227//227 229//229 230//230
f 226//226 227//227 230//230
f 227//227 228//228 229//229
# 494 faces, 0 coords texture

# End of File
