####
#
# OBJ File Generated by Meshlab
#
####
# Object ph_medium.obj
#
# Vertices: 236
# Faces: 468
#
####
vn -3.0611877 -0.6304215 -2.9388361
v -8.0803795 -1.6639313 2.2500000
vn -1.5626978 1.4114956 -1.4692076
v -8.2500000 0.0000000 2.2500000
vn -4.6967669 1.5846677 -1.6830326
v -6.5000000 0.0000000 2.2500000
vn -4.9902654 1.4457636 1.6555297
v -6.5000000 0.0000000 3.2500000
vn -2.8709791 -1.2352729 -2.9390857
v -7.5782404 -3.2604809 2.2500000
vn -2.5626364 -1.7891843 -2.9387460
v -6.7644548 -4.7227025 2.2500000
vn -3.0435965 -0.6946319 -3.3658895
v -6.3370161 -1.4460554 2.2500000
vn -3.0435963 -0.6946318 3.3658903
v -6.3370161 -1.4460554 -2.2500000
vn -4.6967669 1.5846677 1.6830322
v -6.5000000 0.0000000 -2.2500000
vn -3.0959070 0.3795187 2.9087615
v -6.4526072 0.7830161 6.2500000
vn -1.8180588 1.5600182 1.4481860
v -8.2500000 0.0000000 2.9414277
vn -3.3449593 -1.4380499 2.8951132
v -7.5786080 -3.2599387 2.9414277
vn -3.5645764 -0.7336690 2.8955393
v -8.0804090 -1.6641790 2.9414277
vn -2.9871624 -2.0838492 2.8952975
v -6.7652278 -4.7216725 2.9414277
vn -2.8127398 -1.3543760 -3.3660288
v -5.8562584 -2.8202755 2.2500000
vn -2.1491416 -2.2692370 -2.9386289
v -5.6732583 -5.9896927 2.2500000
vn -2.5056136 -2.6444054 2.8953462
v -5.6737089 -5.9892840 2.9414277
vn -2.4408548 -1.9463168 -3.3659527
v -5.0823531 -4.0520220 2.2500000
vn -1.6471053 -2.6562202 -2.9391005
v -4.3481479 -7.0110154 2.2500000
vn -1.9206299 -3.0958478 2.8949170
v -4.3489270 -7.0106583 2.9414277
vn -1.9466392 -2.4405947 -3.3659666
v -4.0527267 -5.0817919 2.2500000
vn -1.0771623 -2.9339724 -2.9391136
v -2.8436544 -7.7443113 2.2500000
vn -1.2542536 -3.4181278 2.8952966
v -2.8453479 -7.7438035 2.9414277
vn -0.6948290 -3.0435405 -3.3659496
v -1.4465165 -6.3369122 2.2500000
vn -0.4630773 -3.0909324 -2.9387000
v -1.2228216 -8.1588593 2.2500000
vn -0.5414397 -3.6001341 2.8957880
v -1.2247877 -8.1585779 2.9414277
vn -1.3546854 -2.8125849 -3.3660588
v -2.8209515 -5.8559318 2.2500000
vn -0.1759848 -3.1317034 -3.2538636
v 0.0000000 -6.5000000 2.2500000
vn 0.1698075 -3.1208274 -2.9388821
v 0.4473886 -8.2378159 2.2500000
vn 0.1961520 -3.6351874 2.8957391
v 0.4461271 -8.2379284 2.9414277
vn 0.8369247 -6.0416584 -0.5618880
v 5.0806003 -6.5000000 2.2500000
vn 0.7960620 -3.0223894 -2.9392574
v 2.1004555 -7.9780045 2.2500000
vn 0.9255043 -3.5229418 2.8950720
v 2.0987003 -7.9785938 2.9414277
vn 1.3897259 -2.7994998 -2.9391565
v 3.6674583 -7.3898849 2.2500000
vn 1.6169415 -3.2663836 2.8947101
v 3.6649897 -7.3912349 2.9414277
vn 0.8370279 -6.0415936 0.5619868
v 5.0806003 -6.5000000 -2.2500000
vn -1.0330954 -2.7540643 -3.8593392
v 10.0717964 -6.5000000 -6.2500000
vn 0.8922586 -6.0310726 0.5599831
v 5.0806003 -6.5000000 2.9414277
vn -0.1759848 -3.1317034 3.2538633
v -0.0000000 -6.5000000 -2.2500000
vn -0.6948291 -3.0435405 3.3659496
v -1.4465165 -6.3369122 -2.2500000
vn -1.3546853 -2.8125849 3.3660588
v -2.8209515 -5.8559318 -2.2500000
vn -1.9466391 -2.4405947 3.3659666
v -4.0527267 -5.0817919 -2.2500000
vn -2.4408550 -1.9463170 3.3659527
v -5.0823531 -4.0520220 -2.2500000
vn -2.8127398 -1.3543760 3.3660283
v -5.8562584 -2.8202755 -2.2500000
vn 1.6373466 1.7447920 4.5513592
v 23.5000019 -0.0000375 6.2500000
vn 3.0557866 -0.6603180 2.9446859
v 26.2853451 -2.0075870 6.2500000
vn 1.6370063 1.3899174 1.5052673
v 26.4988766 -0.1461539 6.2500000
vn 1.9088582 1.5362549 -1.4827993
v 26.4988766 -0.1461539 5.7789807
vn 0.3062197 6.2757764 -0.0000003
v 23.5000954 -0.0000422 5.7499323
vn 0.6971835 3.1069715 -3.0939279
v 24.8981571 -0.0681609 5.4965844
vn 2.8663778 -1.2480655 2.9445639
v 25.7096977 -3.7933555 6.2500000
vn 3.5579491 -0.7716894 -2.9006648
v 26.2850914 -2.0092473 5.7789807
vn 2.5653391 -1.7867694 2.9439449
v 24.7950706 -5.4301810 6.2500000
vn 3.3375463 -1.4534307 -2.9008498
v 25.7094898 -3.7940452 5.7789807
vn 2.1644819 -2.2558298 2.9445190
v 23.5766430 -6.8553743 6.2500000
vn 2.9878027 -2.0817251 -2.9011531
v 24.7945023 -5.4309983 5.7789807
vn 2.8126943 1.3544726 2.9171448
v 22.8563900 2.8200192 6.2500000
vn 1.6788948 -2.6372473 2.9445329
v 22.1011124 -8.0141773 6.2500000
vn 2.5208702 -2.6287546 -2.9004993
v 23.5757809 -6.8563190 5.7789807
vn 3.0435638 0.6947575 2.9172633
v 23.3369026 1.4466990 6.2500000
vn 1.9466845 2.4405677 2.9172668
v 21.0533619 5.0813093 6.2500000
vn 1.1281322 -2.9156127 2.9439046
v 20.4277229 -8.8600636 6.2500000
vn 1.9534650 -3.0718932 -2.9008000
v 22.1008167 -8.0144663 5.7789807
vn 2.4408369 1.9463480 2.9172642
v 22.0818825 4.0526443 6.2500000
vn 1.3547882 2.8125377 2.9171331
v 19.8207111 5.8560572 6.2500000
vn 0.5335395 -3.0804315 2.9444807
v 18.6207390 -9.3606405 6.2500000
vn 1.3134443 -3.3947656 -2.9013739
v 20.4270878 -8.8603086 5.7789807
vn 0.1760318 3.1316981 3.0292912
v 17.0000000 6.5000000 6.2500000
vn -0.0823106 -3.1252134 2.9444995
v 16.7494984 -9.4966116 6.2500000
vn 0.6209630 -3.5879254 -2.9006128
v 18.6198120 -9.3608866 5.7789807
vn 0.6949503 3.0435095 2.9172094
v 18.4471741 6.3367939 6.2500000
vn -0.1894373 3.1301281 3.0207057
v 0.0000000 6.5000000 6.2500000
vn -0.6945892 -3.0481136 2.9438736
v 14.8891277 -9.2625170 6.2500000
vn -0.0959919 -3.6401715 -2.9005966
v 16.7494183 -9.4966946 5.7789807
vn -1.2797308 -2.8523645 2.9444516
v 13.1110249 -8.6674252 6.2500000
vn -0.8090945 -3.5512803 -2.9009647
v 14.8887882 -9.2624397 5.7789807
vn -1.8153915 -2.5452032 2.9444664
v 11.4834661 -7.7340956 6.2500000
vn -1.4918293 -3.3231673 -2.9003439
v 13.1104259 -8.6672497 5.7789807
vn -1.0338786 -2.7533770 3.8600054
v 10.0717964 -6.5000000 6.2500000
vn -2.1138411 -2.9658153 -2.9004717
v 11.4836321 -7.7343187 5.7789807
vn -0.1894384 -3.1301284 3.0206983
v 0.0000000 -6.5000000 6.2500000
vn -1.1186562 -5.8738875 -0.7148269
v 10.0717964 -6.5000000 5.7789807
vn -0.7463850 3.0280764 2.9000359
v -1.5554338 6.3110352 6.2500000
vn -0.7342746 -3.0329485 2.9279368
v -1.5554338 -6.3110352 6.2500000
vn -0.1158600 -3.7111919 3.1814339
v 0.0000000 -6.5000000 3.2500000
vn 0.0954152 -3.7063262 3.0887558
v 1.2549816 -6.5000000 3.2288177
vn 0.2721447 -3.6459661 3.0887580
v 3.7523477 -6.5000000 3.0727584
vn 0.1857103 -3.6807141 3.0892918
v 2.4986835 -6.5000000 3.1682334
vn -1.4493182 2.7614405 2.8998199
v -3.0209568 5.7553191 6.2500000
vn -1.4518152 -2.7636971 2.9388394
v -3.0209568 -5.7553191 6.2500000
vn -1.2251353 -3.4977639 3.2138281
v -2.1468139 -6.1352415 3.2500000
vn -0.3792478 -3.6828859 3.2672386
v -0.7277691 -6.4591293 3.2500000
vn -0.8289353 -3.6175208 3.2019637
v -1.4463861 -6.3370314 3.2500000
vn -2.0681269 2.3343456 2.9000285
v -4.3100290 4.8654213 6.2500000
vn -2.0713024 -2.3353214 2.9354055
v -4.3100290 -4.8654213 6.2500000
vn -1.9797536 -3.1269190 3.2167535
v -3.4582086 -5.5037074 3.2500000
vn -1.5999126 -3.3405709 3.2067339
v -2.8202443 -5.8562975 3.2500000
vn -2.5666194 1.7716062 2.8998516
v -5.3496208 3.6920400 6.2500000
vn -2.5700588 -1.7708139 2.9300601
v -5.3496208 -3.6920400 6.2500000
vn -2.6313426 -2.6039295 3.2196817
v -4.5961943 -4.5961943 3.2500000
vn -2.2983882 -2.9043753 3.2126255
v -4.0526838 -5.0819044 3.2500000
vn -2.9160426 1.1058747 2.8999848
v -6.0773859 2.3052785 6.2500000
vn -2.9189296 -1.1032803 2.9235086
v -6.0773859 -2.3052785 6.2500000
vn -3.1503596 -1.9489148 3.2232366
v -5.5037074 -3.4582086 3.2500000
vn -2.8833599 -2.3246715 3.2207036
v -5.0819044 -4.0526838 3.2500000
vn -3.0975246 -0.3714499 2.9152086
v -6.4526072 -0.7830161 6.2500000
vn -3.5108879 -1.1944358 3.2277679
v -6.1352415 -2.1468139 3.2500000
vn -3.3260705 -1.6298287 3.2310302
v -5.8562975 -2.8202443 3.2500000
vn -3.6948416 -0.3780323 3.2329998
v -6.4591293 -0.7277691 3.2500000
vn -3.6045668 -0.8540367 3.2436733
v -6.3370314 -1.4463861 3.2500000
vn -3.0958080 0.3913578 -2.9208069
v -6.4524488 0.7839456 -6.2500000
vn -4.9863567 1.4812957 -1.6109301
v -6.5000000 0.0000000 -3.2500000
vn -2.9160161 1.1058693 -2.8998337
v -6.0777178 2.3046043 -6.2500000
vn -2.5666223 1.7716539 -2.9000258
v -5.3493433 3.6922507 -6.2500000
vn -2.0680859 2.3343453 -2.8998783
v -4.3098831 4.8656359 -6.2500000
vn -1.4492786 2.7614863 -2.8999426
v -3.0211558 5.7551451 -6.2500000
vn -0.7464097 3.0280638 -2.9000092
v -1.5552152 6.3110747 -6.2500000
vn -0.1894255 3.1301293 -3.0207062
v 0.0000000 6.5000000 -6.2500000
vn 0.1759215 3.1317108 -3.0293560
v 17.0000000 6.5000000 -6.2500000
vn 1.3545063 2.8126915 -2.9172549
v 19.8203678 5.8560882 -6.2500000
vn 0.6946983 3.0435667 -2.9172223
v 18.4458733 6.3370523 -6.2500000
vn 1.9464236 2.4407601 -2.9172003
v 21.0530567 5.0815639 -6.2500000
vn 2.4407640 1.9464184 -2.9171903
v 22.0815639 4.0530567 -6.2500000
vn 2.8126903 1.3545072 -2.9172378
v 22.8560886 2.8203676 -6.2500000
vn 3.0435600 0.6946868 -2.9171770
v 23.3370514 1.4458729 -6.2500000
vn 5.0337925 1.6243242 -1.5552926
v 23.4992313 0.0000000 5.2498646
vn -0.1841724 -3.1307204 -3.0312459
v 0.0000000 -6.5000000 -6.2500000
vn -0.7428326 -3.0304151 -2.9196625
v -1.5552152 -6.3110747 -6.2500000
vn -1.8120873 -2.5473089 -2.9431634
v 11.4932976 -7.7410970 -6.2500000
vn -0.0667799 -3.1253827 -2.9432054
v 16.7974377 -9.4977531 -6.2500000
vn -1.2725136 -2.8553777 -2.9432027
v 13.1330175 -8.6772566 -6.2500000
vn -0.6830533 -3.0505149 -2.9425881
v 14.9242792 -9.2704573 -6.2500000
vn -1.8216271 1.5627193 -1.4476315
v -8.2500000 0.0000000 -2.9414277
vn -2.5626364 -1.7891843 2.9387465
v -6.7644548 -4.7227025 -2.2500000
vn -1.5627018 1.4115337 1.4692398
v -8.2500000 0.0000000 -2.2500000
vn -3.0993021 -0.3765643 -2.9417837
v -6.4524488 -0.7839456 -6.2500000
vn -3.6811574 -0.4117217 -3.2024379
v -6.4591293 -0.7277691 -3.2500000
vn -3.6075170 -0.8305280 -3.2139521
v -6.3370314 -1.4463861 -3.2500000
vn -3.5680707 -0.7352324 -2.8949687
v -8.0804090 -1.6641790 -2.9414277
vn -2.9187822 -1.1078002 -2.9401326
v -6.0777178 -2.3046043 -6.2500000
vn -3.4993358 -1.2149954 -3.2046165
v -6.1352415 -2.1468139 -3.2500000
vn -3.3312559 -1.6197187 -3.2150846
v -5.8562975 -2.8202443 -3.2500000
vn -3.3458483 -1.4395963 -2.8948834
v -7.5786080 -3.2599387 -2.9414277
vn -2.5683064 -1.7745230 -2.9374547
v -5.3493433 -3.6922507 -6.2500000
vn -3.1445718 -1.9585044 -3.2093246
v -5.5037074 -3.4582086 -3.2500000
vn -2.8860657 -2.3279963 -3.2169502
v -5.0819044 -4.0526838 -3.2500000
vn -2.9858603 -2.0842860 -2.8954289
v -6.7652278 -4.7216725 -2.9414277
vn -2.0681744 -2.3377748 -2.9328530
v -4.3098831 -4.8656359 -6.2500000
vn -2.6342089 -2.6057026 -3.2160845
v -4.5961943 -4.5961943 -3.2500000
vn -2.2938647 -2.9201124 -3.2193923
v -4.0526838 -5.0819044 -3.2500000
vn -2.5028391 -2.6427665 -2.8958454
v -5.6737089 -5.9892840 -2.9414277
vn -1.4476402 -2.7647150 -2.9269979
v -3.0211558 -5.7551451 -6.2500000
vn -1.9931031 -3.1247337 -3.2250710
v -3.4582086 -5.5037074 -3.2500000
vn -1.5859741 -3.3460834 -3.2260859
v -2.8202443 -5.8562975 -3.2500000
vn -1.9210019 -3.0920680 -2.8954120
v -4.3489270 -7.0106583 -2.9414277
vn -1.2420690 -3.4856324 -3.2378604
v -2.1468139 -6.1352415 -3.2500000
vn -1.2566075 -3.4195571 -2.8949437
v -2.8453479 -7.7438035 -2.9414277
vn -0.7994595 -3.6152885 -3.2318661
v -1.4463861 -6.3370314 -3.2500000
vn -0.4372773 -3.6756649 -3.2512496
v -0.7277691 -6.4591293 -3.2500000
vn -0.5407376 -3.6023047 -2.8954592
v -1.2247877 -8.1585779 -2.9414277
vn -0.0833917 -3.7116723 -3.1449132
v -0.0000000 -6.5000000 -3.2500000
vn 0.0953436 -3.7064321 -3.0887384
v 1.2541584 -6.5000000 -3.2288897
vn 0.1966132 -3.6356940 -2.8956530
v 0.4461271 -8.2379284 -2.9414277
vn -0.4630773 -3.0909324 2.9386997
v -1.2228216 -8.1588593 -2.2500000
vn 1.3896222 -2.7995648 2.9392552
v 3.6674583 -7.3898849 -2.2500000
vn 0.7960620 -3.0223894 2.9392569
v 2.1004555 -7.9780045 -2.2500000
vn 0.1698075 -3.1208274 2.9388824
v 0.4473886 -8.2378159 -2.2500000
vn -1.0771623 -2.9339724 2.9391136
v -2.8436544 -7.7443113 -2.2500000
vn -1.6471053 -2.6562202 2.9391003
v -4.3481479 -7.0110154 -2.2500000
vn -2.1491416 -2.2692370 2.9386303
v -5.6732583 -5.9896927 -2.2500000
vn -0.0838241 -3.7060626 -3.0891628
v 15.9062538 -6.5000000 5.2660875
vn -0.0836439 -3.7063124 3.0891211
v 15.9069700 -6.5000000 -5.2660666
vn 0.0853607 -3.7112992 3.1449933
v 17.0000000 -6.5000000 -5.2500000
vn -0.0764665 -3.6392088 2.8994696
v 16.7981243 -9.4978552 -5.7789807
vn 0.0832982 -3.7086749 -3.1454844
v 17.0000000 -6.5000000 5.2500000
vn 0.4106190 -3.6831501 3.2016759
v 17.7277699 -6.4591293 -5.2500000
vn 0.6431312 -3.5831041 2.8994462
v 18.6797867 -9.3503113 -5.7789807
vn -0.1639897 -3.6844249 3.0898693
v 14.8231363 -6.5000000 -5.3125210
vn -0.7950751 -3.5539818 2.8997121
v 14.9244299 -9.2704916 -5.7789807
vn -0.1641539 -3.6842825 -3.0898852
v 14.8219233 -6.5000000 5.3125882
vn -0.2387898 -3.6547258 3.0900640
v 13.7409515 -6.5000000 -5.3859587
vn -1.4831039 -3.3267605 2.8990755
v 13.1326637 -8.6771946 -5.7789807
vn -0.3176249 -3.6073537 -3.0904670
v 12.0410118 -6.5000000 5.5454502
vn -0.3178175 -3.6072950 3.0904555
v 12.0409422 -6.5000000 -5.5454597
vn -2.1098704 -2.9683290 2.8991563
v 11.4935522 -7.7413845 -5.7789807
vn -0.2388062 -3.6546969 -3.0900664
v 13.7396994 -6.5000000 5.3860579
vn -1.1177962 -5.8746128 0.7141641
v 10.0717964 -6.5000000 -5.7789807
vn 0.1857060 -3.6808043 -3.0892761
v 2.4977500 -6.5000000 -3.1683235
vn 0.2721247 -3.6458673 -3.0887761
v 3.7515171 -6.5000000 -3.0728145
vn 0.8923509 -6.0310082 -0.5600818
v 5.0806003 -6.5000000 -2.9414277
vn 0.9255269 -3.5230155 -2.8950593
v 2.0987003 -7.9785938 -2.9414277
vn 1.6168754 -3.2664332 -2.8948071
v 3.6649897 -7.3912349 -2.9414277
vn 0.4125294 -3.6796019 -3.2022905
v 17.7277660 -6.4591298 5.2500000
vn 3.6787868 -0.4130612 -3.2033617
v 23.4591255 -0.7277969 5.2500000
vn 4.9724798 1.6443393 1.6014271
v 23.5000000 0.0000000 -5.2500000
vn 3.6114120 -0.8285823 -3.2017956
v 23.3370228 -1.4464200 5.2500000
vn 3.6088412 -0.8254189 3.2024016
v 23.3370323 -1.4463861 -5.2500000
vn 3.6789477 -0.4138349 3.2023866
v 23.4591293 -0.7277691 -5.2500000
vn 3.5008593 -1.2198093 -3.2014310
v 23.1352310 -2.1468418 5.2500000
vn 3.4955447 -1.2210301 3.2022886
v 23.1352425 -2.1468139 -5.2500000
vn 3.3354411 -1.6096689 -3.2021203
v 22.8562851 -2.8202684 5.2500000
vn 3.3358283 -1.6101869 3.2020185
v 22.8562984 -2.8202443 -5.2500000
vn 3.1377418 -1.9678631 -3.2020810
v 22.5036945 -3.4582288 5.2500000
vn 3.1377506 -1.9677771 3.2020853
v 22.5037079 -3.4582086 -5.2500000
vn 2.8936076 -2.3098605 -3.2023249
v 22.0818920 -4.0527005 5.2500000
vn 2.8955688 -2.3156011 3.2013750
v 22.0819054 -4.0526838 -5.2500000
vn 2.6185441 -2.6166043 -3.2024386
v 21.5961800 -4.5962071 5.2500000
vn 2.3078661 -2.8946207 -3.2024100
v 21.0526714 -5.0819144 5.2500000
vn 2.6231360 -2.6170731 3.2017689
v 21.5961933 -4.5961943 -5.2500000
vn 1.9678273 -3.1400278 -3.2017126
v 20.4581966 -5.5037146 5.2500000
vn 2.3083000 -2.8943391 3.2023988
v 21.0526829 -5.0819044 -5.2500000
vn 1.6136849 -3.3386834 -3.2012608
v 19.8202343 -5.8563023 5.2500000
vn 1.9685287 -3.1347342 3.2024858
v 20.4582081 -5.5037074 -5.2500000
vn 1.2201791 -3.4970775 -3.2020662
v 19.1468067 -6.1352444 5.2500000
vn 1.6077133 -3.3351049 3.2023418
v 19.8202438 -5.8562975 -5.2500000
vn 0.8277235 -3.6107059 -3.2019713
v 18.4463806 -6.3370328 5.2500000
vn 1.2205349 -3.4961455 3.2022104
v 19.1468143 -6.1352415 -5.2500000
vn 0.8266979 -3.6097620 3.2021840
v 18.4463863 -6.3370314 -5.2500000
vn 0.5525976 -3.0768728 -2.9432483
v 18.6797104 -9.3502359 -6.2500000
vn 1.1497952 -2.9069242 -2.9426305
v 20.4945908 -8.8339024 -6.2500000
vn 1.7015963 -2.6224184 -2.9432502
v 22.1715717 -7.9688883 -6.2500000
vn 1.5609150 1.7467099 -4.6001635
v 23.5000000 0.0000000 -6.2500000
vn 1.8209805 1.5652914 1.4498464
v 26.5000000 0.0000000 -5.7789807
vn 2.1866367 -2.2340879 -2.9432676
v 23.6454334 -6.7887087 -6.2500000
vn 1.5630256 1.4147439 -1.4712927
v 26.5000000 0.0000000 -6.2500000
vn 3.5697715 -0.7202030 2.8992112
v 26.3125038 -1.8781030 -5.7789807
vn 3.3563697 -1.4112431 2.8993182
v 25.7574158 -3.6820719 -5.7789807
vn 3.0100446 -2.0464797 2.9000866
v 24.8566494 -5.3406987 -5.7789807
vn 2.5474546 -2.6003766 2.8994944
v 23.6457577 -6.7885132 -5.7789807
vn 1.9831048 -3.0545709 2.8991961
v 22.1725388 -7.9683657 -5.7789807
vn 1.3395787 -3.3860261 2.8998287
v 20.4951439 -8.8336840 -5.7789807
vn -2.8709791 -1.2352729 2.9390860
v -7.5782404 -3.2604809 -2.2500000
vn -3.0611839 -0.6304598 2.9388666
v -8.0803795 -1.6639313 -2.2500000
vn 2.5850716 -1.7577379 -2.9426250
v 24.8562355 -5.3413086 -6.2500000
vn 2.8815393 -1.2121127 -2.9432251
v 25.7569447 -3.6829658 -6.2500000
vn 3.0643783 -0.6181068 -2.9431968
v 26.3124161 -1.8781072 -6.2500000
# 236 vertices, 0 vertices normals

f 1//1 2//2 3//3
f 4//4 3//3 2//2
f 5//5 1//1 3//3
f 6//6 5//5 3//3
f 7//7 6//6 3//3
f 8//8 7//7 3//3
f 9//9 3//3 10//10
f 4//4 10//10 3//3
f 8//8 3//3 9//9
f 11//11 2//2 1//1
f 11//11 4//4 2//2
f 12//12 1//1 5//5
f 13//13 11//11 1//1
f 13//13 1//1 12//12
f 14//14 5//5 6//6
f 12//12 5//5 14//14
f 15//15 16//16 6//6
f 17//17 6//6 16//16
f 7//7 15//15 6//6
f 14//14 6//6 17//17
f 18//18 19//19 16//16
f 20//20 16//16 19//19
f 15//15 18//18 16//16
f 17//17 16//16 20//20
f 21//21 22//22 19//19
f 23//23 19//19 22//22
f 18//18 21//21 19//19
f 20//20 19//19 23//23
f 24//24 25//25 22//22
f 26//26 22//22 25//25
f 27//27 24//24 22//22
f 21//21 27//27 22//22
f 23//23 22//22 26//26
f 28//28 29//29 25//25
f 30//30 25//25 29//29
f 24//24 28//28 25//25
f 26//26 25//25 30//30
f 31//31 32//32 29//29
f 33//33 29//29 32//32
f 28//28 31//31 29//29
f 30//30 29//29 33//33
f 31//31 34//34 32//32
f 35//35 32//32 34//34
f 33//33 32//32 35//35
f 35//35 34//34 31//31
f 36//36 31//31 28//28
f 36//36 37//37 31//31
f 38//38 31//31 37//37
f 35//35 31//31 38//38
f 39//39 28//28 24//24
f 36//36 28//28 39//39
f 40//40 24//24 27//27
f 40//40 39//39 24//24
f 41//41 27//27 21//21
f 41//41 40//40 27//27
f 42//42 21//21 18//18
f 42//42 41//41 21//21
f 43//43 18//18 15//15
f 43//43 42//42 18//18
f 44//44 15//15 7//7
f 44//44 43//43 15//15
f 8//8 44//44 7//7
f 45//45 46//46 47//47
f 48//48 47//47 46//46
f 49//49 45//45 47//47
f 50//50 47//47 48//48
f 49//49 47//47 50//50
f 45//45 51//51 46//46
f 52//52 46//46 51//51
f 48//48 46//46 52//52
f 45//45 53//53 51//51
f 54//54 51//51 53//53
f 52//52 51//51 54//54
f 45//45 55//55 53//53
f 56//56 53//53 55//55
f 54//54 53//53 56//56
f 57//57 58//58 55//55
f 59//59 55//55 58//58
f 60//60 57//57 55//55
f 45//45 60//60 55//55
f 56//56 55//55 59//59
f 61//61 62//62 58//58
f 63//63 58//58 62//62
f 64//64 61//61 58//58
f 57//57 64//64 58//58
f 59//59 58//58 63//63
f 65//65 66//66 62//62
f 67//67 62//62 66//66
f 61//61 65//65 62//62
f 63//63 62//62 67//67
f 68//68 69//69 66//66
f 70//70 66//66 69//69
f 71//71 68//68 66//66
f 65//65 71//71 66//66
f 67//67 66//66 70//70
f 72//72 73//73 69//69
f 74//74 69//69 73//73
f 68//68 72//72 69//69
f 70//70 69//69 74//74
f 72//72 75//75 73//73
f 76//76 73//73 75//75
f 74//74 73//73 76//76
f 72//72 77//77 75//75
f 78//78 75//75 77//77
f 76//76 75//75 78//78
f 72//72 79//79 77//77
f 80//80 77//77 79//79
f 78//78 77//77 80//80
f 72//72 81//81 79//79
f 82//82 79//79 81//81
f 80//80 79//79 82//82
f 83//83 84//84 81//81
f 85//85 81//81 84//84
f 72//72 83//83 81//81
f 86//86 81//81 85//85
f 87//87 38//38 81//81
f 82//82 81//81 38//38
f 88//88 87//87 81//81
f 86//86 88//88 81//81
f 89//89 90//90 84//84
f 91//91 84//84 90//90
f 83//83 89//89 84//84
f 92//92 85//85 84//84
f 93//93 92//92 84//84
f 91//91 93//93 84//84
f 94//94 95//95 90//90
f 96//96 90//90 95//95
f 89//89 94//94 90//90
f 97//97 91//91 90//90
f 96//96 97//97 90//90
f 98//98 99//99 95//95
f 100//100 95//95 99//99
f 94//94 98//98 95//95
f 101//101 96//96 95//95
f 100//100 101//101 95//95
f 102//102 103//103 99//99
f 104//104 99//99 103//103
f 98//98 102//102 99//99
f 105//105 100//100 99//99
f 104//104 105//105 99//99
f 10//10 106//106 103//103
f 107//107 103//103 106//106
f 102//102 10//10 103//103
f 108//108 104//104 103//103
f 107//107 108//108 103//103
f 109//109 106//106 10//10
f 110//110 107//107 106//106
f 109//109 110//110 106//106
f 111//111 10//10 102//102
f 112//112 9//9 10//10
f 111//111 112//112 10//10
f 4//4 109//109 10//10
f 113//113 102//102 98//98
f 113//113 111//111 102//102
f 114//114 98//98 94//94
f 114//114 113//113 98//98
f 115//115 94//94 89//89
f 115//115 114//114 94//94
f 116//116 89//89 83//83
f 116//116 115//115 89//89
f 117//117 83//83 72//72
f 117//117 116//116 83//83
f 118//118 72//72 68//68
f 117//117 72//72 118//118
f 119//119 68//68 71//71
f 119//119 118//118 68//68
f 120//120 71//71 65//65
f 121//121 119//119 71//71
f 120//120 121//121 71//71
f 122//122 65//65 61//61
f 122//122 120//120 65//65
f 123//123 61//61 64//64
f 123//123 122//122 61//61
f 123//123 64//64 57//57
f 124//124 57//57 60//60
f 124//124 123//123 57//57
f 125//125 60//60 45//45
f 125//125 124//124 60//60
f 125//125 45//45 126//126
f 49//49 126//126 45//45
f 127//127 118//118 119//119
f 128//128 118//118 127//127
f 117//117 118//118 128//128
f 37//37 127//127 119//119
f 129//129 37//37 119//119
f 130//130 119//119 121//121
f 131//131 129//129 119//119
f 132//132 131//131 119//119
f 130//130 132//132 119//119
f 133//133 9//9 112//112
f 134//134 8//8 9//9
f 135//135 134//134 9//9
f 133//133 135//135 9//9
f 136//136 137//137 112//112
f 133//133 112//112 137//137
f 111//111 136//136 112//112
f 136//136 138//138 137//137
f 139//139 137//137 138//138
f 139//139 133//133 137//137
f 140//140 141//141 138//138
f 139//139 138//138 141//141
f 136//136 140//140 138//138
f 140//140 142//142 141//141
f 143//143 141//141 142//142
f 143//143 139//139 141//141
f 144//144 145//145 142//142
f 143//143 142//142 145//145
f 140//140 144//144 142//142
f 144//144 146//146 145//145
f 147//147 145//145 146//146
f 147//147 143//143 145//145
f 148//148 149//149 146//146
f 147//147 146//146 149//149
f 144//144 148//148 146//146
f 148//148 150//150 149//149
f 151//151 149//149 150//150
f 151//151 147//147 149//149
f 152//152 153//153 150//150
f 151//151 150//150 153//153
f 148//148 152//152 150//150
f 152//152 154//154 153//153
f 155//155 153//153 154//154
f 155//155 151//151 153//153
f 128//128 156//156 154//154
f 157//157 154//154 156//156
f 152//152 128//128 154//154
f 157//157 155//155 154//154
f 128//128 158//158 156//156
f 157//157 156//156 158//158
f 127//127 159//159 158//158
f 160//160 158//158 159//159
f 128//128 127//127 158//158
f 160//160 157//157 158//158
f 127//127 161//161 159//159
f 160//160 159//159 161//161
f 37//37 161//161 127//127
f 162//162 161//161 37//37
f 163//163 161//161 162//162
f 163//163 160//160 161//161
f 117//117 128//128 152//152
f 116//116 152//152 148//148
f 117//117 152//152 116//116
f 115//115 148//148 144//144
f 116//116 148//148 115//115
f 114//114 144//144 140//140
f 115//115 144//144 114//114
f 113//113 140//140 136//136
f 114//114 140//140 113//113
f 113//113 136//136 111//111
f 30//30 85//85 92//92
f 30//30 86//86 85//85
f 26//26 92//92 93//93
f 26//26 30//30 92//92
f 26//26 93//93 91//91
f 23//23 91//91 97//97
f 23//23 26//26 91//91
f 20//20 97//97 96//96
f 20//20 23//23 97//97
f 20//20 96//96 101//101
f 17//17 101//101 100//100
f 17//17 20//20 101//101
f 17//17 100//100 105//105
f 14//14 105//105 104//104
f 14//14 17//17 105//105
f 14//14 104//104 108//108
f 12//12 108//108 107//107
f 12//12 14//14 108//108
f 12//12 107//107 110//110
f 13//13 110//110 109//109
f 13//13 12//12 110//110
f 13//13 109//109 4//4
f 13//13 4//4 11//11
f 164//164 39//39 40//40
f 165//165 36//36 39//39
f 166//166 165//165 39//39
f 167//167 166//166 39//39
f 164//164 167//167 39//39
f 164//164 40//40 41//41
f 168//168 41//41 42//42
f 168//168 164//164 41//41
f 169//169 42//42 43//43
f 169//169 168//168 42//42
f 170//170 43//43 44//44
f 170//170 169//169 43//43
f 170//170 44//44 8//8
f 134//134 170//170 8//8
f 171//171 172//172 173//173
f 174//174 173//173 172//172
f 175//175 171//171 173//173
f 176//176 175//175 173//173
f 177//177 176//176 173//173
f 174//174 177//177 173//173
f 171//171 178//178 172//172
f 179//179 172//172 178//178
f 179//179 174//174 172//172
f 180//180 181//181 178//178
f 182//182 178//178 181//181
f 171//171 180//180 178//178
f 182//182 179//179 178//178
f 183//183 184//184 181//181
f 185//185 181//181 184//184
f 186//186 183//183 181//181
f 180//180 186//186 181//181
f 185//185 182//182 181//181
f 82//82 187//187 184//184
f 185//185 184//184 187//187
f 183//183 82//82 184//184
f 38//38 37//37 187//187
f 129//129 187//187 37//37
f 82//82 38//38 187//187
f 185//185 187//187 129//129
f 188//188 162//162 37//37
f 189//189 188//188 37//37
f 190//190 189//189 37//37
f 36//36 190//190 37//37
f 191//191 162//162 188//188
f 191//191 163//163 162//162
f 192//192 188//188 189//189
f 192//192 191//191 188//188
f 192//192 189//189 190//190
f 165//165 190//190 36//36
f 192//192 190//190 165//165
f 35//35 38//38 87//87
f 35//35 87//87 88//88
f 33//33 88//88 86//86
f 33//33 35//35 88//88
f 30//30 33//33 86//86
f 80//80 82//82 183//183
f 80//80 183//183 186//186
f 78//78 186//186 180//180
f 78//78 80//80 186//186
f 76//76 180//180 171//171
f 76//76 78//78 180//180
f 74//74 171//171 175//175
f 74//74 76//76 171//171
f 74//74 175//175 193//193
f 176//176 193//193 175//175
f 50//50 194//194 126//126
f 195//195 126//126 194//194
f 49//49 50//50 126//126
f 195//195 125//125 126//126
f 52//52 196//196 194//194
f 197//197 194//194 196//196
f 48//48 52//52 194//194
f 50//50 48//48 194//194
f 198//198 195//195 194//194
f 197//197 198//198 194//194
f 54//54 199//199 196//196
f 200//200 196//196 199//199
f 52//52 54//54 196//196
f 200//200 197//197 196//196
f 54//54 201//201 199//199
f 202//202 199//199 201//201
f 202//202 200//200 199//199
f 56//56 203//203 201//201
f 204//204 201//201 203//203
f 54//54 56//56 201//201
f 204//204 202//202 201//201
f 56//56 205//205 203//203
f 206//206 203//203 205//205
f 206//206 204//204 203//203
f 59//59 207//207 205//205
f 206//206 205//205 207//207
f 56//56 59//59 205//205
f 59//59 208//208 207//207
f 209//209 207//207 208//208
f 209//209 206//206 207//207
f 63//63 210//210 208//208
f 211//211 208//208 210//210
f 59//59 63//63 208//208
f 211//211 209//209 208//208
f 67//67 212//212 210//210
f 213//213 210//210 212//212
f 63//63 67//67 210//210
f 213//213 211//211 210//210
f 67//67 214//214 212//212
f 215//215 212//212 214//214
f 215//215 213//213 212//212
f 70//70 216//216 214//214
f 217//217 214//214 216//216
f 67//67 70//70 214//214
f 217//217 215//215 214//214
f 70//70 193//193 216//216
f 218//218 216//216 193//193
f 218//218 217//217 216//216
f 70//70 74//74 193//193
f 176//176 218//218 193//193
f 219//219 121//121 120//120
f 219//219 130//130 121//121
f 220//220 120//120 122//122
f 220//220 219//219 120//120
f 220//220 122//122 123//123
f 221//221 123//123 124//124
f 221//221 220//220 123//123
f 221//221 124//124 125//125
f 195//195 222//222 125//125
f 221//221 125//125 222//222
f 223//223 222//222 195//195
f 224//224 221//221 222//222
f 225//225 224//224 222//222
f 223//223 225//225 222//222
f 223//223 195//195 198//198
f 226//226 198//198 197//197
f 226//226 223//223 198//198
f 226//226 197//197 200//200
f 227//227 200//200 202//202
f 227//227 226//226 200//200
f 227//227 202//202 204//204
f 228//228 204//204 206//206
f 228//228 227//227 204//204
f 228//228 206//206 209//209
f 229//229 209//209 211//211
f 229//229 228//228 209//209
f 230//230 211//211 213//213
f 230//230 229//229 211//211
f 230//230 213//213 215//215
f 231//231 215//215 217//217
f 231//231 230//230 215//215
f 231//231 217//217 218//218
f 177//177 218//218 176//176
f 177//177 231//231 218//218
f 192//192 165//165 166//166
f 191//191 166//166 167//167
f 192//192 166//166 191//191
f 163//163 167//167 164//164
f 191//191 167//167 163//163
f 160//160 164//164 168//168
f 163//163 164//164 160//160
f 157//157 168//168 169//169
f 160//160 168//168 157//157
f 155//155 169//169 170//170
f 157//157 169//169 155//155
f 151//151 170//170 134//134
f 155//155 170//170 151//151
f 135//135 232//232 134//134
f 147//147 134//134 232//232
f 151//151 134//134 147//147
f 135//135 233//233 232//232
f 143//143 232//232 233//233
f 147//147 232//232 143//143
f 139//139 233//233 135//135
f 143//143 233//233 139//139
f 139//139 135//135 133//133
f 185//185 129//129 131//131
f 182//182 131//131 132//132
f 185//185 131//131 182//182
f 179//179 132//132 130//130
f 182//182 132//132 179//179
f 174//174 130//130 219//219
f 179//179 130//130 174//174
f 177//177 219//219 220//220
f 174//174 219//219 177//177
f 231//231 220//220 221//221
f 177//177 220//220 231//231
f 230//230 221//221 224//224
f 231//231 221//221 230//230
f 225//225 234//234 224//224
f 229//229 224//224 234//234
f 230//230 224//224 229//229
f 225//225 235//235 234//234
f 228//228 234//234 235//235
f 229//229 234//234 228//228
f 225//225 236//236 235//235
f 227//227 235//235 236//236
f 228//228 235//235 227//227
f 226//226 236//236 225//225
f 227//227 236//236 226//226
f 226//226 225//225 223//223
# 468 faces, 0 coords texture

# End of File
