####
#
# OBJ File Generated by Meshlab
#
####
# Object ph_short.obj
#
# Vertices: 158
# Faces: 312
#
####
vn 2.0595345 -2.3531845 -2.9500744
v 15.2571898 -7.1481686 -6.2500000
vn 2.6737373 1.4591137 -3.6373904
v 15.5060577 0.0026750 -6.2500000
vn 2.1812251 2.2540393 -3.2560556
v 15.5227337 -0.0153603 -6.2500000
vn 4.3162165 4.5575008 -0.0018824
v 15.5227356 -0.0146453 -5.7833977
vn 2.3402581 2.0515068 -2.8693914
v 16.3534260 -0.7343179 -6.2500000
vn 2.8268869 2.0273578 2.8211701
v 16.3540230 -0.7337433 -5.4070253
vn 3.0812910 0.5739313 -3.2783005
v 15.4999466 0.0263834 -6.2500000
vn 3.1702676 1.3579587 3.5984862
v 15.5060158 0.0033935 -5.2510610
vn 2.7216890 2.2010994 3.2076058
v 15.5227356 -0.0147102 -5.2540116
vn 3.0411491 0.7056501 -2.9178023
v 15.3317356 1.4692770 -6.2500000
vn 6.1697836 1.1197351 -0.0013022
v 15.4999437 0.0270988 -5.7816987
vn 2.8087540 1.3629147 -2.9178898
v 14.8478279 2.8376701 -6.2500000
vn 3.0410738 0.7059415 2.9177523
v 15.3315506 1.4700857 6.2500000
vn 3.0812335 0.5743442 3.2778854
v 15.4999437 0.0270143 6.2500000
vn 6.1689105 1.1234852 -0.0010439
v 15.4999437 0.0270924 5.7273946
vn 6.2123923 0.6599718 0.3034612
v 15.4999437 0.0270253 -5.2500000
vn 1.5725693 -2.7029555 -2.9496579
v 13.7777367 -8.2111530 -6.2500000
vn 2.4362962 1.9521799 -2.9178138
v 14.0724688 4.0644712 -6.2500000
vn 2.8086116 1.3632143 2.9179106
v 14.8475294 2.8382845 6.2500000
vn 1.9422889 2.4441891 -2.9178092
v 13.0438833 5.0888977 -6.2500000
vn 2.4361353 1.9523873 2.9178312
v 14.0721273 4.0648975 6.2500000
vn 1.0280830 -2.9533243 -2.9499729
v 12.1234541 -8.9717884 -6.2500000
vn 1.3515149 2.8142550 -2.9178786
v 11.8139448 5.8592806 -6.2500000
vn 1.9421368 2.4443142 2.9178271
v 13.0435619 5.0891523 6.2500000
vn 0.4454848 -3.0952427 -2.9497859
v 10.3532658 -9.4030867 -6.2500000
vn 0.6932529 3.0439906 -2.9177430
v 10.4435921 6.3376408 -6.2500000
vn 1.3513992 2.8143146 2.9178960
v 11.8136988 5.8593988 6.2500000
vn 0.1755577 3.1317511 -3.0295961
v 9.0000000 6.5000000 -6.2500000
vn 0.6931898 3.0440085 2.9177589
v 10.4434595 6.3376713 6.2500000
vn -0.1894386 -3.1301184 -3.0206981
v 0.0000000 -6.5000000 -6.2500000
vn -0.1894386 3.1301277 -3.0206978
v 0.0000000 6.5000000 -6.2500000
vn -0.1894386 3.1301274 3.0206976
v 0.0000000 6.5000000 6.2500000
vn -1.0371761 -2.7504857 -3.8627932
v 2.0717967 -6.5000000 -6.2500000
vn -1.8301542 -2.5356634 -2.9499860
v 3.4400885 -7.7029943 -6.2500000
vn -1.3122859 -2.8384557 -2.9496484
v 5.0130234 -8.6228647 -6.2500000
vn -0.7465543 -3.0367322 -2.9499857
v 6.7316079 -9.2251482 -6.2500000
vn -0.1530804 -3.1233902 -2.9498100
v 8.5345869 -9.4885588 -6.2500000
vn 0.1755423 3.1317534 3.0296049
v 9.0000000 6.5000000 6.2500000
vn -0.7463533 -3.0280888 -2.9000621
v -1.5556080 -6.3110137 -6.2500000
vn -0.7463531 3.0280883 -2.9000618
v -1.5556080 6.3110137 -6.2500000
vn -1.4492880 -2.7614558 -2.8998187
v -3.0204737 -5.7555747 -6.2500000
vn -1.4492882 2.7614563 -2.8998191
v -3.0204737 5.7555747 -6.2500000
vn -0.7463532 3.0280886 2.9000621
v -1.5556080 6.3110137 6.2500000
vn -2.0680809 -2.3343859 -2.9000261
v -4.3104143 -4.8651052 -6.2500000
vn -2.0680811 2.3343859 -2.9000266
v -4.3104143 4.8651052 -6.2500000
vn -1.4492880 2.7614558 2.8998187
v -3.0204737 5.7555747 6.2500000
vn -2.5665958 -1.7716390 -2.8998599
v -5.3491592 -3.6927183 -6.2500000
vn -2.5665958 1.7716389 -2.8998597
v -5.3491592 3.6927183 -6.2500000
vn -2.0680809 2.3343859 2.9000261
v -4.3104143 4.8651052 6.2500000
vn -2.9160340 -1.1058947 -2.8999729
v -6.0776649 -2.3045857 -6.2500000
vn -2.9160335 1.1058944 -2.8999732
v -6.0776649 2.3045857 -6.2500000
vn -2.5665960 1.7716391 2.8998599
v -5.3491592 3.6927183 6.2500000
vn -3.0959420 -0.3759427 -2.8999145
v -6.4525127 -0.7838818 -6.2500000
vn -3.0959418 0.3759427 -2.8999143
v -6.4525127 0.7838818 -6.2500000
vn -2.9160342 1.1058947 2.8999729
v -6.0776649 2.3045857 6.2500000
vn -3.0959418 0.3759427 2.8999145
v -6.4525127 0.7838818 6.2500000
vn -3.0959420 -0.3759427 2.8999143
v -6.4525127 -0.7838818 6.2500000
vn -2.9160337 -1.1058944 2.8999732
v -6.0776649 -2.3045857 6.2500000
vn -2.5665960 -1.7716389 2.8998597
v -5.3491592 -3.6927183 6.2500000
vn -2.0680811 -2.3343859 2.9000266
v -4.3104143 -4.8651052 6.2500000
vn -1.4492882 -2.7614565 2.8998191
v -3.0204737 -5.7555747 6.2500000
vn -0.7463531 -3.0280883 2.9000618
v -1.5556080 -6.3110137 6.2500000
vn -1.1222976 -5.8708196 0.7175981
v 2.0717967 -6.5000000 -5.7789807
vn 0.0906674 -3.7106249 -3.1479125
v 9.0000000 -6.5000000 5.2500000
vn -0.1894386 -3.1301277 3.0206978
v 0.0000000 -6.5000000 6.2500000
vn -1.0372285 -2.7504396 3.8628435
v 2.0717967 -6.5000000 6.2500000
vn -1.1224308 -5.8707547 -0.7176413
v 2.0717967 -6.5000000 5.7789807
vn -0.3179145 -3.6067245 -3.0905356
v 4.0205607 -6.5000000 5.5476341
vn -0.2399638 -3.6540151 -3.0900896
v 5.7135458 -6.5000000 5.3881316
vn -0.1657754 -3.6835036 -3.0899327
v 6.8000917 -6.5000000 5.3138132
vn -0.0851557 -3.7052095 -3.0892808
v 7.8938589 -6.5000000 5.2664499
vn -1.5302039 -3.3069606 2.9064844
v 5.0122800 -8.6225338 -5.7789807
vn -2.1315145 -2.9544222 2.9062252
v 3.4398174 -7.7028804 -5.7789807
vn -0.8699611 -3.5387173 2.9062066
v 6.7313676 -9.2251453 -5.7789807
vn -0.1786951 -3.6388307 2.9064460
v 8.5338697 -9.4885578 -5.7789807
vn 0.5189271 -3.6063776 2.9063823
v 10.3535118 -9.4030848 -5.7789807
vn 1.1985502 -3.4390576 2.9065385
v 12.1233864 -8.9718704 -5.7789807
vn 1.8313528 -3.1477408 2.9068551
v 13.7784176 -8.2107687 -5.7789807
vn 2.5048313 -1.8603508 -2.9075773
v 16.5064831 -5.8226199 -6.2500000
vn 2.3995314 -2.7413168 2.9063187
v 15.2577496 -7.1477671 -5.7789807
vn 2.8100286 1.3371322 -2.8682172
v 16.9582024 -1.6531481 -6.2500000
vn 2.8848610 -1.1672111 -2.8680954
v 17.0544128 -4.8693037 -6.2500000
vn 2.9129291 -2.1846464 2.8637173
v 16.5070076 -5.8219275 -5.7789807
vn 5.0103049 -3.7198653 -0.0001030
v 16.5067654 -5.8222384 -6.0131812
vn 3.0682521 0.5208127 -2.8692646
v 17.2895317 -2.7026038 -6.2500000
vn 3.0936265 -0.3375883 -2.8680799
v 17.3225727 -3.8024330 -6.2500000
vn 3.3394763 -1.4265221 2.8203828
v 17.0559464 -4.8661938 -5.7633924
vn 3.5731077 -0.5312164 2.8205123
v 17.3235226 -3.7964511 -5.7169929
vn 3.3049533 1.2577230 2.8203840
v 16.9598427 -1.6552691 -5.5374360
vn 3.5605011 0.3820986 2.8207369
v 17.2902832 -2.7040789 -5.6414709
vn 0.4134177 -3.6792190 3.2023363
v 9.7296877 -6.4589128 -5.2500000
vn 0.0843564 -3.7088017 3.1456118
v 9.0000000 -6.5000000 -5.2500000
vn -0.0844087 -3.7051589 3.0893135
v 7.9053974 -6.5000000 -5.2661123
vn 0.8263724 -3.6084116 3.2018893
v 10.4501495 -6.3361712 -5.2500000
vn 0.4347529 -3.6784751 -3.2073171
v 9.7685566 -6.4544034 5.2500000
vn 1.2307073 -3.4952853 3.2006783
v 11.1522789 -6.1333265 -5.2500000
vn 0.8692011 -3.5983474 -3.2072172
v 10.5263386 -6.3182507 5.2500000
vn 1.6080073 -3.3410239 3.1998603
v 11.8271990 -5.8529434 -5.2500000
vn 1.2900581 -3.4703543 -3.2066507
v 11.2627144 -6.0934491 5.2500000
vn 1.9772626 -3.1313491 3.2003303
v 12.4663773 -5.4985662 -5.2500000
vn 1.6885072 -3.2952576 -3.2062104
v 11.9673481 -5.7831521 5.2500000
vn 2.3119209 -2.8933170 3.2000098
v 13.0617332 -5.0746751 -5.2500000
vn 2.0739646 -3.0721014 -3.2051554
v 12.6303387 -5.3917193 5.2500000
vn 2.6241429 -2.6114500 3.2000537
v 13.6057396 -4.5866289 -5.2500000
vn 2.4156160 -2.8097179 -3.2051032
v 13.2424841 -4.9245634 5.2500000
vn 2.8990188 -2.3016446 3.1999886
v 14.0915194 -4.0405979 -5.2500000
vn 2.7304318 -2.4998991 -3.2055902
v 13.7948236 -4.3885837 5.2500000
vn 3.1385615 -1.9605790 3.2000825
v 14.5129309 -3.4434850 -5.2500000
vn 3.0056961 -2.1575327 -3.2059238
v 14.2804632 -3.7903438 5.2500000
vn 3.3386137 -1.5957392 3.2001004
v 14.8646479 -2.8028388 -5.2500000
vn 3.2393975 -1.7872696 -3.2054904
v 14.6919918 -3.1386662 5.2500000
vn 3.4964657 -1.2107787 3.2001214
v 15.1422224 -2.1267588 -5.2500000
vn 3.4247401 -1.3987625 -3.2021937
v 15.0212784 -2.4483073 5.2500000
vn 3.6101508 -0.8105860 3.2001514
v 15.3421459 -1.4237915 -5.2500000
vn 3.5577931 -1.0118042 -3.1949892
v 15.2561436 -1.7637075 5.2500000
vn 3.6778181 -0.3999922 3.2019484
v 15.4618912 -0.7028252 -5.2500000
vn 3.6524415 -0.5728368 -3.2254472
v 15.4032764 -1.1171626 5.2500000
vn 6.2303405 0.2589789 -0.3324603
v 15.4999466 0.0263796 5.2500000
vn -0.1645837 -3.6838639 3.0899336
v 6.8204188 -6.5000000 -5.3126726
vn -0.2386178 -3.6548765 3.0900486
v 5.7379308 -6.5000000 -5.3861980
vn -0.3167641 -3.6077232 3.0905013
v 4.0397620 -6.5000000 -5.5455837
vn 2.5051448 -1.8598759 2.9077797
v 16.5066586 -5.8223500 6.2500000
vn 2.6745355 1.4584512 3.6349742
v 15.5060577 0.0033062 6.2500000
vn 2.0598099 -2.3529348 2.9500761
v 15.2576809 -7.1477337 6.2500000
vn 2.1798162 2.2554998 3.2529905
v 15.5227356 -0.0147271 6.2500000
vn 3.1284342 1.3444843 -3.6063752
v 15.5060167 0.0027473 5.2510610
vn 2.3363028 2.0561275 2.8676467
v 16.3499985 -0.7294991 6.2500000
vn 4.3163218 4.5572166 -0.0018686
v 15.5227356 -0.0146486 5.7295661
vn 2.7690511 1.4485358 2.9353702
v 16.9525032 -1.6403944 6.2500000
vn 2.8238318 2.0295827 -2.8272650
v 16.3539429 -0.7342818 5.4070210
vn 2.7065258 2.1841629 -3.2140770
v 15.5227337 -0.0153553 5.2540116
vn 2.8778596 -1.1932912 2.8709714
v 17.0558414 -4.8660917 6.2500000
vn 2.9947526 0.8652064 2.7823579
v 17.1557121 -2.1516800 6.2500000
vn 3.3006160 1.2765120 -2.8634787
v 16.9598236 -1.6558042 5.5374517
vn 2.9822464 -0.8567283 2.6715870
v 17.2271824 -4.3382959 6.2500000
vn 3.0706792 0.5973594 2.9424696
v 17.2881470 -2.6922662 6.2500000
vn 3.1169343 -0.2609091 2.9412835
v 17.3235664 -3.7955775 6.2500000
vn 3.1107786 -0.0002302 2.7285392
v 17.3440380 -3.2459967 6.2500000
vn 3.5606575 0.4068669 -2.8672650
v 17.2902393 -2.7044616 5.6414843
vn 3.5806282 -0.5016382 -2.8675814
v 17.3234768 -3.7966332 5.7169986
vn 3.3397071 -1.4272127 -2.8200369
v 17.0559273 -4.8662443 5.7633944
vn 2.3982008 -2.7411556 -2.9063997
v 15.2577753 -7.1477447 5.7789807
vn 2.9132862 -2.1850748 -2.8636458
v 16.5070095 -5.8219242 5.7789807
vn 5.1566706 -3.5527065 0.0007365
v 16.5070381 -5.8218875 6.0158648
vn 1.5727880 -2.7028160 2.9495852
v 13.7781439 -8.2109156 6.2500000
vn 1.8328809 -3.1474426 -2.9066849
v 13.7784414 -8.2107553 5.7789807
vn 1.0283082 -2.9532399 2.9499311
v 12.1237297 -8.9716930 6.2500000
vn 0.4455291 -3.0952365 2.9497874
v 10.3533754 -9.4030714 6.2500000
vn 1.1980966 -3.4409363 -2.9062324
v 12.1234093 -8.9718628 5.7789807
vn -0.1531218 -3.1233852 2.9497883
v 8.5345383 -9.4885569 6.2500000
vn 0.5183264 -3.6058226 -2.9064960
v 10.3535318 -9.4030819 5.7789807
vn -0.7466516 -3.0367057 2.9499671
v 6.7314501 -9.2251091 6.2500000
vn -0.1782202 -3.6382532 -2.9065404
v 8.5338860 -9.4885578 5.7789807
vn -1.3123953 -2.8384020 2.9496267
v 5.0128345 -8.6227779 6.2500000
vn -0.8698848 -3.5387282 -2.9061847
v 6.7313790 -9.2251482 5.7789807
vn -1.8301711 -2.5356576 2.9500289
v 3.4399579 -7.7028999 6.2500000
vn -1.5301409 -3.3071599 -2.9064395
v 5.0122876 -8.6225376 5.7789807
vn -2.1315186 -2.9547198 -2.9062266
v 3.4398205 -7.7028828 5.7789807
# 158 vertices, 0 vertices normals

f 1//1 2//2 3//3
f 4//4 3//3 2//2
f 5//5 1//1 3//3
f 6//6 5//5 3//3
f 4//4 6//6 3//3
f 1//1 7//7 2//2
f 8//8 2//2 7//7
f 9//9 2//2 8//8
f 4//4 2//2 9//9
f 1//1 10//10 7//7
f 11//11 7//7 10//10
f 11//11 8//8 7//7
f 1//1 12//12 10//10
f 13//13 10//10 12//12
f 13//13 14//14 10//10
f 15//15 10//10 14//14
f 10//10 15//15 16//16
f 17//17 18//18 12//12
f 19//19 12//12 18//18
f 1//1 17//17 12//12
f 13//13 12//12 19//19
f 17//17 20//20 18//18
f 21//21 18//18 20//20
f 19//19 18//18 21//21
f 22//22 23//23 20//20
f 24//24 20//20 23//23
f 17//17 22//22 20//20
f 21//21 20//20 24//24
f 25//25 26//26 23//23
f 27//27 23//23 26//26
f 22//22 25//25 23//23
f 24//24 23//23 27//27
f 25//25 28//28 26//26
f 29//29 26//26 28//28
f 27//27 26//26 29//29
f 30//30 31//31 28//28
f 32//32 28//28 31//31
f 33//33 30//30 28//28
f 34//34 33//33 28//28
f 35//35 34//34 28//28
f 36//36 35//35 28//28
f 37//37 36//36 28//28
f 25//25 37//37 28//28
f 38//38 28//28 32//32
f 29//29 28//28 38//38
f 39//39 40//40 31//31
f 32//32 31//31 40//40
f 30//30 39//39 31//31
f 41//41 42//42 40//40
f 43//43 40//40 42//42
f 39//39 41//41 40//40
f 32//32 40//40 43//43
f 44//44 45//45 42//42
f 46//46 42//42 45//45
f 41//41 44//44 42//42
f 43//43 42//42 46//46
f 47//47 48//48 45//45
f 49//49 45//45 48//48
f 44//44 47//47 45//45
f 46//46 45//45 49//49
f 50//50 51//51 48//48
f 52//52 48//48 51//51
f 47//47 50//50 48//48
f 49//49 48//48 52//52
f 53//53 54//54 51//51
f 55//55 51//51 54//54
f 50//50 53//53 51//51
f 52//52 51//51 55//55
f 56//56 54//54 53//53
f 55//55 54//54 56//56
f 57//57 53//53 50//50
f 56//56 53//53 57//57
f 58//58 50//50 47//47
f 57//57 50//50 58//58
f 59//59 47//47 44//44
f 58//58 47//47 59//59
f 60//60 44//44 41//41
f 59//59 44//44 60//60
f 61//61 41//41 39//39
f 60//60 41//41 61//61
f 62//62 39//39 30//30
f 61//61 39//39 62//62
f 63//63 30//30 33//33
f 64//64 30//30 63//63
f 65//65 30//30 66//66
f 67//67 66//66 30//30
f 62//62 30//30 65//65
f 68//68 67//67 30//30
f 69//69 68//68 30//30
f 70//70 69//69 30//30
f 71//71 70//70 30//30
f 64//64 71//71 30//30
f 63//63 33//33 34//34
f 72//72 34//34 35//35
f 73//73 34//34 72//72
f 63//63 34//34 73//73
f 74//74 35//35 36//36
f 72//72 35//35 74//74
f 75//75 36//36 37//37
f 74//74 36//36 75//75
f 76//76 37//37 25//25
f 75//75 37//37 76//76
f 76//76 25//25 22//22
f 77//77 22//22 17//17
f 76//76 22//22 77//77
f 78//78 17//17 1//1
f 77//77 17//17 78//78
f 5//5 79//79 1//1
f 80//80 1//1 79//79
f 78//78 1//1 80//80
f 81//81 82//82 79//79
f 82//82 83//83 84//84
f 5//5 81//81 79//79
f 84//84 79//79 82//82
f 84//84 80//80 79//79
f 85//85 86//86 82//82
f 87//87 82//82 86//86
f 81//81 85//85 82//82
f 83//83 82//82 87//87
f 88//88 86//86 85//85
f 87//87 86//86 88//88
f 89//89 85//85 81//81
f 90//90 85//85 89//89
f 88//88 85//85 90//90
f 6//6 81//81 5//5
f 89//89 81//81 6//6
f 76//76 91//91 92//92
f 64//64 92//92 91//91
f 75//75 76//76 92//92
f 93//93 75//75 92//92
f 64//64 93//93 92//92
f 76//76 94//94 91//91
f 95//95 91//91 94//94
f 95//95 64//64 91//91
f 77//77 96//96 94//94
f 97//97 94//94 96//96
f 76//76 77//77 94//94
f 97//97 95//95 94//94
f 78//78 98//98 96//96
f 99//99 96//96 98//98
f 77//77 78//78 96//96
f 99//99 97//97 96//96
f 78//78 100//100 98//98
f 101//101 98//98 100//100
f 101//101 99//99 98//98
f 80//80 102//102 100//100
f 103//103 100//100 102//102
f 78//78 80//80 100//100
f 103//103 101//101 100//100
f 80//80 104//104 102//102
f 105//105 102//102 104//104
f 105//105 103//103 102//102
f 83//83 106//106 104//104
f 107//107 104//104 106//106
f 80//80 83//83 104//104
f 107//107 105//105 104//104
f 83//83 108//108 106//106
f 109//109 106//106 108//108
f 109//109 107//107 106//106
f 87//87 110//110 108//108
f 111//111 108//108 110//110
f 83//83 87//87 108//108
f 111//111 109//109 108//108
f 88//88 112//112 110//110
f 113//113 110//110 112//112
f 87//87 88//88 110//110
f 113//113 111//111 110//110
f 90//90 114//114 112//112
f 115//115 112//112 114//114
f 88//88 90//90 112//112
f 115//115 113//113 112//112
f 89//89 116//116 114//114
f 117//117 114//114 116//116
f 90//90 89//89 114//114
f 117//117 115//115 114//114
f 8//8 16//16 116//116
f 118//118 116//116 16//16
f 9//9 8//8 116//116
f 6//6 9//9 116//116
f 89//89 6//6 116//116
f 118//118 117//117 116//116
f 11//11 16//16 8//8
f 16//16 11//11 10//10
f 4//4 9//9 6//6
f 84//84 83//83 80//80
f 93//93 74//74 75//75
f 119//119 72//72 74//74
f 93//93 119//119 74//74
f 120//120 73//73 72//72
f 119//119 120//120 72//72
f 121//121 63//63 73//73
f 120//120 121//121 73//73
f 64//64 63//63 121//121
f 64//64 121//121 120//120
f 64//64 120//120 119//119
f 64//64 119//119 93//93
f 122//122 123//123 14//14
f 15//15 14//14 123//123
f 124//124 122//122 14//14
f 13//13 124//124 14//14
f 122//122 125//125 123//123
f 126//126 123//123 125//125
f 15//15 123//123 118//118
f 126//126 118//118 123//123
f 122//122 127//127 125//125
f 128//128 125//125 127//127
f 128//128 126//126 125//125
f 122//122 129//129 127//127
f 130//130 127//127 129//129
f 130//130 131//131 127//127
f 128//128 127//127 131//131
f 132//132 133//133 129//129
f 134//134 129//129 133//133
f 122//122 132//132 129//129
f 130//130 129//129 134//134
f 135//135 136//136 133//133
f 134//134 133//133 136//136
f 132//132 135//135 133//133
f 137//137 138//138 136//136
f 139//139 136//136 138//138
f 135//135 137//137 136//136
f 134//134 136//136 139//139
f 139//139 138//138 137//137
f 140//140 137//137 135//135
f 139//139 137//137 140//140
f 140//140 135//135 132//132
f 141//141 132//132 122//122
f 140//140 132//132 141//141
f 142//142 122//122 124//124
f 143//143 122//122 142//142
f 144//144 122//122 143//143
f 144//144 141//141 122//122
f 21//21 145//145 124//124
f 146//146 124//124 145//145
f 19//19 21//21 124//124
f 13//13 19//19 124//124
f 142//142 124//124 146//146
f 24//24 147//147 145//145
f 146//146 145//145 147//147
f 21//21 24//24 145//145
f 29//29 148//148 147//147
f 149//149 147//147 148//148
f 27//27 29//29 147//147
f 24//24 27//27 147//147
f 146//146 147//147 149//149
f 38//38 150//150 148//148
f 151//151 148//148 150//150
f 29//29 38//38 148//148
f 149//149 148//148 151//151
f 32//32 152//152 150//150
f 153//153 150//150 152//152
f 38//38 32//32 150//150
f 151//151 150//150 153//153
f 32//32 154//154 152//152
f 155//155 152//152 154//154
f 153//153 152//152 155//155
f 32//32 156//156 154//154
f 157//157 154//154 156//156
f 155//155 154//154 157//157
f 32//32 66//66 156//156
f 158//158 156//156 66//66
f 157//157 156//156 158//158
f 32//32 65//65 66//66
f 158//158 66//66 67//67
f 43//43 62//62 65//65
f 32//32 43//43 65//65
f 46//46 61//61 62//62
f 43//43 46//46 62//62
f 49//49 60//60 61//61
f 46//46 49//49 61//61
f 52//52 59//59 60//60
f 49//49 52//52 60//60
f 55//55 58//58 59//59
f 52//52 55//55 59//59
f 56//56 57//57 58//58
f 55//55 56//56 58//58
f 158//158 67//67 68//68
f 158//158 68//68 69//69
f 157//157 69//69 70//70
f 157//157 158//158 69//69
f 155//155 70//70 71//71
f 155//155 157//157 70//70
f 153//153 71//71 64//64
f 153//153 155//155 71//71
f 153//153 64//64 95//95
f 15//15 118//118 16//16
f 151//151 95//95 97//97
f 151//151 153//153 95//95
f 149//149 97//97 99//99
f 149//149 151//151 97//97
f 149//149 99//99 101//101
f 146//146 101//101 103//103
f 146//146 149//149 101//101
f 146//146 103//103 105//105
f 142//142 105//105 107//107
f 142//142 146//146 105//105
f 143//143 107//107 109//109
f 143//143 142//142 107//107
f 141//141 109//109 111//111
f 141//141 143//143 109//109
f 140//140 111//111 113//113
f 140//140 141//141 111//111
f 139//139 113//113 115//115
f 139//139 140//140 113//113
f 134//134 115//115 117//117
f 134//134 139//139 115//115
f 126//126 117//117 118//118
f 126//126 131//131 117//117
f 130//130 117//117 131//131
f 130//130 134//134 117//117
f 128//128 131//131 126//126
f 144//144 143//143 141//141
# 312 faces, 0 coords texture

# End of File
