####
#
# OBJ File Generated by Meshlab
#
####
# Object ph_thumb_r.obj
#
# Vertices: 531
# Faces: 1058
#
####
vn 0.6908781 1.8031499 4.1640658
v 15.0174713 4.5935111 -3.3670027
vn 0.1749657 1.4624324 4.1049128
v 16.5000000 -0.2992271 -5.7734995
vn 0.1749624 1.6656523 4.1972890
v 16.5000000 4.6622701 -3.5182731
vn 1.0368112 3.8873470 -1.5562762
v 22.2004757 -0.2992271 -5.7734995
vn 0.6510088 4.1964898 -1.4662204
v 17.2265396 5.0292053 -4.3255301
vn 0.5220679 4.1526532 -1.5153011
v 20.7734604 4.7729354 -3.7617369
vn 0.5785176 4.0933042 -1.5302657
v 21.4902058 4.7247515 -3.6557317
vn 0.3266290 0.1764837 0.1179336
v 22.2004757 4.6622701 -3.5182731
vn 0.6908935 1.3970578 3.9794726
v 15.0174360 -0.3679897 -5.6222215
vn -0.1894258 4.2653093 -1.4995426
v 16.5000000 -0.3819877 -5.5914259
vn 0.4229813 2.8241928 -5.5543609
v 22.9533749 -0.3819877 -5.5914259
vn 1.3468609 1.8972478 3.9563813
v 13.6092615 4.3908792 -2.9212124
vn 1.3468854 1.4916639 3.7720110
v 13.6092062 -0.5706293 -5.1764145
vn -0.7426424 4.3283648 -1.3603393
v 14.9447851 -0.4601656 -5.4194345
vn 1.9357507 2.0490499 3.6221919
v 12.3454647 4.0648866 -2.2040288
vn 1.9357766 1.6436406 3.4378929
v 12.3454075 -0.8966297 -4.4592137
vn -1.4485408 4.2113128 -1.1210066
v 13.4788437 -0.6902109 -4.9133348
vn 2.4289143 2.2509685 3.1779633
v 11.2880640 3.6319537 -1.2515767
vn 2.4289439 1.8455620 2.9936640
v 11.2880173 -1.3295673 -3.5067508
vn -2.0682142 4.0311642 -0.7338864
v 12.1901169 -1.0582924 -4.1035557
vn 2.8022137 2.4931192 2.6454780
v 10.4868841 3.1124780 -0.1087306
vn 2.8022232 2.0875387 2.4610958
v 10.4868574 -1.8490418 -2.3639069
vn -2.5676320 3.7954731 -0.2225915
v 11.1506567 -1.5438426 -3.0353453
vn 3.0371711 2.7638040 2.0506337
v 9.9822702 2.5319312 1.1684726
vn 3.0371742 2.3577161 1.8660316
v 9.9822617 -2.4295809 -1.0867211
vn -2.9176052 3.5182872 0.3832698
v 10.4222822 -2.1180549 -1.7720783
vn 2.8910742 2.0389302 2.0517130
v 9.8003769 1.9192059 2.5164683
vn 2.8910735 2.8335271 2.4128885
v 9.8003769 -3.0422914 0.2612422
vn -3.1017275 2.8828821 1.7235340
v 10.0475512 -3.3961058 1.0396340
vn -3.0974791 3.2071919 1.0219706
v 10.0475512 -2.7473078 -0.3877217
vn 2.8153663 2.5050578 2.6208282
v 9.3040752 1.5906433 3.2393060
vn 2.8153665 2.0982425 2.4359124
v 9.3040752 -3.3708539 0.9840798
vn 2.2814186 3.6364868 -0.7102735
v 10.3685560 -5.4777408 5.6192312
vn 2.5506179 3.4522676 -0.4240514
v 9.7227945 -5.1601610 4.9205551
vn 1.1441690 4.2900000 3.5207965
v 9.0000000 1.7358607 2.9198277
vn 0.7092940 4.0950933 -1.4998810
v 13.7333813 5.3904295 -5.1202240
vn 0.4387047 4.0161891 -1.5829699
v 12.7549181 5.4770088 -5.3106985
vn 0.1102405 4.0944552 -1.5855393
v 11.7568026 5.5060668 -5.3746262
vn 0.1102400 -1.4976604 -4.1274095
v 11.7568026 -5.8735142 -10.5471630
vn 1.5707957 3.3800006 -3.6400008
v 9.0000000 5.5060668 -5.3746262
vn 0.4387037 -1.4481367 -4.0667548
v 12.7549181 -5.9025722 -10.4832354
vn 0.7092934 -1.5626078 -4.0715618
v 13.7333813 -5.9891515 -10.2927608
vn 0.6510092 -1.6546459 -4.1258349
v 17.2265396 -6.3503757 -9.4980669
vn 0.5220609 -1.5888729 -4.1250186
v 20.7734604 -6.6066456 -8.9342737
vn 0.5785211 -1.5385327 -4.0902324
v 21.4902058 -6.6548295 -8.8282681
vn 3.0443628 2.7770796 2.0223806
v 8.9957876 1.2244339 4.0449667
vn -1.5707963 0.7800124 2.0800061
v 7.0000000 -1.5240839 10.0917053
vn 3.1228542 3.0556366 1.3976009
v 8.8913460 0.8393846 4.8920751
vn 3.0443618 2.3702662 1.8374656
v 8.9957876 -3.7370634 1.7897407
vn 3.0528896 3.3279455 0.7860676
v 8.9865904 0.4714652 5.7014980
vn 3.1228564 2.6578283 1.2167786
v 8.8913460 -4.1221128 2.6368492
vn 2.8436296 3.5892065 0.2112969
v 9.2681351 0.1199611 6.4748068
vn 3.0528860 2.9395211 0.6095114
v 8.9865904 -4.4900322 3.4462717
vn 2.5299962 3.7937455 -0.2950305
v 9.7227945 -0.1986636 7.1757812
vn 2.8436327 3.2007787 0.0347377
v 9.2681351 -4.8415360 4.2195811
vn 2.1700845 3.9380808 -0.6893471
v 10.6533403 -0.6346923 8.1350441
vn 1.7573028 4.0775962 -0.9932044
v 11.7462263 -1.0010149 8.9409542
vn 2.9611478 3.0409772 -0.9107749
v 11.1006947 -5.7614260 6.2433381
vn 1.7891297 3.7489388 -1.1137011
v 12.9701853 -1.2871521 9.5704556
vn 1.7613518 -1.9406245 -3.7251565
v 11.7462263 -12.3805962 3.7684174
vn 2.1632149 -2.0688496 -3.4268923
v 10.6533403 -12.0142736 2.9625075
vn -0.2291625 -0.8912144 -3.0631974
v 11.1006947 -7.2180123 5.5812535
vn 2.5048435 3.0703166 -0.4715122
v 13.0932102 -1.3303622 9.6655178
vn 1.7891201 -1.6259618 -3.5569119
v 12.9701853 -12.6667328 4.3979192
vn 3.0228097 2.4363654 0.9247949
v 13.1443748 -1.3931112 9.8035660
vn 3.0228183 -2.2986746 -1.2277427
v 13.1443739 -12.7726822 4.6310077
vn 2.5047648 -1.6635778 -2.6234102
v 13.0932016 -12.7099380 4.4929695
vn 2.6768870 1.7824644 2.3634152
v 13.1100836 -1.4579309 9.9461689
vn 2.6769769 -2.9525912 0.2109076
v 13.1100950 -12.8375034 4.7736135
vn 1.5656799 1.2949169 3.4344563
v 13.0002499 -1.5060935 10.0521269
vn 1.5657808 -3.4389966 1.2825906
v 13.0002632 -12.8856707 4.8795829
vn 0.4232478 1.3356732 3.9942248
v 12.8448668 -1.5240839 10.0917053
vn -1.5707963 -2.0800016 0.7799996
v 7.0000000 -12.9036646 4.9191689
vn 0.4232897 -3.8875642 1.6200022
v 12.8448668 -12.9036646 4.9191689
vn -1.1441689 1.4300003 5.3623919
v 7.0000000 1.7358607 2.9198277
vn -4.9851551 -1.5469325 1.3962635
v 7.0000000 -6.8191352 2.9198277
vn 1.5707963 1.5707964 1.5707967
v 9.0000000 9.5000000 2.9198277
vn -1.5707964 1.5707963 4.7123699
v 7.0000000 5.5000000 2.9198277
vn -2.8959930 1.2002628 3.0107300
v -5.0807281 2.1060686 2.9198277
vn -0.7235500 -3.0516567 3.0250549
v -0.9550650 -5.4164429 2.9198277
vn -1.2365627 -2.8648546 2.9087858
v -2.1795931 -5.0495996 2.9198277
vn -1.8638222 -2.5025942 2.9090807
v -3.2856593 -4.4105988 2.9198277
vn -2.3903604 -2.0057280 2.9090438
v -4.2132602 -3.5353038 2.9198277
vn -2.7882373 -1.4009087 2.9090827
v -4.9141655 -2.4698002 2.9198277
vn -3.0360622 -0.7202821 2.9087896
v -5.3513751 -1.2695923 2.9198277
vn -3.1275442 -0.0794260 2.9593024
v -5.5000000 0.0000000 2.9198277
vn -3.1078734 0.4103750 3.0105338
v -5.4525700 0.7202786 2.9198277
vn -3.0277925 0.8124131 3.0109332
v -5.3119969 1.4252759 2.9198277
vn -1.9974236 2.2207971 -1.4300016
v 7.0000000 9.5000000 -3.5592020
vn 1.9974239 2.2207963 -1.4300003
v 9.0000000 9.5000000 -3.5592020
vn -1.5707967 -0.7800125 -2.0800059
v 7.0000000 -5.8735142 -10.5471630
vn -1.5707964 1.5707963 1.5707964
v 7.0000000 9.5000000 2.9198277
vn -4.7123895 1.5707964 -1.5707963
v 7.0000000 5.5000000 -2.9300001
vn 3.0371735 -3.3622854 -0.7339681
v 9.9822617 -8.8476648 -4.0040317
vn 2.8910754 -2.8864746 -0.1871111
v 9.8003769 -9.4603748 -2.6560686
vn 2.8153684 -3.6217580 -0.1640890
v 9.3040752 -9.7889376 -1.9332309
vn 2.8022246 -3.6324632 -0.1389052
v 10.4868574 -8.2671251 -5.2812176
vn 2.4289434 -3.8744397 0.3936637
v 11.2880173 -7.7476511 -6.4240618
vn 1.9357774 -4.0763607 0.8378925
v 12.3454075 -7.3147135 -7.3765244
vn 1.3468862 -4.2283373 1.1720117
v 13.6092062 -6.9887128 -8.0937252
vn 0.6908929 -4.3229446 1.3794758
v 15.0174360 -6.7860732 -8.5395317
vn 0.1749657 -4.2575688 1.5049132
v 16.5000000 -6.7173109 -8.6908102
vn 0.3266272 -0.2048982 -0.0554211
v 22.2004757 -6.7173109 -8.6908102
vn 3.0528922 -2.7804794 -1.9904891
v 8.9865904 -10.9081154 0.5289610
vn -4.9851551 -1.5469325 -1.3962635
v 7.0000000 -6.8191352 -2.9300001
vn 3.1228333 -3.0621746 -1.3832190
v 8.8913460 -10.5401964 -0.2804616
vn 3.0443585 -3.3497362 -0.7625352
v 8.9957876 -10.1551476 -1.1275700
vn 2.8910701 -3.6810708 -0.5482877
v 9.8003769 -4.4988775 -0.4008426
vn 2.8153665 -3.2149434 0.0208274
v 9.3040752 -4.8274403 0.3219951
vn 3.0371711 -2.9561975 -0.5493662
v 9.9822702 -3.8861525 -1.7488381
vn 2.8022103 -3.2268856 0.0454750
v 10.4868841 -3.3056056 -3.0260413
vn 2.4289231 -3.4690316 0.5779680
v 11.2880640 -2.7861300 -4.1688876
vn 1.9357516 -3.6709518 1.0221920
v 12.3454647 -2.3531971 -5.1213398
vn 1.3468610 -3.8227553 1.3563817
v 13.6092615 -2.0272048 -5.8385229
vn 0.6908783 -3.9168503 1.5640640
v 15.0174713 -1.8245728 -6.2843132
vn 0.1749626 -4.0543451 1.5972910
v 16.5000000 -1.7558135 -6.4355841
vn 1.0368148 -1.3835300 -3.9521222
v 22.2004757 -1.7558135 -6.4355841
vn 2.5328684 -2.2680228 -3.0467882
v 9.7227945 -11.5782442 2.0032444
vn 2.8436284 -2.5192225 -2.5652621
v 9.2681351 -11.2596197 1.3022702
vn 2.2775023 -1.8622427 -3.2148569
v 10.3685560 -6.9343271 4.9571462
vn 2.5545242 -1.9597991 -2.8790255
v 9.7227945 -6.6167474 4.2584705
vn 2.8436279 -2.1307945 -2.3887036
v 9.2681351 -6.2981224 3.5574961
vn 3.0528944 -2.3920562 -1.8139335
v 8.9865904 -5.9466186 2.7841871
vn 3.1228533 -2.6643639 -1.2024001
v 8.8913460 -5.5786991 1.9747645
vn 3.0443637 -2.9429226 -0.5776201
v 8.9957876 -5.1936498 1.1276560
vn -0.7448357 -1.8186129 -4.1541243
v 14.9447851 -1.9167520 -6.0815191
vn -0.1872184 -1.6719769 -4.1985955
v 16.5000000 -1.8385741 -6.2535105
vn -3.0974383 -2.8739100 -1.7431244
v 10.0475512 -4.2038941 -1.0498064
vn -2.5676317 -2.3279469 -3.0059636
v 11.1506567 -3.0004289 -3.6974299
vn -2.9176083 -2.6021585 -2.3987517
v 10.4222822 -3.5746412 -2.4341631
vn -2.0682142 -2.0976987 -3.5197327
v 12.1901169 -2.5148787 -4.7656403
vn -1.4485400 -1.9244869 -3.9100041
v 13.4788437 -2.1467972 -5.5754194
vn 0.8065397 -1.5800450 -4.0531468
v 22.5786724 -1.7952203 -6.3488889
vn 0.4229809 2.3277850 -5.7800016
v 22.9533749 -1.8385741 -6.2535105
vn 0.1756994 -1.4620407 -4.1046467
v 25.5000000 -6.8000712 -8.5087366
vn 0.8065252 4.0926514 -1.4745902
v 22.5786724 -0.3386338 -5.6868043
vn -3.1017225 -3.1941457 -1.0387515
v 10.0475512 -4.8526921 0.3775493
vn -2.9217093 -3.4979639 -0.3746263
v 10.4222822 -5.4819450 1.7619059
vn -0.7379912 -4.3222136 1.3655665
v 14.9447851 -7.1398344 5.4092622
vn -0.1894258 -2.7053072 5.6595426
v 16.5000000 -7.2180123 5.5812535
vn -1.4508672 -4.1975989 1.1287440
v 13.4788437 -6.9097891 4.9031625
vn -2.0719843 -4.0139170 0.7423385
v 12.1901169 -6.5417075 4.0933833
vn -2.5719576 -3.7759926 0.2310741
v 11.1506567 -6.0561576 3.0251727
vn -0.1831179 1.6729906 4.1995878
v 16.5000000 -8.5380440 4.9812393
vn -0.1827683 -2.4916263 5.7575350
v 16.5000000 -5.7614260 6.2433381
vn 0.8390801 -1.9864740 5.7320771
v 21.5806007 -8.5380440 4.9812393
vn -1.3461281 1.8860463 3.9535241
v 13.6776953 -8.2712040 4.3941922
vn -0.6789327 1.8067203 4.1680918
v 15.0520544 -8.4704247 4.8324776
vn -1.9400039 2.0332210 3.6147361
v 12.4462576 -7.9508605 3.6894367
vn -2.4373572 2.2336617 3.1641262
v 11.4189463 -7.5257516 2.7541966
vn -2.8128543 2.4763219 2.6231201
v 10.6448212 -7.0161800 1.6331395
vn -3.0467398 2.7496927 2.0185575
v 10.1634007 -6.4474740 0.3819861
vn -6.0340476 0.9677863 -0.5119916
v 10.0000000 -5.8483248 -0.9361429
vn -3.0447865 -2.3842595 -1.8484800
v 10.1634092 -8.8906260 -3.9095156
vn -1.5616808 -1.9175469 0.6684362
v 10.0000000 -9.4897909 -2.5913546
vn -4.9514608 -1.8921520 0.6884884
v 10.0000000 -8.5791388 -2.1774218
vn -6.0587115 -0.2436414 -1.0270576
v 10.0000000 -6.7586908 -1.3499458
vn -2.8132262 -2.1099443 -2.4493546
v 10.6448469 -8.3219128 -5.1606865
vn -2.4407613 -1.8630240 -2.9871359
v 11.4189920 -7.8123403 -6.2817454
vn -1.9461114 -1.6558143 -3.4354162
v 12.4463148 -7.3872356 -7.2169752
vn -1.3538581 -1.4983381 -3.7718301
v 13.6777496 -7.0669003 -7.9217134
vn -0.6934255 -1.3982960 -3.9793577
v 15.0520897 -6.8676872 -8.3599825
vn -0.1761500 -1.4617996 -4.1044812
v 16.5000000 -6.8000712 -8.5087366
vn -0.7443085 1.8081052 4.1511984
v 14.9447851 -5.6832480 6.0713468
vn -2.5719547 2.3087463 2.9968641
v 11.1506567 -4.5995712 3.6872575
vn -2.9217112 2.5822837 2.3891222
v 10.4222822 -4.0253587 2.4239905
vn -2.0719862 2.0799887 3.5122957
v 12.1901169 -5.0851212 4.7554679
vn -1.4508679 1.9096366 3.9047606
v 13.4788437 -5.4532027 5.5652471
vn -0.1761504 -4.2582049 1.5044779
v 16.5000000 -4.4413943 6.8433523
vn -0.6862164 -4.3209429 1.3819413
v 15.0520897 -4.3737788 6.6945977
vn 0.8393238 -3.0126829 5.2654295
v 21.5806007 -4.4413943 6.8433523
vn 0.2030777 -3.9702272 1.6219982
v 17.0373421 -5.1582694 8.4204769
vn -0.4167042 -3.9608243 1.6028185
v 15.4008427 -5.1351123 8.3695316
vn -0.2422040 1.3009753 4.6050539
v 22.1962318 -11.3961840 3.6820848
vn 0.8949831 -1.9834454 5.7214689
v 21.5806007 -3.8119419 7.1294675
vn 1.6311467 1.2898835 4.1677380
v 20.1933842 -4.1748829 7.9279380
vn 0.8159123 -3.9283590 1.5292733
v 18.6549053 -5.0469847 8.1756506
vn 1.3978329 -3.8360410 1.3277490
v 20.1897221 -4.8050723 7.6434431
vn -1.2866819 -1.4489268 5.5074396
v 21.0513496 -1.7105808 8.0846319
vn 0.2712786 1.3038468 4.5964527
v 20.2472038 -3.6919630 7.1840034
vn -3.8833294 -2.6471148 3.5095253
v 21.0513496 -1.4893237 8.1852026
vn -0.2423927 -4.3249989 2.0478518
v 22.1935024 -1.5830563 8.1425972
vn -0.1786925 1.2126009 4.5516648
v 16.5000000 -1.7105808 8.0846319
vn 0.1858923 1.2896023 4.6286836
v 18.9997406 -3.6054940 7.2233071
vn 0.0955496 1.2785261 4.6517944
v 17.7497005 -3.5501411 7.2484679
vn 0.9539720 1.1841516 4.4010906
v 18.6599979 -4.4170117 8.4606209
vn -0.1215308 1.3609816 4.6970587
v 16.5000000 -3.5310280 7.2571554
vn 0.2380847 1.1362299 4.5077329
v 17.0411282 -4.5287457 8.7064352
vn -0.8111583 1.1636329 4.4164739
v 15.0536137 -1.6431439 7.9362702
vn -0.3702551 1.4616755 4.7106099
v 15.7722311 -3.5141158 7.2199483
vn 0.1036166 5.4737840 3.0393720
v 17.8140945 -1.6550112 7.9623785
vn -0.7698840 1.4289615 4.6324334
v 15.8824425 0.3255039 5.0961742
vn 0.2431194 1.3981947 4.6955485
v 16.6962814 0.3015856 5.1487947
vn -0.2720443 1.3973047 4.6966977
v 16.2873878 0.3020470 5.1477795
vn -0.4891987 3.2858725 3.9697769
v 18.2213593 0.8725158 4.8191867
vn 0.2029988 5.4867201 3.0108917
v 19.0747776 -1.4905277 7.6005149
vn -2.3044121 2.0436032 3.0449309
v 20.2282467 -1.2241505 7.0144849
vn -2.7683606 -3.7683384 0.8071893
v 22.0186520 -1.9423678 9.4967432
vn -0.1647457 1.2895640 4.6308265
v 23.2953587 -11.3275261 3.7132928
vn -0.1647274 -4.3369074 2.0733185
v 23.2961521 -1.6519539 8.1112804
vn -0.0858333 1.2791879 4.6513672
v 24.3983383 -11.2840252 3.7330658
vn -0.0858504 -4.3455620 2.0946519
v 24.3976555 -1.6953945 8.0915346
vn -1.7483381 -3.3129966 1.6847562
v 22.8974972 -2.3197505 10.7039042
vn 0.0831799 1.3293480 4.6772132
v 25.5000000 -11.2691431 3.7398305
vn 0.0873963 -4.3994756 2.0797451
v 25.5000000 -1.7102951 8.0847616
vn -0.2877854 -4.1422224 2.1036344
v 24.7466145 -2.4577563 11.0075159
vn 0.4139944 1.3934319 4.6736870
v 26.2277699 -11.2522306 3.7026231
vn 0.4105478 -4.4387083 2.0278559
v 26.2277699 -1.6933827 8.0475540
vn -0.2892306 1.1378660 4.5051231
v 24.7466145 -12.9797373 6.2247977
vn 0.4309250 1.1436207 4.4925056
v 26.6252022 -12.9644470 6.1911588
vn -1.7482179 0.9089932 3.6038158
v 22.8974972 -12.8417320 5.9211850
vn -2.7686522 1.8697014 3.3698227
v 22.0140610 -12.1770039 4.8374314
vn -1.2867208 -3.1967177 4.7129912
v 21.0513496 -11.2688580 3.7399602
vn -3.8833485 -0.9035627 4.3020291
v 21.0513496 -11.4901142 3.6393888
vn 0.8947099 -3.0063479 5.2567039
v 21.5806007 -9.1674967 4.6951246
vn -2.3054051 -3.6378272 0.4620064
v 20.2282467 -10.7824268 2.6698139
vn -1.5653671 -3.1609783 1.2509599
v 22.8974972 -13.2705317 5.7262759
vn -0.0826586 -4.3986716 2.0765622
v 16.5000000 -9.4484100 4.5674362
vn -0.1738537 -4.2372017 2.0747292
v 16.5000000 -11.2688580 3.7399602
vn 0.1029122 -5.8889651 -2.1263142
v 17.8140945 -11.2132883 3.6177070
vn 0.0955186 -4.3454523 2.0954401
v 17.7491722 -9.4293127 4.5761170
vn 0.1858550 -4.3353295 2.0719118
v 18.9990616 -9.3739834 4.6012669
vn 0.2712414 -4.3204093 2.0399806
v 20.2466908 -9.2875166 4.6405697
vn 0.2031908 -5.8758984 -2.1550305
v 19.0747776 -11.0488043 3.2558436
vn -0.4507110 -4.5055656 1.9843253
v 15.7722311 -9.4314976 4.5302291
vn -0.7899870 -4.4464002 1.9509460
v 15.0536137 -9.3809729 4.4190750
vn -0.8042437 -4.0934553 2.0294185
v 15.0536137 -11.2014208 3.5915992
vn -0.2697229 -4.4567533 2.0328040
v 16.2873878 -10.3795328 0.2925162
vn 0.2455992 -4.4577923 2.0369546
v 16.6962814 -10.3799944 0.2935313
vn 0.7464044 -4.4304290 1.9748569
v 17.1015301 -10.3574514 0.2439375
vn 0.2390757 -4.1434655 2.1090703
v 17.0411282 -9.8843002 6.2720923
vn -0.4849806 -4.1338706 2.0881913
v 15.4008427 -9.8612165 6.2213092
vn 0.9539733 -4.0945125 2.0017004
v 18.6599979 -9.7725658 6.0262780
vn 1.6314209 -3.9879072 1.7685492
v 20.1933842 -9.5304375 5.4935951
vn 1.3981056 1.5218048 3.7629473
v 20.1897221 -8.9017210 5.7813301
vn -0.4162717 1.3967500 4.0381451
v 15.4008427 -9.2317619 6.5074182
vn 0.8159124 1.4308374 3.9652724
v 18.6549053 -9.1436338 6.3135376
vn 0.2028569 1.3883479 4.0577044
v 17.0373421 -9.2549181 6.5583639
vn -0.1785207 4.0506124 -1.5985410
v 16.5000000 4.5795097 -3.3362000
vn 0.1756844 4.0538902 -1.5974065
v 25.5000000 4.5795097 -3.3362000
vn -1.3538812 3.8270018 -1.3512067
v 13.6776953 4.3126702 -2.7491527
vn -0.6910629 3.9147127 -1.5646397
v 15.0520544 4.5118904 -3.1874380
vn -1.9461373 3.6770706 -1.0113549
v 12.4462576 3.9923267 -2.0443974
vn -2.4407825 3.4755716 -0.5604727
v 11.4189463 3.5672176 -1.1091572
vn -2.8132401 3.2327573 -0.0208277
v 10.6448212 3.0576460 0.0118999
vn -3.0455949 2.9500265 0.5838708
v 10.1634007 2.4889400 1.2630533
vn -6.0293179 -0.1997561 -1.1147493
v 10.0000000 -1.7516754 0.9259704
vn -3.0467334 -3.3288553 -0.7444024
v 10.1634092 -2.3508396 2.2441316
vn -2.8128402 -3.6046004 -0.1409114
v 10.6448469 -2.9195535 3.4953022
vn -2.4373360 -3.8526478 0.3976501
v 11.4189920 -3.4291258 4.6163616
vn -1.9399782 -4.0603485 0.8449548
v 12.4463148 -3.8542304 5.5515909
vn -1.3461018 -4.2188234 1.1785975
v 13.6777496 -4.1745658 6.2563291
vn -0.1032127 3.1381981 -3.0758381
v 0.0000000 5.5000000 -2.9300001
vn -2.7144427 1.5681483 3.0105410
v -4.7623830 2.7513003 2.9198277
vn -2.4865727 1.9090444 3.0108600
v -4.3626213 3.3491416 2.9198277
vn -2.2167246 2.2166989 3.0110631
v -3.8890250 3.8889806 2.9198277
vn -1.9090714 2.4865510 3.0108585
v -3.3491900 4.3625846 2.9198277
vn -1.5681744 2.7144272 3.0105400
v -2.7513485 4.7623553 2.9198277
vn -1.2002867 2.8959832 3.0107286
v -2.1061120 5.0807099 2.9198277
vn -0.8124321 3.0277865 3.0109315
v -1.4253094 5.3119879 2.9198277
vn -0.4103855 3.1078722 3.0105290
v -0.7202976 5.4525676 2.9198277
vn -0.1032150 3.1381984 3.0758369
v 0.0000000 5.5000000 2.9198277
vn -0.7235460 -3.0516582 -3.0250537
v -0.9550650 -5.4164429 -2.9300001
vn -1.8637981 -2.5026126 -2.9090829
v -3.2856145 -4.4106321 -2.9300001
vn -1.2365462 -2.8648620 -2.9087882
v -2.1795609 -5.0496135 -2.9300001
vn -2.3903387 -2.0057540 -2.9090414
v -4.2132196 -3.5353522 -2.9300001
vn -2.7882237 -1.4009359 -2.9090827
v -4.9141402 -2.4698503 -2.9300001
vn -3.0360572 -0.7202997 -2.9087853
v -5.3513675 -1.2696263 -2.9300001
vn -3.1275437 -0.0794276 -2.9592991
v -5.5000000 -0.0000000 -2.9300001
vn -3.1078720 0.4103855 -3.0105300
v -5.4525676 0.7202976 -2.9300001
vn -3.0277865 0.8124321 -3.0109315
v -5.3119879 1.4253094 -2.9300001
vn -2.8959832 1.2002867 -3.0107288
v -5.0807099 2.1061120 -2.9300001
vn -2.7144275 1.5681744 -3.0105398
v -4.7623553 2.7513485 -2.9300001
vn -2.4865513 1.9090713 -3.0108576
v -4.3625846 3.3491900 -2.9300001
vn -2.2166986 2.2167246 -3.0110631
v -3.8889806 3.8890250 -2.9300001
vn -1.9090444 2.4865727 -3.0108600
v -3.3491416 4.3626213 -2.9300001
vn -1.5681481 2.7144425 -3.0105414
v -2.7513003 4.7623830 -2.9300001
vn -1.2002628 2.8959928 -3.0107298
v -2.1060686 5.0807281 -2.9300001
vn -0.8124131 3.0277925 -3.0109329
v -1.4252759 5.3119969 -2.9300001
vn -0.4103750 3.1078734 -3.0105338
v -0.7202786 5.4525700 -2.9300001
vn 2.0440791 -3.6590972 0.9350794
v 31.7127151 -12.4637289 3.9513092
vn 2.6723082 -2.7049220 -2.8350916
v 32.0060730 -9.4887152 -2.5937212
vn 2.0970166 -2.0646861 -3.4893451
v 32.0227356 -9.4961615 -2.5773385
vn 4.1453328 1.9412783 -4.2771063
v 32.0227394 -9.0406294 -2.3711503
vn 2.0514252 -1.7557135 -3.4009297
v 32.4645119 -9.6336145 -2.2749426
vn 2.5610702 3.6653457 -0.9165687
v 32.4676704 -8.8005199 -1.8941541
vn 3.0815501 -2.7452157 -1.8772849
v 31.9999466 -9.4788876 -2.6153407
vn 3.5302570 3.4401498 0.6033529
v 32.0021133 -8.5745354 -2.1892133
vn 2.4676681 3.8635058 -0.9203902
v 32.0227356 -8.5891361 -2.1658809
vn 2.7587626 3.9020305 -0.5781274
v 32.0144539 -8.5850334 -2.1713710
vn 3.2055094 3.6929984 -0.0738811
v 32.0080490 -8.5807161 -2.1781390
vn 3.0410252 -2.3639724 -1.8501351
v 31.8315334 -8.8815393 -3.9295077
vn 6.2451491 0.3809291 -0.4850189
v 31.9999447 -8.5682344 -2.2021692
vn 2.8084869 -2.0921600 -2.4486976
v 31.3469925 -8.3149309 -5.1760454
vn 3.0409598 2.9484112 0.5642971
v 31.8313847 2.4983089 1.2424417
vn 6.1677022 0.4659379 -1.0276601
v 31.9999428 1.4476452 2.3504729
vn 3.0811415 3.2220066 0.8331611
v 31.9999428 1.9009959 2.5565302
vn 1.5384390 -3.8065708 1.2592303
v 30.1765099 -12.9115829 4.9365883
vn 2.4361475 -1.8485329 -2.9848971
v 30.5716572 -7.8075008 -6.2923913
vn 2.8083661 3.2206903 -0.0340434
v 31.3467388 3.0648665 -0.0039852
vn 1.9425544 -1.6451049 -3.4324312
v 29.5449009 -7.3843408 -7.2233443
vn 2.4360025 3.4644585 -0.5701035
v 30.5713501 3.5722380 -1.1202024
vn 0.9736835 -3.9090579 1.4863600
v 28.4593906 -13.2253084 5.6267848
vn 1.3520994 -1.4919260 -3.7691882
v 28.3155060 -7.0655560 -7.9246697
vn 1.9424125 3.6678512 -1.0175781
v 29.5445995 3.9953399 -2.0510263
vn 0.3711571 -3.9648042 1.6075865
v 26.6266804 -13.3931370 5.9960089
vn 0.6937181 -1.3965412 -3.9783473
v 26.9442635 -6.8673425 -8.3607407
vn 1.3519830 3.8208294 -1.3543621
v 28.3152637 4.3140731 -2.7522395
vn 0.6936536 3.9156835 -1.5637217
v 26.9441261 4.5122514 -3.1882319
vn 0.4460762 -4.0322804 1.5754330
v 16.9271183 -10.7189760 0.1128526
vn 0.9218646 -3.9853516 1.4792106
v 17.3827496 -10.6766701 0.0197803
vn 1.3777354 -3.9029083 1.3176608
v 17.8171959 -10.6056271 -0.1365148
vn -0.4820523 -5.1571813 0.1273732
v 18.2213593 -10.5070648 -0.3533503
vn -0.2473438 -3.9696908 1.6188575
v 24.7478523 -13.4085464 6.0299091
vn -1.4467815 -3.8833644 1.2877696
v 15.1143208 -10.5913010 -0.1680313
vn -1.0015105 -3.9670584 1.4585357
v 15.5432539 -10.6668224 -0.0018833
vn -0.5266453 -4.0231514 1.5652671
v 15.9958115 -10.7139969 0.1018996
vn -0.0401705 -4.0447321 1.6044807
v 16.4611874 -10.7315397 0.1404928
vn -2.7974963 -3.3335793 0.0383038
v 13.8217716 -10.0500555 -1.3587716
vn -2.5444822 -3.5052803 0.4176961
v 14.0641575 -10.2151985 -0.9954560
vn -2.2288709 -3.6564727 0.7585828
v 14.3658218 -10.3628845 -0.6705487
vn -1.8578874 -3.7825778 1.0527060
v 14.7187891 -10.4892263 -0.3925948
vn -1.5659330 -4.9195533 -0.3756830
v 13.4989023 -9.4897909 -2.5913546
vn -3.0964406 -2.9305105 -0.8065094
v 13.5356140 -9.6833267 -2.1655741
vn -2.9827483 -3.1442604 -0.3711939
v 13.6441717 -9.8713427 -1.7519392
vn -1.8509045 -2.2543700 1.0411935
v 13.4989023 -9.1407900 -2.4327178
vn -3.5705652 -3.3398645 -0.4297189
v 13.6098070 -9.4752731 -1.6968542
vn -3.6711011 -3.1438956 -0.9001542
v 13.5267582 -9.3095980 -2.0613391
vn -3.4032505 -3.5349655 0.0042631
v 13.7465096 -9.6347389 -1.3460298
vn -3.1665611 -3.7229929 0.4190948
v 13.9343262 -9.7850351 -1.0153781
vn -2.8723719 -3.8959138 0.7989007
v 14.1697702 -9.9233723 -0.7110373
vn -2.5253696 -4.0511141 1.1350733
v 14.4484730 -10.0471811 -0.4386571
vn -2.1305609 -4.1891365 1.4259262
v 14.7652588 -10.1541643 -0.2032938
vn -1.2577175 -4.3762898 1.8366170
v 15.4889603 -10.3100586 0.1396736
vn -1.7129490 -4.2966251 1.6555396
v 15.1142473 -10.2423353 -0.0093166
vn -0.7714056 -4.4290185 1.9665794
v 15.8824425 -10.3560753 0.2409109
vn 1.2371231 -4.3746748 1.8459805
v 17.4956131 -10.3123226 0.1446554
vn 1.7063713 -4.2956443 1.6613822
v 17.8712139 -10.2454472 -0.0024721
vn -0.4715911 -2.5412602 1.6941772
v 18.2213593 -10.1580648 -0.1947135
vn 1.1353258 1.2093180 4.3497171
v 28.4597740 -12.7964582 5.8215842
vn 1.7930524 1.3293908 4.0846643
v 30.1785641 -12.4823437 5.1305318
vn 2.3573141 -1.8834392 -3.1252177
v 32.8547974 -9.7942638 -1.9215130
vn 2.4446063 -3.5159266 0.5498334
v 33.0065231 -11.8991804 2.7093043
vn 2.3823488 1.5006714 3.7075458
v 31.7143345 -12.0343904 4.1450338
vn 2.6186361 -2.0268555 -2.8134875
v 33.1883583 -9.9756584 -1.5224450
vn 2.7172313 -3.3829193 0.1782037
v 33.3142357 -11.7091951 2.2913351
vn 2.8499889 1.7189405 3.2972093
v 33.0070076 -11.4701214 2.9036419
vn 2.8310604 -2.1831224 -2.4700310
v 33.4588013 -10.1745214 -1.0849462
vn 2.9068108 -3.2238991 -0.1773042
v 33.5548744 -11.5043230 1.8406174
vn 3.3618178 2.0914986 2.5509915
v 33.5502243 -11.0667171 2.0527768
vn 3.1552975 1.9185059 2.9270012
v 33.3099899 -11.2801752 2.4948440
vn 2.9891195 -2.3497734 -2.1043310
v 33.6604424 -10.3868628 -0.6177966
vn 3.0403147 -3.0544336 -0.5510042
v 33.7254448 -11.2875938 1.3638133
vn 3.5106943 2.2718787 2.1533692
v 33.7220612 -10.8337059 1.5861272
vn 3.0903397 -2.5233727 -1.7229110
v 33.7894783 -10.6083164 -0.1305981
vn 3.1162558 -2.8788466 -0.9383999
v 33.8225174 -11.0629721 0.8696444
vn 3.6014273 2.4597092 1.7401943
v 33.8210602 -10.5856304 1.1046634
vn 3.1330280 -2.7007778 -1.3323900
v 33.8439026 -10.8350000 0.3681056
vn 3.6296380 2.6497467 1.3210661
v 33.8449402 -10.3278170 0.6195251
vn 3.5976505 2.8404903 0.9014208
v 33.7929993 -10.0628948 0.1367467
vn 3.5024915 3.0258226 0.4914987
v 33.6659698 -9.7962961 -0.3325354
vn 3.3509092 3.2053738 0.0975872
v 33.4665070 -9.5334120 -0.7774092
vn 3.1393237 3.3720939 -0.2718950
v 33.1986809 -9.2782106 -1.1898453
vn 2.8774943 3.5275049 -0.6153458
v 32.8630295 -9.0318670 -1.5659034
vn 2.8926749 1.9602437 3.4268963
v 30.5819054 -10.2564363 1.5118757
vn 2.6189239 1.8324121 3.7075276
v 30.0961933 -10.4813423 2.0066693
vn 3.1320691 2.1014860 3.1170049
v 31.0037079 -10.0104408 0.9706854
vn 3.3326237 2.2517307 2.7865067
v 31.3562984 -9.7464495 0.3899042
vn 3.4910796 2.4103496 2.4376605
v 31.6352425 -9.4677820 -0.2231643
vn 3.6051507 2.5753405 2.0750039
v 31.8370323 -9.1779432 -0.8608103
vn 3.6723232 2.7443495 1.7041248
v 31.9591293 -8.8805771 -1.5150151
vn 3.6944802 2.8246291 1.3960509
v 32.0000000 -8.5794239 -2.1775517
vn 3.6883054 2.8215060 1.2740078
v 31.9999866 -8.5738173 -2.1898866
vn 6.2669683 -0.0303692 -0.2822599
v 31.9999466 0.9903241 2.1433990
vn 3.6906717 -2.9088631 -1.2124770
v 32.0000000 0.9794240 2.1673791
vn 3.6871674 -2.8152802 -1.2879230
v 31.9999866 0.9848741 2.1553891
vn 3.6755877 -3.0872817 -0.9483330
v 31.9591293 0.6782710 2.8299158
vn 3.6064792 -3.2564914 -0.5759058
v 31.8370323 0.3809052 3.4841206
vn 3.4919186 -3.4214282 -0.2129016
v 31.6352425 0.0910661 4.1217666
vn 3.3333867 -3.5800354 0.1361494
v 31.3562984 -0.1876014 4.7348351
vn 3.1328831 -3.7302992 0.4668289
v 31.0037079 -0.4515929 5.3156161
vn 2.8941967 -3.8720899 0.7810349
v 30.5819054 -0.6975884 5.8568068
vn 2.6246216 -3.9977970 1.0584127
v 30.0961933 -0.9224946 6.3516002
vn 2.3067367 -4.1140504 1.3126003
v 29.5526829 -1.1234831 6.7937751
vn 2.3067446 1.7164831 3.9622378
v 29.5526829 -10.6823311 2.4488440
vn 1.9730291 -4.2120829 1.5283362
v 28.9582081 -1.2980263 7.1777697
vn 1.9724969 1.6182543 4.1782866
v 28.9582081 -10.8568745 2.8328390
vn 1.6048985 -4.2959671 1.7123576
v 28.3202438 -1.4439292 7.4987564
vn 1.6040459 1.5321941 4.3663330
v 28.3202438 -11.0027771 3.1538253
vn 1.2238514 -4.3610635 1.8552690
v 27.6468143 -1.5593570 7.7526975
vn 1.2272199 1.4684712 4.5071301
v 27.6468143 -11.1182051 3.4077666
vn 0.8234438 -4.4089084 1.9606333
v 26.9463863 -1.6428583 7.9364004
vn 0.8234443 1.4218173 4.6109638
v 26.9463863 -11.2017059 3.5914693
vn 0.4293996 -4.1363349 2.0906870
v 26.6252041 -2.4424658 10.9738770
vn 1.1349127 -4.0727367 1.9502363
v 28.4597759 -2.2744772 10.6043024
vn 1.7941976 -3.9515891 1.6845447
v 30.1785660 -1.9603622 9.9132490
vn 2.3820751 -3.7796297 1.3057239
v 31.7143364 -1.5124084 8.9277506
vn 2.8474588 -3.6154144 0.8721757
v 33.0070114 -0.9481390 7.6863580
vn 3.3627620 -3.2956109 0.0980953
v 33.5516548 -0.5709746 6.8197207
vn 3.1557255 -3.4666283 0.4764028
v 33.3109550 -0.7643716 7.2729216
vn 3.6018465 -2.9261386 -0.7152843
v 33.8218002 -0.1718212 5.8306160
vn 3.5108740 -3.1144543 -0.3001425
v 33.7234154 -0.3719636 6.3356204
vn 3.5961170 -2.5445247 -1.5553775
v 33.7914276 0.2141670 4.7984791
vn 3.6284475 -2.7355318 -1.1343664
v 33.8446655 0.0245243 5.3161707
vn 3.3472991 -2.1803908 -2.3586152
v 33.4625092 0.5541395 3.7992904
vn 3.4987772 -2.3587110 -1.9635119
v 33.6630630 0.3922593 4.2890944
vn 2.8731003 -1.8573792 -3.0681286
v 32.8587875 0.8170649 2.9063191
vn 3.1323376 -2.0146980 -2.7225869
v 33.1941261 0.6964668 3.3371830
vn 3.2355721 -2.3826277 -2.8174212
v 32.0075722 0.9806394 2.1679318
vn 2.8163249 -2.1360621 -3.3222690
v 32.0140457 0.9782509 2.1759479
vn 2.4023762 -1.9041454 -3.4205818
v 32.0227356 0.9767064 2.1830530
vn 2.4924972 -1.7626770 -3.3004749
v 32.4648895 0.9115208 2.5185592
vn 3.5392947 -2.7273953 -2.1654282
v 32.0019531 0.9848838 2.1562042
vn 2.6742632 3.9121215 0.1755236
v 32.0060730 1.8911691 2.5781493
vn 2.0441854 1.7014959 3.3716099
v 31.7129021 -1.0840790 9.1236954
vn 2.4440706 1.8981433 3.0116625
v 33.0065842 -0.5195626 7.8817592
vn 1.5385287 1.5542161 3.6958914
v 30.1766472 -1.5319695 10.1090546
vn 0.9737698 1.4504973 3.9224920
v 28.4594822 -1.8457149 10.7992945
vn 0.3711655 1.3958142 4.0442324
v 26.6267281 -2.0135541 11.1685400
vn -0.2471972 1.3906026 4.0553827
v 24.7478695 -2.0289662 11.2024469
vn -0.0402137 1.4506899 4.1023998
v 16.4611454 0.6480419 5.3130293
vn -1.5655043 1.1360500 3.2041290
v 22.8974972 -1.8909507 10.8988132
vn 1.3841336 1.5693866 3.8009851
v 17.8171825 0.7739517 5.0360274
vn 0.9218392 1.5060258 3.9752955
v 17.3827267 0.7029079 5.1923242
vn 0.4460394 1.4643877 4.0739245
v 16.9270840 0.6606033 5.2853942
vn -1.8579309 1.6940608 3.5420504
v 14.7187481 0.8903667 4.7799144
vn -0.5266925 1.4660494 4.0603495
v 15.9957647 0.6655874 5.2744288
vn -1.0015616 1.5095806 3.9478951
v 15.5432062 0.7127648 5.1706386
vn -1.4468223 1.5832174 3.7725577
v 15.1142750 0.7882898 5.0044837
vn -1.5665992 3.5286798 3.4553239
v 13.4989023 1.8897905 2.5811822
vn -2.9827497 2.3471358 2.1248710
v 13.6441641 1.5082481 3.4205756
vn -2.2289112 1.8327342 3.2536395
v 14.3657875 1.0167109 4.5019574
vn -2.5445018 1.9901546 2.9155791
v 14.0641327 1.1643963 4.1770496
vn -2.7975175 2.1631007 2.5367599
v 13.8217564 1.3295383 3.8137369
vn -4.9365830 0.8043942 1.7327200
v 10.0000000 0.9791384 2.1672494
vn -1.5608882 0.7505874 1.8731368
v 10.0000000 1.8897905 2.5811822
vn -6.0472417 0.9805970 -0.6873373
v 10.0000000 -0.8413090 1.3397734
vn -1.8554285 0.6917661 2.3741934
v 13.4989023 1.5407897 2.4225454
vn -3.6129966 2.6247172 2.0582774
v 10.1629686 -1.4398278 2.6565146
vn -3.5402136 2.2956960 1.9261678
v 10.1629686 0.3806196 3.4839909
vn -3.6714725 2.8005273 1.7665641
v 10.0408707 -1.1424619 2.0023100
vn -3.3455820 2.3002875 2.7725768
v 10.6437025 -2.0083344 3.9072292
vn -3.2735026 1.9775941 2.6255696
v 10.6437025 -0.1878870 4.7347054
vn -3.5702415 2.5200875 2.2334170
v 13.6098070 1.2063062 3.1584091
vn -3.4752347 2.4668353 2.5021689
v 10.3647585 -1.7296668 3.2941608
vn -3.6758227 2.7317252 1.7783464
v 13.5267582 1.3719811 2.7939243
vn -2.9135942 2.0043883 3.4208250
v 11.4180956 -2.5183215 5.0292006
vn -2.8405666 1.6924682 3.2531145
v 11.4180956 -0.6978741 5.8566766
vn -3.1665635 2.1322386 3.0805604
v 13.9343262 0.8965444 3.8398852
vn -3.1080294 2.1597128 3.1778586
v 10.9962931 -2.2723258 4.4880104
vn -3.4027326 2.3211641 2.6662924
v 13.7465096 1.0468405 3.5092337
vn -2.3328545 1.7606776 3.9574199
v 12.4473162 -2.9442160 5.9661689
vn -2.2669632 1.4547268 3.7761991
v 12.4473162 -1.1237687 6.7936449
vn -2.8731365 1.9575250 3.4640868
v 14.1697702 0.7582077 4.1442261
vn -2.5942829 1.8925906 3.7623091
v 11.9038057 -2.7432275 5.5239944
vn -1.6363839 1.5762640 4.3633289
v 13.6797562 -3.2646623 6.6711502
vn -1.5792665 1.2748677 4.1715236
v 13.6797562 -1.4442148 7.4986262
vn -2.1306257 1.6810747 4.0923829
v 14.7652588 0.5274152 4.6519694
vn -1.9373376 1.6824660 4.2262049
v 13.0417919 -3.1187592 6.3501639
vn -2.5300484 1.8075284 3.7990637
v 14.4484730 0.6343985 4.4166064
vn -0.8586006 1.4602499 4.6185851
v 15.0536137 -3.4635911 7.1087942
vn -1.2577155 1.4938153 4.5048456
v 15.4889603 0.3715209 4.9949369
vn -1.1847551 1.5372281 4.5463653
v 14.3531857 -3.3800900 6.9250917
vn -1.7114794 1.5783224 4.3252897
v 15.1142473 0.4392437 4.8459468
vn -0.4839610 1.1456810 4.4864340
v 15.4008427 -4.5056624 8.6556520
vn -1.1911610 1.2140101 4.3349862
v 13.8040562 -4.3486757 8.3102818
vn -1.8499314 1.3401961 4.0576634
v 12.3139658 -4.0639987 7.6839919
vn -2.4345703 1.5178192 3.6666424
v 10.9895420 -3.6628973 6.8015690
vn -2.9466348 1.7231048 3.1324961
v 9.8832016 -3.1612461 5.6979365
vn -3.3597221 2.0027962 2.4355226
v 9.3675880 -2.7653570 4.8580685
vn -3.5842712 2.3636177 1.6446480
v 9.1147566 -2.3049326 3.9375188
vn -3.5789533 2.7343686 0.8307813
v 9.1405220 -1.8102007 3.0008607
vn -3.3454437 3.0892220 0.0492056
v 9.4422503 -1.3124754 2.1143274
vn -2.8413310 -2.0914025 -2.3503730
v 9.4411926 -2.1252019 1.7477285
vn -2.5332141 -3.4017086 0.4549566
v 9.8832016 -3.7906988 5.4118214
vn -2.0868428 -3.6418793 0.9012134
v 10.9926052 -4.2934604 6.5178976
vn -1.5838995 -3.7948647 1.2355833
v 12.3185453 -4.6945095 7.4002051
vn -1.0194738 -3.9020677 1.4724771
v 13.8076639 -4.9786105 8.0252285
vn -1.0196877 1.4565253 3.9081445
v 13.8076639 -9.0752602 6.1631150
vn -1.5838997 1.5643328 3.6715825
v 12.3185453 -8.7911587 5.5380921
vn -2.0866263 1.7158012 3.3367836
v 10.9926052 -8.3901100 4.6557841
vn -2.5334499 1.8942831 2.8619261
v 9.8832016 -7.8873477 3.5497084
vn -3.3463092 -2.0690410 -2.2930520
v 9.4414110 -7.0330539 -0.4838801
vn -2.8414698 3.1456487 0.0305320
v 9.4411926 -6.2218509 -0.1143847
vn -3.5392473 -2.9640994 -0.4553056
v 10.1629686 -9.1776571 -0.8606805
vn -3.6802454 -3.1403313 -1.0189782
v 10.0408707 -7.0598440 -0.6874092
vn -3.5973322 -3.3049917 -0.5616750
v 10.1629686 -7.3572097 -0.0332044
vn -3.2700922 -3.2813458 0.2426437
v 10.6437025 -9.7461634 0.3900340
vn -3.5009708 -3.4767795 -0.2802962
v 10.3647585 -7.6470490 0.6044416
vn -3.5792632 -2.4245992 -1.5108907
v 9.1399517 -7.3743768 0.4756607
vn -3.3150382 -3.6276865 0.1476996
v 10.6437025 -7.9257164 1.2175101
vn -3.5838745 -2.7947934 -0.6962881
v 9.1152153 -7.7550664 1.4647965
vn -2.8368723 -3.5662351 0.8695437
v 11.4180956 -10.2561512 1.5120056
vn -3.1494989 -3.7870445 0.4022684
v 10.9962931 -8.1897078 1.7982913
vn -3.3586049 -3.1534259 0.0951734
v 9.3687601 -8.1454983 2.4158273
vn -2.8693092 -3.9173639 0.7868884
v 11.4180956 -8.4357033 2.3394816
vn -2.9476418 -3.4932077 0.7613505
v 9.8832016 -8.5168009 3.2635934
vn -2.2606468 -3.8039041 1.3922046
v 12.4473162 -10.6820459 2.4489739
vn -2.6466970 -4.0564899 0.9973093
v 11.9038057 -8.6606092 2.8342752
vn -2.2778492 -4.1585765 1.3193510
v 12.4473162 -8.8615980 3.2764499
vn -2.4332182 -3.7612257 1.2681299
v 10.9895420 -9.0184517 4.3672261
vn -1.5723743 -3.9824684 1.7850652
v 13.6797562 -11.0024920 3.1539552
vn -2.0066309 -4.2731829 1.4745145
v 13.0417919 -9.0361414 3.6604447
vn -1.5711087 -4.3397164 1.7207021
v 13.6797562 -9.1820440 3.9814312
vn -1.8475137 -3.9380012 1.6563916
v 12.3139658 -9.4195528 5.2496490
vn -1.2657367 -4.4258924 1.8112746
v 14.3531857 -9.2974720 4.2353725
vn -1.1925727 -4.0634255 1.9320804
v 13.8040562 -9.7042303 5.8759384
vn -2.8986092 2.1478250 2.2263005
v 9.3677902 -7.5032849 2.7047698
vn -3.0761881 2.8193789 0.7495291
v 9.1399651 -6.6415868 0.8090335
vn -3.0957851 2.4796145 1.4977573
v 9.1149597 -7.0781150 1.7693958
vn -2.8985405 -3.0894489 -0.1541833
v 9.3677902 -3.4066358 4.5668831
vn -3.0763578 -2.4192817 -1.6310521
v 9.1399651 -2.5449374 2.6711469
vn -3.0956705 -2.7591870 -0.8824946
v 9.1149597 -2.9814658 3.6315091
vn 1.2371260 1.4856920 4.5097857
v 17.4956131 0.3692564 4.9999189
vn 0.7480459 1.4269410 4.6339965
v 17.1015301 0.3241282 5.0992007
vn 1.7111509 1.5861998 4.3272552
v 17.8712139 0.4361326 4.8527913
vn -0.4789684 0.4023329 3.0332825
v 18.2213593 0.5235150 4.6605496
vn -3.0958211 2.5371926 1.6869067
v 13.5356112 1.6962595 3.0069504
vn 2.0955353 3.9831374 -0.7420387
v 32.0227356 1.8837233 2.5945301
vn 2.0517607 3.7132642 -0.9145069
v 32.4645882 1.7462777 2.8969102
vn 3.7313724 2.0893490 -4.6028118
v 32.0227356 1.4322355 2.3892567
vn 2.3571718 3.5887401 -0.6376828
v 32.8549500 1.5856262 3.2503433
vn 2.6184785 3.4479036 -0.3247564
v 33.1885796 1.4042218 3.6494334
vn 2.7177541 2.0904362 2.6651304
v 33.3144035 -0.3295531 7.4637380
vn 2.8308961 3.2917476 0.0187958
v 33.4590797 1.2053411 4.0869708
vn 2.9066501 2.2516572 2.3116965
v 33.5551224 -0.1246514 7.0129542
vn 2.9889393 3.1259983 0.3848748
v 33.6607628 0.9929760 4.5541739
vn 3.0401232 2.4210556 1.9379989
v 33.7257538 0.0921118 6.5360756
vn 3.0901408 2.9531357 0.7666387
v 33.7898254 0.7714928 5.0414371
vn 3.1160643 2.5967751 1.5507275
v 33.8228607 0.3167692 6.0418291
vn 3.1328411 2.7760253 1.1572874
v 33.8442574 0.5447764 5.5402131
# 531 vertices, 0 vertices normals

f 1//1 2//2 3//3
f 4//4 3//3 2//2
f 5//5 1//1 3//3
f 6//6 5//5 3//3
f 7//7 6//6 3//3
f 8//8 7//7 3//3
f 4//4 8//8 3//3
f 1//1 9//9 2//2
f 10//10 2//2 9//9
f 10//10 11//11 2//2
f 4//4 2//2 11//11
f 12//12 13//13 9//9
f 14//14 9//9 13//13
f 1//1 12//12 9//9
f 14//14 10//10 9//9
f 15//15 16//16 13//13
f 17//17 13//13 16//16
f 12//12 15//15 13//13
f 17//17 14//14 13//13
f 18//18 19//19 16//16
f 20//20 16//16 19//19
f 15//15 18//18 16//16
f 20//20 17//17 16//16
f 21//21 22//22 19//19
f 23//23 19//19 22//22
f 18//18 21//21 19//19
f 23//23 20//20 19//19
f 24//24 25//25 22//22
f 26//26 22//22 25//25
f 21//21 24//24 22//22
f 26//26 23//23 22//22
f 27//27 28//28 25//25
f 29//29 25//25 28//28
f 24//24 27//27 25//25
f 30//30 26//26 25//25
f 29//29 30//30 25//25
f 31//31 28//28 27//27
f 32//32 28//28 31//31
f 33//33 29//29 28//28
f 34//34 33//33 28//28
f 32//32 34//34 28//28
f 35//35 27//27 24//24
f 35//35 31//31 27//27
f 35//35 24//24 21//21
f 36//36 21//21 18//18
f 36//36 37//37 21//21
f 35//35 21//21 37//37
f 36//36 18//18 15//15
f 36//36 15//15 12//12
f 5//5 12//12 1//1
f 5//5 36//36 12//12
f 35//35 37//37 38//38
f 39//39 38//38 37//37
f 40//40 35//35 38//38
f 39//39 40//40 38//38
f 41//41 37//37 36//36
f 41//41 39//39 37//37
f 42//42 36//36 5//5
f 41//41 36//36 42//42
f 43//43 5//5 6//6
f 42//42 5//5 43//43
f 44//44 6//6 7//7
f 43//43 6//6 44//44
f 45//45 7//7 8//8
f 44//44 7//7 45//45
f 4//4 45//45 8//8
f 35//35 46//46 31//31
f 32//32 31//31 46//46
f 47//47 48//48 46//46
f 49//49 46//46 48//48
f 35//35 47//47 46//46
f 32//32 46//46 49//49
f 47//47 50//50 48//48
f 51//51 48//48 50//50
f 49//49 48//48 51//51
f 47//47 52//52 50//50
f 53//53 50//50 52//52
f 51//51 50//50 53//53
f 47//47 54//54 52//52
f 55//55 52//52 54//54
f 53//53 52//52 55//55
f 47//47 56//56 54//54
f 34//34 54//54 56//56
f 55//55 54//54 34//34
f 47//47 57//57 56//56
f 58//58 56//56 57//57
f 33//33 56//56 58//58
f 34//34 56//56 33//33
f 47//47 59//59 57//57
f 60//60 57//57 59//59
f 61//61 57//57 60//60
f 62//62 57//57 61//61
f 58//58 57//57 62//62
f 47//47 63//63 59//59
f 64//64 59//59 63//63
f 60//60 59//59 64//64
f 47//47 65//65 63//63
f 66//66 63//63 65//65
f 67//67 63//63 66//66
f 64//64 63//63 67//67
f 47//47 68//68 65//65
f 69//69 65//65 68//68
f 66//66 65//65 69//69
f 47//47 70//70 68//68
f 71//71 68//68 70//70
f 69//69 68//68 71//71
f 47//47 72//72 70//70
f 71//71 70//70 72//72
f 73//73 72//72 47//47
f 74//74 72//72 73//73
f 71//71 72//72 74//74
f 35//35 75//75 47//47
f 76//76 47//47 75//75
f 76//76 73//73 47//47
f 77//77 75//75 35//35
f 77//77 78//78 75//75
f 79//79 75//75 78//78
f 80//80 76//76 75//75
f 81//81 80//80 75//75
f 82//82 81//81 75//75
f 83//83 82//82 75//75
f 84//84 83//83 75//75
f 85//85 84//84 75//75
f 86//86 85//85 75//75
f 87//87 86//86 75//75
f 88//88 87//87 75//75
f 79//79 88//88 75//75
f 77//77 35//35 40//40
f 89//89 40//40 39//39
f 89//89 90//90 40//40
f 77//77 40//40 90//90
f 91//91 89//89 39//39
f 41//41 91//91 39//39
f 92//92 90//90 89//89
f 77//77 90//90 92//92
f 93//93 89//89 91//91
f 93//93 92//92 89//89
f 94//94 95//95 91//91
f 96//96 91//91 95//95
f 97//97 94//94 91//91
f 98//98 97//97 91//91
f 99//99 98//98 91//91
f 100//100 99//99 91//91
f 101//101 100//100 91//91
f 102//102 101//101 91//91
f 103//103 102//102 91//91
f 45//45 103//103 91//91
f 44//44 45//45 91//91
f 43//43 44//44 91//91
f 42//42 43//43 91//91
f 41//41 42//42 91//91
f 104//104 73//73 91//91
f 105//105 91//91 73//73
f 106//106 104//104 91//91
f 107//107 106//106 91//91
f 96//96 107//107 91//91
f 105//105 93//93 91//91
f 108//108 95//95 94//94
f 109//109 96//96 95//95
f 109//109 95//95 108//108
f 110//110 94//94 97//97
f 110//110 108//108 94//94
f 111//111 97//97 98//98
f 111//111 110//110 97//97
f 112//112 98//98 99//99
f 112//112 111//111 98//98
f 113//113 99//99 100//100
f 113//113 112//112 99//99
f 114//114 100//100 101//101
f 114//114 113//113 100//100
f 115//115 101//101 102//102
f 115//115 114//114 101//101
f 116//116 102//102 103//103
f 115//115 102//102 116//116
f 117//117 103//103 45//45
f 117//117 116//116 103//103
f 4//4 117//117 45//45
f 61//61 74//74 73//73
f 118//118 61//61 73//73
f 119//119 118//118 73//73
f 104//104 119//119 73//73
f 76//76 105//105 73//73
f 61//61 71//71 74//74
f 60//60 69//69 71//71
f 61//61 60//60 71//71
f 60//60 66//66 69//69
f 60//60 67//67 66//66
f 60//60 64//64 67//67
f 120//120 61//61 118//118
f 62//62 61//61 120//120
f 121//121 118//118 119//119
f 120//120 118//118 121//121
f 122//122 119//119 104//104
f 121//121 119//119 122//122
f 123//123 104//104 106//106
f 122//122 104//104 123//123
f 124//124 106//106 107//107
f 123//123 106//106 124//124
f 125//125 107//107 96//96
f 124//124 107//107 125//125
f 125//125 96//96 109//109
f 126//126 115//115 116//116
f 127//127 116//116 117//117
f 127//127 126//126 116//116
f 121//121 108//108 110//110
f 121//121 109//109 108//108
f 128//128 110//110 111//111
f 128//128 121//121 110//110
f 129//129 111//111 112//112
f 130//130 128//128 111//111
f 129//129 130//130 111//111
f 131//131 112//112 113//113
f 131//131 129//129 112//112
f 132//132 113//113 114//114
f 132//132 131//131 113//113
f 126//126 114//114 115//115
f 126//126 132//132 114//114
f 127//127 133//133 134//134
f 11//11 134//134 133//133
f 135//135 127//127 134//134
f 135//135 134//134 11//11
f 127//127 117//117 133//133
f 136//136 133//133 117//117
f 136//136 11//11 133//133
f 136//136 117//117 4//4
f 122//122 125//125 109//109
f 121//121 122//122 109//109
f 123//123 124//124 125//125
f 122//122 123//123 125//125
f 137//137 120//120 121//121
f 128//128 137//137 121//121
f 138//138 62//62 120//120
f 137//137 138//138 120//120
f 139//139 140//140 62//62
f 58//58 62//62 140//140
f 141//141 139//139 62//62
f 142//142 141//141 62//62
f 143//143 142//142 62//62
f 138//138 143//143 62//62
f 144//144 140//140 139//139
f 145//145 58//58 140//140
f 146//146 145//145 140//140
f 144//144 146//146 140//140
f 147//147 139//139 141//141
f 148//148 144//144 139//139
f 147//147 148//148 139//139
f 149//149 141//141 142//142
f 149//149 147//147 141//141
f 150//150 142//142 143//143
f 150//150 149//149 142//142
f 151//151 143//143 138//138
f 151//151 150//150 143//143
f 152//152 138//138 137//137
f 152//152 151//151 138//138
f 153//153 137//137 128//128
f 153//153 152//152 137//137
f 154//154 128//128 130//130
f 155//155 128//128 154//154
f 156//156 128//128 155//155
f 157//157 153//153 128//128
f 156//156 157//157 128//128
f 158//158 130//130 129//129
f 154//154 130//130 158//158
f 159//159 129//129 131//131
f 158//158 129//129 159//159
f 160//160 131//131 132//132
f 159//159 131//131 160//160
f 161//161 132//132 126//126
f 160//160 132//132 161//161
f 162//162 126//126 127//127
f 161//161 126//126 162//162
f 163//163 127//127 135//135
f 162//162 127//127 163//163
f 164//164 58//58 145//145
f 165//165 166//166 58//58
f 33//33 58//58 166//166
f 167//167 165//165 58//58
f 168//168 167//167 58//58
f 164//164 168//168 58//58
f 146//146 169//169 145//145
f 170//170 145//145 169//169
f 170//170 164//164 145//145
f 146//146 171//171 169//169
f 172//172 169//169 171//171
f 173//173 170//170 169//169
f 172//172 173//173 169//169
f 174//174 175//175 171//171
f 176//176 171//171 175//175
f 146//146 174//174 171//171
f 177//177 172//172 171//171
f 178//178 177//177 171//171
f 176//176 178//178 171//171
f 179//179 180//180 175//175
f 176//176 175//175 180//180
f 181//181 179//179 175//175
f 182//182 181//181 175//175
f 174//174 182//182 175//175
f 183//183 184//184 180//180
f 176//176 180//180 184//184
f 179//179 183//183 180//180
f 183//183 185//185 184//184
f 186//186 184//184 185//185
f 186//186 176//176 184//184
f 183//183 187//187 185//185
f 188//188 185//185 187//187
f 188//188 186//186 185//185
f 189//189 187//187 183//183
f 190//190 187//187 189//189
f 188//188 187//187 190//190
f 191//191 183//183 179//179
f 192//192 189//189 183//183
f 193//193 183//183 191//191
f 194//194 192//192 183//183
f 193//193 194//194 183//183
f 195//195 179//179 181//181
f 196//196 191//191 179//179
f 197//197 196//196 179//179
f 195//195 197//197 179//179
f 198//198 181//181 182//182
f 198//198 195//195 181//181
f 199//199 200//200 182//182
f 198//198 182//182 200//200
f 174//174 199//199 182//182
f 201//201 202//202 200//200
f 203//203 200//200 202//202
f 199//199 201//201 200//200
f 203//203 198//198 200//200
f 204//204 205//205 202//202
f 206//206 202//202 205//205
f 201//201 204//204 202//202
f 206//206 203//203 202//202
f 207//207 205//205 204//204
f 208//208 205//205 207//207
f 206//206 205//205 208//208
f 209//209 204//204 201//201
f 210//210 207//207 204//204
f 209//209 210//210 204//204
f 211//211 201//201 199//199
f 211//211 209//209 201//201
f 212//212 199//199 174//174
f 212//212 211//211 199//199
f 213//213 214//214 174//174
f 212//212 174//174 214//214
f 215//215 213//213 174//174
f 146//146 215//215 174//174
f 216//216 214//214 213//213
f 212//212 214//214 217//217
f 216//216 217//217 214//214
f 218//218 219//219 213//213
f 220//220 213//213 219//219
f 221//221 218//218 213//213
f 222//222 221//221 213//213
f 223//223 222//222 213//213
f 215//215 223//223 213//213
f 224//224 216//216 213//213
f 224//224 213//213 220//220
f 225//225 219//219 218//218
f 225//225 226//226 219//219
f 227//227 219//219 226//226
f 228//228 219//219 227//227
f 229//229 219//219 228//228
f 230//230 219//219 229//229
f 220//220 219//219 230//230
f 231//231 218//218 221//221
f 232//232 225//225 218//218
f 231//231 232//232 218//218
f 233//233 221//221 222//222
f 233//233 231//231 221//221
f 234//234 222//222 223//223
f 234//234 233//233 222//222
f 234//234 223//223 215//215
f 235//235 215//215 146//146
f 234//234 215//215 235//235
f 235//235 146//146 144//144
f 236//236 144//144 148//148
f 237//237 235//235 144//144
f 238//238 237//237 144//144
f 236//236 238//238 144//144
f 239//239 11//11 10//10
f 136//136 4//4 11//11
f 240//240 135//135 11//11
f 239//239 240//240 11//11
f 239//239 10//10 14//14
f 241//241 14//14 17//17
f 242//242 239//239 14//14
f 241//241 242//242 14//14
f 243//243 17//17 20//20
f 243//243 241//241 17//17
f 244//244 20//20 23//23
f 244//244 243//243 20//20
f 245//245 23//23 26//26
f 245//245 244//244 23//23
f 246//246 26//26 30//30
f 246//246 245//245 26//26
f 247//247 30//30 29//29
f 247//247 246//246 30//30
f 33//33 166//166 29//29
f 248//248 29//29 166//166
f 248//248 247//247 29//29
f 249//249 166//166 165//165
f 249//249 248//248 166//166
f 250//250 165//165 167//167
f 250//250 249//249 165//165
f 251//251 167//167 168//168
f 251//251 250//250 167//167
f 252//252 168//168 164//164
f 252//252 251//251 168//168
f 170//170 252//252 164//164
f 32//32 55//55 34//34
f 49//49 53//53 55//55
f 32//32 49//49 55//55
f 49//49 51//51 53//53
f 93//93 78//78 92//92
f 77//77 92//92 78//78
f 253//253 78//78 93//93
f 254//254 79//79 78//78
f 255//255 254//254 78//78
f 256//256 255//255 78//78
f 257//257 256//256 78//78
f 258//258 257//257 78//78
f 259//259 258//258 78//78
f 260//260 259//259 78//78
f 261//261 260//260 78//78
f 262//262 261//261 78//78
f 253//253 262//262 78//78
f 263//263 93//93 105//105
f 263//263 253//253 93//93
f 80//80 105//105 76//76
f 263//263 105//105 80//80
f 263//263 80//80 81//81
f 264//264 81//81 82//82
f 265//265 263//263 81//81
f 264//264 265//265 81//81
f 266//266 82//82 83//83
f 266//266 264//264 82//82
f 267//267 83//83 84//84
f 267//267 266//266 83//83
f 268//268 84//84 85//85
f 268//268 267//267 84//84
f 268//268 85//85 86//86
f 269//269 86//86 87//87
f 269//269 268//268 86//86
f 270//270 87//87 88//88
f 270//270 269//269 87//87
f 271//271 88//88 79//79
f 271//271 270//270 88//88
f 272//272 79//79 254//254
f 272//272 271//271 79//79
f 273//273 254//254 255//255
f 273//273 272//272 254//254
f 274//274 255//255 256//256
f 274//274 273//273 255//255
f 275//275 256//256 257//257
f 275//275 274//274 256//256
f 276//276 257//257 258//258
f 276//276 275//275 257//257
f 277//277 258//258 259//259
f 277//277 276//276 258//258
f 278//278 259//259 260//260
f 278//278 277//277 259//259
f 279//279 260//260 261//261
f 279//279 278//278 260//260
f 280//280 261//261 262//262
f 280//280 279//279 261//261
f 280//280 262//262 253//253
f 280//280 253//253 263//263
f 279//279 263//263 265//265
f 280//280 263//263 279//279
f 277//277 265//265 264//264
f 278//278 265//265 277//277
f 279//279 265//265 278//278
f 276//276 264//264 266//266
f 277//277 264//264 276//276
f 274//274 266//266 267//267
f 275//275 266//266 274//274
f 276//276 266//266 275//275
f 272//272 267//267 268//268
f 273//273 267//267 272//272
f 274//274 267//267 273//273
f 270//270 268//268 269//269
f 271//271 268//268 270//270
f 272//272 268//268 271//271
f 281//281 282//282 283//283
f 284//284 283//283 282//282
f 285//285 281//281 283//283
f 286//286 285//285 283//283
f 284//284 286//286 283//283
f 281//281 287//287 282//282
f 288//288 282//282 287//287
f 284//284 282//282 289//289
f 290//290 289//289 282//282
f 291//291 290//290 282//282
f 288//288 291//291 282//282
f 281//281 292//292 287//287
f 293//293 287//287 292//292
f 293//293 288//288 287//287
f 281//281 294//294 292//292
f 295//295 292//292 294//294
f 296//296 293//293 292//292
f 297//297 296//296 292//292
f 295//295 297//297 292//292
f 298//298 299//299 294//294
f 300//300 294//294 299//299
f 281//281 298//298 294//294
f 300//300 295//295 294//294
f 298//298 301//301 299//299
f 302//302 299//299 301//301
f 302//302 300//300 299//299
f 303//303 304//304 301//301
f 305//305 301//301 304//304
f 298//298 303//303 301//301
f 305//305 302//302 301//301
f 306//306 307//307 304//304
f 308//308 304//304 307//307
f 303//303 306//306 304//304
f 308//308 305//305 304//304
f 306//306 135//135 307//307
f 309//309 307//307 135//135
f 309//309 308//308 307//307
f 310//310 163//163 135//135
f 311//311 310//310 135//135
f 312//312 311//311 135//135
f 313//313 312//312 135//135
f 217//217 313//313 135//135
f 314//314 217//217 135//135
f 306//306 314//314 135//135
f 240//240 309//309 135//135
f 315//315 162//162 163//163
f 316//316 315//315 163//163
f 317//317 316//316 163//163
f 318//318 317//317 163//163
f 310//310 318//318 163//163
f 319//319 161//161 162//162
f 320//320 319//319 162//162
f 321//321 320//320 162//162
f 322//322 321//321 162//162
f 315//315 322//322 162//162
f 323//323 160//160 161//161
f 324//324 323//323 161//161
f 325//325 324//324 161//161
f 319//319 325//325 161//161
f 155//155 159//159 160//160
f 323//323 155//155 160//160
f 155//155 158//158 159//159
f 155//155 154//154 158//158
f 156//156 155//155 323//323
f 326//326 323//323 324//324
f 326//326 156//156 323//323
f 327//327 324//324 325//325
f 328//328 326//326 324//324
f 327//327 328//328 324//324
f 329//329 325//325 319//319
f 329//329 327//327 325//325
f 330//330 319//319 320//320
f 330//330 329//329 319//319
f 331//331 320//320 321//321
f 331//331 330//330 320//320
f 332//332 321//321 322//322
f 332//332 331//331 321//321
f 333//333 322//322 315//315
f 333//333 332//332 322//322
f 334//334 315//315 316//316
f 335//335 333//333 315//315
f 334//334 335//335 315//315
f 336//336 316//316 317//317
f 336//336 334//334 316//316
f 228//228 317//317 318//318
f 228//228 336//336 317//317
f 229//229 318//318 310//310
f 229//229 228//228 318//318
f 230//230 310//310 311//311
f 230//230 229//229 310//310
f 337//337 311//311 312//312
f 337//337 230//230 311//311
f 338//338 312//312 313//313
f 338//338 337//337 312//312
f 339//339 313//313 217//217
f 338//338 313//313 339//339
f 211//211 217//217 314//314
f 212//212 217//217 211//211
f 216//216 339//339 217//217
f 210//210 314//314 306//306
f 209//209 314//314 210//210
f 211//211 314//314 209//209
f 210//210 306//306 303//303
f 340//340 303//303 298//298
f 210//210 303//303 340//340
f 341//341 298//298 281//281
f 340//340 298//298 341//341
f 342//342 343//343 281//281
f 344//344 281//281 343//343
f 285//285 342//342 281//281
f 341//341 281//281 344//344
f 345//345 346//346 343//343
f 347//347 343//343 346//346
f 342//342 345//345 343//343
f 344//344 343//343 347//347
f 348//348 349//349 346//346
f 350//350 346//346 349//349
f 345//345 348//348 346//346
f 351//351 347//347 346//346
f 350//350 351//351 346//346
f 352//352 353//353 349//349
f 354//354 349//349 353//353
f 348//348 352//352 349//349
f 354//354 350//350 349//349
f 355//355 356//356 353//353
f 357//357 353//353 356//356
f 352//352 355//355 353//353
f 357//357 354//354 353//353
f 355//355 358//358 356//356
f 359//359 356//356 358//358
f 359//359 357//357 356//356
f 360//360 358//358 355//355
f 360//360 359//359 358//358
f 361//361 355//355 352//352
f 361//361 360//360 355//355
f 362//362 352//352 348//348
f 362//362 361//361 352//352
f 363//363 348//348 345//345
f 363//363 362//362 348//348
f 364//364 345//345 342//342
f 364//364 363//363 345//345
f 286//286 342//342 285//285
f 286//286 364//364 342//342
f 365//365 347//347 351//351
f 366//366 347//347 365//365
f 344//344 347//347 366//366
f 367//367 351//351 350//350
f 365//365 351//351 367//367
f 367//367 350//350 354//354
f 368//368 354//354 357//357
f 367//367 354//354 368//368
f 368//368 357//357 359//359
f 369//369 359//359 360//360
f 368//368 359//359 369//369
f 369//369 360//360 361//361
f 370//370 361//361 362//362
f 369//369 361//361 370//370
f 370//370 362//362 363//363
f 371//371 363//363 364//364
f 370//370 363//363 371//371
f 371//371 364//364 286//286
f 284//284 289//289 286//286
f 371//371 286//286 289//289
f 371//371 289//289 290//290
f 371//371 290//290 291//291
f 372//372 291//291 288//288
f 371//371 291//291 372//372
f 373//373 288//288 293//293
f 372//372 288//288 373//373
f 374//374 373//373 293//293
f 296//296 374//374 293//293
f 375//375 372//372 373//373
f 376//376 375//375 373//373
f 374//374 376//376 373//373
f 377//377 371//371 372//372
f 375//375 377//377 372//372
f 378//378 370//370 371//371
f 377//377 378//378 371//371
f 379//379 369//369 370//370
f 378//378 379//379 370//370
f 380//380 368//368 369//369
f 379//379 380//380 369//369
f 381//381 367//367 368//368
f 380//380 381//381 368//368
f 382//382 365//365 367//367
f 381//381 382//382 367//367
f 383//383 366//366 365//365
f 382//382 383//383 365//365
f 384//384 385//385 366//366
f 344//344 366//366 385//385
f 383//383 384//384 366//366
f 386//386 387//387 385//385
f 344//344 385//385 387//387
f 384//384 386//386 385//385
f 388//388 389//389 387//387
f 341//341 387//387 389//389
f 386//386 388//388 387//387
f 341//341 344//344 387//387
f 390//390 391//391 389//389
f 341//341 389//389 391//391
f 388//388 390//390 389//389
f 392//392 393//393 391//391
f 340//340 391//391 393//393
f 390//390 392//392 391//391
f 340//340 341//341 391//391
f 208//208 207//207 393//393
f 210//210 393//393 207//207
f 392//392 208//208 393//393
f 210//210 340//340 393//393
f 394//394 208//208 392//392
f 394//394 206//206 208//208
f 395//395 392//392 390//390
f 395//395 394//394 392//392
f 395//395 390//390 388//388
f 396//396 388//388 386//386
f 396//396 395//395 388//388
f 396//396 386//386 384//384
f 397//397 384//384 383//383
f 397//397 396//396 384//384
f 397//397 383//383 382//382
f 398//398 382//382 381//381
f 398//398 397//397 382//382
f 399//399 381//381 380//380
f 400//400 398//398 381//381
f 399//399 400//400 381//381
f 401//401 380//380 379//379
f 402//402 399//399 380//380
f 401//401 402//402 380//380
f 403//403 379//379 378//378
f 404//404 401//401 379//379
f 403//403 404//404 379//379
f 405//405 378//378 377//377
f 406//406 403//403 378//378
f 405//405 406//406 378//378
f 407//407 377//377 375//375
f 408//408 405//405 377//377
f 407//407 408//408 377//377
f 409//409 375//375 376//376
f 410//410 375//375 409//409
f 411//411 375//375 410//410
f 412//412 375//375 411//411
f 412//412 407//407 375//375
f 413//413 376//376 374//374
f 409//409 376//376 413//413
f 414//414 374//374 296//296
f 413//413 374//374 414//414
f 414//414 296//296 297//297
f 415//415 297//297 295//295
f 416//416 414//414 297//297
f 415//415 416//416 297//297
f 415//415 295//295 300//300
f 415//415 300//300 302//302
f 417//417 302//302 305//305
f 417//417 415//415 302//302
f 418//418 305//305 308//308
f 418//418 417//417 305//305
f 418//418 308//308 309//309
f 419//419 309//309 240//240
f 419//419 418//418 309//309
f 420//420 240//240 239//239
f 420//420 419//419 240//240
f 421//421 239//239 242//242
f 422//422 420//420 239//239
f 195//195 422//422 239//239
f 423//423 195//195 239//239
f 424//424 423//423 239//239
f 425//425 424//424 239//239
f 421//421 425//425 239//239
f 426//426 242//242 241//241
f 427//427 421//421 242//242
f 428//428 427//427 242//242
f 429//429 428//428 242//242
f 426//426 429//429 242//242
f 430//430 241//241 243//243
f 431//431 241//241 430//430
f 432//432 426//426 241//241
f 433//433 432//432 241//241
f 434//434 433//433 241//241
f 431//431 434//434 241//241
f 430//430 243//243 244//244
f 430//430 244//244 245//245
f 430//430 245//245 246//246
f 435//435 436//436 246//246
f 430//430 246//246 436//436
f 437//437 435//435 246//246
f 247//247 437//437 246//246
f 438//438 436//436 435//435
f 430//430 436//436 438//438
f 439//439 440//440 435//435
f 438//438 435//435 440//440
f 441//441 439//439 435//435
f 437//437 441//441 435//435
f 442//442 443//443 440//440
f 444//444 440//440 443//443
f 445//445 442//442 440//440
f 439//439 445//445 440//440
f 446//446 438//438 440//440
f 444//444 446//446 440//440
f 447//447 448//448 443//443
f 449//449 443//443 448//448
f 450//450 447//447 443//443
f 442//442 450//450 443//443
f 451//451 444//444 443//443
f 449//449 451//451 443//443
f 452//452 453//453 448//448
f 454//454 448//448 453//453
f 455//455 452//452 448//448
f 447//447 455//455 448//448
f 454//454 449//449 448//448
f 456//456 457//457 453//453
f 458//458 453//453 457//457
f 459//459 456//456 453//453
f 452//452 459//459 453//453
f 460//460 454//454 453//453
f 458//458 460//460 453//453
f 461//461 189//189 457//457
f 462//462 457//457 189//189
f 463//463 461//461 457//457
f 456//456 463//463 457//457
f 464//464 458//458 457//457
f 462//462 464//464 457//457
f 461//461 190//190 189//189
f 192//192 462//462 189//189
f 465//465 190//190 461//461
f 465//465 188//188 190//190
f 466//466 461//461 463//463
f 466//466 465//465 461//461
f 466//466 463//463 456//456
f 467//467 456//456 459//459
f 467//467 466//466 456//456
f 467//467 459//459 452//452
f 468//468 452//452 455//455
f 468//468 467//467 452//452
f 468//468 455//455 447//447
f 469//469 447//447 450//450
f 468//468 447//447 469//469
f 470//470 450//450 442//442
f 469//469 450//450 470//470
f 471//471 442//442 445//445
f 470//470 442//442 471//471
f 472//472 445//445 439//439
f 471//471 445//445 472//472
f 473//473 439//439 441//441
f 472//472 439//439 473//473
f 473//473 441//441 437//437
f 474//474 437//437 247//247
f 473//473 437//437 474//474
f 475//475 247//247 248//248
f 475//475 474//474 247//247
f 475//475 248//248 249//249
f 476//476 249//249 250//250
f 476//476 475//475 249//249
f 477//477 250//250 251//251
f 477//477 476//476 250//250
f 477//477 251//251 252//252
f 478//478 252//252 170//170
f 478//478 477//477 252//252
f 173//173 478//478 170//170
f 479//479 148//148 147//147
f 479//479 236//236 148//148
f 479//479 147//147 149//149
f 480//480 149//149 150//150
f 480//480 479//479 149//149
f 481//481 150//150 151//151
f 481//481 480//480 150//150
f 481//481 151//151 152//152
f 482//482 152//152 153//153
f 482//482 481//481 152//152
f 483//483 153//153 157//157
f 484//484 482//482 153//153
f 483//483 484//484 153//153
f 485//485 486//486 157//157
f 483//483 157//157 486//486
f 156//156 485//485 157//157
f 485//485 487//487 486//486
f 483//483 486//486 487//487
f 488//488 489//489 487//487
f 490//490 487//487 489//489
f 485//485 488//488 487//487
f 490//490 483//483 487//487
f 488//488 491//491 489//489
f 492//492 489//489 491//491
f 492//492 490//490 489//489
f 493//493 494//494 491//491
f 495//495 491//491 494//494
f 488//488 493//493 491//491
f 495//495 492//492 491//491
f 493//493 496//496 494//494
f 497//497 494//494 496//496
f 495//495 494//494 497//497
f 498//498 499//499 496//496
f 497//497 496//496 499//499
f 493//493 498//498 496//496
f 498//498 500//500 499//499
f 501//501 499//499 500//500
f 501//501 497//497 499//499
f 502//502 503//503 500//500
f 501//501 500//500 503//503
f 498//498 502//502 500//500
f 502//502 504//504 503//503
f 505//505 503//503 504//504
f 505//505 501//501 503//503
f 227//227 506//506 504//504
f 505//505 504//504 506//506
f 502//502 227//227 504//504
f 227//227 226//226 506//506
f 507//507 506//506 226//226
f 507//507 505//505 506//506
f 232//232 226//226 225//225
f 232//232 507//507 226//226
f 334//334 227//227 502//502
f 336//336 227//227 334//334
f 228//228 227//227 336//336
f 335//335 502//502 498//498
f 334//334 502//502 335//335
f 332//332 498//498 493//493
f 333//333 498//498 332//332
f 335//335 498//498 333//333
f 330//330 493//493 488//488
f 331//331 493//493 330//330
f 332//332 493//493 331//331
f 329//329 488//488 485//485
f 330//330 488//488 329//329
f 328//328 485//485 156//156
f 327//327 485//485 328//328
f 329//329 485//485 327//327
f 328//328 156//156 326//326
f 233//233 235//235 237//237
f 234//234 235//235 233//233
f 231//231 237//237 238//238
f 233//233 237//237 231//231
f 231//231 238//238 236//236
f 232//232 236//236 479//479
f 231//231 236//236 232//232
f 507//507 479//479 480//480
f 232//232 479//479 507//507
f 505//505 480//480 481//481
f 507//507 480//480 505//505
f 501//501 481//481 482//482
f 505//505 481//481 501//501
f 484//484 508//508 482//482
f 497//497 482//482 508//508
f 501//501 482//482 497//497
f 509//509 510//510 508//508
f 492//492 508//508 510//510
f 484//484 509//509 508//508
f 495//495 497//497 508//508
f 495//495 508//508 492//492
f 490//490 510//510 509//509
f 492//492 510//510 490//490
f 490//490 509//509 484//484
f 490//490 484//484 483//483
f 224//224 339//339 216//216
f 224//224 338//338 339//339
f 220//220 230//230 337//337
f 224//224 337//337 338//338
f 224//224 220//220 337//337
f 511//511 512//512 474//474
f 472//472 474//474 512//512
f 475//475 511//511 474//474
f 472//472 473//473 474//474
f 511//511 513//513 512//512
f 471//471 512//512 513//513
f 471//471 472//472 512//512
f 470//470 513//513 511//511
f 470//470 471//471 513//513
f 470//470 511//511 475//475
f 469//469 475//475 476//476
f 469//469 470//470 475//475
f 467//467 476//476 477//477
f 468//468 469//469 476//476
f 468//468 476//476 467//467
f 466//466 477//477 478//478
f 467//467 477//477 466//466
f 466//466 478//478 173//173
f 465//465 173//173 172//172
f 466//466 173//173 465//465
f 188//188 172//172 177//177
f 465//465 172//172 188//188
f 186//186 177//177 178//178
f 188//188 177//177 186//186
f 186//186 178//178 176//176
f 514//514 191//191 196//196
f 515//515 193//193 191//191
f 514//514 515//515 191//191
f 516//516 196//196 197//197
f 516//516 514//514 196//196
f 517//517 516//516 197//197
f 195//195 517//517 197//197
f 430//430 438//438 446//446
f 518//518 446//446 444//444
f 518//518 430//430 446//446
f 431//431 444//444 451//451
f 518//518 444//444 431//431
f 434//434 451//451 449//449
f 431//431 451//451 434//434
f 433//433 449//449 454//454
f 434//434 449//449 433//433
f 432//432 454//454 460//460
f 433//433 454//454 432//432
f 426//426 460//460 458//458
f 432//432 460//460 426//426
f 429//429 458//458 464//464
f 426//426 458//458 429//429
f 429//429 464//464 462//462
f 428//428 462//462 192//192
f 429//429 462//462 428//428
f 427//427 192//192 194//194
f 428//428 192//192 427//427
f 421//421 194//194 193//193
f 427//427 194//194 421//421
f 425//425 193//193 515//515
f 421//421 193//193 425//425
f 424//424 515//515 514//514
f 425//425 515//515 424//424
f 423//423 514//514 516//516
f 424//424 514//514 423//423
f 423//423 516//516 517//517
f 423//423 517//517 195//195
f 518//518 431//431 430//430
f 416//416 519//519 414//414
f 409//409 414//414 519//519
f 409//409 413//413 414//414
f 416//416 520//520 519//519
f 521//521 519//519 520//520
f 410//410 409//409 519//519
f 521//521 410//410 519//519
f 416//416 522//522 520//520
f 412//412 520//520 522//522
f 521//521 520//520 411//411
f 412//412 411//411 520//520
f 416//416 523//523 522//522
f 407//407 522//522 523//523
f 412//412 522//522 407//407
f 524//524 525//525 523//523
f 408//408 523//523 525//525
f 416//416 524//524 523//523
f 407//407 523//523 408//408
f 526//526 527//527 525//525
f 405//405 525//525 527//527
f 524//524 526//526 525//525
f 408//408 525//525 405//405
f 528//528 529//529 527//527
f 406//406 527//527 529//529
f 526//526 528//528 527//527
f 405//405 527//527 406//406
f 530//530 531//531 529//529
f 403//403 529//529 531//531
f 528//528 530//530 529//529
f 406//406 529//529 403//403
f 404//404 531//531 530//530
f 403//403 531//531 404//404
f 401//401 530//530 528//528
f 404//404 530//530 401//401
f 402//402 528//528 526//526
f 401//401 528//528 402//402
f 399//399 526//526 524//524
f 402//402 526//526 399//399
f 400//400 524//524 416//416
f 399//399 524//524 400//400
f 397//397 416//416 415//415
f 398//398 416//416 397//397
f 400//400 416//416 398//398
f 396//396 415//415 417//417
f 397//397 415//415 396//396
f 395//395 417//417 418//418
f 396//396 417//417 395//395
f 395//395 418//418 419//419
f 394//394 419//419 420//420
f 395//395 419//419 394//394
f 206//206 420//420 422//422
f 394//394 420//420 206//206
f 203//203 422//422 195//195
f 206//206 422//422 203//203
f 203//203 195//195 198//198
f 521//521 411//411 410//410
# 1058 faces, 0 coords texture

# End of File
